%TF.GenerationSoftware,KiCad,Pcbnew,8.0.8*%
%TF.CreationDate,2025-05-27T14:26:27+07:00*%
%TF.ProjectId,WLC_TX15W_C1_V1.1,574c435f-5458-4313-9557-5f43315f5631,rev?*%
%TF.SameCoordinates,Original*%
%TF.FileFunction,Soldermask,Top*%
%TF.FilePolarity,Negative*%
%FSLAX46Y46*%
G04 Gerber Fmt 4.6, Leading zero omitted, Abs format (unit mm)*
G04 Created by KiCad (PCBNEW 8.0.8) date 2025-05-27 14:26:27*
%MOMM*%
%LPD*%
G01*
G04 APERTURE LIST*
G04 Aperture macros list*
%AMRoundRect*
0 Rectangle with rounded corners*
0 $1 Rounding radius*
0 $2 $3 $4 $5 $6 $7 $8 $9 X,Y pos of 4 corners*
0 Add a 4 corners polygon primitive as box body*
4,1,4,$2,$3,$4,$5,$6,$7,$8,$9,$2,$3,0*
0 Add four circle primitives for the rounded corners*
1,1,$1+$1,$2,$3*
1,1,$1+$1,$4,$5*
1,1,$1+$1,$6,$7*
1,1,$1+$1,$8,$9*
0 Add four rect primitives between the rounded corners*
20,1,$1+$1,$2,$3,$4,$5,0*
20,1,$1+$1,$4,$5,$6,$7,0*
20,1,$1+$1,$6,$7,$8,$9,0*
20,1,$1+$1,$8,$9,$2,$3,0*%
%AMFreePoly0*
4,1,37,1.915180,1.368803,1.915215,1.368788,1.962648,1.327266,1.968788,1.315215,1.968803,1.315180,1.977050,1.275000,1.977050,0.575000,1.968803,0.534820,1.968788,0.534785,1.927266,0.487352,1.915215,0.481212,1.915180,0.481197,1.875000,0.472950,0.677050,0.472950,0.677050,-0.425000,0.668803,-0.465180,0.668788,-0.465215,0.627266,-0.512648,0.615215,-0.518788,0.615180,-0.518803,
0.575000,-0.527050,-0.425000,-0.527050,-0.465180,-0.518803,-0.465215,-0.518788,-0.512648,-0.477266,-0.518788,-0.465215,-0.518803,-0.465180,-0.527050,-0.425000,-0.527050,1.275000,-0.518803,1.315180,-0.518788,1.315215,-0.477266,1.362648,-0.465215,1.368788,-0.465180,1.368803,-0.425000,1.377050,1.875000,1.377050,1.915180,1.368803,1.915180,1.368803,$1*%
%AMFreePoly1*
4,1,37,0.465180,1.368803,0.465215,1.368788,0.512648,1.327266,0.518788,1.315215,0.518803,1.315180,0.527050,1.275000,0.527050,-0.425000,0.518803,-0.465180,0.518788,-0.465215,0.477266,-0.512648,0.465215,-0.518788,0.465180,-0.518803,0.425000,-0.527050,-0.575000,-0.527050,-0.615180,-0.518803,-0.615215,-0.518788,-0.662648,-0.477266,-0.668788,-0.465215,-0.668803,-0.465180,-0.677050,-0.425000,
-0.677050,0.472950,-1.875000,0.472950,-1.915180,0.481197,-1.915215,0.481212,-1.962648,0.522734,-1.968788,0.534785,-1.968803,0.534820,-1.977050,0.575000,-1.977050,1.275000,-1.968803,1.315180,-1.968788,1.315215,-1.927266,1.362648,-1.915215,1.368788,-1.915180,1.368803,-1.875000,1.377050,0.425000,1.377050,0.465180,1.368803,0.465180,1.368803,$1*%
%AMFreePoly2*
4,1,37,0.465180,0.518803,0.465215,0.518788,0.512648,0.477266,0.518788,0.465215,0.518803,0.465180,0.527050,0.425000,0.527050,-1.275000,0.518803,-1.315180,0.518788,-1.315215,0.477266,-1.362648,0.465215,-1.368788,0.465180,-1.368803,0.425000,-1.377050,-1.875000,-1.377050,-1.915180,-1.368803,-1.915215,-1.368788,-1.962648,-1.327266,-1.968788,-1.315215,-1.968803,-1.315180,-1.977050,-1.275000,
-1.977050,-0.575000,-1.968803,-0.534820,-1.968788,-0.534785,-1.927266,-0.487352,-1.915215,-0.481212,-1.915180,-0.481197,-1.875000,-0.472950,-0.677050,-0.472950,-0.677050,0.425000,-0.668803,0.465180,-0.668788,0.465215,-0.627266,0.512648,-0.615215,0.518788,-0.615180,0.518803,-0.575000,0.527050,0.425000,0.527050,0.465180,0.518803,0.465180,0.518803,$1*%
%AMFreePoly3*
4,1,37,0.615180,0.518803,0.615215,0.518788,0.662648,0.477266,0.668788,0.465215,0.668803,0.465180,0.677050,0.425000,0.677050,-0.472950,1.875000,-0.472950,1.915180,-0.481197,1.915215,-0.481212,1.962648,-0.522734,1.968788,-0.534785,1.968803,-0.534820,1.977050,-0.575000,1.977050,-1.275000,1.968803,-1.315180,1.968788,-1.315215,1.927266,-1.362648,1.915215,-1.368788,1.915180,-1.368803,
1.875000,-1.377050,-0.425000,-1.377050,-0.465180,-1.368803,-0.465215,-1.368788,-0.512648,-1.327266,-0.518788,-1.315215,-0.518803,-1.315180,-0.527050,-1.275000,-0.527050,0.425000,-0.518803,0.465180,-0.518788,0.465215,-0.477266,0.512648,-0.465215,0.518788,-0.465180,0.518803,-0.425000,0.527050,0.575000,0.527050,0.615180,0.518803,0.615180,0.518803,$1*%
G04 Aperture macros list end*
%ADD10C,0.000000*%
%ADD11C,0.000100*%
%ADD12RoundRect,0.140000X0.140000X0.170000X-0.140000X0.170000X-0.140000X-0.170000X0.140000X-0.170000X0*%
%ADD13RoundRect,0.140000X-0.140000X-0.170000X0.140000X-0.170000X0.140000X0.170000X-0.140000X0.170000X0*%
%ADD14RoundRect,0.140000X0.170000X-0.140000X0.170000X0.140000X-0.170000X0.140000X-0.170000X-0.140000X0*%
%ADD15RoundRect,0.250000X0.250000X0.475000X-0.250000X0.475000X-0.250000X-0.475000X0.250000X-0.475000X0*%
%ADD16RoundRect,0.225000X0.225000X0.250000X-0.225000X0.250000X-0.225000X-0.250000X0.225000X-0.250000X0*%
%ADD17RoundRect,0.135000X0.135000X0.185000X-0.135000X0.185000X-0.135000X-0.185000X0.135000X-0.185000X0*%
%ADD18RoundRect,0.140000X-0.170000X0.140000X-0.170000X-0.140000X0.170000X-0.140000X0.170000X0.140000X0*%
%ADD19RoundRect,0.135000X-0.185000X0.135000X-0.185000X-0.135000X0.185000X-0.135000X0.185000X0.135000X0*%
%ADD20C,1.000000*%
%ADD21RoundRect,0.135000X0.185000X-0.135000X0.185000X0.135000X-0.185000X0.135000X-0.185000X-0.135000X0*%
%ADD22RoundRect,0.150000X-0.587500X-0.150000X0.587500X-0.150000X0.587500X0.150000X-0.587500X0.150000X0*%
%ADD23R,0.340000X0.550000*%
%ADD24R,0.340000X0.900000*%
%ADD25R,0.340000X0.750000*%
%ADD26R,1.700000X1.700000*%
%ADD27O,1.700000X1.700000*%
%ADD28RoundRect,0.200000X0.200000X0.275000X-0.200000X0.275000X-0.200000X-0.275000X0.200000X-0.275000X0*%
%ADD29RoundRect,0.200000X-0.275000X0.200000X-0.275000X-0.200000X0.275000X-0.200000X0.275000X0.200000X0*%
%ADD30RoundRect,0.218750X0.256250X-0.218750X0.256250X0.218750X-0.256250X0.218750X-0.256250X-0.218750X0*%
%ADD31RoundRect,0.225000X-0.225000X-0.250000X0.225000X-0.250000X0.225000X0.250000X-0.225000X0.250000X0*%
%ADD32RoundRect,0.225000X0.250000X-0.225000X0.250000X0.225000X-0.250000X0.225000X-0.250000X-0.225000X0*%
%ADD33RoundRect,0.125000X0.125000X0.125000X-0.125000X0.125000X-0.125000X-0.125000X0.125000X-0.125000X0*%
%ADD34RoundRect,0.125000X-0.125000X-0.125000X0.125000X-0.125000X0.125000X0.125000X-0.125000X0.125000X0*%
%ADD35R,3.000000X3.000000*%
%ADD36C,3.000000*%
%ADD37RoundRect,0.225000X-0.250000X0.225000X-0.250000X-0.225000X0.250000X-0.225000X0.250000X0.225000X0*%
%ADD38RoundRect,0.200000X-0.200000X-0.275000X0.200000X-0.275000X0.200000X0.275000X-0.200000X0.275000X0*%
%ADD39RoundRect,0.112500X0.112500X-0.187500X0.112500X0.187500X-0.112500X0.187500X-0.112500X-0.187500X0*%
%ADD40RoundRect,0.125000X0.125000X-0.125000X0.125000X0.125000X-0.125000X0.125000X-0.125000X-0.125000X0*%
%ADD41R,0.550000X0.340000*%
%ADD42R,0.900000X0.340000*%
%ADD43R,0.750000X0.340000*%
%ADD44FreePoly0,180.000000*%
%ADD45FreePoly1,180.000000*%
%ADD46FreePoly2,180.000000*%
%ADD47FreePoly3,180.000000*%
%ADD48R,1.100000X0.900000*%
%ADD49RoundRect,0.150000X-0.825000X-0.150000X0.825000X-0.150000X0.825000X0.150000X-0.825000X0.150000X0*%
%ADD50RoundRect,0.250000X0.625000X-0.312500X0.625000X0.312500X-0.625000X0.312500X-0.625000X-0.312500X0*%
%ADD51RoundRect,0.059250X-0.447750X-0.177750X0.447750X-0.177750X0.447750X0.177750X-0.447750X0.177750X0*%
%ADD52RoundRect,0.102000X-0.850000X-1.250000X0.850000X-1.250000X0.850000X1.250000X-0.850000X1.250000X0*%
%ADD53RoundRect,0.200000X0.275000X-0.200000X0.275000X0.200000X-0.275000X0.200000X-0.275000X-0.200000X0*%
%ADD54RoundRect,0.250000X-0.650000X1.000000X-0.650000X-1.000000X0.650000X-1.000000X0.650000X1.000000X0*%
%ADD55RoundRect,0.249999X-1.450001X-2.250001X1.450001X-2.250001X1.450001X2.250001X-1.450001X2.250001X0*%
%ADD56RoundRect,0.250000X0.312500X0.625000X-0.312500X0.625000X-0.312500X-0.625000X0.312500X-0.625000X0*%
%ADD57R,0.812800X0.203200*%
%ADD58R,0.203200X0.812800*%
%ADD59R,5.791200X5.791200*%
G04 APERTURE END LIST*
D10*
%TO.C,Q5*%
G36*
X140370000Y-57124750D02*
G01*
X138730000Y-57124750D01*
X138730000Y-56674750D01*
X140370000Y-56674750D01*
X140370000Y-57124750D01*
G37*
G36*
X140370000Y-59375250D02*
G01*
X138080000Y-59375250D01*
X138080000Y-57664750D01*
X140370000Y-57664750D01*
X140370000Y-59375250D01*
G37*
%TO.C,Q1*%
G36*
X140370000Y-52849750D02*
G01*
X138730000Y-52849750D01*
X138730000Y-52399750D01*
X140370000Y-52399750D01*
X140370000Y-52849750D01*
G37*
G36*
X140370000Y-55100250D02*
G01*
X138080000Y-55100250D01*
X138080000Y-53389750D01*
X140370000Y-53389750D01*
X140370000Y-55100250D01*
G37*
%TO.C,Q2*%
G36*
X148485000Y-81845000D02*
G01*
X146774500Y-81845000D01*
X146774500Y-79555000D01*
X148485000Y-79555000D01*
X148485000Y-81845000D01*
G37*
G36*
X149475000Y-81845000D02*
G01*
X149025000Y-81845000D01*
X149025000Y-80205000D01*
X149475000Y-80205000D01*
X149475000Y-81845000D01*
G37*
%TO.C,Q3*%
G36*
X148485000Y-74945000D02*
G01*
X146774500Y-74945000D01*
X146774500Y-72655000D01*
X148485000Y-72655000D01*
X148485000Y-74945000D01*
G37*
G36*
X149475000Y-74945000D02*
G01*
X149025000Y-74945000D01*
X149025000Y-73305000D01*
X149475000Y-73305000D01*
X149475000Y-74945000D01*
G37*
D11*
%TO.C,FL1*%
X122950000Y-55950000D02*
X121750000Y-55950000D01*
X121750000Y-54950000D01*
X120450000Y-54950000D01*
X120450000Y-54050000D01*
X122950000Y-54050000D01*
X122950000Y-55950000D01*
G36*
X122950000Y-55950000D02*
G01*
X121750000Y-55950000D01*
X121750000Y-54950000D01*
X120450000Y-54950000D01*
X120450000Y-54050000D01*
X122950000Y-54050000D01*
X122950000Y-55950000D01*
G37*
X122950000Y-58950000D02*
X120450000Y-58950000D01*
X120450000Y-58050000D01*
X121750000Y-58050000D01*
X121750000Y-57050000D01*
X122950000Y-57050000D01*
X122950000Y-58950000D01*
G36*
X122950000Y-58950000D02*
G01*
X120450000Y-58950000D01*
X120450000Y-58050000D01*
X121750000Y-58050000D01*
X121750000Y-57050000D01*
X122950000Y-57050000D01*
X122950000Y-58950000D01*
G37*
X126150000Y-54950000D02*
X124850000Y-54950000D01*
X124850000Y-55950000D01*
X123650000Y-55950000D01*
X123650000Y-54050000D01*
X126150000Y-54050000D01*
X126150000Y-54950000D01*
G36*
X126150000Y-54950000D02*
G01*
X124850000Y-54950000D01*
X124850000Y-55950000D01*
X123650000Y-55950000D01*
X123650000Y-54050000D01*
X126150000Y-54050000D01*
X126150000Y-54950000D01*
G37*
X124850000Y-58050000D02*
X126150000Y-58050000D01*
X126150000Y-58950000D01*
X123650000Y-58950000D01*
X123650000Y-57050000D01*
X124850000Y-57050000D01*
X124850000Y-58050000D01*
G36*
X124850000Y-58050000D02*
G01*
X126150000Y-58050000D01*
X126150000Y-58950000D01*
X123650000Y-58950000D01*
X123650000Y-57050000D01*
X124850000Y-57050000D01*
X124850000Y-58050000D01*
G37*
D10*
%TO.C,Q6*%
G36*
X152785000Y-81845000D02*
G01*
X151074500Y-81845000D01*
X151074500Y-79555000D01*
X152785000Y-79555000D01*
X152785000Y-81845000D01*
G37*
G36*
X153775000Y-81845000D02*
G01*
X153325000Y-81845000D01*
X153325000Y-80205000D01*
X153775000Y-80205000D01*
X153775000Y-81845000D01*
G37*
%TO.C,Q7*%
G36*
X152785000Y-74945000D02*
G01*
X151074500Y-74945000D01*
X151074500Y-72655000D01*
X152785000Y-72655000D01*
X152785000Y-74945000D01*
G37*
G36*
X153775000Y-74945000D02*
G01*
X153325000Y-74945000D01*
X153325000Y-73305000D01*
X153775000Y-73305000D01*
X153775000Y-74945000D01*
G37*
%TD*%
D12*
%TO.C,C58*%
X157955000Y-61050000D03*
X156995000Y-61050000D03*
%TD*%
D13*
%TO.C,C60*%
X144995000Y-77675000D03*
X145955000Y-77675000D03*
%TD*%
D14*
%TO.C,C59*%
X129525000Y-58655000D03*
X129525000Y-57695000D03*
%TD*%
D15*
%TO.C,C19*%
X153375000Y-85300000D03*
X151475000Y-85300000D03*
%TD*%
%TO.C,C18*%
X153375000Y-90850000D03*
X151475000Y-90850000D03*
%TD*%
%TO.C,C17*%
X153375000Y-87150000D03*
X151475000Y-87150000D03*
%TD*%
%TO.C,C16*%
X153375000Y-89000000D03*
X151475000Y-89000000D03*
%TD*%
%TO.C,C20*%
X153375000Y-83450000D03*
X151475000Y-83450000D03*
%TD*%
D16*
%TO.C,C57*%
X158175000Y-59800000D03*
X156625000Y-59800000D03*
%TD*%
D13*
%TO.C,C52*%
X137880000Y-78500000D03*
X136920000Y-78500000D03*
%TD*%
D17*
%TO.C,R10*%
X128160000Y-91150000D03*
X127140000Y-91150000D03*
%TD*%
D18*
%TO.C,C27*%
X119300000Y-65670000D03*
X119300000Y-66630000D03*
%TD*%
D14*
%TO.C,C51*%
X134900000Y-72580000D03*
X134900000Y-71620000D03*
%TD*%
D18*
%TO.C,C50*%
X134900000Y-73520000D03*
X134900000Y-74480000D03*
%TD*%
D19*
%TO.C,R21*%
X111200000Y-72490000D03*
X111200000Y-73510000D03*
%TD*%
D14*
%TO.C,C35*%
X113400000Y-71680000D03*
X113400000Y-70720000D03*
%TD*%
%TO.C,C48*%
X130300000Y-73780000D03*
X130300000Y-72820000D03*
%TD*%
%TO.C,C47*%
X131300000Y-73780000D03*
X131300000Y-72820000D03*
%TD*%
D20*
%TO.C,TP2*%
X142200000Y-73000000D03*
%TD*%
%TO.C,TP1*%
X140300000Y-63400000D03*
%TD*%
D18*
%TO.C,C45*%
X131000000Y-67820000D03*
X131000000Y-68780000D03*
%TD*%
D21*
%TO.C,R35*%
X114300000Y-56110000D03*
X114300000Y-55090000D03*
%TD*%
D22*
%TO.C,Q9*%
X115862500Y-56250000D03*
X115862500Y-58150000D03*
X117737500Y-57200000D03*
%TD*%
D18*
%TO.C,C38*%
X118300000Y-67620000D03*
X118300000Y-68580000D03*
%TD*%
D14*
%TO.C,C34*%
X117000000Y-74180000D03*
X117000000Y-73220000D03*
%TD*%
D12*
%TO.C,C7*%
X128130000Y-90200000D03*
X127170000Y-90200000D03*
%TD*%
D19*
%TO.C,R2*%
X132400000Y-83290000D03*
X132400000Y-84310000D03*
%TD*%
%TO.C,R1*%
X130700000Y-83290000D03*
X130700000Y-84310000D03*
%TD*%
D13*
%TO.C,C29*%
X122520000Y-76675000D03*
X123480000Y-76675000D03*
%TD*%
D23*
%TO.C,Q5*%
X140200000Y-56449750D03*
X139550000Y-56449750D03*
X138900000Y-56449750D03*
D24*
X138250000Y-56674750D03*
D25*
X138250000Y-59700000D03*
X138900000Y-59700000D03*
X139550000Y-59700000D03*
X140200000Y-59700250D03*
%TD*%
D26*
%TO.C,TH2*%
X157100000Y-85725000D03*
D27*
X157100000Y-88265000D03*
%TD*%
D28*
%TO.C,R22*%
X138225000Y-73500000D03*
X136575000Y-73500000D03*
%TD*%
D23*
%TO.C,Q1*%
X140200000Y-52174750D03*
X139550000Y-52174750D03*
X138900000Y-52174750D03*
D24*
X138250000Y-52399750D03*
D25*
X138250000Y-55425000D03*
X138900000Y-55425000D03*
X139550000Y-55425000D03*
X140200000Y-55425250D03*
%TD*%
D29*
%TO.C,R32*%
X147000000Y-87775000D03*
X147000000Y-89425000D03*
%TD*%
D30*
%TO.C,D2*%
X131000000Y-87087500D03*
X131000000Y-85512500D03*
%TD*%
D31*
%TO.C,C23*%
X149875000Y-83400000D03*
X148325000Y-83400000D03*
%TD*%
D32*
%TO.C,C53*%
X136650000Y-81575000D03*
X136650000Y-80025000D03*
%TD*%
D28*
%TO.C,R23*%
X138200000Y-71925000D03*
X136550000Y-71925000D03*
%TD*%
%TO.C,R11*%
X126025000Y-90600000D03*
X124375000Y-90600000D03*
%TD*%
D33*
%TO.C,D9*%
X120450000Y-64250000D03*
X118250000Y-64250000D03*
%TD*%
D34*
%TO.C,D13*%
X137200000Y-89100000D03*
X139400000Y-89100000D03*
%TD*%
D18*
%TO.C,C6*%
X119800000Y-85220000D03*
X119800000Y-86180000D03*
%TD*%
D35*
%TO.C,L2*%
X159000000Y-80000000D03*
D36*
X159000000Y-74920000D03*
%TD*%
D13*
%TO.C,C40*%
X121720000Y-63700000D03*
X122680000Y-63700000D03*
%TD*%
D22*
%TO.C,Q4*%
X136362500Y-83250000D03*
X136362500Y-85150000D03*
X138237500Y-84200000D03*
%TD*%
D26*
%TO.C,J1*%
X111200000Y-86275000D03*
D27*
X111200000Y-83735000D03*
X111200000Y-81195000D03*
X111200000Y-78655000D03*
X111200000Y-76115000D03*
%TD*%
D32*
%TO.C,C37*%
X116800000Y-71875000D03*
X116800000Y-70325000D03*
%TD*%
D31*
%TO.C,C26*%
X135525000Y-66200000D03*
X137075000Y-66200000D03*
%TD*%
D29*
%TO.C,R9*%
X128650000Y-87075000D03*
X128650000Y-88725000D03*
%TD*%
%TO.C,R3*%
X141800000Y-85475000D03*
X141800000Y-87125000D03*
%TD*%
D18*
%TO.C,R17*%
X113600000Y-74820000D03*
X113600000Y-75780000D03*
%TD*%
D16*
%TO.C,C21*%
X149575000Y-77900000D03*
X148025000Y-77900000D03*
%TD*%
D28*
%TO.C,TH1*%
X141825000Y-82300000D03*
X140175000Y-82300000D03*
%TD*%
D31*
%TO.C,C36*%
X113025000Y-73400000D03*
X114575000Y-73400000D03*
%TD*%
D32*
%TO.C,C33*%
X118375000Y-74700000D03*
X118375000Y-73150000D03*
%TD*%
D34*
%TO.C,D11*%
X139600000Y-80200000D03*
X141800000Y-80200000D03*
%TD*%
D32*
%TO.C,C31*%
X117700000Y-78375000D03*
X117700000Y-76825000D03*
%TD*%
D37*
%TO.C,C39*%
X117100000Y-66725000D03*
X117100000Y-68275000D03*
%TD*%
D29*
%TO.C,R25*%
X140700000Y-68975000D03*
X140700000Y-70625000D03*
%TD*%
D38*
%TO.C,R5*%
X117275000Y-87400000D03*
X118925000Y-87400000D03*
%TD*%
D32*
%TO.C,C24*%
X152000000Y-76325000D03*
X152000000Y-77875000D03*
%TD*%
D19*
%TO.C,R8*%
X118800000Y-85190000D03*
X118800000Y-86210000D03*
%TD*%
D39*
%TO.C,D3*%
X115500000Y-87050000D03*
X115500000Y-84950000D03*
%TD*%
D13*
%TO.C,C44*%
X125120000Y-63100000D03*
X126080000Y-63100000D03*
%TD*%
D14*
%TO.C,R14*%
X134100000Y-77920000D03*
X134100000Y-78880000D03*
%TD*%
D40*
%TO.C,D7*%
X135800000Y-64800000D03*
X135800000Y-62600000D03*
%TD*%
D41*
%TO.C,Q2*%
X149700000Y-81675000D03*
X149700000Y-81025000D03*
X149700000Y-80375000D03*
D42*
X149475000Y-79725000D03*
D43*
X146449750Y-79725000D03*
X146449750Y-80375000D03*
X146449750Y-81025000D03*
X146449500Y-81675000D03*
%TD*%
D41*
%TO.C,Q3*%
X149700000Y-74775000D03*
X149700000Y-74125000D03*
X149700000Y-73475000D03*
D42*
X149475000Y-72825000D03*
D43*
X146449750Y-72825000D03*
X146449750Y-73475000D03*
X146449750Y-74125000D03*
X146449500Y-74775000D03*
%TD*%
D38*
%TO.C,R20*%
X151575000Y-63500000D03*
X153225000Y-63500000D03*
%TD*%
D32*
%TO.C,C2*%
X140200000Y-87075000D03*
X140200000Y-85525000D03*
%TD*%
D31*
%TO.C,C41*%
X121425000Y-62500000D03*
X122975000Y-62500000D03*
%TD*%
D28*
%TO.C,R24*%
X136575000Y-75500000D03*
X138225000Y-75500000D03*
%TD*%
D37*
%TO.C,C10*%
X128700000Y-55025000D03*
X128700000Y-56575000D03*
%TD*%
D44*
%TO.C,FL1*%
X122425000Y-57575000D03*
D45*
X124175000Y-57575000D03*
D46*
X124175000Y-55425000D03*
D47*
X122425000Y-55425000D03*
%TD*%
D48*
%TO.C,Y2*%
X129850000Y-62050000D03*
X128150000Y-62050000D03*
X128150000Y-63350000D03*
X129850000Y-63350000D03*
%TD*%
D31*
%TO.C,C3*%
X117325000Y-89000000D03*
X118875000Y-89000000D03*
%TD*%
D32*
%TO.C,C4*%
X124150000Y-83225000D03*
X124150000Y-81675000D03*
%TD*%
D40*
%TO.C,D10*%
X115500000Y-66600000D03*
X115500000Y-68800000D03*
%TD*%
D35*
%TO.C,J2*%
X109500000Y-62360000D03*
D36*
X109500000Y-67440000D03*
%TD*%
D40*
%TO.C,D5*%
X119400000Y-83900000D03*
X119400000Y-81700000D03*
%TD*%
D28*
%TO.C,R27*%
X136575000Y-77000000D03*
X138225000Y-77000000D03*
%TD*%
D32*
%TO.C,C32*%
X119100000Y-78375000D03*
X119100000Y-76825000D03*
%TD*%
D34*
%TO.C,D6*%
X136725000Y-69925000D03*
X138925000Y-69925000D03*
%TD*%
D37*
%TO.C,C14*%
X156500000Y-55225000D03*
X156500000Y-56775000D03*
%TD*%
D41*
%TO.C,Q6*%
X154000000Y-81675000D03*
X154000000Y-81025000D03*
X154000000Y-80375000D03*
D42*
X153775000Y-79725000D03*
D43*
X150749750Y-79725000D03*
X150749750Y-80375000D03*
X150749750Y-81025000D03*
X150749500Y-81675000D03*
%TD*%
D12*
%TO.C,C8*%
X121980000Y-90400000D03*
X121020000Y-90400000D03*
%TD*%
D16*
%TO.C,C56*%
X133175000Y-65100000D03*
X131625000Y-65100000D03*
%TD*%
D14*
%TO.C,R15*%
X128000000Y-78880000D03*
X128000000Y-77920000D03*
%TD*%
D37*
%TO.C,C12*%
X130300000Y-55025000D03*
X130300000Y-56575000D03*
%TD*%
D38*
%TO.C,R19*%
X151575000Y-65000000D03*
X153225000Y-65000000D03*
%TD*%
D49*
%TO.C,U2*%
X121625000Y-85095000D03*
X121625000Y-86365000D03*
X121625000Y-87635000D03*
X121625000Y-88905000D03*
X126575000Y-88905000D03*
X126575000Y-87635000D03*
X126575000Y-86365000D03*
X126575000Y-85095000D03*
%TD*%
D28*
%TO.C,R7*%
X122725000Y-83500000D03*
X121075000Y-83500000D03*
%TD*%
D31*
%TO.C,C5*%
X121125000Y-82000000D03*
X122675000Y-82000000D03*
%TD*%
D37*
%TO.C,C9*%
X119500000Y-55725000D03*
X119500000Y-57275000D03*
%TD*%
D22*
%TO.C,Q8*%
X131862500Y-61650000D03*
X131862500Y-63550000D03*
X133737500Y-62600000D03*
%TD*%
D16*
%TO.C,C25*%
X149875000Y-84900000D03*
X148325000Y-84900000D03*
%TD*%
D14*
%TO.C,R16*%
X113600000Y-77605000D03*
X113600000Y-76645000D03*
%TD*%
D50*
%TO.C,R13*%
X155500000Y-65562500D03*
X155500000Y-62637500D03*
%TD*%
D37*
%TO.C,C13*%
X136500000Y-55225000D03*
X136500000Y-56775000D03*
%TD*%
D51*
%TO.C,U3*%
X129250000Y-77900000D03*
X129250000Y-78400000D03*
X129250000Y-78900000D03*
X129250000Y-79400000D03*
X129250000Y-79900000D03*
X132150000Y-79900000D03*
X132150000Y-79400000D03*
X132150000Y-78900000D03*
X132150000Y-78400000D03*
X132150000Y-77900000D03*
D52*
X130700000Y-78900000D03*
%TD*%
D53*
%TO.C,R30*%
X144000000Y-89425000D03*
X144000000Y-87775000D03*
%TD*%
D30*
%TO.C,D1*%
X132600000Y-87087500D03*
X132600000Y-85512500D03*
%TD*%
D13*
%TO.C,C28*%
X131420000Y-76600000D03*
X132380000Y-76600000D03*
%TD*%
D31*
%TO.C,C43*%
X124425000Y-61900000D03*
X125975000Y-61900000D03*
%TD*%
D32*
%TO.C,C49*%
X133600000Y-73875000D03*
X133600000Y-72325000D03*
%TD*%
D13*
%TO.C,C55*%
X129220000Y-64600000D03*
X130180000Y-64600000D03*
%TD*%
D54*
%TO.C,D8*%
X111900000Y-54100000D03*
X111900000Y-58100000D03*
%TD*%
D28*
%TO.C,R33*%
X138225000Y-86800000D03*
X136575000Y-86800000D03*
%TD*%
D16*
%TO.C,C22*%
X149575000Y-76400000D03*
X148025000Y-76400000D03*
%TD*%
D34*
%TO.C,D12*%
X140500000Y-89100000D03*
X142700000Y-89100000D03*
%TD*%
D29*
%TO.C,R28*%
X138200000Y-79975000D03*
X138200000Y-81625000D03*
%TD*%
D31*
%TO.C,C54*%
X148525000Y-89400000D03*
X150075000Y-89400000D03*
%TD*%
D40*
%TO.C,D4*%
X117400000Y-83900000D03*
X117400000Y-81700000D03*
%TD*%
D28*
%TO.C,R4*%
X141825000Y-83900000D03*
X140175000Y-83900000D03*
%TD*%
D37*
%TO.C,C11*%
X127100000Y-55025000D03*
X127100000Y-56575000D03*
%TD*%
D53*
%TO.C,R31*%
X145500000Y-89425000D03*
X145500000Y-87775000D03*
%TD*%
%TO.C,R18*%
X114600000Y-71925000D03*
X114600000Y-70275000D03*
%TD*%
D38*
%TO.C,R6*%
X121075000Y-80400000D03*
X122725000Y-80400000D03*
%TD*%
D37*
%TO.C,C46*%
X132200000Y-68575000D03*
X132200000Y-67025000D03*
%TD*%
D38*
%TO.C,R29*%
X148475000Y-87800000D03*
X150125000Y-87800000D03*
%TD*%
D31*
%TO.C,C30*%
X123775000Y-77900000D03*
X122225000Y-77900000D03*
%TD*%
D18*
%TO.C,C42*%
X124200000Y-63120000D03*
X124200000Y-64080000D03*
%TD*%
D14*
%TO.C,C1*%
X113700000Y-86380000D03*
X113700000Y-85420000D03*
%TD*%
D55*
%TO.C,L1*%
X143250000Y-57000000D03*
X152150000Y-57000000D03*
%TD*%
D37*
%TO.C,C15*%
X154900000Y-55225000D03*
X154900000Y-56775000D03*
%TD*%
D41*
%TO.C,Q7*%
X154000000Y-74775000D03*
X154000000Y-74125000D03*
X154000000Y-73475000D03*
D42*
X153775000Y-72825000D03*
D43*
X150749750Y-72825000D03*
X150749750Y-73475000D03*
X150749750Y-74125000D03*
X150749500Y-74775000D03*
%TD*%
D56*
%TO.C,R12*%
X134862500Y-56900000D03*
X131937500Y-56900000D03*
%TD*%
D29*
%TO.C,R26*%
X140675000Y-72000000D03*
X140675000Y-73650000D03*
%TD*%
D57*
%TO.C,U4*%
X120377200Y-67725001D03*
X120377200Y-68125001D03*
X120377200Y-68525000D03*
X120377200Y-68924999D03*
X120377200Y-69325001D03*
X120377200Y-69725000D03*
X120377200Y-70124999D03*
X120377200Y-70525001D03*
X120377200Y-70925000D03*
X120377200Y-71324999D03*
X120377200Y-71725001D03*
X120377200Y-72125000D03*
X120377200Y-72524999D03*
X120377200Y-72924999D03*
X120377200Y-73325000D03*
X120377200Y-73724999D03*
X120377200Y-74124999D03*
D58*
X121076101Y-74823900D03*
X121476101Y-74823900D03*
X121876100Y-74823900D03*
X122276101Y-74823900D03*
X122676101Y-74823900D03*
X123076100Y-74823900D03*
X123476099Y-74823900D03*
X123876101Y-74823900D03*
X124276100Y-74823900D03*
X124676099Y-74823900D03*
X125076101Y-74823900D03*
X125476100Y-74823900D03*
X125876099Y-74823900D03*
X126276099Y-74823900D03*
X126676100Y-74823900D03*
X127076099Y-74823900D03*
X127476099Y-74823900D03*
D57*
X128175000Y-74124999D03*
X128175000Y-73724999D03*
X128175000Y-73325000D03*
X128175000Y-72924999D03*
X128175000Y-72524999D03*
X128175000Y-72125000D03*
X128175000Y-71725001D03*
X128175000Y-71324999D03*
X128175000Y-70925000D03*
X128175000Y-70525001D03*
X128175000Y-70124999D03*
X128175000Y-69725000D03*
X128175000Y-69325001D03*
X128175000Y-68925001D03*
X128175000Y-68525000D03*
X128175000Y-68125001D03*
X128175000Y-67725001D03*
D58*
X127476099Y-67026100D03*
X127076099Y-67026100D03*
X126676100Y-67026100D03*
X126276099Y-67026100D03*
X125876099Y-67026100D03*
X125476100Y-67026100D03*
X125076101Y-67026100D03*
X124676099Y-67026100D03*
X124276100Y-67026100D03*
X123876101Y-67026100D03*
X123476099Y-67026100D03*
X123076100Y-67026100D03*
X122676101Y-67026100D03*
X122276101Y-67026100D03*
X121876100Y-67026100D03*
X121476101Y-67026100D03*
X121076101Y-67026100D03*
D59*
X124276100Y-70925000D03*
%TD*%
M02*
