%TF.GenerationSoftware,KiCad,Pcbnew,8.0.8*%
%TF.CreationDate,2025-05-28T16:15:01+07:00*%
%TF.ProjectId,WLC_TX15W_C1_V1.1,574c435f-5458-4313-9557-5f43315f5631,rev?*%
%TF.SameCoordinates,Original*%
%TF.FileFunction,Legend,Top*%
%TF.FilePolarity,Positive*%
%FSLAX46Y46*%
G04 Gerber Fmt 4.6, Leading zero omitted, Abs format (unit mm)*
G04 Created by KiCad (PCBNEW 8.0.8) date 2025-05-28 16:15:01*
%MOMM*%
%LPD*%
G01*
G04 APERTURE LIST*
%ADD10C,0.100000*%
%ADD11C,0.150000*%
%ADD12C,0.120000*%
%ADD13C,0.200000*%
%ADD14C,0.250000*%
%ADD15C,0.152400*%
%ADD16C,0.000000*%
%ADD17C,0.127000*%
G04 APERTURE END LIST*
D10*
X106268169Y-76405160D02*
X106382455Y-76443255D01*
X106382455Y-76443255D02*
X106572931Y-76443255D01*
X106572931Y-76443255D02*
X106649122Y-76405160D01*
X106649122Y-76405160D02*
X106687217Y-76367064D01*
X106687217Y-76367064D02*
X106725312Y-76290874D01*
X106725312Y-76290874D02*
X106725312Y-76214683D01*
X106725312Y-76214683D02*
X106687217Y-76138493D01*
X106687217Y-76138493D02*
X106649122Y-76100398D01*
X106649122Y-76100398D02*
X106572931Y-76062302D01*
X106572931Y-76062302D02*
X106420550Y-76024207D01*
X106420550Y-76024207D02*
X106344360Y-75986112D01*
X106344360Y-75986112D02*
X106306265Y-75948017D01*
X106306265Y-75948017D02*
X106268169Y-75871826D01*
X106268169Y-75871826D02*
X106268169Y-75795636D01*
X106268169Y-75795636D02*
X106306265Y-75719445D01*
X106306265Y-75719445D02*
X106344360Y-75681350D01*
X106344360Y-75681350D02*
X106420550Y-75643255D01*
X106420550Y-75643255D02*
X106611027Y-75643255D01*
X106611027Y-75643255D02*
X106725312Y-75681350D01*
X107068170Y-76443255D02*
X107068170Y-75643255D01*
X107068170Y-75643255D02*
X107258646Y-75643255D01*
X107258646Y-75643255D02*
X107372932Y-75681350D01*
X107372932Y-75681350D02*
X107449122Y-75757540D01*
X107449122Y-75757540D02*
X107487217Y-75833731D01*
X107487217Y-75833731D02*
X107525313Y-75986112D01*
X107525313Y-75986112D02*
X107525313Y-76100398D01*
X107525313Y-76100398D02*
X107487217Y-76252779D01*
X107487217Y-76252779D02*
X107449122Y-76328969D01*
X107449122Y-76328969D02*
X107372932Y-76405160D01*
X107372932Y-76405160D02*
X107258646Y-76443255D01*
X107258646Y-76443255D02*
X107068170Y-76443255D01*
X107830074Y-76214683D02*
X108211027Y-76214683D01*
X107753884Y-76443255D02*
X108020551Y-75643255D01*
X108020551Y-75643255D02*
X108287217Y-76443255D01*
X106268169Y-78981070D02*
X106382455Y-79019165D01*
X106382455Y-79019165D02*
X106572931Y-79019165D01*
X106572931Y-79019165D02*
X106649122Y-78981070D01*
X106649122Y-78981070D02*
X106687217Y-78942974D01*
X106687217Y-78942974D02*
X106725312Y-78866784D01*
X106725312Y-78866784D02*
X106725312Y-78790593D01*
X106725312Y-78790593D02*
X106687217Y-78714403D01*
X106687217Y-78714403D02*
X106649122Y-78676308D01*
X106649122Y-78676308D02*
X106572931Y-78638212D01*
X106572931Y-78638212D02*
X106420550Y-78600117D01*
X106420550Y-78600117D02*
X106344360Y-78562022D01*
X106344360Y-78562022D02*
X106306265Y-78523927D01*
X106306265Y-78523927D02*
X106268169Y-78447736D01*
X106268169Y-78447736D02*
X106268169Y-78371546D01*
X106268169Y-78371546D02*
X106306265Y-78295355D01*
X106306265Y-78295355D02*
X106344360Y-78257260D01*
X106344360Y-78257260D02*
X106420550Y-78219165D01*
X106420550Y-78219165D02*
X106611027Y-78219165D01*
X106611027Y-78219165D02*
X106725312Y-78257260D01*
X107525313Y-78942974D02*
X107487217Y-78981070D01*
X107487217Y-78981070D02*
X107372932Y-79019165D01*
X107372932Y-79019165D02*
X107296741Y-79019165D01*
X107296741Y-79019165D02*
X107182455Y-78981070D01*
X107182455Y-78981070D02*
X107106265Y-78904879D01*
X107106265Y-78904879D02*
X107068170Y-78828689D01*
X107068170Y-78828689D02*
X107030074Y-78676308D01*
X107030074Y-78676308D02*
X107030074Y-78562022D01*
X107030074Y-78562022D02*
X107068170Y-78409641D01*
X107068170Y-78409641D02*
X107106265Y-78333450D01*
X107106265Y-78333450D02*
X107182455Y-78257260D01*
X107182455Y-78257260D02*
X107296741Y-78219165D01*
X107296741Y-78219165D02*
X107372932Y-78219165D01*
X107372932Y-78219165D02*
X107487217Y-78257260D01*
X107487217Y-78257260D02*
X107525313Y-78295355D01*
X108249122Y-79019165D02*
X107868170Y-79019165D01*
X107868170Y-79019165D02*
X107868170Y-78219165D01*
X106763408Y-81595075D02*
X106496741Y-81214122D01*
X106306265Y-81595075D02*
X106306265Y-80795075D01*
X106306265Y-80795075D02*
X106611027Y-80795075D01*
X106611027Y-80795075D02*
X106687217Y-80833170D01*
X106687217Y-80833170D02*
X106725312Y-80871265D01*
X106725312Y-80871265D02*
X106763408Y-80947456D01*
X106763408Y-80947456D02*
X106763408Y-81061741D01*
X106763408Y-81061741D02*
X106725312Y-81137932D01*
X106725312Y-81137932D02*
X106687217Y-81176027D01*
X106687217Y-81176027D02*
X106611027Y-81214122D01*
X106611027Y-81214122D02*
X106306265Y-81214122D01*
X107106265Y-81176027D02*
X107372931Y-81176027D01*
X107487217Y-81595075D02*
X107106265Y-81595075D01*
X107106265Y-81595075D02*
X107106265Y-80795075D01*
X107106265Y-80795075D02*
X107487217Y-80795075D01*
X107791979Y-81556980D02*
X107906265Y-81595075D01*
X107906265Y-81595075D02*
X108096741Y-81595075D01*
X108096741Y-81595075D02*
X108172932Y-81556980D01*
X108172932Y-81556980D02*
X108211027Y-81518884D01*
X108211027Y-81518884D02*
X108249122Y-81442694D01*
X108249122Y-81442694D02*
X108249122Y-81366503D01*
X108249122Y-81366503D02*
X108211027Y-81290313D01*
X108211027Y-81290313D02*
X108172932Y-81252218D01*
X108172932Y-81252218D02*
X108096741Y-81214122D01*
X108096741Y-81214122D02*
X107944360Y-81176027D01*
X107944360Y-81176027D02*
X107868170Y-81137932D01*
X107868170Y-81137932D02*
X107830075Y-81099837D01*
X107830075Y-81099837D02*
X107791979Y-81023646D01*
X107791979Y-81023646D02*
X107791979Y-80947456D01*
X107791979Y-80947456D02*
X107830075Y-80871265D01*
X107830075Y-80871265D02*
X107868170Y-80833170D01*
X107868170Y-80833170D02*
X107944360Y-80795075D01*
X107944360Y-80795075D02*
X108134837Y-80795075D01*
X108134837Y-80795075D02*
X108249122Y-80833170D01*
X106725312Y-83409080D02*
X106649122Y-83370985D01*
X106649122Y-83370985D02*
X106534836Y-83370985D01*
X106534836Y-83370985D02*
X106420550Y-83409080D01*
X106420550Y-83409080D02*
X106344360Y-83485270D01*
X106344360Y-83485270D02*
X106306265Y-83561461D01*
X106306265Y-83561461D02*
X106268169Y-83713842D01*
X106268169Y-83713842D02*
X106268169Y-83828128D01*
X106268169Y-83828128D02*
X106306265Y-83980509D01*
X106306265Y-83980509D02*
X106344360Y-84056699D01*
X106344360Y-84056699D02*
X106420550Y-84132890D01*
X106420550Y-84132890D02*
X106534836Y-84170985D01*
X106534836Y-84170985D02*
X106611027Y-84170985D01*
X106611027Y-84170985D02*
X106725312Y-84132890D01*
X106725312Y-84132890D02*
X106763408Y-84094794D01*
X106763408Y-84094794D02*
X106763408Y-83828128D01*
X106763408Y-83828128D02*
X106611027Y-83828128D01*
X107106265Y-84170985D02*
X107106265Y-83370985D01*
X107106265Y-83370985D02*
X107563408Y-84170985D01*
X107563408Y-84170985D02*
X107563408Y-83370985D01*
X107944360Y-84170985D02*
X107944360Y-83370985D01*
X107944360Y-83370985D02*
X108134836Y-83370985D01*
X108134836Y-83370985D02*
X108249122Y-83409080D01*
X108249122Y-83409080D02*
X108325312Y-83485270D01*
X108325312Y-83485270D02*
X108363407Y-83561461D01*
X108363407Y-83561461D02*
X108401503Y-83713842D01*
X108401503Y-83713842D02*
X108401503Y-83828128D01*
X108401503Y-83828128D02*
X108363407Y-83980509D01*
X108363407Y-83980509D02*
X108325312Y-84056699D01*
X108325312Y-84056699D02*
X108249122Y-84132890D01*
X108249122Y-84132890D02*
X108134836Y-84170985D01*
X108134836Y-84170985D02*
X107944360Y-84170985D01*
X106191979Y-85946895D02*
X106458646Y-86746895D01*
X106458646Y-86746895D02*
X106725312Y-85946895D01*
X106877693Y-85946895D02*
X107334836Y-85946895D01*
X107106264Y-86746895D02*
X107106264Y-85946895D01*
X107563407Y-86518323D02*
X107944360Y-86518323D01*
X107487217Y-86746895D02*
X107753884Y-85946895D01*
X107753884Y-85946895D02*
X108020550Y-86746895D01*
X108744360Y-86746895D02*
X108477693Y-86365942D01*
X108287217Y-86746895D02*
X108287217Y-85946895D01*
X108287217Y-85946895D02*
X108591979Y-85946895D01*
X108591979Y-85946895D02*
X108668169Y-85984990D01*
X108668169Y-85984990D02*
X108706264Y-86023085D01*
X108706264Y-86023085D02*
X108744360Y-86099276D01*
X108744360Y-86099276D02*
X108744360Y-86213561D01*
X108744360Y-86213561D02*
X108706264Y-86289752D01*
X108706264Y-86289752D02*
X108668169Y-86327847D01*
X108668169Y-86327847D02*
X108591979Y-86365942D01*
X108591979Y-86365942D02*
X108287217Y-86365942D01*
X109506264Y-85984990D02*
X109430074Y-85946895D01*
X109430074Y-85946895D02*
X109315788Y-85946895D01*
X109315788Y-85946895D02*
X109201502Y-85984990D01*
X109201502Y-85984990D02*
X109125312Y-86061180D01*
X109125312Y-86061180D02*
X109087217Y-86137371D01*
X109087217Y-86137371D02*
X109049121Y-86289752D01*
X109049121Y-86289752D02*
X109049121Y-86404038D01*
X109049121Y-86404038D02*
X109087217Y-86556419D01*
X109087217Y-86556419D02*
X109125312Y-86632609D01*
X109125312Y-86632609D02*
X109201502Y-86708800D01*
X109201502Y-86708800D02*
X109315788Y-86746895D01*
X109315788Y-86746895D02*
X109391979Y-86746895D01*
X109391979Y-86746895D02*
X109506264Y-86708800D01*
X109506264Y-86708800D02*
X109544360Y-86670704D01*
X109544360Y-86670704D02*
X109544360Y-86404038D01*
X109544360Y-86404038D02*
X109391979Y-86404038D01*
D11*
X155941667Y-76454819D02*
X155941667Y-75454819D01*
X155941667Y-75454819D02*
X156275000Y-76169104D01*
X156275000Y-76169104D02*
X156608333Y-75454819D01*
X156608333Y-75454819D02*
X156608333Y-76454819D01*
X157084524Y-76454819D02*
X157084524Y-75454819D01*
X157084524Y-75454819D02*
X157465476Y-75454819D01*
X157465476Y-75454819D02*
X157560714Y-75502438D01*
X157560714Y-75502438D02*
X157608333Y-75550057D01*
X157608333Y-75550057D02*
X157655952Y-75645295D01*
X157655952Y-75645295D02*
X157655952Y-75788152D01*
X157655952Y-75788152D02*
X157608333Y-75883390D01*
X157608333Y-75883390D02*
X157560714Y-75931009D01*
X157560714Y-75931009D02*
X157465476Y-75978628D01*
X157465476Y-75978628D02*
X157084524Y-75978628D01*
X158084524Y-76073866D02*
X158846429Y-76073866D01*
X159275000Y-76169104D02*
X159751190Y-76169104D01*
X159179762Y-76454819D02*
X159513095Y-75454819D01*
X159513095Y-75454819D02*
X159846428Y-76454819D01*
X160703571Y-76454819D02*
X160132143Y-76454819D01*
X160417857Y-76454819D02*
X160417857Y-75454819D01*
X160417857Y-75454819D02*
X160322619Y-75597676D01*
X160322619Y-75597676D02*
X160227381Y-75692914D01*
X160227381Y-75692914D02*
X160132143Y-75740533D01*
X161655952Y-76454819D02*
X161084524Y-76454819D01*
X161370238Y-76454819D02*
X161370238Y-75454819D01*
X161370238Y-75454819D02*
X161275000Y-75597676D01*
X161275000Y-75597676D02*
X161179762Y-75692914D01*
X161179762Y-75692914D02*
X161084524Y-75740533D01*
X105285715Y-57454819D02*
X105619048Y-58454819D01*
X105619048Y-58454819D02*
X105952381Y-57454819D01*
X106285715Y-58454819D02*
X106285715Y-57454819D01*
X106761905Y-58454819D02*
X106761905Y-57454819D01*
X106761905Y-57454819D02*
X107333333Y-58454819D01*
X107333333Y-58454819D02*
X107333333Y-57454819D01*
X107809524Y-58073866D02*
X108571429Y-58073866D01*
X114385715Y-60454819D02*
X114719048Y-61454819D01*
X114719048Y-61454819D02*
X115052381Y-60454819D01*
X115385715Y-61454819D02*
X115385715Y-60454819D01*
X115861905Y-61454819D02*
X115861905Y-60454819D01*
X115861905Y-60454819D02*
X116433333Y-61454819D01*
X116433333Y-61454819D02*
X116433333Y-60454819D01*
X116909524Y-61073866D02*
X117671429Y-61073866D01*
X117290476Y-61454819D02*
X117290476Y-60692914D01*
X119183400Y-67179819D02*
X119183400Y-67417914D01*
X118945305Y-67322676D02*
X119183400Y-67417914D01*
X119183400Y-67417914D02*
X119421495Y-67322676D01*
X119040543Y-67608390D02*
X119183400Y-67417914D01*
X119183400Y-67417914D02*
X119326257Y-67608390D01*
X119183400Y-67179819D02*
X119183400Y-67417914D01*
X118945305Y-67322676D02*
X119183400Y-67417914D01*
X119183400Y-67417914D02*
X119421495Y-67322676D01*
X119040543Y-67608390D02*
X119183400Y-67417914D01*
X119183400Y-67417914D02*
X119326257Y-67608390D01*
D10*
X139013095Y-65614895D02*
X139013095Y-64814895D01*
X139013095Y-64814895D02*
X139317857Y-64814895D01*
X139317857Y-64814895D02*
X139394047Y-64852990D01*
X139394047Y-64852990D02*
X139432142Y-64891085D01*
X139432142Y-64891085D02*
X139470238Y-64967276D01*
X139470238Y-64967276D02*
X139470238Y-65081561D01*
X139470238Y-65081561D02*
X139432142Y-65157752D01*
X139432142Y-65157752D02*
X139394047Y-65195847D01*
X139394047Y-65195847D02*
X139317857Y-65233942D01*
X139317857Y-65233942D02*
X139013095Y-65233942D01*
X139736904Y-64814895D02*
X140232142Y-64814895D01*
X140232142Y-64814895D02*
X139965476Y-65119657D01*
X139965476Y-65119657D02*
X140079761Y-65119657D01*
X140079761Y-65119657D02*
X140155952Y-65157752D01*
X140155952Y-65157752D02*
X140194047Y-65195847D01*
X140194047Y-65195847D02*
X140232142Y-65272038D01*
X140232142Y-65272038D02*
X140232142Y-65462514D01*
X140232142Y-65462514D02*
X140194047Y-65538704D01*
X140194047Y-65538704D02*
X140155952Y-65576800D01*
X140155952Y-65576800D02*
X140079761Y-65614895D01*
X140079761Y-65614895D02*
X139851190Y-65614895D01*
X139851190Y-65614895D02*
X139774999Y-65576800D01*
X139774999Y-65576800D02*
X139736904Y-65538704D01*
X140575000Y-65538704D02*
X140613095Y-65576800D01*
X140613095Y-65576800D02*
X140575000Y-65614895D01*
X140575000Y-65614895D02*
X140536904Y-65576800D01*
X140536904Y-65576800D02*
X140575000Y-65538704D01*
X140575000Y-65538704D02*
X140575000Y-65614895D01*
X140879761Y-64814895D02*
X141374999Y-64814895D01*
X141374999Y-64814895D02*
X141108333Y-65119657D01*
X141108333Y-65119657D02*
X141222618Y-65119657D01*
X141222618Y-65119657D02*
X141298809Y-65157752D01*
X141298809Y-65157752D02*
X141336904Y-65195847D01*
X141336904Y-65195847D02*
X141374999Y-65272038D01*
X141374999Y-65272038D02*
X141374999Y-65462514D01*
X141374999Y-65462514D02*
X141336904Y-65538704D01*
X141336904Y-65538704D02*
X141298809Y-65576800D01*
X141298809Y-65576800D02*
X141222618Y-65614895D01*
X141222618Y-65614895D02*
X140994047Y-65614895D01*
X140994047Y-65614895D02*
X140917856Y-65576800D01*
X140917856Y-65576800D02*
X140879761Y-65538704D01*
X142686323Y-73116667D02*
X142686323Y-72735714D01*
X142914895Y-73192857D02*
X142114895Y-72926190D01*
X142114895Y-72926190D02*
X142914895Y-72659524D01*
X142876800Y-72430953D02*
X142914895Y-72316667D01*
X142914895Y-72316667D02*
X142914895Y-72126191D01*
X142914895Y-72126191D02*
X142876800Y-72050000D01*
X142876800Y-72050000D02*
X142838704Y-72011905D01*
X142838704Y-72011905D02*
X142762514Y-71973810D01*
X142762514Y-71973810D02*
X142686323Y-71973810D01*
X142686323Y-71973810D02*
X142610133Y-72011905D01*
X142610133Y-72011905D02*
X142572038Y-72050000D01*
X142572038Y-72050000D02*
X142533942Y-72126191D01*
X142533942Y-72126191D02*
X142495847Y-72278572D01*
X142495847Y-72278572D02*
X142457752Y-72354762D01*
X142457752Y-72354762D02*
X142419657Y-72392857D01*
X142419657Y-72392857D02*
X142343466Y-72430953D01*
X142343466Y-72430953D02*
X142267276Y-72430953D01*
X142267276Y-72430953D02*
X142191085Y-72392857D01*
X142191085Y-72392857D02*
X142152990Y-72354762D01*
X142152990Y-72354762D02*
X142114895Y-72278572D01*
X142114895Y-72278572D02*
X142114895Y-72088095D01*
X142114895Y-72088095D02*
X142152990Y-71973810D01*
X142914895Y-71630952D02*
X142114895Y-71630952D01*
X142914895Y-71173809D02*
X142457752Y-71516667D01*
X142114895Y-71173809D02*
X142572038Y-71630952D01*
X142991085Y-71021429D02*
X142991085Y-70411905D01*
X142114895Y-70335714D02*
X142114895Y-69878571D01*
X142914895Y-70107143D02*
X142114895Y-70107143D01*
X142876800Y-69650000D02*
X142914895Y-69535714D01*
X142914895Y-69535714D02*
X142914895Y-69345238D01*
X142914895Y-69345238D02*
X142876800Y-69269047D01*
X142876800Y-69269047D02*
X142838704Y-69230952D01*
X142838704Y-69230952D02*
X142762514Y-69192857D01*
X142762514Y-69192857D02*
X142686323Y-69192857D01*
X142686323Y-69192857D02*
X142610133Y-69230952D01*
X142610133Y-69230952D02*
X142572038Y-69269047D01*
X142572038Y-69269047D02*
X142533942Y-69345238D01*
X142533942Y-69345238D02*
X142495847Y-69497619D01*
X142495847Y-69497619D02*
X142457752Y-69573809D01*
X142457752Y-69573809D02*
X142419657Y-69611904D01*
X142419657Y-69611904D02*
X142343466Y-69650000D01*
X142343466Y-69650000D02*
X142267276Y-69650000D01*
X142267276Y-69650000D02*
X142191085Y-69611904D01*
X142191085Y-69611904D02*
X142152990Y-69573809D01*
X142152990Y-69573809D02*
X142114895Y-69497619D01*
X142114895Y-69497619D02*
X142114895Y-69307142D01*
X142114895Y-69307142D02*
X142152990Y-69192857D01*
X142114895Y-68964285D02*
X142114895Y-68507142D01*
X142914895Y-68735714D02*
X142114895Y-68735714D01*
D12*
%TO.C,R3*%
X145220000Y-64103641D02*
X145220000Y-63796359D01*
X145980000Y-64103641D02*
X145980000Y-63796359D01*
%TO.C,R4*%
X145303641Y-65780000D02*
X144996359Y-65780000D01*
X145303641Y-65020000D02*
X144996359Y-65020000D01*
%TO.C,TH2*%
X162185000Y-68372936D02*
X162185000Y-68827064D01*
X160715000Y-68372936D02*
X160715000Y-68827064D01*
%TO.C,TH1*%
X160330000Y-68046359D02*
X160330000Y-68353641D01*
X159570000Y-68046359D02*
X159570000Y-68353641D01*
%TO.C,TP8*%
X107286000Y-89000000D02*
G75*
G02*
X102714000Y-89000000I-2286000J0D01*
G01*
X102714000Y-89000000D02*
G75*
G02*
X107286000Y-89000000I2286000J0D01*
G01*
%TO.C,TP7*%
X162286000Y-89000000D02*
G75*
G02*
X157714000Y-89000000I-2286000J0D01*
G01*
X157714000Y-89000000D02*
G75*
G02*
X162286000Y-89000000I2286000J0D01*
G01*
%TO.C,TP6*%
X107286000Y-53000000D02*
G75*
G02*
X102714000Y-53000000I-2286000J0D01*
G01*
X102714000Y-53000000D02*
G75*
G02*
X107286000Y-53000000I2286000J0D01*
G01*
%TO.C,TP5*%
X162286000Y-53000000D02*
G75*
G02*
X157714000Y-53000000I-2286000J0D01*
G01*
X157714000Y-53000000D02*
G75*
G02*
X162286000Y-53000000I2286000J0D01*
G01*
%TO.C,R18*%
X114520000Y-71503641D02*
X114520000Y-71196359D01*
X115280000Y-71503641D02*
X115280000Y-71196359D01*
%TO.C,R6*%
X122296359Y-80370000D02*
X122603641Y-80370000D01*
X122296359Y-81130000D02*
X122603641Y-81130000D01*
%TO.C,C32*%
X118840000Y-77707836D02*
X118840000Y-77492164D01*
X119560000Y-77707836D02*
X119560000Y-77492164D01*
%TO.C,C31*%
X117140000Y-77707836D02*
X117140000Y-77492164D01*
X117860000Y-77707836D02*
X117860000Y-77492164D01*
D13*
%TO.C,J3*%
X103755000Y-63530000D02*
X102475000Y-63530000D01*
X102475000Y-72470000D02*
X103755000Y-72470000D01*
X107725000Y-63530000D02*
X106475000Y-63530000D01*
X107725000Y-72470000D02*
X106475000Y-72470000D01*
X111175000Y-64750000D02*
G75*
G02*
X110975000Y-64750000I-100000J0D01*
G01*
X110975000Y-64750000D02*
G75*
G02*
X111175000Y-64750000I100000J0D01*
G01*
D12*
%TO.C,R22*%
X116946359Y-75795000D02*
X117253641Y-75795000D01*
X116946359Y-76555000D02*
X117253641Y-76555000D01*
%TO.C,R9*%
X119803641Y-76530000D02*
X119496359Y-76530000D01*
X119803641Y-75770000D02*
X119496359Y-75770000D01*
%TO.C,TP4*%
X108800000Y-60800000D02*
G75*
G02*
X105200000Y-60800000I-1800000J0D01*
G01*
X105200000Y-60800000D02*
G75*
G02*
X108800000Y-60800000I1800000J0D01*
G01*
%TO.C,TP3*%
X114200000Y-61700000D02*
G75*
G02*
X110600000Y-61700000I-1800000J0D01*
G01*
X110600000Y-61700000D02*
G75*
G02*
X114200000Y-61700000I1800000J0D01*
G01*
%TO.C,D11*%
X138990000Y-79200000D02*
X138990000Y-81200000D01*
X138990000Y-79200000D02*
X142850000Y-79200000D01*
X138990000Y-81200000D02*
X142850000Y-81200000D01*
%TO.C,D15*%
X139040000Y-87400000D02*
X139040000Y-88050000D01*
X139040000Y-87400000D02*
X139040000Y-86750000D01*
X142160000Y-87400000D02*
X142160000Y-88050000D01*
X142160000Y-87400000D02*
X142160000Y-86750000D01*
X139090000Y-88562500D02*
X138760000Y-88802500D01*
X138760000Y-88322500D01*
X139090000Y-88562500D01*
G36*
X139090000Y-88562500D02*
G01*
X138760000Y-88802500D01*
X138760000Y-88322500D01*
X139090000Y-88562500D01*
G37*
D13*
%TO.C,Q5*%
X137525000Y-56475000D02*
X137525000Y-59775000D01*
X137525000Y-56475000D02*
X137625000Y-56475000D01*
X137525000Y-59775000D02*
X137625000Y-59775000D01*
X140825000Y-56474750D02*
X140925000Y-56474750D01*
X140825000Y-59774750D02*
X140925000Y-59774750D01*
X140925000Y-56474750D02*
X140925000Y-59774750D01*
D14*
X140325000Y-55674250D02*
G75*
G02*
X140075000Y-55674250I-125000J0D01*
G01*
X140075000Y-55674250D02*
G75*
G02*
X140325000Y-55674250I125000J0D01*
G01*
D12*
%TO.C,C29*%
X123642164Y-77515000D02*
X123857836Y-77515000D01*
X123642164Y-78235000D02*
X123857836Y-78235000D01*
%TO.C,R2*%
X132020000Y-83646359D02*
X132020000Y-83953641D01*
X132780000Y-83646359D02*
X132780000Y-83953641D01*
D13*
%TO.C,Q1*%
X137525000Y-52200000D02*
X137525000Y-55500000D01*
X137525000Y-52200000D02*
X137625000Y-52200000D01*
X137525000Y-55500000D02*
X137625000Y-55500000D01*
X140825000Y-52199750D02*
X140925000Y-52199750D01*
X140825000Y-55499750D02*
X140925000Y-55499750D01*
X140925000Y-52199750D02*
X140925000Y-55499750D01*
D14*
X140325000Y-51399250D02*
G75*
G02*
X140075000Y-51399250I-125000J0D01*
G01*
X140075000Y-51399250D02*
G75*
G02*
X140325000Y-51399250I125000J0D01*
G01*
D15*
%TO.C,U4*%
X120148600Y-66797500D02*
X120148600Y-67290661D01*
X120148600Y-74559339D02*
X120148600Y-75052500D01*
X120148600Y-75052500D02*
X120641761Y-75052500D01*
X120641761Y-66797500D02*
X120148600Y-66797500D01*
X127910439Y-75052500D02*
X128403600Y-75052500D01*
X128403600Y-66797500D02*
X127910439Y-66797500D01*
X128403600Y-67290661D02*
X128403600Y-66797500D01*
X128403600Y-75052500D02*
X128403600Y-74559339D01*
D16*
G36*
X119716800Y-71515499D02*
G01*
X119462800Y-71515499D01*
X119462800Y-71134499D01*
X119716800Y-71134499D01*
X119716800Y-71515499D01*
G37*
G36*
X122066600Y-75738300D02*
G01*
X121685600Y-75738300D01*
X121685600Y-75484300D01*
X122066600Y-75484300D01*
X122066600Y-75738300D01*
G37*
G36*
X124466600Y-66365700D02*
G01*
X124085600Y-66365700D01*
X124085600Y-66111700D01*
X124466600Y-66111700D01*
X124466600Y-66365700D01*
G37*
G36*
X126066599Y-75738300D02*
G01*
X125685599Y-75738300D01*
X125685599Y-75484300D01*
X126066599Y-75484300D01*
X126066599Y-75738300D01*
G37*
G36*
X129089400Y-68315501D02*
G01*
X128835400Y-68315501D01*
X128835400Y-67934501D01*
X129089400Y-67934501D01*
X129089400Y-68315501D01*
G37*
G36*
X129089400Y-72315500D02*
G01*
X128835400Y-72315500D01*
X128835400Y-71934500D01*
X129089400Y-71934500D01*
X129089400Y-72315500D01*
G37*
D12*
%TO.C,R32*%
X136027500Y-84837742D02*
X136027500Y-85312258D01*
X137072500Y-84837742D02*
X137072500Y-85312258D01*
%TO.C,D2*%
X130265000Y-85500000D02*
X130265000Y-87785000D01*
X130265000Y-87785000D02*
X131735000Y-87785000D01*
X131735000Y-87785000D02*
X131735000Y-85500000D01*
%TO.C,C23*%
X149392164Y-80840000D02*
X149607836Y-80840000D01*
X149392164Y-81560000D02*
X149607836Y-81560000D01*
%TO.C,C53*%
X136140000Y-80940580D02*
X136140000Y-80659420D01*
X137160000Y-80940580D02*
X137160000Y-80659420D01*
%TO.C,C61*%
X156707836Y-68365000D02*
X156492164Y-68365000D01*
X156707836Y-69085000D02*
X156492164Y-69085000D01*
%TO.C,R23*%
X137162258Y-71402500D02*
X136687742Y-71402500D01*
X137162258Y-72447500D02*
X136687742Y-72447500D01*
%TO.C,R11*%
X125437258Y-90077500D02*
X124962742Y-90077500D01*
X125437258Y-91122500D02*
X124962742Y-91122500D01*
%TO.C,C27*%
X119632836Y-65365000D02*
X119417164Y-65365000D01*
X119632836Y-66085000D02*
X119417164Y-66085000D01*
%TO.C,R10*%
X127803641Y-90770000D02*
X127496359Y-90770000D01*
X127803641Y-91530000D02*
X127496359Y-91530000D01*
%TO.C,D9*%
X120560000Y-63450000D02*
X117900000Y-63450000D01*
X120560000Y-65150000D02*
X117900000Y-65150000D01*
X120560000Y-65150000D02*
X120560000Y-63450000D01*
%TO.C,C6*%
X119440000Y-85592164D02*
X119440000Y-85807836D01*
X120160000Y-85592164D02*
X120160000Y-85807836D01*
%TO.C,L2*%
X155590000Y-70880000D02*
X155590000Y-81040000D01*
X155590000Y-81040000D02*
X163210000Y-81040000D01*
X161940000Y-70880000D02*
X161940000Y-81040000D01*
X163210000Y-70880000D02*
X155590000Y-70880000D01*
X163210000Y-81040000D02*
X163210000Y-70880000D01*
%TO.C,C40*%
X122092164Y-63340000D02*
X122307836Y-63340000D01*
X122092164Y-64060000D02*
X122307836Y-64060000D01*
%TO.C,J1*%
X109870000Y-85230000D02*
X109870000Y-75010000D01*
X112530000Y-75010000D02*
X109870000Y-75010000D01*
X112530000Y-85230000D02*
X109870000Y-85230000D01*
X112530000Y-85230000D02*
X112530000Y-75010000D01*
X112530000Y-86500000D02*
X112530000Y-87830000D01*
X112530000Y-87830000D02*
X111200000Y-87830000D01*
%TO.C,C37*%
X116315000Y-71415580D02*
X116315000Y-71134420D01*
X117335000Y-71415580D02*
X117335000Y-71134420D01*
%TO.C,C57*%
X157540580Y-59290000D02*
X157259420Y-59290000D01*
X157540580Y-60310000D02*
X157259420Y-60310000D01*
%TO.C,R35*%
X113920000Y-55753641D02*
X113920000Y-55446359D01*
X114680000Y-55753641D02*
X114680000Y-55446359D01*
%TO.C,C26*%
X130115000Y-66332836D02*
X130115000Y-66117164D01*
X130835000Y-66332836D02*
X130835000Y-66117164D01*
%TO.C,R17*%
X113240000Y-75192164D02*
X113240000Y-75407836D01*
X113960000Y-75192164D02*
X113960000Y-75407836D01*
%TO.C,C21*%
X149315580Y-74965000D02*
X149034420Y-74965000D01*
X149315580Y-75985000D02*
X149034420Y-75985000D01*
%TO.C,C36*%
X114209420Y-72590000D02*
X114490580Y-72590000D01*
X114209420Y-73610000D02*
X114490580Y-73610000D01*
%TO.C,C33*%
X117865000Y-74065580D02*
X117865000Y-73784420D01*
X118885000Y-74065580D02*
X118885000Y-73784420D01*
%TO.C,C39*%
X117510000Y-67234420D02*
X117510000Y-67515580D01*
X116490000Y-67234420D02*
X116490000Y-67515580D01*
%TO.C,R25*%
X140302500Y-73612258D02*
X140302500Y-73137742D01*
X141347500Y-73612258D02*
X141347500Y-73137742D01*
%TO.C,C19*%
X153536252Y-82402500D02*
X152113748Y-82402500D01*
X153536252Y-84222500D02*
X152113748Y-84222500D01*
%TO.C,R5*%
X117862742Y-86877500D02*
X118337258Y-86877500D01*
X117862742Y-87922500D02*
X118337258Y-87922500D01*
%TO.C,C24*%
X152040000Y-75007836D02*
X152040000Y-74792164D01*
X152760000Y-75007836D02*
X152760000Y-74792164D01*
%TO.C,R8*%
X118420000Y-85546359D02*
X118420000Y-85853641D01*
X119180000Y-85546359D02*
X119180000Y-85853641D01*
%TO.C,D3*%
X114400000Y-87560000D02*
X114400000Y-84900000D01*
X114400000Y-87560000D02*
X116100000Y-87560000D01*
X116100000Y-87560000D02*
X116100000Y-84900000D01*
%TO.C,C44*%
X125492164Y-62740000D02*
X125707836Y-62740000D01*
X125492164Y-63460000D02*
X125707836Y-63460000D01*
%TO.C,R14*%
X133740000Y-78507836D02*
X133740000Y-78292164D01*
X134460000Y-78507836D02*
X134460000Y-78292164D01*
%TO.C,C52*%
X136415000Y-78157836D02*
X136415000Y-77942164D01*
X137135000Y-78157836D02*
X137135000Y-77942164D01*
%TO.C,C59*%
X129165000Y-58407836D02*
X129165000Y-58192164D01*
X129885000Y-58407836D02*
X129885000Y-58192164D01*
%TO.C,D7*%
X134375000Y-64790000D02*
X134375000Y-67450000D01*
X136075000Y-64790000D02*
X134375000Y-64790000D01*
X136075000Y-64790000D02*
X136075000Y-67450000D01*
D13*
%TO.C,Q2*%
X146774750Y-76550000D02*
X146774750Y-76650000D01*
X146775000Y-79850000D02*
X146775000Y-79950000D01*
X150074750Y-76550000D02*
X146774750Y-76550000D01*
X150074750Y-76550000D02*
X150074750Y-76650000D01*
X150075000Y-79850000D02*
X150075000Y-79950000D01*
X150075000Y-79950000D02*
X146775000Y-79950000D01*
D14*
X151000500Y-79225000D02*
G75*
G02*
X150750500Y-79225000I-125000J0D01*
G01*
X150750500Y-79225000D02*
G75*
G02*
X151000500Y-79225000I125000J0D01*
G01*
D13*
%TO.C,Q3*%
X146774750Y-69900000D02*
X146774750Y-70000000D01*
X146775000Y-73200000D02*
X146775000Y-73300000D01*
X150074750Y-69900000D02*
X146774750Y-69900000D01*
X150074750Y-69900000D02*
X150074750Y-70000000D01*
X150075000Y-73200000D02*
X150075000Y-73300000D01*
X150075000Y-73300000D02*
X146775000Y-73300000D01*
D14*
X151000500Y-72575000D02*
G75*
G02*
X150750500Y-72575000I-125000J0D01*
G01*
X150750500Y-72575000D02*
G75*
G02*
X151000500Y-72575000I125000J0D01*
G01*
D12*
%TO.C,R20*%
X152162742Y-62977500D02*
X152637258Y-62977500D01*
X152162742Y-64022500D02*
X152637258Y-64022500D01*
%TO.C,C2*%
X145257836Y-66040000D02*
X145042164Y-66040000D01*
X145257836Y-66760000D02*
X145042164Y-66760000D01*
%TO.C,C41*%
X122059420Y-61990000D02*
X122340580Y-61990000D01*
X122059420Y-63010000D02*
X122340580Y-63010000D01*
%TO.C,R24*%
X137162258Y-73652500D02*
X136687742Y-73652500D01*
X137162258Y-74697500D02*
X136687742Y-74697500D01*
%TO.C,C10*%
X128190000Y-55659420D02*
X128190000Y-55940580D01*
X129210000Y-55659420D02*
X129210000Y-55940580D01*
D17*
%TO.C,FL1*%
X120650000Y-55163500D02*
X120650000Y-57836500D01*
X120650000Y-59163500D02*
X125950000Y-59163500D01*
X125950000Y-53836500D02*
X120650000Y-53836500D01*
X125950000Y-57836500D02*
X125950000Y-55163500D01*
D13*
X122025000Y-59625000D02*
G75*
G02*
X121825000Y-59625000I-100000J0D01*
G01*
X121825000Y-59625000D02*
G75*
G02*
X122025000Y-59625000I100000J0D01*
G01*
D12*
%TO.C,Y2*%
X130600000Y-61400000D02*
X127400000Y-61400000D01*
X130600000Y-64000000D02*
X130600000Y-61400000D01*
%TO.C,C3*%
X117959420Y-88490000D02*
X118240580Y-88490000D01*
X117959420Y-89510000D02*
X118240580Y-89510000D01*
%TO.C,C18*%
X153536252Y-88590000D02*
X152113748Y-88590000D01*
X153536252Y-90410000D02*
X152113748Y-90410000D01*
%TO.C,C4*%
X123640000Y-82590580D02*
X123640000Y-82309420D01*
X124660000Y-82590580D02*
X124660000Y-82309420D01*
%TO.C,D10*%
X114400000Y-69310000D02*
X114400000Y-66650000D01*
X114400000Y-69310000D02*
X116100000Y-69310000D01*
X116100000Y-69310000D02*
X116100000Y-66650000D01*
%TO.C,C60*%
X149282836Y-73865000D02*
X149067164Y-73865000D01*
X149282836Y-74585000D02*
X149067164Y-74585000D01*
%TO.C,D5*%
X118550000Y-84410000D02*
X118550000Y-81750000D01*
X118550000Y-84410000D02*
X120250000Y-84410000D01*
X120250000Y-84410000D02*
X120250000Y-81750000D01*
%TO.C,C7*%
X127757836Y-89840000D02*
X127542164Y-89840000D01*
X127757836Y-90560000D02*
X127542164Y-90560000D01*
%TO.C,R27*%
X137637258Y-75477500D02*
X137162742Y-75477500D01*
X137637258Y-76522500D02*
X137162742Y-76522500D01*
%TO.C,C35*%
X113590000Y-71457836D02*
X113590000Y-71242164D01*
X114310000Y-71457836D02*
X114310000Y-71242164D01*
%TO.C,D6*%
X136215000Y-69075000D02*
X136215000Y-70775000D01*
X136215000Y-69075000D02*
X138875000Y-69075000D01*
X136215000Y-70775000D02*
X138875000Y-70775000D01*
%TO.C,C14*%
X155990000Y-55859420D02*
X155990000Y-56140580D01*
X157010000Y-55859420D02*
X157010000Y-56140580D01*
D13*
%TO.C,Q6*%
X151100000Y-76550000D02*
X151100000Y-76650000D01*
X151100250Y-79850000D02*
X151100250Y-79950000D01*
X154400000Y-76550000D02*
X151100000Y-76550000D01*
X154400000Y-76550000D02*
X154400000Y-76650000D01*
X154400250Y-79850000D02*
X154400250Y-79950000D01*
X154400250Y-79950000D02*
X151100250Y-79950000D01*
D14*
X155325750Y-79225000D02*
G75*
G02*
X155075750Y-79225000I-125000J0D01*
G01*
X155075750Y-79225000D02*
G75*
G02*
X155325750Y-79225000I125000J0D01*
G01*
D12*
%TO.C,C8*%
X121607836Y-90040000D02*
X121392164Y-90040000D01*
X121607836Y-90760000D02*
X121392164Y-90760000D01*
%TO.C,C56*%
X132640580Y-64590000D02*
X132359420Y-64590000D01*
X132640580Y-65610000D02*
X132359420Y-65610000D01*
%TO.C,R15*%
X127140000Y-78507836D02*
X127140000Y-78292164D01*
X127860000Y-78507836D02*
X127860000Y-78292164D01*
%TO.C,Q9*%
X116800000Y-55640000D02*
X116150000Y-55640000D01*
X116800000Y-55640000D02*
X117450000Y-55640000D01*
X116800000Y-58760000D02*
X116150000Y-58760000D01*
X116800000Y-58760000D02*
X117450000Y-58760000D01*
X115637500Y-55690000D02*
X115397500Y-55360000D01*
X115877500Y-55360000D01*
X115637500Y-55690000D01*
G36*
X115637500Y-55690000D02*
G01*
X115397500Y-55360000D01*
X115877500Y-55360000D01*
X115637500Y-55690000D01*
G37*
%TO.C,C12*%
X129790000Y-55659420D02*
X129790000Y-55940580D01*
X130810000Y-55659420D02*
X130810000Y-55940580D01*
%TO.C,R19*%
X152162742Y-64477500D02*
X152637258Y-64477500D01*
X152162742Y-65522500D02*
X152637258Y-65522500D01*
%TO.C,U2*%
X124100000Y-84440000D02*
X122150000Y-84440000D01*
X124100000Y-84440000D02*
X126050000Y-84440000D01*
X124100000Y-89560000D02*
X122150000Y-89560000D01*
X124100000Y-89560000D02*
X126050000Y-89560000D01*
X121400000Y-84535000D02*
X121160000Y-84205000D01*
X121640000Y-84205000D01*
X121400000Y-84535000D01*
G36*
X121400000Y-84535000D02*
G01*
X121160000Y-84205000D01*
X121640000Y-84205000D01*
X121400000Y-84535000D01*
G37*
%TO.C,R7*%
X122137258Y-82977500D02*
X121662742Y-82977500D01*
X122137258Y-84022500D02*
X121662742Y-84022500D01*
%TO.C,C5*%
X121759420Y-81490000D02*
X122040580Y-81490000D01*
X121759420Y-82510000D02*
X122040580Y-82510000D01*
%TO.C,C48*%
X129940000Y-73407836D02*
X129940000Y-73192164D01*
X130660000Y-73407836D02*
X130660000Y-73192164D01*
%TO.C,C9*%
X118990000Y-56359420D02*
X118990000Y-56640580D01*
X120010000Y-56359420D02*
X120010000Y-56640580D01*
%TO.C,C45*%
X130640000Y-68117164D02*
X130640000Y-68332836D01*
X131360000Y-68117164D02*
X131360000Y-68332836D01*
%TO.C,Q8*%
X132800000Y-61040000D02*
X132150000Y-61040000D01*
X132800000Y-61040000D02*
X133450000Y-61040000D01*
X132800000Y-64160000D02*
X132150000Y-64160000D01*
X132800000Y-64160000D02*
X133450000Y-64160000D01*
X131637500Y-61090000D02*
X131397500Y-60760000D01*
X131877500Y-60760000D01*
X131637500Y-61090000D01*
G36*
X131637500Y-61090000D02*
G01*
X131397500Y-60760000D01*
X131877500Y-60760000D01*
X131637500Y-61090000D01*
G37*
%TO.C,C25*%
X137042164Y-68090000D02*
X137257836Y-68090000D01*
X137042164Y-68810000D02*
X137257836Y-68810000D01*
%TO.C,R16*%
X113240000Y-77407836D02*
X113240000Y-77192164D01*
X113960000Y-77407836D02*
X113960000Y-77192164D01*
%TO.C,R13*%
X154590000Y-64827064D02*
X154590000Y-63372936D01*
X156410000Y-64827064D02*
X156410000Y-63372936D01*
%TO.C,C13*%
X135990000Y-55859420D02*
X135990000Y-56140580D01*
X137010000Y-55859420D02*
X137010000Y-56140580D01*
D17*
%TO.C,U3*%
X129200000Y-77330000D02*
X132200000Y-77330000D01*
X129200000Y-80470000D02*
X132200000Y-80470000D01*
D13*
X128340000Y-77900000D02*
G75*
G02*
X128140000Y-77900000I-100000J0D01*
G01*
X128140000Y-77900000D02*
G75*
G02*
X128340000Y-77900000I100000J0D01*
G01*
D12*
%TO.C,R1*%
X130320000Y-83646359D02*
X130320000Y-83953641D01*
X131080000Y-83646359D02*
X131080000Y-83953641D01*
%TO.C,C47*%
X130940000Y-73407836D02*
X130940000Y-73192164D01*
X131660000Y-73407836D02*
X131660000Y-73192164D01*
%TO.C,R30*%
X145737258Y-87697500D02*
X145262742Y-87697500D01*
X145737258Y-86652500D02*
X145262742Y-86652500D01*
%TO.C,C58*%
X157582836Y-60690000D02*
X157367164Y-60690000D01*
X157582836Y-61410000D02*
X157367164Y-61410000D01*
%TO.C,D1*%
X131865000Y-85500000D02*
X131865000Y-87785000D01*
X131865000Y-87785000D02*
X133335000Y-87785000D01*
X133335000Y-87785000D02*
X133335000Y-85500000D01*
%TO.C,C28*%
X131792164Y-76240000D02*
X132007836Y-76240000D01*
X131792164Y-76960000D02*
X132007836Y-76960000D01*
%TO.C,C43*%
X125059420Y-61390000D02*
X125340580Y-61390000D01*
X125059420Y-62410000D02*
X125340580Y-62410000D01*
%TO.C,C49*%
X133090000Y-73240580D02*
X133090000Y-72959420D01*
X134110000Y-73240580D02*
X134110000Y-72959420D01*
%TO.C,C55*%
X129592164Y-64240000D02*
X129807836Y-64240000D01*
X129592164Y-64960000D02*
X129807836Y-64960000D01*
%TO.C,TP1*%
X140875000Y-63700000D02*
G75*
G02*
X139475000Y-63700000I-700000J0D01*
G01*
X139475000Y-63700000D02*
G75*
G02*
X140875000Y-63700000I700000J0D01*
G01*
%TO.C,D8*%
X110250000Y-52590000D02*
X110250000Y-58100000D01*
X113550000Y-52590000D02*
X110250000Y-52590000D01*
X113550000Y-52590000D02*
X113550000Y-58100000D01*
%TO.C,C50*%
X134540000Y-73892164D02*
X134540000Y-74107836D01*
X135260000Y-73892164D02*
X135260000Y-74107836D01*
%TO.C,C22*%
X156640580Y-66965000D02*
X156359420Y-66965000D01*
X156640580Y-67985000D02*
X156359420Y-67985000D01*
%TO.C,R28*%
X137677500Y-80562742D02*
X137677500Y-81037258D01*
X138722500Y-80562742D02*
X138722500Y-81037258D01*
%TO.C,C20*%
X153536252Y-80340000D02*
X152113748Y-80340000D01*
X153536252Y-82160000D02*
X152113748Y-82160000D01*
%TO.C,C54*%
X148384420Y-86665000D02*
X148665580Y-86665000D01*
X148384420Y-87685000D02*
X148665580Y-87685000D01*
%TO.C,D4*%
X116550000Y-81190000D02*
X116550000Y-83850000D01*
X118250000Y-81190000D02*
X116550000Y-81190000D01*
X118250000Y-81190000D02*
X118250000Y-83850000D01*
%TO.C,C34*%
X116640000Y-73807836D02*
X116640000Y-73592164D01*
X117360000Y-73807836D02*
X117360000Y-73592164D01*
%TO.C,C11*%
X126590000Y-55659420D02*
X126590000Y-55940580D01*
X127610000Y-55659420D02*
X127610000Y-55940580D01*
%TO.C,R31*%
X137577500Y-85312258D02*
X137577500Y-84837742D01*
X138622500Y-85312258D02*
X138622500Y-84837742D01*
%TO.C,C46*%
X131690000Y-67659420D02*
X131690000Y-67940580D01*
X132710000Y-67659420D02*
X132710000Y-67940580D01*
%TO.C,R29*%
X148262742Y-85077500D02*
X148737258Y-85077500D01*
X148262742Y-86122500D02*
X148737258Y-86122500D01*
%TO.C,R21*%
X113270000Y-69046359D02*
X113270000Y-69353641D01*
X114030000Y-69046359D02*
X114030000Y-69353641D01*
%TO.C,C30*%
X123109420Y-78640000D02*
X123390580Y-78640000D01*
X123109420Y-79660000D02*
X123390580Y-79660000D01*
%TO.C,C17*%
X153536252Y-84465000D02*
X152113748Y-84465000D01*
X153536252Y-86285000D02*
X152113748Y-86285000D01*
%TO.C,C42*%
X123840000Y-63492164D02*
X123840000Y-63707836D01*
X124560000Y-63492164D02*
X124560000Y-63707836D01*
%TO.C,C51*%
X134540000Y-72207836D02*
X134540000Y-71992164D01*
X135260000Y-72207836D02*
X135260000Y-71992164D01*
%TO.C,C1*%
X113265000Y-85882836D02*
X113265000Y-85667164D01*
X113985000Y-85882836D02*
X113985000Y-85667164D01*
%TO.C,C16*%
X153536252Y-86527500D02*
X152113748Y-86527500D01*
X153536252Y-88347500D02*
X152113748Y-88347500D01*
%TO.C,C38*%
X117940000Y-67992164D02*
X117940000Y-68207836D01*
X118660000Y-67992164D02*
X118660000Y-68207836D01*
%TO.C,TP2*%
X141700000Y-70850000D02*
G75*
G02*
X140300000Y-70850000I-700000J0D01*
G01*
X140300000Y-70850000D02*
G75*
G02*
X141700000Y-70850000I700000J0D01*
G01*
%TO.C,L1*%
X141940000Y-51740000D02*
X141940000Y-54240000D01*
X141940000Y-51740000D02*
X153460000Y-51740000D01*
X141940000Y-62260000D02*
X141940000Y-59760000D01*
X141940000Y-62260000D02*
X153460000Y-62260000D01*
X153460000Y-51740000D02*
X153460000Y-54240000D01*
X153460000Y-62260000D02*
X153460000Y-59760000D01*
%TO.C,C15*%
X154390000Y-55859420D02*
X154390000Y-56140580D01*
X155410000Y-55859420D02*
X155410000Y-56140580D01*
D13*
%TO.C,Q7*%
X151100000Y-69900000D02*
X151100000Y-70000000D01*
X151100250Y-73200000D02*
X151100250Y-73300000D01*
X154400000Y-69900000D02*
X151100000Y-69900000D01*
X154400000Y-69900000D02*
X154400000Y-70000000D01*
X154400250Y-73200000D02*
X154400250Y-73300000D01*
X154400250Y-73300000D02*
X151100250Y-73300000D01*
D14*
X155325750Y-72575000D02*
G75*
G02*
X155075750Y-72575000I-125000J0D01*
G01*
X155075750Y-72575000D02*
G75*
G02*
X155325750Y-72575000I125000J0D01*
G01*
D12*
%TO.C,R12*%
X134127064Y-55990000D02*
X132672936Y-55990000D01*
X134127064Y-57810000D02*
X132672936Y-57810000D01*
%TO.C,R26*%
X138677500Y-73137742D02*
X138677500Y-73612258D01*
X139722500Y-73137742D02*
X139722500Y-73612258D01*
%TD*%
M02*
