G04 #@! TF.GenerationSoftware,KiCad,Pcbnew,8.0.8*
G04 #@! TF.CreationDate,2025-05-29T14:11:01+07:00*
G04 #@! TF.ProjectId,WLC_TX15W_C1_V1.1,574c435f-5458-4313-9557-5f43315f5631,rev?*
G04 #@! TF.SameCoordinates,Original*
G04 #@! TF.FileFunction,Paste,Top*
G04 #@! TF.FilePolarity,Positive*
%FSLAX46Y46*%
G04 Gerber Fmt 4.6, Leading zero omitted, Abs format (unit mm)*
G04 Created by KiCad (PCBNEW 8.0.8) date 2025-05-29 14:11:01*
%MOMM*%
%LPD*%
G01*
G04 APERTURE LIST*
G04 Aperture macros list*
%AMRoundRect*
0 Rectangle with rounded corners*
0 $1 Rounding radius*
0 $2 $3 $4 $5 $6 $7 $8 $9 X,Y pos of 4 corners*
0 Add a 4 corners polygon primitive as box body*
4,1,4,$2,$3,$4,$5,$6,$7,$8,$9,$2,$3,0*
0 Add four circle primitives for the rounded corners*
1,1,$1+$1,$2,$3*
1,1,$1+$1,$4,$5*
1,1,$1+$1,$6,$7*
1,1,$1+$1,$8,$9*
0 Add four rect primitives between the rounded corners*
20,1,$1+$1,$2,$3,$4,$5,0*
20,1,$1+$1,$4,$5,$6,$7,0*
20,1,$1+$1,$6,$7,$8,$9,0*
20,1,$1+$1,$8,$9,$2,$3,0*%
%AMFreePoly0*
4,1,17,1.875035,1.275035,1.875050,1.275000,1.875050,0.575000,1.875035,0.574965,1.875000,0.574950,0.575050,0.574950,0.575050,-0.425000,0.575035,-0.425035,0.575000,-0.425050,-0.425000,-0.425050,-0.425035,-0.425035,-0.425050,-0.425000,-0.425050,1.275000,-0.425035,1.275035,-0.425000,1.275050,1.875000,1.275050,1.875035,1.275035,1.875035,1.275035,$1*%
%AMFreePoly1*
4,1,17,0.425035,1.275035,0.425050,1.275000,0.425050,-0.425000,0.425035,-0.425035,0.425000,-0.425050,-0.575000,-0.425050,-0.575035,-0.425035,-0.575050,-0.425000,-0.575050,0.574950,-1.875000,0.574950,-1.875035,0.574965,-1.875050,0.575000,-1.875050,1.275000,-1.875035,1.275035,-1.875000,1.275050,0.425000,1.275050,0.425035,1.275035,0.425035,1.275035,$1*%
%AMFreePoly2*
4,1,17,0.425035,0.425035,0.425050,0.425000,0.425050,-1.275000,0.425035,-1.275035,0.425000,-1.275050,-1.875000,-1.275050,-1.875035,-1.275035,-1.875050,-1.275000,-1.875050,-0.575000,-1.875035,-0.574965,-1.875000,-0.574950,-0.575050,-0.574950,-0.575050,0.425000,-0.575035,0.425035,-0.575000,0.425050,0.425000,0.425050,0.425035,0.425035,0.425035,0.425035,$1*%
%AMFreePoly3*
4,1,17,0.575035,0.425035,0.575050,0.425000,0.575050,-0.574950,1.875000,-0.574950,1.875035,-0.574965,1.875050,-0.575000,1.875050,-1.275000,1.875035,-1.275035,1.875000,-1.275050,-0.425000,-1.275050,-0.425035,-1.275035,-0.425050,-1.275000,-0.425050,0.425000,-0.425035,0.425035,-0.425000,0.425050,0.575000,0.425050,0.575035,0.425035,0.575035,0.425035,$1*%
G04 Aperture macros list end*
%ADD10C,0.000000*%
%ADD11C,0.000100*%
%ADD12C,0.010000*%
%ADD13RoundRect,0.225000X0.250000X-0.225000X0.250000X0.225000X-0.250000X0.225000X-0.250000X-0.225000X0*%
%ADD14RoundRect,0.225000X-0.225000X-0.250000X0.225000X-0.250000X0.225000X0.250000X-0.225000X0.250000X0*%
%ADD15RoundRect,0.225000X-0.250000X0.225000X-0.250000X-0.225000X0.250000X-0.225000X0.250000X0.225000X0*%
%ADD16RoundRect,0.225000X0.225000X0.250000X-0.225000X0.250000X-0.225000X-0.250000X0.225000X-0.250000X0*%
%ADD17RoundRect,0.140000X-0.140000X-0.170000X0.140000X-0.170000X0.140000X0.170000X-0.140000X0.170000X0*%
%ADD18RoundRect,0.250000X-0.450000X0.262500X-0.450000X-0.262500X0.450000X-0.262500X0.450000X0.262500X0*%
%ADD19RoundRect,0.135000X-0.185000X0.135000X-0.185000X-0.135000X0.185000X-0.135000X0.185000X0.135000X0*%
%ADD20R,0.812800X0.203200*%
%ADD21R,0.203200X0.812800*%
%ADD22R,5.791200X5.791200*%
%ADD23RoundRect,0.200000X-0.275000X0.200000X-0.275000X-0.200000X0.275000X-0.200000X0.275000X0.200000X0*%
%ADD24RoundRect,0.218750X0.256250X-0.218750X0.256250X0.218750X-0.256250X0.218750X-0.256250X-0.218750X0*%
%ADD25RoundRect,0.140000X0.140000X0.170000X-0.140000X0.170000X-0.140000X-0.170000X0.140000X-0.170000X0*%
%ADD26RoundRect,0.135000X0.135000X0.185000X-0.135000X0.185000X-0.135000X-0.185000X0.135000X-0.185000X0*%
%ADD27RoundRect,0.200000X0.200000X0.275000X-0.200000X0.275000X-0.200000X-0.275000X0.200000X-0.275000X0*%
%ADD28RoundRect,0.125000X0.125000X0.125000X-0.125000X0.125000X-0.125000X-0.125000X0.125000X-0.125000X0*%
%ADD29RoundRect,0.140000X-0.170000X0.140000X-0.170000X-0.140000X0.170000X-0.140000X0.170000X0.140000X0*%
%ADD30RoundRect,0.135000X0.185000X-0.135000X0.185000X0.135000X-0.185000X0.135000X-0.185000X-0.135000X0*%
%ADD31RoundRect,0.140000X0.170000X-0.140000X0.170000X0.140000X-0.170000X0.140000X-0.170000X-0.140000X0*%
%ADD32R,1.150000X0.600000*%
%ADD33R,1.150000X0.300000*%
%ADD34RoundRect,0.135000X-0.135000X-0.185000X0.135000X-0.185000X0.135000X0.185000X-0.135000X0.185000X0*%
%ADD35RoundRect,0.250000X-0.300000X-0.300000X0.300000X-0.300000X0.300000X0.300000X-0.300000X0.300000X0*%
%ADD36RoundRect,0.200000X0.275000X-0.200000X0.275000X0.200000X-0.275000X0.200000X-0.275000X-0.200000X0*%
%ADD37RoundRect,0.250000X0.325000X0.650000X-0.325000X0.650000X-0.325000X-0.650000X0.325000X-0.650000X0*%
%ADD38RoundRect,0.112500X0.112500X-0.187500X0.112500X0.187500X-0.112500X0.187500X-0.112500X-0.187500X0*%
%ADD39RoundRect,0.125000X-0.125000X0.125000X-0.125000X-0.125000X0.125000X-0.125000X0.125000X0.125000X0*%
%ADD40FreePoly0,180.000000*%
%ADD41FreePoly1,180.000000*%
%ADD42FreePoly2,180.000000*%
%ADD43FreePoly3,180.000000*%
%ADD44R,1.100000X0.900000*%
%ADD45RoundRect,0.150000X-0.150000X0.587500X-0.150000X-0.587500X0.150000X-0.587500X0.150000X0.587500X0*%
%ADD46RoundRect,0.125000X0.125000X-0.125000X0.125000X0.125000X-0.125000X0.125000X-0.125000X-0.125000X0*%
%ADD47RoundRect,0.125000X-0.125000X-0.125000X0.125000X-0.125000X0.125000X0.125000X-0.125000X0.125000X0*%
%ADD48RoundRect,0.150000X-0.587500X-0.150000X0.587500X-0.150000X0.587500X0.150000X-0.587500X0.150000X0*%
%ADD49RoundRect,0.150000X-0.825000X-0.150000X0.825000X-0.150000X0.825000X0.150000X-0.825000X0.150000X0*%
%ADD50RoundRect,0.250000X0.625000X-0.312500X0.625000X0.312500X-0.625000X0.312500X-0.625000X-0.312500X0*%
%ADD51RoundRect,0.033750X-0.371250X-0.101250X0.371250X-0.101250X0.371250X0.101250X-0.371250X0.101250X0*%
%ADD52RoundRect,0.250000X-0.650000X1.000000X-0.650000X-1.000000X0.650000X-1.000000X0.650000X1.000000X0*%
%ADD53R,2.600000X8.200000*%
%ADD54RoundRect,0.250000X0.312500X0.625000X-0.312500X0.625000X-0.312500X-0.625000X0.312500X-0.625000X0*%
G04 APERTURE END LIST*
D10*
G04 #@! TO.C,Q5*
G36*
X138320420Y-56275740D02*
G01*
X138330520Y-56278450D01*
X138340000Y-56282870D01*
X138348570Y-56288870D01*
X138355970Y-56296270D01*
X138361960Y-56304830D01*
X138366380Y-56314310D01*
X138369090Y-56324410D01*
X138370000Y-56334830D01*
X138370000Y-56914830D01*
X138369090Y-56925250D01*
X138366380Y-56935350D01*
X138361960Y-56944830D01*
X138355970Y-56953400D01*
X138348570Y-56960800D01*
X138340000Y-56966790D01*
X138330520Y-56971210D01*
X138320420Y-56973920D01*
X138310000Y-56974830D01*
X138190000Y-56974830D01*
X138179580Y-56973920D01*
X138169480Y-56971210D01*
X138160000Y-56966790D01*
X138151440Y-56960800D01*
X138144040Y-56953400D01*
X138138040Y-56944830D01*
X138133620Y-56935350D01*
X138130910Y-56925250D01*
X138130000Y-56914830D01*
X138130000Y-56334830D01*
X138130910Y-56324410D01*
X138133620Y-56314310D01*
X138138040Y-56304830D01*
X138144040Y-56296270D01*
X138151440Y-56288870D01*
X138160000Y-56282870D01*
X138169480Y-56278450D01*
X138179580Y-56275740D01*
X138190000Y-56274830D01*
X138310000Y-56274830D01*
X138320420Y-56275740D01*
G37*
G36*
X138320420Y-59375670D02*
G01*
X138330520Y-59378380D01*
X138340000Y-59382800D01*
X138348570Y-59388790D01*
X138355970Y-59396190D01*
X138361960Y-59404760D01*
X138366380Y-59414240D01*
X138369090Y-59424340D01*
X138370000Y-59434760D01*
X138370000Y-59914760D01*
X138369090Y-59925170D01*
X138366380Y-59935280D01*
X138361960Y-59944760D01*
X138355970Y-59953320D01*
X138348570Y-59960720D01*
X138340000Y-59966720D01*
X138330520Y-59971140D01*
X138320420Y-59973840D01*
X138310000Y-59974760D01*
X138190000Y-59974760D01*
X138179580Y-59973840D01*
X138169480Y-59971140D01*
X138160000Y-59966720D01*
X138151440Y-59960720D01*
X138144040Y-59953320D01*
X138138040Y-59944760D01*
X138133620Y-59935280D01*
X138130910Y-59925170D01*
X138130000Y-59914760D01*
X138130000Y-59434760D01*
X138130910Y-59424340D01*
X138133620Y-59414240D01*
X138138040Y-59404760D01*
X138144040Y-59396190D01*
X138151440Y-59388790D01*
X138160000Y-59382800D01*
X138169480Y-59378380D01*
X138179580Y-59375670D01*
X138190000Y-59374760D01*
X138310000Y-59374760D01*
X138320420Y-59375670D01*
G37*
G36*
X138320420Y-57775750D02*
G01*
X138330520Y-57778460D01*
X138340000Y-57782880D01*
X138348570Y-57788870D01*
X138355970Y-57796270D01*
X138361960Y-57804840D01*
X138366380Y-57814320D01*
X138369090Y-57824420D01*
X138370000Y-57834840D01*
X138370000Y-59114840D01*
X138369090Y-59125250D01*
X138366380Y-59135360D01*
X138361960Y-59144840D01*
X138355970Y-59153400D01*
X138348570Y-59160800D01*
X138340000Y-59166800D01*
X138330520Y-59171220D01*
X138320420Y-59173920D01*
X138310000Y-59174840D01*
X138190000Y-59174840D01*
X138179580Y-59173920D01*
X138169480Y-59171220D01*
X138160000Y-59166800D01*
X138151440Y-59160800D01*
X138144040Y-59153400D01*
X138138040Y-59144840D01*
X138133620Y-59135360D01*
X138130910Y-59125250D01*
X138130000Y-59114840D01*
X138130000Y-57834840D01*
X138130910Y-57824420D01*
X138133620Y-57814320D01*
X138138040Y-57804840D01*
X138144040Y-57796270D01*
X138151440Y-57788870D01*
X138160000Y-57782880D01*
X138169480Y-57778460D01*
X138179580Y-57775750D01*
X138190000Y-57774840D01*
X138310000Y-57774840D01*
X138320420Y-57775750D01*
G37*
G36*
X139720420Y-57775750D02*
G01*
X139730520Y-57778450D01*
X139740000Y-57782870D01*
X139748570Y-57788870D01*
X139755970Y-57796270D01*
X139761960Y-57804830D01*
X139766380Y-57814310D01*
X139769090Y-57824420D01*
X139770000Y-57834830D01*
X139770000Y-59114840D01*
X139769090Y-59125260D01*
X139766380Y-59135360D01*
X139761960Y-59144840D01*
X139755970Y-59153410D01*
X139748570Y-59160800D01*
X139740000Y-59166800D01*
X139730520Y-59171220D01*
X139720420Y-59173930D01*
X139710000Y-59174840D01*
X138740000Y-59174840D01*
X138729580Y-59173930D01*
X138719480Y-59171220D01*
X138710000Y-59166800D01*
X138701430Y-59160800D01*
X138694040Y-59153410D01*
X138688040Y-59144840D01*
X138683620Y-59135360D01*
X138680910Y-59125260D01*
X138680000Y-59114840D01*
X138680000Y-57834830D01*
X138680910Y-57824420D01*
X138683620Y-57814310D01*
X138688040Y-57804830D01*
X138694040Y-57796270D01*
X138701430Y-57788870D01*
X138710000Y-57782870D01*
X138719480Y-57778450D01*
X138729580Y-57775750D01*
X138740000Y-57774830D01*
X139710000Y-57774830D01*
X139720420Y-57775750D01*
G37*
G36*
X138970420Y-56280760D02*
G01*
X138980520Y-56283470D01*
X138990000Y-56287890D01*
X138998570Y-56293890D01*
X139005970Y-56301280D01*
X139011960Y-56309850D01*
X139016380Y-56319330D01*
X139019090Y-56329430D01*
X139020000Y-56339850D01*
X139020000Y-56519850D01*
X139019090Y-56530270D01*
X139016380Y-56540370D01*
X139011960Y-56549850D01*
X139005970Y-56558420D01*
X138998570Y-56565820D01*
X138990000Y-56571810D01*
X138980520Y-56576230D01*
X138970420Y-56578940D01*
X138960000Y-56579850D01*
X138840000Y-56579850D01*
X138829580Y-56578940D01*
X138819480Y-56576230D01*
X138810000Y-56571810D01*
X138801430Y-56565820D01*
X138794040Y-56558420D01*
X138788040Y-56549850D01*
X138783620Y-56540370D01*
X138780910Y-56530270D01*
X138780000Y-56519850D01*
X138780000Y-56339850D01*
X138780910Y-56329430D01*
X138783620Y-56319330D01*
X138788040Y-56309850D01*
X138794040Y-56301280D01*
X138801430Y-56293890D01*
X138810000Y-56287890D01*
X138819480Y-56283470D01*
X138829580Y-56280760D01*
X138840000Y-56279850D01*
X138960000Y-56279850D01*
X138970420Y-56280760D01*
G37*
G36*
X138970420Y-59375670D02*
G01*
X138980520Y-59378380D01*
X138990000Y-59382800D01*
X138998570Y-59388790D01*
X139005970Y-59396190D01*
X139011960Y-59404760D01*
X139016380Y-59414240D01*
X139019090Y-59424340D01*
X139020000Y-59434760D01*
X139020000Y-59914760D01*
X139019090Y-59925170D01*
X139016380Y-59935280D01*
X139011960Y-59944760D01*
X139005970Y-59953320D01*
X138998570Y-59960720D01*
X138990000Y-59966720D01*
X138980520Y-59971140D01*
X138970420Y-59973840D01*
X138960000Y-59974760D01*
X138840000Y-59974760D01*
X138829580Y-59973840D01*
X138819480Y-59971140D01*
X138810000Y-59966720D01*
X138801430Y-59960720D01*
X138794040Y-59953320D01*
X138788040Y-59944760D01*
X138783620Y-59935280D01*
X138780910Y-59925170D01*
X138780000Y-59914760D01*
X138780000Y-59434760D01*
X138780910Y-59424340D01*
X138783620Y-59414240D01*
X138788040Y-59404760D01*
X138794040Y-59396190D01*
X138801430Y-59388790D01*
X138810000Y-59382800D01*
X138819480Y-59378380D01*
X138829580Y-59375670D01*
X138840000Y-59374760D01*
X138960000Y-59374760D01*
X138970420Y-59375670D01*
G37*
G36*
X139400420Y-56730740D02*
G01*
X139410520Y-56733450D01*
X139420000Y-56737870D01*
X139428570Y-56743870D01*
X139435970Y-56751260D01*
X139441960Y-56759830D01*
X139446380Y-56769310D01*
X139449090Y-56779410D01*
X139450000Y-56789830D01*
X139450000Y-57019830D01*
X139449090Y-57030250D01*
X139446380Y-57040350D01*
X139441960Y-57049830D01*
X139435970Y-57058400D01*
X139428570Y-57065800D01*
X139420000Y-57071790D01*
X139410520Y-57076210D01*
X139400420Y-57078920D01*
X139390000Y-57079830D01*
X138840000Y-57079830D01*
X138829580Y-57078920D01*
X138819480Y-57076210D01*
X138810000Y-57071790D01*
X138801430Y-57065800D01*
X138794040Y-57058400D01*
X138788040Y-57049830D01*
X138783620Y-57040350D01*
X138780910Y-57030250D01*
X138780000Y-57019830D01*
X138780000Y-56789830D01*
X138780910Y-56779410D01*
X138783620Y-56769310D01*
X138788040Y-56759830D01*
X138794040Y-56751260D01*
X138801430Y-56743870D01*
X138810000Y-56737870D01*
X138819480Y-56733450D01*
X138829580Y-56730740D01*
X138840000Y-56729830D01*
X139390000Y-56729830D01*
X139400420Y-56730740D01*
G37*
G36*
X139620420Y-56280760D02*
G01*
X139630520Y-56283470D01*
X139640000Y-56287890D01*
X139648570Y-56293890D01*
X139655960Y-56301280D01*
X139661960Y-56309850D01*
X139666380Y-56319330D01*
X139669090Y-56329430D01*
X139670000Y-56339850D01*
X139670000Y-56519850D01*
X139669090Y-56530270D01*
X139666380Y-56540370D01*
X139661960Y-56549850D01*
X139655960Y-56558420D01*
X139648570Y-56565820D01*
X139640000Y-56571810D01*
X139630520Y-56576230D01*
X139620420Y-56578940D01*
X139610000Y-56579850D01*
X139490000Y-56579850D01*
X139479580Y-56578940D01*
X139469480Y-56576230D01*
X139460000Y-56571810D01*
X139451430Y-56565820D01*
X139444040Y-56558420D01*
X139438040Y-56549850D01*
X139433620Y-56540370D01*
X139430910Y-56530270D01*
X139430000Y-56519850D01*
X139430000Y-56339850D01*
X139430910Y-56329430D01*
X139433620Y-56319330D01*
X139438040Y-56309850D01*
X139444040Y-56301280D01*
X139451430Y-56293890D01*
X139460000Y-56287890D01*
X139469480Y-56283470D01*
X139479580Y-56280760D01*
X139490000Y-56279850D01*
X139610000Y-56279850D01*
X139620420Y-56280760D01*
G37*
G36*
X139620420Y-59375670D02*
G01*
X139630520Y-59378380D01*
X139640000Y-59382800D01*
X139648570Y-59388790D01*
X139655970Y-59396190D01*
X139661960Y-59404760D01*
X139666380Y-59414240D01*
X139669090Y-59424340D01*
X139670000Y-59434760D01*
X139670000Y-59914760D01*
X139669090Y-59925170D01*
X139666380Y-59935280D01*
X139661960Y-59944760D01*
X139655970Y-59953320D01*
X139648570Y-59960720D01*
X139640000Y-59966720D01*
X139630520Y-59971140D01*
X139620420Y-59973840D01*
X139610000Y-59974760D01*
X139490000Y-59974760D01*
X139479580Y-59973840D01*
X139469480Y-59971140D01*
X139460000Y-59966720D01*
X139451440Y-59960720D01*
X139444040Y-59953320D01*
X139438040Y-59944760D01*
X139433620Y-59935280D01*
X139430920Y-59925170D01*
X139430000Y-59914760D01*
X139430000Y-59434760D01*
X139430920Y-59424340D01*
X139433620Y-59414240D01*
X139438040Y-59404760D01*
X139444040Y-59396190D01*
X139451440Y-59388790D01*
X139460000Y-59382800D01*
X139469480Y-59378380D01*
X139479580Y-59375670D01*
X139490000Y-59374760D01*
X139610000Y-59374760D01*
X139620420Y-59375670D01*
G37*
G36*
X140270420Y-56280760D02*
G01*
X140280520Y-56283470D01*
X140290000Y-56287890D01*
X140298570Y-56293890D01*
X140305970Y-56301280D01*
X140311960Y-56309850D01*
X140316380Y-56319330D01*
X140319090Y-56329430D01*
X140320000Y-56339850D01*
X140320000Y-56519850D01*
X140319090Y-56530270D01*
X140316380Y-56540370D01*
X140311960Y-56549850D01*
X140305970Y-56558420D01*
X140298570Y-56565820D01*
X140290000Y-56571810D01*
X140280520Y-56576230D01*
X140270420Y-56578940D01*
X140260000Y-56579850D01*
X140140000Y-56579850D01*
X140129580Y-56578940D01*
X140119480Y-56576230D01*
X140110000Y-56571810D01*
X140101440Y-56565820D01*
X140094040Y-56558420D01*
X140088040Y-56549850D01*
X140083620Y-56540370D01*
X140080910Y-56530270D01*
X140080000Y-56519850D01*
X140080000Y-56339850D01*
X140080910Y-56329430D01*
X140083620Y-56319330D01*
X140088040Y-56309850D01*
X140094040Y-56301280D01*
X140101440Y-56293890D01*
X140110000Y-56287890D01*
X140119480Y-56283470D01*
X140129580Y-56280760D01*
X140140000Y-56279850D01*
X140260000Y-56279850D01*
X140270420Y-56280760D01*
G37*
G36*
X140270420Y-59375670D02*
G01*
X140280520Y-59378380D01*
X140290000Y-59382800D01*
X140298570Y-59388790D01*
X140305970Y-59396190D01*
X140311960Y-59404760D01*
X140316380Y-59414240D01*
X140319090Y-59424340D01*
X140320000Y-59434760D01*
X140320000Y-59914760D01*
X140319090Y-59925170D01*
X140316380Y-59935280D01*
X140311960Y-59944760D01*
X140305970Y-59953320D01*
X140298570Y-59960720D01*
X140290000Y-59966720D01*
X140280520Y-59971140D01*
X140270420Y-59973840D01*
X140260000Y-59974760D01*
X140140000Y-59974760D01*
X140129580Y-59973840D01*
X140119480Y-59971140D01*
X140110000Y-59966720D01*
X140101440Y-59960720D01*
X140094040Y-59953320D01*
X140088040Y-59944760D01*
X140083620Y-59935280D01*
X140080910Y-59925170D01*
X140080000Y-59914760D01*
X140080000Y-59434760D01*
X140080910Y-59424340D01*
X140083620Y-59414240D01*
X140088040Y-59404760D01*
X140094040Y-59396190D01*
X140101440Y-59388790D01*
X140110000Y-59382800D01*
X140119480Y-59378380D01*
X140129580Y-59375670D01*
X140140000Y-59374760D01*
X140260000Y-59374760D01*
X140270420Y-59375670D01*
G37*
G36*
X140270420Y-56730740D02*
G01*
X140280520Y-56733450D01*
X140290000Y-56737870D01*
X140298570Y-56743870D01*
X140305970Y-56751260D01*
X140311960Y-56759830D01*
X140316380Y-56769310D01*
X140319090Y-56779410D01*
X140320000Y-56789830D01*
X140320000Y-57019830D01*
X140319090Y-57030250D01*
X140316380Y-57040350D01*
X140311960Y-57049830D01*
X140305970Y-57058400D01*
X140298570Y-57065800D01*
X140290000Y-57071790D01*
X140280520Y-57076210D01*
X140270420Y-57078920D01*
X140260000Y-57079830D01*
X139710000Y-57079830D01*
X139699580Y-57078920D01*
X139689480Y-57076210D01*
X139680000Y-57071790D01*
X139671430Y-57065800D01*
X139664040Y-57058400D01*
X139658040Y-57049830D01*
X139653620Y-57040350D01*
X139650910Y-57030250D01*
X139650000Y-57019830D01*
X139650000Y-56789830D01*
X139650910Y-56779410D01*
X139653620Y-56769310D01*
X139658040Y-56759830D01*
X139664040Y-56751260D01*
X139671430Y-56743870D01*
X139680000Y-56737870D01*
X139689480Y-56733450D01*
X139699580Y-56730740D01*
X139710000Y-56729830D01*
X140260000Y-56729830D01*
X140270420Y-56730740D01*
G37*
G36*
X140270420Y-57775750D02*
G01*
X140280520Y-57778450D01*
X140290000Y-57782870D01*
X140298570Y-57788870D01*
X140305970Y-57796270D01*
X140311960Y-57804830D01*
X140316380Y-57814310D01*
X140319090Y-57824420D01*
X140320000Y-57834830D01*
X140320000Y-59114830D01*
X140319090Y-59125250D01*
X140316380Y-59135350D01*
X140311960Y-59144830D01*
X140305970Y-59153400D01*
X140298570Y-59160800D01*
X140290000Y-59166790D01*
X140280520Y-59171210D01*
X140270420Y-59173920D01*
X140260000Y-59174830D01*
X140140000Y-59174830D01*
X140129580Y-59173920D01*
X140119480Y-59171210D01*
X140110000Y-59166790D01*
X140101440Y-59160800D01*
X140094040Y-59153400D01*
X140088040Y-59144830D01*
X140083620Y-59135350D01*
X140080910Y-59125250D01*
X140080000Y-59114830D01*
X140080000Y-57834830D01*
X140080910Y-57824420D01*
X140083620Y-57814310D01*
X140088040Y-57804830D01*
X140094040Y-57796270D01*
X140101440Y-57788870D01*
X140110000Y-57782870D01*
X140119480Y-57778450D01*
X140129580Y-57775750D01*
X140140000Y-57774830D01*
X140260000Y-57774830D01*
X140270420Y-57775750D01*
G37*
G04 #@! TO.C,Q1*
G36*
X138320420Y-52000740D02*
G01*
X138330520Y-52003450D01*
X138340000Y-52007870D01*
X138348570Y-52013870D01*
X138355970Y-52021270D01*
X138361960Y-52029830D01*
X138366380Y-52039310D01*
X138369090Y-52049410D01*
X138370000Y-52059830D01*
X138370000Y-52639830D01*
X138369090Y-52650250D01*
X138366380Y-52660350D01*
X138361960Y-52669830D01*
X138355970Y-52678400D01*
X138348570Y-52685800D01*
X138340000Y-52691790D01*
X138330520Y-52696210D01*
X138320420Y-52698920D01*
X138310000Y-52699830D01*
X138190000Y-52699830D01*
X138179580Y-52698920D01*
X138169480Y-52696210D01*
X138160000Y-52691790D01*
X138151440Y-52685800D01*
X138144040Y-52678400D01*
X138138040Y-52669830D01*
X138133620Y-52660350D01*
X138130910Y-52650250D01*
X138130000Y-52639830D01*
X138130000Y-52059830D01*
X138130910Y-52049410D01*
X138133620Y-52039310D01*
X138138040Y-52029830D01*
X138144040Y-52021270D01*
X138151440Y-52013870D01*
X138160000Y-52007870D01*
X138169480Y-52003450D01*
X138179580Y-52000740D01*
X138190000Y-51999830D01*
X138310000Y-51999830D01*
X138320420Y-52000740D01*
G37*
G36*
X138320420Y-55100670D02*
G01*
X138330520Y-55103380D01*
X138340000Y-55107800D01*
X138348570Y-55113790D01*
X138355970Y-55121190D01*
X138361960Y-55129760D01*
X138366380Y-55139240D01*
X138369090Y-55149340D01*
X138370000Y-55159760D01*
X138370000Y-55639760D01*
X138369090Y-55650170D01*
X138366380Y-55660280D01*
X138361960Y-55669760D01*
X138355970Y-55678320D01*
X138348570Y-55685720D01*
X138340000Y-55691720D01*
X138330520Y-55696140D01*
X138320420Y-55698840D01*
X138310000Y-55699760D01*
X138190000Y-55699760D01*
X138179580Y-55698840D01*
X138169480Y-55696140D01*
X138160000Y-55691720D01*
X138151440Y-55685720D01*
X138144040Y-55678320D01*
X138138040Y-55669760D01*
X138133620Y-55660280D01*
X138130910Y-55650170D01*
X138130000Y-55639760D01*
X138130000Y-55159760D01*
X138130910Y-55149340D01*
X138133620Y-55139240D01*
X138138040Y-55129760D01*
X138144040Y-55121190D01*
X138151440Y-55113790D01*
X138160000Y-55107800D01*
X138169480Y-55103380D01*
X138179580Y-55100670D01*
X138190000Y-55099760D01*
X138310000Y-55099760D01*
X138320420Y-55100670D01*
G37*
G36*
X138320420Y-53500750D02*
G01*
X138330520Y-53503460D01*
X138340000Y-53507880D01*
X138348570Y-53513870D01*
X138355970Y-53521270D01*
X138361960Y-53529840D01*
X138366380Y-53539320D01*
X138369090Y-53549420D01*
X138370000Y-53559840D01*
X138370000Y-54839840D01*
X138369090Y-54850250D01*
X138366380Y-54860360D01*
X138361960Y-54869840D01*
X138355970Y-54878400D01*
X138348570Y-54885800D01*
X138340000Y-54891800D01*
X138330520Y-54896220D01*
X138320420Y-54898920D01*
X138310000Y-54899840D01*
X138190000Y-54899840D01*
X138179580Y-54898920D01*
X138169480Y-54896220D01*
X138160000Y-54891800D01*
X138151440Y-54885800D01*
X138144040Y-54878400D01*
X138138040Y-54869840D01*
X138133620Y-54860360D01*
X138130910Y-54850250D01*
X138130000Y-54839840D01*
X138130000Y-53559840D01*
X138130910Y-53549420D01*
X138133620Y-53539320D01*
X138138040Y-53529840D01*
X138144040Y-53521270D01*
X138151440Y-53513870D01*
X138160000Y-53507880D01*
X138169480Y-53503460D01*
X138179580Y-53500750D01*
X138190000Y-53499840D01*
X138310000Y-53499840D01*
X138320420Y-53500750D01*
G37*
G36*
X139720420Y-53500750D02*
G01*
X139730520Y-53503450D01*
X139740000Y-53507870D01*
X139748570Y-53513870D01*
X139755970Y-53521270D01*
X139761960Y-53529830D01*
X139766380Y-53539310D01*
X139769090Y-53549420D01*
X139770000Y-53559830D01*
X139770000Y-54839840D01*
X139769090Y-54850260D01*
X139766380Y-54860360D01*
X139761960Y-54869840D01*
X139755970Y-54878410D01*
X139748570Y-54885800D01*
X139740000Y-54891800D01*
X139730520Y-54896220D01*
X139720420Y-54898930D01*
X139710000Y-54899840D01*
X138740000Y-54899840D01*
X138729580Y-54898930D01*
X138719480Y-54896220D01*
X138710000Y-54891800D01*
X138701430Y-54885800D01*
X138694040Y-54878410D01*
X138688040Y-54869840D01*
X138683620Y-54860360D01*
X138680910Y-54850260D01*
X138680000Y-54839840D01*
X138680000Y-53559830D01*
X138680910Y-53549420D01*
X138683620Y-53539310D01*
X138688040Y-53529830D01*
X138694040Y-53521270D01*
X138701430Y-53513870D01*
X138710000Y-53507870D01*
X138719480Y-53503450D01*
X138729580Y-53500750D01*
X138740000Y-53499830D01*
X139710000Y-53499830D01*
X139720420Y-53500750D01*
G37*
G36*
X138970420Y-52005760D02*
G01*
X138980520Y-52008470D01*
X138990000Y-52012890D01*
X138998570Y-52018890D01*
X139005970Y-52026280D01*
X139011960Y-52034850D01*
X139016380Y-52044330D01*
X139019090Y-52054430D01*
X139020000Y-52064850D01*
X139020000Y-52244850D01*
X139019090Y-52255270D01*
X139016380Y-52265370D01*
X139011960Y-52274850D01*
X139005970Y-52283420D01*
X138998570Y-52290820D01*
X138990000Y-52296810D01*
X138980520Y-52301230D01*
X138970420Y-52303940D01*
X138960000Y-52304850D01*
X138840000Y-52304850D01*
X138829580Y-52303940D01*
X138819480Y-52301230D01*
X138810000Y-52296810D01*
X138801430Y-52290820D01*
X138794040Y-52283420D01*
X138788040Y-52274850D01*
X138783620Y-52265370D01*
X138780910Y-52255270D01*
X138780000Y-52244850D01*
X138780000Y-52064850D01*
X138780910Y-52054430D01*
X138783620Y-52044330D01*
X138788040Y-52034850D01*
X138794040Y-52026280D01*
X138801430Y-52018890D01*
X138810000Y-52012890D01*
X138819480Y-52008470D01*
X138829580Y-52005760D01*
X138840000Y-52004850D01*
X138960000Y-52004850D01*
X138970420Y-52005760D01*
G37*
G36*
X138970420Y-55100670D02*
G01*
X138980520Y-55103380D01*
X138990000Y-55107800D01*
X138998570Y-55113790D01*
X139005970Y-55121190D01*
X139011960Y-55129760D01*
X139016380Y-55139240D01*
X139019090Y-55149340D01*
X139020000Y-55159760D01*
X139020000Y-55639760D01*
X139019090Y-55650170D01*
X139016380Y-55660280D01*
X139011960Y-55669760D01*
X139005970Y-55678320D01*
X138998570Y-55685720D01*
X138990000Y-55691720D01*
X138980520Y-55696140D01*
X138970420Y-55698840D01*
X138960000Y-55699760D01*
X138840000Y-55699760D01*
X138829580Y-55698840D01*
X138819480Y-55696140D01*
X138810000Y-55691720D01*
X138801430Y-55685720D01*
X138794040Y-55678320D01*
X138788040Y-55669760D01*
X138783620Y-55660280D01*
X138780910Y-55650170D01*
X138780000Y-55639760D01*
X138780000Y-55159760D01*
X138780910Y-55149340D01*
X138783620Y-55139240D01*
X138788040Y-55129760D01*
X138794040Y-55121190D01*
X138801430Y-55113790D01*
X138810000Y-55107800D01*
X138819480Y-55103380D01*
X138829580Y-55100670D01*
X138840000Y-55099760D01*
X138960000Y-55099760D01*
X138970420Y-55100670D01*
G37*
G36*
X139400420Y-52455740D02*
G01*
X139410520Y-52458450D01*
X139420000Y-52462870D01*
X139428570Y-52468870D01*
X139435970Y-52476260D01*
X139441960Y-52484830D01*
X139446380Y-52494310D01*
X139449090Y-52504410D01*
X139450000Y-52514830D01*
X139450000Y-52744830D01*
X139449090Y-52755250D01*
X139446380Y-52765350D01*
X139441960Y-52774830D01*
X139435970Y-52783400D01*
X139428570Y-52790800D01*
X139420000Y-52796790D01*
X139410520Y-52801210D01*
X139400420Y-52803920D01*
X139390000Y-52804830D01*
X138840000Y-52804830D01*
X138829580Y-52803920D01*
X138819480Y-52801210D01*
X138810000Y-52796790D01*
X138801430Y-52790800D01*
X138794040Y-52783400D01*
X138788040Y-52774830D01*
X138783620Y-52765350D01*
X138780910Y-52755250D01*
X138780000Y-52744830D01*
X138780000Y-52514830D01*
X138780910Y-52504410D01*
X138783620Y-52494310D01*
X138788040Y-52484830D01*
X138794040Y-52476260D01*
X138801430Y-52468870D01*
X138810000Y-52462870D01*
X138819480Y-52458450D01*
X138829580Y-52455740D01*
X138840000Y-52454830D01*
X139390000Y-52454830D01*
X139400420Y-52455740D01*
G37*
G36*
X139620420Y-52005760D02*
G01*
X139630520Y-52008470D01*
X139640000Y-52012890D01*
X139648570Y-52018890D01*
X139655960Y-52026280D01*
X139661960Y-52034850D01*
X139666380Y-52044330D01*
X139669090Y-52054430D01*
X139670000Y-52064850D01*
X139670000Y-52244850D01*
X139669090Y-52255270D01*
X139666380Y-52265370D01*
X139661960Y-52274850D01*
X139655960Y-52283420D01*
X139648570Y-52290820D01*
X139640000Y-52296810D01*
X139630520Y-52301230D01*
X139620420Y-52303940D01*
X139610000Y-52304850D01*
X139490000Y-52304850D01*
X139479580Y-52303940D01*
X139469480Y-52301230D01*
X139460000Y-52296810D01*
X139451430Y-52290820D01*
X139444040Y-52283420D01*
X139438040Y-52274850D01*
X139433620Y-52265370D01*
X139430910Y-52255270D01*
X139430000Y-52244850D01*
X139430000Y-52064850D01*
X139430910Y-52054430D01*
X139433620Y-52044330D01*
X139438040Y-52034850D01*
X139444040Y-52026280D01*
X139451430Y-52018890D01*
X139460000Y-52012890D01*
X139469480Y-52008470D01*
X139479580Y-52005760D01*
X139490000Y-52004850D01*
X139610000Y-52004850D01*
X139620420Y-52005760D01*
G37*
G36*
X139620420Y-55100670D02*
G01*
X139630520Y-55103380D01*
X139640000Y-55107800D01*
X139648570Y-55113790D01*
X139655970Y-55121190D01*
X139661960Y-55129760D01*
X139666380Y-55139240D01*
X139669090Y-55149340D01*
X139670000Y-55159760D01*
X139670000Y-55639760D01*
X139669090Y-55650170D01*
X139666380Y-55660280D01*
X139661960Y-55669760D01*
X139655970Y-55678320D01*
X139648570Y-55685720D01*
X139640000Y-55691720D01*
X139630520Y-55696140D01*
X139620420Y-55698840D01*
X139610000Y-55699760D01*
X139490000Y-55699760D01*
X139479580Y-55698840D01*
X139469480Y-55696140D01*
X139460000Y-55691720D01*
X139451440Y-55685720D01*
X139444040Y-55678320D01*
X139438040Y-55669760D01*
X139433620Y-55660280D01*
X139430920Y-55650170D01*
X139430000Y-55639760D01*
X139430000Y-55159760D01*
X139430920Y-55149340D01*
X139433620Y-55139240D01*
X139438040Y-55129760D01*
X139444040Y-55121190D01*
X139451440Y-55113790D01*
X139460000Y-55107800D01*
X139469480Y-55103380D01*
X139479580Y-55100670D01*
X139490000Y-55099760D01*
X139610000Y-55099760D01*
X139620420Y-55100670D01*
G37*
G36*
X140270420Y-52005760D02*
G01*
X140280520Y-52008470D01*
X140290000Y-52012890D01*
X140298570Y-52018890D01*
X140305970Y-52026280D01*
X140311960Y-52034850D01*
X140316380Y-52044330D01*
X140319090Y-52054430D01*
X140320000Y-52064850D01*
X140320000Y-52244850D01*
X140319090Y-52255270D01*
X140316380Y-52265370D01*
X140311960Y-52274850D01*
X140305970Y-52283420D01*
X140298570Y-52290820D01*
X140290000Y-52296810D01*
X140280520Y-52301230D01*
X140270420Y-52303940D01*
X140260000Y-52304850D01*
X140140000Y-52304850D01*
X140129580Y-52303940D01*
X140119480Y-52301230D01*
X140110000Y-52296810D01*
X140101440Y-52290820D01*
X140094040Y-52283420D01*
X140088040Y-52274850D01*
X140083620Y-52265370D01*
X140080910Y-52255270D01*
X140080000Y-52244850D01*
X140080000Y-52064850D01*
X140080910Y-52054430D01*
X140083620Y-52044330D01*
X140088040Y-52034850D01*
X140094040Y-52026280D01*
X140101440Y-52018890D01*
X140110000Y-52012890D01*
X140119480Y-52008470D01*
X140129580Y-52005760D01*
X140140000Y-52004850D01*
X140260000Y-52004850D01*
X140270420Y-52005760D01*
G37*
G36*
X140270420Y-55100670D02*
G01*
X140280520Y-55103380D01*
X140290000Y-55107800D01*
X140298570Y-55113790D01*
X140305970Y-55121190D01*
X140311960Y-55129760D01*
X140316380Y-55139240D01*
X140319090Y-55149340D01*
X140320000Y-55159760D01*
X140320000Y-55639760D01*
X140319090Y-55650170D01*
X140316380Y-55660280D01*
X140311960Y-55669760D01*
X140305970Y-55678320D01*
X140298570Y-55685720D01*
X140290000Y-55691720D01*
X140280520Y-55696140D01*
X140270420Y-55698840D01*
X140260000Y-55699760D01*
X140140000Y-55699760D01*
X140129580Y-55698840D01*
X140119480Y-55696140D01*
X140110000Y-55691720D01*
X140101440Y-55685720D01*
X140094040Y-55678320D01*
X140088040Y-55669760D01*
X140083620Y-55660280D01*
X140080910Y-55650170D01*
X140080000Y-55639760D01*
X140080000Y-55159760D01*
X140080910Y-55149340D01*
X140083620Y-55139240D01*
X140088040Y-55129760D01*
X140094040Y-55121190D01*
X140101440Y-55113790D01*
X140110000Y-55107800D01*
X140119480Y-55103380D01*
X140129580Y-55100670D01*
X140140000Y-55099760D01*
X140260000Y-55099760D01*
X140270420Y-55100670D01*
G37*
G36*
X140270420Y-52455740D02*
G01*
X140280520Y-52458450D01*
X140290000Y-52462870D01*
X140298570Y-52468870D01*
X140305970Y-52476260D01*
X140311960Y-52484830D01*
X140316380Y-52494310D01*
X140319090Y-52504410D01*
X140320000Y-52514830D01*
X140320000Y-52744830D01*
X140319090Y-52755250D01*
X140316380Y-52765350D01*
X140311960Y-52774830D01*
X140305970Y-52783400D01*
X140298570Y-52790800D01*
X140290000Y-52796790D01*
X140280520Y-52801210D01*
X140270420Y-52803920D01*
X140260000Y-52804830D01*
X139710000Y-52804830D01*
X139699580Y-52803920D01*
X139689480Y-52801210D01*
X139680000Y-52796790D01*
X139671430Y-52790800D01*
X139664040Y-52783400D01*
X139658040Y-52774830D01*
X139653620Y-52765350D01*
X139650910Y-52755250D01*
X139650000Y-52744830D01*
X139650000Y-52514830D01*
X139650910Y-52504410D01*
X139653620Y-52494310D01*
X139658040Y-52484830D01*
X139664040Y-52476260D01*
X139671430Y-52468870D01*
X139680000Y-52462870D01*
X139689480Y-52458450D01*
X139699580Y-52455740D01*
X139710000Y-52454830D01*
X140260000Y-52454830D01*
X140270420Y-52455740D01*
G37*
G36*
X140270420Y-53500750D02*
G01*
X140280520Y-53503450D01*
X140290000Y-53507870D01*
X140298570Y-53513870D01*
X140305970Y-53521270D01*
X140311960Y-53529830D01*
X140316380Y-53539310D01*
X140319090Y-53549420D01*
X140320000Y-53559830D01*
X140320000Y-54839830D01*
X140319090Y-54850250D01*
X140316380Y-54860350D01*
X140311960Y-54869830D01*
X140305970Y-54878400D01*
X140298570Y-54885800D01*
X140290000Y-54891790D01*
X140280520Y-54896210D01*
X140270420Y-54898920D01*
X140260000Y-54899830D01*
X140140000Y-54899830D01*
X140129580Y-54898920D01*
X140119480Y-54896210D01*
X140110000Y-54891790D01*
X140101440Y-54885800D01*
X140094040Y-54878400D01*
X140088040Y-54869830D01*
X140083620Y-54860350D01*
X140080910Y-54850250D01*
X140080000Y-54839830D01*
X140080000Y-53559830D01*
X140080910Y-53549420D01*
X140083620Y-53539310D01*
X140088040Y-53529830D01*
X140094040Y-53521270D01*
X140101440Y-53513870D01*
X140110000Y-53507870D01*
X140119480Y-53503450D01*
X140129580Y-53500750D01*
X140140000Y-53499830D01*
X140260000Y-53499830D01*
X140270420Y-53500750D01*
G37*
G04 #@! TO.C,Q2*
G36*
X147125410Y-77155910D02*
G01*
X147135510Y-77158620D01*
X147144990Y-77163040D01*
X147153560Y-77169040D01*
X147160960Y-77176440D01*
X147166950Y-77185000D01*
X147171370Y-77194480D01*
X147174080Y-77204580D01*
X147174990Y-77215000D01*
X147174990Y-77335000D01*
X147174080Y-77345420D01*
X147171370Y-77355520D01*
X147166950Y-77365000D01*
X147160960Y-77373570D01*
X147153560Y-77380970D01*
X147144990Y-77386960D01*
X147135510Y-77391380D01*
X147125410Y-77394090D01*
X147114990Y-77395000D01*
X146634990Y-77395000D01*
X146624580Y-77394090D01*
X146614470Y-77391380D01*
X146604990Y-77386960D01*
X146596430Y-77380970D01*
X146589030Y-77373570D01*
X146583030Y-77365000D01*
X146578610Y-77355520D01*
X146575910Y-77345420D01*
X146574990Y-77335000D01*
X146574990Y-77215000D01*
X146575910Y-77204580D01*
X146578610Y-77194480D01*
X146583030Y-77185000D01*
X146589030Y-77176440D01*
X146596430Y-77169040D01*
X146604990Y-77163040D01*
X146614470Y-77158620D01*
X146624580Y-77155910D01*
X146634990Y-77155000D01*
X147114990Y-77155000D01*
X147125410Y-77155910D01*
G37*
G36*
X147125410Y-77805910D02*
G01*
X147135510Y-77808620D01*
X147144990Y-77813040D01*
X147153560Y-77819040D01*
X147160960Y-77826430D01*
X147166950Y-77835000D01*
X147171370Y-77844480D01*
X147174080Y-77854580D01*
X147174990Y-77865000D01*
X147174990Y-77985000D01*
X147174080Y-77995420D01*
X147171370Y-78005520D01*
X147166950Y-78015000D01*
X147160960Y-78023570D01*
X147153560Y-78030970D01*
X147144990Y-78036960D01*
X147135510Y-78041380D01*
X147125410Y-78044090D01*
X147114990Y-78045000D01*
X146634990Y-78045000D01*
X146624580Y-78044090D01*
X146614470Y-78041380D01*
X146604990Y-78036960D01*
X146596430Y-78030970D01*
X146589030Y-78023570D01*
X146583030Y-78015000D01*
X146578610Y-78005520D01*
X146575910Y-77995420D01*
X146574990Y-77985000D01*
X146574990Y-77865000D01*
X146575910Y-77854580D01*
X146578610Y-77844480D01*
X146583030Y-77835000D01*
X146589030Y-77826430D01*
X146596430Y-77819040D01*
X146604990Y-77813040D01*
X146614470Y-77808620D01*
X146624580Y-77805910D01*
X146634990Y-77805000D01*
X147114990Y-77805000D01*
X147125410Y-77805910D01*
G37*
G36*
X147125410Y-78455920D02*
G01*
X147135510Y-78458620D01*
X147144990Y-78463040D01*
X147153560Y-78469040D01*
X147160960Y-78476440D01*
X147166950Y-78485000D01*
X147171370Y-78494480D01*
X147174080Y-78504580D01*
X147174990Y-78515000D01*
X147174990Y-78635000D01*
X147174080Y-78645420D01*
X147171370Y-78655520D01*
X147166950Y-78665000D01*
X147160960Y-78673570D01*
X147153560Y-78680970D01*
X147144990Y-78686960D01*
X147135510Y-78691380D01*
X147125410Y-78694090D01*
X147114990Y-78695000D01*
X146634990Y-78695000D01*
X146624580Y-78694090D01*
X146614470Y-78691380D01*
X146604990Y-78686960D01*
X146596430Y-78680970D01*
X146589030Y-78673570D01*
X146583030Y-78665000D01*
X146578610Y-78655520D01*
X146575910Y-78645420D01*
X146574990Y-78635000D01*
X146574990Y-78515000D01*
X146575910Y-78504580D01*
X146578610Y-78494480D01*
X146583030Y-78485000D01*
X146589030Y-78476440D01*
X146596430Y-78469040D01*
X146604990Y-78463040D01*
X146614470Y-78458620D01*
X146624580Y-78455920D01*
X146634990Y-78455000D01*
X147114990Y-78455000D01*
X147125410Y-78455920D01*
G37*
G36*
X147125410Y-79105910D02*
G01*
X147135510Y-79108620D01*
X147144990Y-79113040D01*
X147153560Y-79119040D01*
X147160960Y-79126440D01*
X147166950Y-79135000D01*
X147171370Y-79144480D01*
X147174080Y-79154580D01*
X147174990Y-79165000D01*
X147174990Y-79285000D01*
X147174080Y-79295420D01*
X147171370Y-79305520D01*
X147166950Y-79315000D01*
X147160960Y-79323570D01*
X147153560Y-79330970D01*
X147144990Y-79336960D01*
X147135510Y-79341380D01*
X147125410Y-79344090D01*
X147114990Y-79345000D01*
X146634990Y-79345000D01*
X146624580Y-79344090D01*
X146614470Y-79341380D01*
X146604990Y-79336960D01*
X146596430Y-79330970D01*
X146589030Y-79323570D01*
X146583030Y-79315000D01*
X146578610Y-79305520D01*
X146575910Y-79295420D01*
X146574990Y-79285000D01*
X146574990Y-79165000D01*
X146575910Y-79154580D01*
X146578610Y-79144480D01*
X146583030Y-79135000D01*
X146589030Y-79126440D01*
X146596430Y-79119040D01*
X146604990Y-79113040D01*
X146614470Y-79108620D01*
X146624580Y-79105910D01*
X146634990Y-79105000D01*
X147114990Y-79105000D01*
X147125410Y-79105910D01*
G37*
G36*
X148725330Y-77155910D02*
G01*
X148735430Y-77158620D01*
X148744910Y-77163040D01*
X148753480Y-77169040D01*
X148760880Y-77176440D01*
X148766870Y-77185000D01*
X148771290Y-77194480D01*
X148774000Y-77204580D01*
X148774910Y-77215000D01*
X148774910Y-77335000D01*
X148774000Y-77345420D01*
X148771290Y-77355520D01*
X148766870Y-77365000D01*
X148760880Y-77373570D01*
X148753480Y-77380970D01*
X148744910Y-77386960D01*
X148735430Y-77391380D01*
X148725330Y-77394090D01*
X148714910Y-77395000D01*
X147434910Y-77395000D01*
X147424500Y-77394090D01*
X147414390Y-77391380D01*
X147404910Y-77386960D01*
X147396350Y-77380970D01*
X147388950Y-77373570D01*
X147382950Y-77365000D01*
X147378530Y-77355520D01*
X147375830Y-77345420D01*
X147374910Y-77335000D01*
X147374910Y-77215000D01*
X147375830Y-77204580D01*
X147378530Y-77194480D01*
X147382950Y-77185000D01*
X147388950Y-77176440D01*
X147396350Y-77169040D01*
X147404910Y-77163040D01*
X147414390Y-77158620D01*
X147424500Y-77155910D01*
X147434910Y-77155000D01*
X148714910Y-77155000D01*
X148725330Y-77155910D01*
G37*
G36*
X148725330Y-77705910D02*
G01*
X148735440Y-77708620D01*
X148744920Y-77713040D01*
X148753480Y-77719040D01*
X148760880Y-77726430D01*
X148766880Y-77735000D01*
X148771300Y-77744480D01*
X148774000Y-77754580D01*
X148774920Y-77765000D01*
X148774920Y-78735000D01*
X148774000Y-78745420D01*
X148771300Y-78755520D01*
X148766880Y-78765000D01*
X148760880Y-78773570D01*
X148753480Y-78780970D01*
X148744920Y-78786960D01*
X148735440Y-78791380D01*
X148725330Y-78794090D01*
X148714920Y-78795000D01*
X147434910Y-78795000D01*
X147424490Y-78794090D01*
X147414390Y-78791380D01*
X147404910Y-78786960D01*
X147396340Y-78780970D01*
X147388950Y-78773570D01*
X147382950Y-78765000D01*
X147378530Y-78755520D01*
X147375820Y-78745420D01*
X147374910Y-78735000D01*
X147374910Y-77765000D01*
X147375820Y-77754580D01*
X147378530Y-77744480D01*
X147382950Y-77735000D01*
X147388950Y-77726430D01*
X147396340Y-77719040D01*
X147404910Y-77713040D01*
X147414390Y-77708620D01*
X147424490Y-77705910D01*
X147434910Y-77705000D01*
X148714920Y-77705000D01*
X148725330Y-77705910D01*
G37*
G36*
X148725330Y-79105910D02*
G01*
X148735440Y-79108620D01*
X148744920Y-79113040D01*
X148753480Y-79119040D01*
X148760880Y-79126440D01*
X148766880Y-79135000D01*
X148771300Y-79144480D01*
X148774000Y-79154580D01*
X148774920Y-79165000D01*
X148774920Y-79285000D01*
X148774000Y-79295420D01*
X148771300Y-79305520D01*
X148766880Y-79315000D01*
X148760880Y-79323570D01*
X148753480Y-79330970D01*
X148744920Y-79336960D01*
X148735440Y-79341380D01*
X148725330Y-79344090D01*
X148714920Y-79345000D01*
X147434920Y-79345000D01*
X147424500Y-79344090D01*
X147414400Y-79341380D01*
X147404920Y-79336960D01*
X147396350Y-79330970D01*
X147388950Y-79323570D01*
X147382960Y-79315000D01*
X147378540Y-79305520D01*
X147375830Y-79295420D01*
X147374920Y-79285000D01*
X147374920Y-79165000D01*
X147375830Y-79154580D01*
X147378540Y-79144480D01*
X147382960Y-79135000D01*
X147388950Y-79126440D01*
X147396350Y-79119040D01*
X147404920Y-79113040D01*
X147414400Y-79108620D01*
X147424500Y-79105910D01*
X147434920Y-79105000D01*
X148714920Y-79105000D01*
X148725330Y-79105910D01*
G37*
G36*
X149770340Y-77805910D02*
G01*
X149780440Y-77808620D01*
X149789920Y-77813040D01*
X149798490Y-77819040D01*
X149805880Y-77826430D01*
X149811880Y-77835000D01*
X149816300Y-77844480D01*
X149819010Y-77854580D01*
X149819920Y-77865000D01*
X149819920Y-78415000D01*
X149819010Y-78425420D01*
X149816300Y-78435520D01*
X149811880Y-78445000D01*
X149805880Y-78453570D01*
X149798490Y-78460970D01*
X149789920Y-78466960D01*
X149780440Y-78471380D01*
X149770340Y-78474090D01*
X149759920Y-78475000D01*
X149529920Y-78475000D01*
X149519500Y-78474090D01*
X149509400Y-78471380D01*
X149499920Y-78466960D01*
X149491350Y-78460970D01*
X149483950Y-78453570D01*
X149477960Y-78445000D01*
X149473540Y-78435520D01*
X149470830Y-78425420D01*
X149469920Y-78415000D01*
X149469920Y-77865000D01*
X149470830Y-77854580D01*
X149473540Y-77844480D01*
X149477960Y-77835000D01*
X149483950Y-77826430D01*
X149491350Y-77819040D01*
X149499920Y-77813040D01*
X149509400Y-77808620D01*
X149519500Y-77805910D01*
X149529920Y-77805000D01*
X149759920Y-77805000D01*
X149770340Y-77805910D01*
G37*
G36*
X149770340Y-78675910D02*
G01*
X149780440Y-78678620D01*
X149789920Y-78683040D01*
X149798490Y-78689040D01*
X149805880Y-78696430D01*
X149811880Y-78705000D01*
X149816300Y-78714480D01*
X149819010Y-78724580D01*
X149819920Y-78735000D01*
X149819920Y-79285000D01*
X149819010Y-79295420D01*
X149816300Y-79305520D01*
X149811880Y-79315000D01*
X149805880Y-79323570D01*
X149798490Y-79330970D01*
X149789920Y-79336960D01*
X149780440Y-79341380D01*
X149770340Y-79344090D01*
X149759920Y-79345000D01*
X149529920Y-79345000D01*
X149519500Y-79344090D01*
X149509400Y-79341380D01*
X149499920Y-79336960D01*
X149491350Y-79330970D01*
X149483950Y-79323570D01*
X149477960Y-79315000D01*
X149473540Y-79305520D01*
X149470830Y-79295420D01*
X149469920Y-79285000D01*
X149469920Y-78735000D01*
X149470830Y-78724580D01*
X149473540Y-78714480D01*
X149477960Y-78705000D01*
X149483950Y-78696430D01*
X149491350Y-78689040D01*
X149499920Y-78683040D01*
X149509400Y-78678620D01*
X149519500Y-78675910D01*
X149529920Y-78675000D01*
X149759920Y-78675000D01*
X149770340Y-78675910D01*
G37*
G36*
X150220320Y-77805910D02*
G01*
X150230420Y-77808620D01*
X150239900Y-77813040D01*
X150248470Y-77819040D01*
X150255860Y-77826430D01*
X150261860Y-77835000D01*
X150266280Y-77844480D01*
X150268990Y-77854580D01*
X150269900Y-77865000D01*
X150269900Y-77985000D01*
X150268990Y-77995420D01*
X150266280Y-78005520D01*
X150261860Y-78015000D01*
X150255860Y-78023570D01*
X150248470Y-78030970D01*
X150239900Y-78036960D01*
X150230420Y-78041380D01*
X150220320Y-78044090D01*
X150209900Y-78045000D01*
X150029900Y-78045000D01*
X150019480Y-78044090D01*
X150009380Y-78041380D01*
X149999900Y-78036960D01*
X149991330Y-78030970D01*
X149983930Y-78023570D01*
X149977940Y-78015000D01*
X149973520Y-78005520D01*
X149970810Y-77995420D01*
X149969900Y-77985000D01*
X149969900Y-77865000D01*
X149970810Y-77854580D01*
X149973520Y-77844480D01*
X149977940Y-77835000D01*
X149983930Y-77826430D01*
X149991330Y-77819040D01*
X149999900Y-77813040D01*
X150009380Y-77808620D01*
X150019480Y-77805910D01*
X150029900Y-77805000D01*
X150209900Y-77805000D01*
X150220320Y-77805910D01*
G37*
G36*
X150220320Y-78455910D02*
G01*
X150230420Y-78458620D01*
X150239900Y-78463040D01*
X150248470Y-78469040D01*
X150255860Y-78476430D01*
X150261860Y-78485000D01*
X150266280Y-78494480D01*
X150268990Y-78504580D01*
X150269900Y-78515000D01*
X150269900Y-78635000D01*
X150268990Y-78645420D01*
X150266280Y-78655520D01*
X150261860Y-78665000D01*
X150255860Y-78673570D01*
X150248470Y-78680960D01*
X150239900Y-78686960D01*
X150230420Y-78691380D01*
X150220320Y-78694090D01*
X150209900Y-78695000D01*
X150029900Y-78695000D01*
X150019480Y-78694090D01*
X150009380Y-78691380D01*
X149999900Y-78686960D01*
X149991330Y-78680960D01*
X149983930Y-78673570D01*
X149977940Y-78665000D01*
X149973520Y-78655520D01*
X149970810Y-78645420D01*
X149969900Y-78635000D01*
X149969900Y-78515000D01*
X149970810Y-78504580D01*
X149973520Y-78494480D01*
X149977940Y-78485000D01*
X149983930Y-78476430D01*
X149991330Y-78469040D01*
X149999900Y-78463040D01*
X150009380Y-78458620D01*
X150019480Y-78455910D01*
X150029900Y-78455000D01*
X150209900Y-78455000D01*
X150220320Y-78455910D01*
G37*
G36*
X150220320Y-79105910D02*
G01*
X150230420Y-79108620D01*
X150239900Y-79113040D01*
X150248470Y-79119040D01*
X150255860Y-79126440D01*
X150261860Y-79135000D01*
X150266280Y-79144480D01*
X150268990Y-79154580D01*
X150269900Y-79165000D01*
X150269900Y-79285000D01*
X150268990Y-79295420D01*
X150266280Y-79305520D01*
X150261860Y-79315000D01*
X150255860Y-79323570D01*
X150248470Y-79330970D01*
X150239900Y-79336960D01*
X150230420Y-79341380D01*
X150220320Y-79344090D01*
X150209900Y-79345000D01*
X150029900Y-79345000D01*
X150019480Y-79344090D01*
X150009380Y-79341380D01*
X149999900Y-79336960D01*
X149991330Y-79330970D01*
X149983930Y-79323570D01*
X149977940Y-79315000D01*
X149973520Y-79305520D01*
X149970810Y-79295420D01*
X149969900Y-79285000D01*
X149969900Y-79165000D01*
X149970810Y-79154580D01*
X149973520Y-79144480D01*
X149977940Y-79135000D01*
X149983930Y-79126440D01*
X149991330Y-79119040D01*
X149999900Y-79113040D01*
X150009380Y-79108620D01*
X150019480Y-79105910D01*
X150029900Y-79105000D01*
X150209900Y-79105000D01*
X150220320Y-79105910D01*
G37*
G36*
X150225340Y-77155910D02*
G01*
X150235440Y-77158620D01*
X150244920Y-77163040D01*
X150253480Y-77169040D01*
X150260880Y-77176440D01*
X150266880Y-77185000D01*
X150271300Y-77194480D01*
X150274010Y-77204580D01*
X150274920Y-77215000D01*
X150274920Y-77335000D01*
X150274010Y-77345420D01*
X150271300Y-77355520D01*
X150266880Y-77365000D01*
X150260880Y-77373570D01*
X150253480Y-77380970D01*
X150244920Y-77386960D01*
X150235440Y-77391380D01*
X150225340Y-77394090D01*
X150214920Y-77395000D01*
X149634920Y-77395000D01*
X149624500Y-77394090D01*
X149614400Y-77391380D01*
X149604920Y-77386960D01*
X149596350Y-77380970D01*
X149588950Y-77373570D01*
X149582960Y-77365000D01*
X149578540Y-77355520D01*
X149575830Y-77345420D01*
X149574920Y-77335000D01*
X149574920Y-77215000D01*
X149575830Y-77204580D01*
X149578540Y-77194480D01*
X149582960Y-77185000D01*
X149588950Y-77176440D01*
X149596350Y-77169040D01*
X149604920Y-77163040D01*
X149614400Y-77158620D01*
X149624500Y-77155910D01*
X149634920Y-77155000D01*
X150214920Y-77155000D01*
X150225340Y-77155910D01*
G37*
G04 #@! TO.C,Q3*
G36*
X147125410Y-70505910D02*
G01*
X147135510Y-70508620D01*
X147144990Y-70513040D01*
X147153560Y-70519040D01*
X147160960Y-70526440D01*
X147166950Y-70535000D01*
X147171370Y-70544480D01*
X147174080Y-70554580D01*
X147174990Y-70565000D01*
X147174990Y-70685000D01*
X147174080Y-70695420D01*
X147171370Y-70705520D01*
X147166950Y-70715000D01*
X147160960Y-70723570D01*
X147153560Y-70730970D01*
X147144990Y-70736960D01*
X147135510Y-70741380D01*
X147125410Y-70744090D01*
X147114990Y-70745000D01*
X146634990Y-70745000D01*
X146624580Y-70744090D01*
X146614470Y-70741380D01*
X146604990Y-70736960D01*
X146596430Y-70730970D01*
X146589030Y-70723570D01*
X146583030Y-70715000D01*
X146578610Y-70705520D01*
X146575910Y-70695420D01*
X146574990Y-70685000D01*
X146574990Y-70565000D01*
X146575910Y-70554580D01*
X146578610Y-70544480D01*
X146583030Y-70535000D01*
X146589030Y-70526440D01*
X146596430Y-70519040D01*
X146604990Y-70513040D01*
X146614470Y-70508620D01*
X146624580Y-70505910D01*
X146634990Y-70505000D01*
X147114990Y-70505000D01*
X147125410Y-70505910D01*
G37*
G36*
X147125410Y-71155910D02*
G01*
X147135510Y-71158620D01*
X147144990Y-71163040D01*
X147153560Y-71169040D01*
X147160960Y-71176430D01*
X147166950Y-71185000D01*
X147171370Y-71194480D01*
X147174080Y-71204580D01*
X147174990Y-71215000D01*
X147174990Y-71335000D01*
X147174080Y-71345420D01*
X147171370Y-71355520D01*
X147166950Y-71365000D01*
X147160960Y-71373570D01*
X147153560Y-71380970D01*
X147144990Y-71386960D01*
X147135510Y-71391380D01*
X147125410Y-71394090D01*
X147114990Y-71395000D01*
X146634990Y-71395000D01*
X146624580Y-71394090D01*
X146614470Y-71391380D01*
X146604990Y-71386960D01*
X146596430Y-71380970D01*
X146589030Y-71373570D01*
X146583030Y-71365000D01*
X146578610Y-71355520D01*
X146575910Y-71345420D01*
X146574990Y-71335000D01*
X146574990Y-71215000D01*
X146575910Y-71204580D01*
X146578610Y-71194480D01*
X146583030Y-71185000D01*
X146589030Y-71176430D01*
X146596430Y-71169040D01*
X146604990Y-71163040D01*
X146614470Y-71158620D01*
X146624580Y-71155910D01*
X146634990Y-71155000D01*
X147114990Y-71155000D01*
X147125410Y-71155910D01*
G37*
G36*
X147125410Y-71805920D02*
G01*
X147135510Y-71808620D01*
X147144990Y-71813040D01*
X147153560Y-71819040D01*
X147160960Y-71826440D01*
X147166950Y-71835000D01*
X147171370Y-71844480D01*
X147174080Y-71854580D01*
X147174990Y-71865000D01*
X147174990Y-71985000D01*
X147174080Y-71995420D01*
X147171370Y-72005520D01*
X147166950Y-72015000D01*
X147160960Y-72023570D01*
X147153560Y-72030970D01*
X147144990Y-72036960D01*
X147135510Y-72041380D01*
X147125410Y-72044090D01*
X147114990Y-72045000D01*
X146634990Y-72045000D01*
X146624580Y-72044090D01*
X146614470Y-72041380D01*
X146604990Y-72036960D01*
X146596430Y-72030970D01*
X146589030Y-72023570D01*
X146583030Y-72015000D01*
X146578610Y-72005520D01*
X146575910Y-71995420D01*
X146574990Y-71985000D01*
X146574990Y-71865000D01*
X146575910Y-71854580D01*
X146578610Y-71844480D01*
X146583030Y-71835000D01*
X146589030Y-71826440D01*
X146596430Y-71819040D01*
X146604990Y-71813040D01*
X146614470Y-71808620D01*
X146624580Y-71805920D01*
X146634990Y-71805000D01*
X147114990Y-71805000D01*
X147125410Y-71805920D01*
G37*
G36*
X147125410Y-72455910D02*
G01*
X147135510Y-72458620D01*
X147144990Y-72463040D01*
X147153560Y-72469040D01*
X147160960Y-72476440D01*
X147166950Y-72485000D01*
X147171370Y-72494480D01*
X147174080Y-72504580D01*
X147174990Y-72515000D01*
X147174990Y-72635000D01*
X147174080Y-72645420D01*
X147171370Y-72655520D01*
X147166950Y-72665000D01*
X147160960Y-72673570D01*
X147153560Y-72680970D01*
X147144990Y-72686960D01*
X147135510Y-72691380D01*
X147125410Y-72694090D01*
X147114990Y-72695000D01*
X146634990Y-72695000D01*
X146624580Y-72694090D01*
X146614470Y-72691380D01*
X146604990Y-72686960D01*
X146596430Y-72680970D01*
X146589030Y-72673570D01*
X146583030Y-72665000D01*
X146578610Y-72655520D01*
X146575910Y-72645420D01*
X146574990Y-72635000D01*
X146574990Y-72515000D01*
X146575910Y-72504580D01*
X146578610Y-72494480D01*
X146583030Y-72485000D01*
X146589030Y-72476440D01*
X146596430Y-72469040D01*
X146604990Y-72463040D01*
X146614470Y-72458620D01*
X146624580Y-72455910D01*
X146634990Y-72455000D01*
X147114990Y-72455000D01*
X147125410Y-72455910D01*
G37*
G36*
X148725330Y-70505910D02*
G01*
X148735430Y-70508620D01*
X148744910Y-70513040D01*
X148753480Y-70519040D01*
X148760880Y-70526440D01*
X148766870Y-70535000D01*
X148771290Y-70544480D01*
X148774000Y-70554580D01*
X148774910Y-70565000D01*
X148774910Y-70685000D01*
X148774000Y-70695420D01*
X148771290Y-70705520D01*
X148766870Y-70715000D01*
X148760880Y-70723570D01*
X148753480Y-70730970D01*
X148744910Y-70736960D01*
X148735430Y-70741380D01*
X148725330Y-70744090D01*
X148714910Y-70745000D01*
X147434910Y-70745000D01*
X147424500Y-70744090D01*
X147414390Y-70741380D01*
X147404910Y-70736960D01*
X147396350Y-70730970D01*
X147388950Y-70723570D01*
X147382950Y-70715000D01*
X147378530Y-70705520D01*
X147375830Y-70695420D01*
X147374910Y-70685000D01*
X147374910Y-70565000D01*
X147375830Y-70554580D01*
X147378530Y-70544480D01*
X147382950Y-70535000D01*
X147388950Y-70526440D01*
X147396350Y-70519040D01*
X147404910Y-70513040D01*
X147414390Y-70508620D01*
X147424500Y-70505910D01*
X147434910Y-70505000D01*
X148714910Y-70505000D01*
X148725330Y-70505910D01*
G37*
G36*
X148725330Y-71055910D02*
G01*
X148735440Y-71058620D01*
X148744920Y-71063040D01*
X148753480Y-71069040D01*
X148760880Y-71076430D01*
X148766880Y-71085000D01*
X148771300Y-71094480D01*
X148774000Y-71104580D01*
X148774920Y-71115000D01*
X148774920Y-72085000D01*
X148774000Y-72095420D01*
X148771300Y-72105520D01*
X148766880Y-72115000D01*
X148760880Y-72123570D01*
X148753480Y-72130970D01*
X148744920Y-72136960D01*
X148735440Y-72141380D01*
X148725330Y-72144090D01*
X148714920Y-72145000D01*
X147434910Y-72145000D01*
X147424490Y-72144090D01*
X147414390Y-72141380D01*
X147404910Y-72136960D01*
X147396340Y-72130970D01*
X147388950Y-72123570D01*
X147382950Y-72115000D01*
X147378530Y-72105520D01*
X147375820Y-72095420D01*
X147374910Y-72085000D01*
X147374910Y-71115000D01*
X147375820Y-71104580D01*
X147378530Y-71094480D01*
X147382950Y-71085000D01*
X147388950Y-71076430D01*
X147396340Y-71069040D01*
X147404910Y-71063040D01*
X147414390Y-71058620D01*
X147424490Y-71055910D01*
X147434910Y-71055000D01*
X148714920Y-71055000D01*
X148725330Y-71055910D01*
G37*
G36*
X148725330Y-72455910D02*
G01*
X148735440Y-72458620D01*
X148744920Y-72463040D01*
X148753480Y-72469040D01*
X148760880Y-72476440D01*
X148766880Y-72485000D01*
X148771300Y-72494480D01*
X148774000Y-72504580D01*
X148774920Y-72515000D01*
X148774920Y-72635000D01*
X148774000Y-72645420D01*
X148771300Y-72655520D01*
X148766880Y-72665000D01*
X148760880Y-72673570D01*
X148753480Y-72680970D01*
X148744920Y-72686960D01*
X148735440Y-72691380D01*
X148725330Y-72694090D01*
X148714920Y-72695000D01*
X147434920Y-72695000D01*
X147424500Y-72694090D01*
X147414400Y-72691380D01*
X147404920Y-72686960D01*
X147396350Y-72680970D01*
X147388950Y-72673570D01*
X147382960Y-72665000D01*
X147378540Y-72655520D01*
X147375830Y-72645420D01*
X147374920Y-72635000D01*
X147374920Y-72515000D01*
X147375830Y-72504580D01*
X147378540Y-72494480D01*
X147382960Y-72485000D01*
X147388950Y-72476440D01*
X147396350Y-72469040D01*
X147404920Y-72463040D01*
X147414400Y-72458620D01*
X147424500Y-72455910D01*
X147434920Y-72455000D01*
X148714920Y-72455000D01*
X148725330Y-72455910D01*
G37*
G36*
X149770340Y-71155910D02*
G01*
X149780440Y-71158620D01*
X149789920Y-71163040D01*
X149798490Y-71169040D01*
X149805880Y-71176430D01*
X149811880Y-71185000D01*
X149816300Y-71194480D01*
X149819010Y-71204580D01*
X149819920Y-71215000D01*
X149819920Y-71765000D01*
X149819010Y-71775420D01*
X149816300Y-71785520D01*
X149811880Y-71795000D01*
X149805880Y-71803570D01*
X149798490Y-71810970D01*
X149789920Y-71816960D01*
X149780440Y-71821380D01*
X149770340Y-71824090D01*
X149759920Y-71825000D01*
X149529920Y-71825000D01*
X149519500Y-71824090D01*
X149509400Y-71821380D01*
X149499920Y-71816960D01*
X149491350Y-71810970D01*
X149483950Y-71803570D01*
X149477960Y-71795000D01*
X149473540Y-71785520D01*
X149470830Y-71775420D01*
X149469920Y-71765000D01*
X149469920Y-71215000D01*
X149470830Y-71204580D01*
X149473540Y-71194480D01*
X149477960Y-71185000D01*
X149483950Y-71176430D01*
X149491350Y-71169040D01*
X149499920Y-71163040D01*
X149509400Y-71158620D01*
X149519500Y-71155910D01*
X149529920Y-71155000D01*
X149759920Y-71155000D01*
X149770340Y-71155910D01*
G37*
G36*
X149770340Y-72025910D02*
G01*
X149780440Y-72028620D01*
X149789920Y-72033040D01*
X149798490Y-72039040D01*
X149805880Y-72046430D01*
X149811880Y-72055000D01*
X149816300Y-72064480D01*
X149819010Y-72074580D01*
X149819920Y-72085000D01*
X149819920Y-72635000D01*
X149819010Y-72645420D01*
X149816300Y-72655520D01*
X149811880Y-72665000D01*
X149805880Y-72673570D01*
X149798490Y-72680970D01*
X149789920Y-72686960D01*
X149780440Y-72691380D01*
X149770340Y-72694090D01*
X149759920Y-72695000D01*
X149529920Y-72695000D01*
X149519500Y-72694090D01*
X149509400Y-72691380D01*
X149499920Y-72686960D01*
X149491350Y-72680970D01*
X149483950Y-72673570D01*
X149477960Y-72665000D01*
X149473540Y-72655520D01*
X149470830Y-72645420D01*
X149469920Y-72635000D01*
X149469920Y-72085000D01*
X149470830Y-72074580D01*
X149473540Y-72064480D01*
X149477960Y-72055000D01*
X149483950Y-72046430D01*
X149491350Y-72039040D01*
X149499920Y-72033040D01*
X149509400Y-72028620D01*
X149519500Y-72025910D01*
X149529920Y-72025000D01*
X149759920Y-72025000D01*
X149770340Y-72025910D01*
G37*
G36*
X150220320Y-71155910D02*
G01*
X150230420Y-71158620D01*
X150239900Y-71163040D01*
X150248470Y-71169040D01*
X150255860Y-71176430D01*
X150261860Y-71185000D01*
X150266280Y-71194480D01*
X150268990Y-71204580D01*
X150269900Y-71215000D01*
X150269900Y-71335000D01*
X150268990Y-71345420D01*
X150266280Y-71355520D01*
X150261860Y-71365000D01*
X150255860Y-71373570D01*
X150248470Y-71380970D01*
X150239900Y-71386960D01*
X150230420Y-71391380D01*
X150220320Y-71394090D01*
X150209900Y-71395000D01*
X150029900Y-71395000D01*
X150019480Y-71394090D01*
X150009380Y-71391380D01*
X149999900Y-71386960D01*
X149991330Y-71380970D01*
X149983930Y-71373570D01*
X149977940Y-71365000D01*
X149973520Y-71355520D01*
X149970810Y-71345420D01*
X149969900Y-71335000D01*
X149969900Y-71215000D01*
X149970810Y-71204580D01*
X149973520Y-71194480D01*
X149977940Y-71185000D01*
X149983930Y-71176430D01*
X149991330Y-71169040D01*
X149999900Y-71163040D01*
X150009380Y-71158620D01*
X150019480Y-71155910D01*
X150029900Y-71155000D01*
X150209900Y-71155000D01*
X150220320Y-71155910D01*
G37*
G36*
X150220320Y-71805910D02*
G01*
X150230420Y-71808620D01*
X150239900Y-71813040D01*
X150248470Y-71819040D01*
X150255860Y-71826430D01*
X150261860Y-71835000D01*
X150266280Y-71844480D01*
X150268990Y-71854580D01*
X150269900Y-71865000D01*
X150269900Y-71985000D01*
X150268990Y-71995420D01*
X150266280Y-72005520D01*
X150261860Y-72015000D01*
X150255860Y-72023570D01*
X150248470Y-72030960D01*
X150239900Y-72036960D01*
X150230420Y-72041380D01*
X150220320Y-72044090D01*
X150209900Y-72045000D01*
X150029900Y-72045000D01*
X150019480Y-72044090D01*
X150009380Y-72041380D01*
X149999900Y-72036960D01*
X149991330Y-72030960D01*
X149983930Y-72023570D01*
X149977940Y-72015000D01*
X149973520Y-72005520D01*
X149970810Y-71995420D01*
X149969900Y-71985000D01*
X149969900Y-71865000D01*
X149970810Y-71854580D01*
X149973520Y-71844480D01*
X149977940Y-71835000D01*
X149983930Y-71826430D01*
X149991330Y-71819040D01*
X149999900Y-71813040D01*
X150009380Y-71808620D01*
X150019480Y-71805910D01*
X150029900Y-71805000D01*
X150209900Y-71805000D01*
X150220320Y-71805910D01*
G37*
G36*
X150220320Y-72455910D02*
G01*
X150230420Y-72458620D01*
X150239900Y-72463040D01*
X150248470Y-72469040D01*
X150255860Y-72476440D01*
X150261860Y-72485000D01*
X150266280Y-72494480D01*
X150268990Y-72504580D01*
X150269900Y-72515000D01*
X150269900Y-72635000D01*
X150268990Y-72645420D01*
X150266280Y-72655520D01*
X150261860Y-72665000D01*
X150255860Y-72673570D01*
X150248470Y-72680970D01*
X150239900Y-72686960D01*
X150230420Y-72691380D01*
X150220320Y-72694090D01*
X150209900Y-72695000D01*
X150029900Y-72695000D01*
X150019480Y-72694090D01*
X150009380Y-72691380D01*
X149999900Y-72686960D01*
X149991330Y-72680970D01*
X149983930Y-72673570D01*
X149977940Y-72665000D01*
X149973520Y-72655520D01*
X149970810Y-72645420D01*
X149969900Y-72635000D01*
X149969900Y-72515000D01*
X149970810Y-72504580D01*
X149973520Y-72494480D01*
X149977940Y-72485000D01*
X149983930Y-72476440D01*
X149991330Y-72469040D01*
X149999900Y-72463040D01*
X150009380Y-72458620D01*
X150019480Y-72455910D01*
X150029900Y-72455000D01*
X150209900Y-72455000D01*
X150220320Y-72455910D01*
G37*
G36*
X150225340Y-70505910D02*
G01*
X150235440Y-70508620D01*
X150244920Y-70513040D01*
X150253480Y-70519040D01*
X150260880Y-70526440D01*
X150266880Y-70535000D01*
X150271300Y-70544480D01*
X150274010Y-70554580D01*
X150274920Y-70565000D01*
X150274920Y-70685000D01*
X150274010Y-70695420D01*
X150271300Y-70705520D01*
X150266880Y-70715000D01*
X150260880Y-70723570D01*
X150253480Y-70730970D01*
X150244920Y-70736960D01*
X150235440Y-70741380D01*
X150225340Y-70744090D01*
X150214920Y-70745000D01*
X149634920Y-70745000D01*
X149624500Y-70744090D01*
X149614400Y-70741380D01*
X149604920Y-70736960D01*
X149596350Y-70730970D01*
X149588950Y-70723570D01*
X149582960Y-70715000D01*
X149578540Y-70705520D01*
X149575830Y-70695420D01*
X149574920Y-70685000D01*
X149574920Y-70565000D01*
X149575830Y-70554580D01*
X149578540Y-70544480D01*
X149582960Y-70535000D01*
X149588950Y-70526440D01*
X149596350Y-70519040D01*
X149604920Y-70513040D01*
X149614400Y-70508620D01*
X149624500Y-70505910D01*
X149634920Y-70505000D01*
X150214920Y-70505000D01*
X150225340Y-70505910D01*
G37*
D11*
G04 #@! TO.C,FL1*
X122850000Y-55850000D02*
X121850000Y-55850000D01*
X121850000Y-54850000D01*
X120550000Y-54850000D01*
X120550000Y-54150000D01*
X122850000Y-54150000D01*
X122850000Y-55850000D01*
G36*
X122850000Y-55850000D02*
G01*
X121850000Y-55850000D01*
X121850000Y-54850000D01*
X120550000Y-54850000D01*
X120550000Y-54150000D01*
X122850000Y-54150000D01*
X122850000Y-55850000D01*
G37*
X122850000Y-58850000D02*
X120550000Y-58850000D01*
X120550000Y-58150000D01*
X121850000Y-58150000D01*
X121850000Y-57150000D01*
X122850000Y-57150000D01*
X122850000Y-58850000D01*
G36*
X122850000Y-58850000D02*
G01*
X120550000Y-58850000D01*
X120550000Y-58150000D01*
X121850000Y-58150000D01*
X121850000Y-57150000D01*
X122850000Y-57150000D01*
X122850000Y-58850000D01*
G37*
X126050000Y-54850000D02*
X124750000Y-54850000D01*
X124750000Y-55850000D01*
X123750000Y-55850000D01*
X123750000Y-54150000D01*
X126050000Y-54150000D01*
X126050000Y-54850000D01*
G36*
X126050000Y-54850000D02*
G01*
X124750000Y-54850000D01*
X124750000Y-55850000D01*
X123750000Y-55850000D01*
X123750000Y-54150000D01*
X126050000Y-54150000D01*
X126050000Y-54850000D01*
G37*
X124750000Y-58150000D02*
X126050000Y-58150000D01*
X126050000Y-58850000D01*
X123750000Y-58850000D01*
X123750000Y-57150000D01*
X124750000Y-57150000D01*
X124750000Y-58150000D01*
G36*
X124750000Y-58150000D02*
G01*
X126050000Y-58150000D01*
X126050000Y-58850000D01*
X123750000Y-58850000D01*
X123750000Y-57150000D01*
X124750000Y-57150000D01*
X124750000Y-58150000D01*
G37*
D10*
G04 #@! TO.C,Q6*
G36*
X151450660Y-77155910D02*
G01*
X151460760Y-77158620D01*
X151470240Y-77163040D01*
X151478810Y-77169040D01*
X151486210Y-77176440D01*
X151492200Y-77185000D01*
X151496620Y-77194480D01*
X151499330Y-77204580D01*
X151500240Y-77215000D01*
X151500240Y-77335000D01*
X151499330Y-77345420D01*
X151496620Y-77355520D01*
X151492200Y-77365000D01*
X151486210Y-77373570D01*
X151478810Y-77380970D01*
X151470240Y-77386960D01*
X151460760Y-77391380D01*
X151450660Y-77394090D01*
X151440240Y-77395000D01*
X150960240Y-77395000D01*
X150949830Y-77394090D01*
X150939720Y-77391380D01*
X150930240Y-77386960D01*
X150921680Y-77380970D01*
X150914280Y-77373570D01*
X150908280Y-77365000D01*
X150903860Y-77355520D01*
X150901160Y-77345420D01*
X150900240Y-77335000D01*
X150900240Y-77215000D01*
X150901160Y-77204580D01*
X150903860Y-77194480D01*
X150908280Y-77185000D01*
X150914280Y-77176440D01*
X150921680Y-77169040D01*
X150930240Y-77163040D01*
X150939720Y-77158620D01*
X150949830Y-77155910D01*
X150960240Y-77155000D01*
X151440240Y-77155000D01*
X151450660Y-77155910D01*
G37*
G36*
X151450660Y-77805910D02*
G01*
X151460760Y-77808620D01*
X151470240Y-77813040D01*
X151478810Y-77819040D01*
X151486210Y-77826430D01*
X151492200Y-77835000D01*
X151496620Y-77844480D01*
X151499330Y-77854580D01*
X151500240Y-77865000D01*
X151500240Y-77985000D01*
X151499330Y-77995420D01*
X151496620Y-78005520D01*
X151492200Y-78015000D01*
X151486210Y-78023570D01*
X151478810Y-78030970D01*
X151470240Y-78036960D01*
X151460760Y-78041380D01*
X151450660Y-78044090D01*
X151440240Y-78045000D01*
X150960240Y-78045000D01*
X150949830Y-78044090D01*
X150939720Y-78041380D01*
X150930240Y-78036960D01*
X150921680Y-78030970D01*
X150914280Y-78023570D01*
X150908280Y-78015000D01*
X150903860Y-78005520D01*
X150901160Y-77995420D01*
X150900240Y-77985000D01*
X150900240Y-77865000D01*
X150901160Y-77854580D01*
X150903860Y-77844480D01*
X150908280Y-77835000D01*
X150914280Y-77826430D01*
X150921680Y-77819040D01*
X150930240Y-77813040D01*
X150939720Y-77808620D01*
X150949830Y-77805910D01*
X150960240Y-77805000D01*
X151440240Y-77805000D01*
X151450660Y-77805910D01*
G37*
G36*
X151450660Y-78455920D02*
G01*
X151460760Y-78458620D01*
X151470240Y-78463040D01*
X151478810Y-78469040D01*
X151486210Y-78476440D01*
X151492200Y-78485000D01*
X151496620Y-78494480D01*
X151499330Y-78504580D01*
X151500240Y-78515000D01*
X151500240Y-78635000D01*
X151499330Y-78645420D01*
X151496620Y-78655520D01*
X151492200Y-78665000D01*
X151486210Y-78673570D01*
X151478810Y-78680970D01*
X151470240Y-78686960D01*
X151460760Y-78691380D01*
X151450660Y-78694090D01*
X151440240Y-78695000D01*
X150960240Y-78695000D01*
X150949830Y-78694090D01*
X150939720Y-78691380D01*
X150930240Y-78686960D01*
X150921680Y-78680970D01*
X150914280Y-78673570D01*
X150908280Y-78665000D01*
X150903860Y-78655520D01*
X150901160Y-78645420D01*
X150900240Y-78635000D01*
X150900240Y-78515000D01*
X150901160Y-78504580D01*
X150903860Y-78494480D01*
X150908280Y-78485000D01*
X150914280Y-78476440D01*
X150921680Y-78469040D01*
X150930240Y-78463040D01*
X150939720Y-78458620D01*
X150949830Y-78455920D01*
X150960240Y-78455000D01*
X151440240Y-78455000D01*
X151450660Y-78455920D01*
G37*
G36*
X151450660Y-79105910D02*
G01*
X151460760Y-79108620D01*
X151470240Y-79113040D01*
X151478810Y-79119040D01*
X151486210Y-79126440D01*
X151492200Y-79135000D01*
X151496620Y-79144480D01*
X151499330Y-79154580D01*
X151500240Y-79165000D01*
X151500240Y-79285000D01*
X151499330Y-79295420D01*
X151496620Y-79305520D01*
X151492200Y-79315000D01*
X151486210Y-79323570D01*
X151478810Y-79330970D01*
X151470240Y-79336960D01*
X151460760Y-79341380D01*
X151450660Y-79344090D01*
X151440240Y-79345000D01*
X150960240Y-79345000D01*
X150949830Y-79344090D01*
X150939720Y-79341380D01*
X150930240Y-79336960D01*
X150921680Y-79330970D01*
X150914280Y-79323570D01*
X150908280Y-79315000D01*
X150903860Y-79305520D01*
X150901160Y-79295420D01*
X150900240Y-79285000D01*
X150900240Y-79165000D01*
X150901160Y-79154580D01*
X150903860Y-79144480D01*
X150908280Y-79135000D01*
X150914280Y-79126440D01*
X150921680Y-79119040D01*
X150930240Y-79113040D01*
X150939720Y-79108620D01*
X150949830Y-79105910D01*
X150960240Y-79105000D01*
X151440240Y-79105000D01*
X151450660Y-79105910D01*
G37*
G36*
X153050580Y-77155910D02*
G01*
X153060680Y-77158620D01*
X153070160Y-77163040D01*
X153078730Y-77169040D01*
X153086130Y-77176440D01*
X153092120Y-77185000D01*
X153096540Y-77194480D01*
X153099250Y-77204580D01*
X153100160Y-77215000D01*
X153100160Y-77335000D01*
X153099250Y-77345420D01*
X153096540Y-77355520D01*
X153092120Y-77365000D01*
X153086130Y-77373570D01*
X153078730Y-77380970D01*
X153070160Y-77386960D01*
X153060680Y-77391380D01*
X153050580Y-77394090D01*
X153040160Y-77395000D01*
X151760160Y-77395000D01*
X151749750Y-77394090D01*
X151739640Y-77391380D01*
X151730160Y-77386960D01*
X151721600Y-77380970D01*
X151714200Y-77373570D01*
X151708200Y-77365000D01*
X151703780Y-77355520D01*
X151701080Y-77345420D01*
X151700160Y-77335000D01*
X151700160Y-77215000D01*
X151701080Y-77204580D01*
X151703780Y-77194480D01*
X151708200Y-77185000D01*
X151714200Y-77176440D01*
X151721600Y-77169040D01*
X151730160Y-77163040D01*
X151739640Y-77158620D01*
X151749750Y-77155910D01*
X151760160Y-77155000D01*
X153040160Y-77155000D01*
X153050580Y-77155910D01*
G37*
G36*
X153050580Y-77705910D02*
G01*
X153060690Y-77708620D01*
X153070170Y-77713040D01*
X153078730Y-77719040D01*
X153086130Y-77726430D01*
X153092130Y-77735000D01*
X153096550Y-77744480D01*
X153099250Y-77754580D01*
X153100170Y-77765000D01*
X153100170Y-78735000D01*
X153099250Y-78745420D01*
X153096550Y-78755520D01*
X153092130Y-78765000D01*
X153086130Y-78773570D01*
X153078730Y-78780970D01*
X153070170Y-78786960D01*
X153060690Y-78791380D01*
X153050580Y-78794090D01*
X153040170Y-78795000D01*
X151760160Y-78795000D01*
X151749740Y-78794090D01*
X151739640Y-78791380D01*
X151730160Y-78786960D01*
X151721590Y-78780970D01*
X151714200Y-78773570D01*
X151708200Y-78765000D01*
X151703780Y-78755520D01*
X151701070Y-78745420D01*
X151700160Y-78735000D01*
X151700160Y-77765000D01*
X151701070Y-77754580D01*
X151703780Y-77744480D01*
X151708200Y-77735000D01*
X151714200Y-77726430D01*
X151721590Y-77719040D01*
X151730160Y-77713040D01*
X151739640Y-77708620D01*
X151749740Y-77705910D01*
X151760160Y-77705000D01*
X153040170Y-77705000D01*
X153050580Y-77705910D01*
G37*
G36*
X153050580Y-79105910D02*
G01*
X153060690Y-79108620D01*
X153070170Y-79113040D01*
X153078730Y-79119040D01*
X153086130Y-79126440D01*
X153092130Y-79135000D01*
X153096550Y-79144480D01*
X153099250Y-79154580D01*
X153100170Y-79165000D01*
X153100170Y-79285000D01*
X153099250Y-79295420D01*
X153096550Y-79305520D01*
X153092130Y-79315000D01*
X153086130Y-79323570D01*
X153078730Y-79330970D01*
X153070170Y-79336960D01*
X153060690Y-79341380D01*
X153050580Y-79344090D01*
X153040170Y-79345000D01*
X151760170Y-79345000D01*
X151749750Y-79344090D01*
X151739650Y-79341380D01*
X151730170Y-79336960D01*
X151721600Y-79330970D01*
X151714200Y-79323570D01*
X151708210Y-79315000D01*
X151703790Y-79305520D01*
X151701080Y-79295420D01*
X151700170Y-79285000D01*
X151700170Y-79165000D01*
X151701080Y-79154580D01*
X151703790Y-79144480D01*
X151708210Y-79135000D01*
X151714200Y-79126440D01*
X151721600Y-79119040D01*
X151730170Y-79113040D01*
X151739650Y-79108620D01*
X151749750Y-79105910D01*
X151760170Y-79105000D01*
X153040170Y-79105000D01*
X153050580Y-79105910D01*
G37*
G36*
X154095590Y-77805910D02*
G01*
X154105690Y-77808620D01*
X154115170Y-77813040D01*
X154123740Y-77819040D01*
X154131130Y-77826430D01*
X154137130Y-77835000D01*
X154141550Y-77844480D01*
X154144260Y-77854580D01*
X154145170Y-77865000D01*
X154145170Y-78415000D01*
X154144260Y-78425420D01*
X154141550Y-78435520D01*
X154137130Y-78445000D01*
X154131130Y-78453570D01*
X154123740Y-78460970D01*
X154115170Y-78466960D01*
X154105690Y-78471380D01*
X154095590Y-78474090D01*
X154085170Y-78475000D01*
X153855170Y-78475000D01*
X153844750Y-78474090D01*
X153834650Y-78471380D01*
X153825170Y-78466960D01*
X153816600Y-78460970D01*
X153809200Y-78453570D01*
X153803210Y-78445000D01*
X153798790Y-78435520D01*
X153796080Y-78425420D01*
X153795170Y-78415000D01*
X153795170Y-77865000D01*
X153796080Y-77854580D01*
X153798790Y-77844480D01*
X153803210Y-77835000D01*
X153809200Y-77826430D01*
X153816600Y-77819040D01*
X153825170Y-77813040D01*
X153834650Y-77808620D01*
X153844750Y-77805910D01*
X153855170Y-77805000D01*
X154085170Y-77805000D01*
X154095590Y-77805910D01*
G37*
G36*
X154095590Y-78675910D02*
G01*
X154105690Y-78678620D01*
X154115170Y-78683040D01*
X154123740Y-78689040D01*
X154131130Y-78696430D01*
X154137130Y-78705000D01*
X154141550Y-78714480D01*
X154144260Y-78724580D01*
X154145170Y-78735000D01*
X154145170Y-79285000D01*
X154144260Y-79295420D01*
X154141550Y-79305520D01*
X154137130Y-79315000D01*
X154131130Y-79323570D01*
X154123740Y-79330970D01*
X154115170Y-79336960D01*
X154105690Y-79341380D01*
X154095590Y-79344090D01*
X154085170Y-79345000D01*
X153855170Y-79345000D01*
X153844750Y-79344090D01*
X153834650Y-79341380D01*
X153825170Y-79336960D01*
X153816600Y-79330970D01*
X153809200Y-79323570D01*
X153803210Y-79315000D01*
X153798790Y-79305520D01*
X153796080Y-79295420D01*
X153795170Y-79285000D01*
X153795170Y-78735000D01*
X153796080Y-78724580D01*
X153798790Y-78714480D01*
X153803210Y-78705000D01*
X153809200Y-78696430D01*
X153816600Y-78689040D01*
X153825170Y-78683040D01*
X153834650Y-78678620D01*
X153844750Y-78675910D01*
X153855170Y-78675000D01*
X154085170Y-78675000D01*
X154095590Y-78675910D01*
G37*
G36*
X154545570Y-77805910D02*
G01*
X154555670Y-77808620D01*
X154565150Y-77813040D01*
X154573720Y-77819040D01*
X154581110Y-77826430D01*
X154587110Y-77835000D01*
X154591530Y-77844480D01*
X154594240Y-77854580D01*
X154595150Y-77865000D01*
X154595150Y-77985000D01*
X154594240Y-77995420D01*
X154591530Y-78005520D01*
X154587110Y-78015000D01*
X154581110Y-78023570D01*
X154573720Y-78030970D01*
X154565150Y-78036960D01*
X154555670Y-78041380D01*
X154545570Y-78044090D01*
X154535150Y-78045000D01*
X154355150Y-78045000D01*
X154344730Y-78044090D01*
X154334630Y-78041380D01*
X154325150Y-78036960D01*
X154316580Y-78030970D01*
X154309180Y-78023570D01*
X154303190Y-78015000D01*
X154298770Y-78005520D01*
X154296060Y-77995420D01*
X154295150Y-77985000D01*
X154295150Y-77865000D01*
X154296060Y-77854580D01*
X154298770Y-77844480D01*
X154303190Y-77835000D01*
X154309180Y-77826430D01*
X154316580Y-77819040D01*
X154325150Y-77813040D01*
X154334630Y-77808620D01*
X154344730Y-77805910D01*
X154355150Y-77805000D01*
X154535150Y-77805000D01*
X154545570Y-77805910D01*
G37*
G36*
X154545570Y-78455910D02*
G01*
X154555670Y-78458620D01*
X154565150Y-78463040D01*
X154573720Y-78469040D01*
X154581110Y-78476430D01*
X154587110Y-78485000D01*
X154591530Y-78494480D01*
X154594240Y-78504580D01*
X154595150Y-78515000D01*
X154595150Y-78635000D01*
X154594240Y-78645420D01*
X154591530Y-78655520D01*
X154587110Y-78665000D01*
X154581110Y-78673570D01*
X154573720Y-78680960D01*
X154565150Y-78686960D01*
X154555670Y-78691380D01*
X154545570Y-78694090D01*
X154535150Y-78695000D01*
X154355150Y-78695000D01*
X154344730Y-78694090D01*
X154334630Y-78691380D01*
X154325150Y-78686960D01*
X154316580Y-78680960D01*
X154309180Y-78673570D01*
X154303190Y-78665000D01*
X154298770Y-78655520D01*
X154296060Y-78645420D01*
X154295150Y-78635000D01*
X154295150Y-78515000D01*
X154296060Y-78504580D01*
X154298770Y-78494480D01*
X154303190Y-78485000D01*
X154309180Y-78476430D01*
X154316580Y-78469040D01*
X154325150Y-78463040D01*
X154334630Y-78458620D01*
X154344730Y-78455910D01*
X154355150Y-78455000D01*
X154535150Y-78455000D01*
X154545570Y-78455910D01*
G37*
G36*
X154545570Y-79105910D02*
G01*
X154555670Y-79108620D01*
X154565150Y-79113040D01*
X154573720Y-79119040D01*
X154581110Y-79126440D01*
X154587110Y-79135000D01*
X154591530Y-79144480D01*
X154594240Y-79154580D01*
X154595150Y-79165000D01*
X154595150Y-79285000D01*
X154594240Y-79295420D01*
X154591530Y-79305520D01*
X154587110Y-79315000D01*
X154581110Y-79323570D01*
X154573720Y-79330970D01*
X154565150Y-79336960D01*
X154555670Y-79341380D01*
X154545570Y-79344090D01*
X154535150Y-79345000D01*
X154355150Y-79345000D01*
X154344730Y-79344090D01*
X154334630Y-79341380D01*
X154325150Y-79336960D01*
X154316580Y-79330970D01*
X154309180Y-79323570D01*
X154303190Y-79315000D01*
X154298770Y-79305520D01*
X154296060Y-79295420D01*
X154295150Y-79285000D01*
X154295150Y-79165000D01*
X154296060Y-79154580D01*
X154298770Y-79144480D01*
X154303190Y-79135000D01*
X154309180Y-79126440D01*
X154316580Y-79119040D01*
X154325150Y-79113040D01*
X154334630Y-79108620D01*
X154344730Y-79105910D01*
X154355150Y-79105000D01*
X154535150Y-79105000D01*
X154545570Y-79105910D01*
G37*
G36*
X154550590Y-77155910D02*
G01*
X154560690Y-77158620D01*
X154570170Y-77163040D01*
X154578730Y-77169040D01*
X154586130Y-77176440D01*
X154592130Y-77185000D01*
X154596550Y-77194480D01*
X154599260Y-77204580D01*
X154600170Y-77215000D01*
X154600170Y-77335000D01*
X154599260Y-77345420D01*
X154596550Y-77355520D01*
X154592130Y-77365000D01*
X154586130Y-77373570D01*
X154578730Y-77380970D01*
X154570170Y-77386960D01*
X154560690Y-77391380D01*
X154550590Y-77394090D01*
X154540170Y-77395000D01*
X153960170Y-77395000D01*
X153949750Y-77394090D01*
X153939650Y-77391380D01*
X153930170Y-77386960D01*
X153921600Y-77380970D01*
X153914200Y-77373570D01*
X153908210Y-77365000D01*
X153903790Y-77355520D01*
X153901080Y-77345420D01*
X153900170Y-77335000D01*
X153900170Y-77215000D01*
X153901080Y-77204580D01*
X153903790Y-77194480D01*
X153908210Y-77185000D01*
X153914200Y-77176440D01*
X153921600Y-77169040D01*
X153930170Y-77163040D01*
X153939650Y-77158620D01*
X153949750Y-77155910D01*
X153960170Y-77155000D01*
X154540170Y-77155000D01*
X154550590Y-77155910D01*
G37*
D12*
G04 #@! TO.C,U3*
X131240000Y-79690000D02*
X130160000Y-79690000D01*
X130160000Y-78110000D01*
X131240000Y-78110000D01*
X131240000Y-79690000D01*
G36*
X131240000Y-79690000D02*
G01*
X130160000Y-79690000D01*
X130160000Y-78110000D01*
X131240000Y-78110000D01*
X131240000Y-79690000D01*
G37*
D10*
G04 #@! TO.C,Q7*
G36*
X151450660Y-70505910D02*
G01*
X151460760Y-70508620D01*
X151470240Y-70513040D01*
X151478810Y-70519040D01*
X151486210Y-70526440D01*
X151492200Y-70535000D01*
X151496620Y-70544480D01*
X151499330Y-70554580D01*
X151500240Y-70565000D01*
X151500240Y-70685000D01*
X151499330Y-70695420D01*
X151496620Y-70705520D01*
X151492200Y-70715000D01*
X151486210Y-70723570D01*
X151478810Y-70730970D01*
X151470240Y-70736960D01*
X151460760Y-70741380D01*
X151450660Y-70744090D01*
X151440240Y-70745000D01*
X150960240Y-70745000D01*
X150949830Y-70744090D01*
X150939720Y-70741380D01*
X150930240Y-70736960D01*
X150921680Y-70730970D01*
X150914280Y-70723570D01*
X150908280Y-70715000D01*
X150903860Y-70705520D01*
X150901160Y-70695420D01*
X150900240Y-70685000D01*
X150900240Y-70565000D01*
X150901160Y-70554580D01*
X150903860Y-70544480D01*
X150908280Y-70535000D01*
X150914280Y-70526440D01*
X150921680Y-70519040D01*
X150930240Y-70513040D01*
X150939720Y-70508620D01*
X150949830Y-70505910D01*
X150960240Y-70505000D01*
X151440240Y-70505000D01*
X151450660Y-70505910D01*
G37*
G36*
X151450660Y-71155910D02*
G01*
X151460760Y-71158620D01*
X151470240Y-71163040D01*
X151478810Y-71169040D01*
X151486210Y-71176430D01*
X151492200Y-71185000D01*
X151496620Y-71194480D01*
X151499330Y-71204580D01*
X151500240Y-71215000D01*
X151500240Y-71335000D01*
X151499330Y-71345420D01*
X151496620Y-71355520D01*
X151492200Y-71365000D01*
X151486210Y-71373570D01*
X151478810Y-71380970D01*
X151470240Y-71386960D01*
X151460760Y-71391380D01*
X151450660Y-71394090D01*
X151440240Y-71395000D01*
X150960240Y-71395000D01*
X150949830Y-71394090D01*
X150939720Y-71391380D01*
X150930240Y-71386960D01*
X150921680Y-71380970D01*
X150914280Y-71373570D01*
X150908280Y-71365000D01*
X150903860Y-71355520D01*
X150901160Y-71345420D01*
X150900240Y-71335000D01*
X150900240Y-71215000D01*
X150901160Y-71204580D01*
X150903860Y-71194480D01*
X150908280Y-71185000D01*
X150914280Y-71176430D01*
X150921680Y-71169040D01*
X150930240Y-71163040D01*
X150939720Y-71158620D01*
X150949830Y-71155910D01*
X150960240Y-71155000D01*
X151440240Y-71155000D01*
X151450660Y-71155910D01*
G37*
G36*
X151450660Y-71805920D02*
G01*
X151460760Y-71808620D01*
X151470240Y-71813040D01*
X151478810Y-71819040D01*
X151486210Y-71826440D01*
X151492200Y-71835000D01*
X151496620Y-71844480D01*
X151499330Y-71854580D01*
X151500240Y-71865000D01*
X151500240Y-71985000D01*
X151499330Y-71995420D01*
X151496620Y-72005520D01*
X151492200Y-72015000D01*
X151486210Y-72023570D01*
X151478810Y-72030970D01*
X151470240Y-72036960D01*
X151460760Y-72041380D01*
X151450660Y-72044090D01*
X151440240Y-72045000D01*
X150960240Y-72045000D01*
X150949830Y-72044090D01*
X150939720Y-72041380D01*
X150930240Y-72036960D01*
X150921680Y-72030970D01*
X150914280Y-72023570D01*
X150908280Y-72015000D01*
X150903860Y-72005520D01*
X150901160Y-71995420D01*
X150900240Y-71985000D01*
X150900240Y-71865000D01*
X150901160Y-71854580D01*
X150903860Y-71844480D01*
X150908280Y-71835000D01*
X150914280Y-71826440D01*
X150921680Y-71819040D01*
X150930240Y-71813040D01*
X150939720Y-71808620D01*
X150949830Y-71805920D01*
X150960240Y-71805000D01*
X151440240Y-71805000D01*
X151450660Y-71805920D01*
G37*
G36*
X151450660Y-72455910D02*
G01*
X151460760Y-72458620D01*
X151470240Y-72463040D01*
X151478810Y-72469040D01*
X151486210Y-72476440D01*
X151492200Y-72485000D01*
X151496620Y-72494480D01*
X151499330Y-72504580D01*
X151500240Y-72515000D01*
X151500240Y-72635000D01*
X151499330Y-72645420D01*
X151496620Y-72655520D01*
X151492200Y-72665000D01*
X151486210Y-72673570D01*
X151478810Y-72680970D01*
X151470240Y-72686960D01*
X151460760Y-72691380D01*
X151450660Y-72694090D01*
X151440240Y-72695000D01*
X150960240Y-72695000D01*
X150949830Y-72694090D01*
X150939720Y-72691380D01*
X150930240Y-72686960D01*
X150921680Y-72680970D01*
X150914280Y-72673570D01*
X150908280Y-72665000D01*
X150903860Y-72655520D01*
X150901160Y-72645420D01*
X150900240Y-72635000D01*
X150900240Y-72515000D01*
X150901160Y-72504580D01*
X150903860Y-72494480D01*
X150908280Y-72485000D01*
X150914280Y-72476440D01*
X150921680Y-72469040D01*
X150930240Y-72463040D01*
X150939720Y-72458620D01*
X150949830Y-72455910D01*
X150960240Y-72455000D01*
X151440240Y-72455000D01*
X151450660Y-72455910D01*
G37*
G36*
X153050580Y-70505910D02*
G01*
X153060680Y-70508620D01*
X153070160Y-70513040D01*
X153078730Y-70519040D01*
X153086130Y-70526440D01*
X153092120Y-70535000D01*
X153096540Y-70544480D01*
X153099250Y-70554580D01*
X153100160Y-70565000D01*
X153100160Y-70685000D01*
X153099250Y-70695420D01*
X153096540Y-70705520D01*
X153092120Y-70715000D01*
X153086130Y-70723570D01*
X153078730Y-70730970D01*
X153070160Y-70736960D01*
X153060680Y-70741380D01*
X153050580Y-70744090D01*
X153040160Y-70745000D01*
X151760160Y-70745000D01*
X151749750Y-70744090D01*
X151739640Y-70741380D01*
X151730160Y-70736960D01*
X151721600Y-70730970D01*
X151714200Y-70723570D01*
X151708200Y-70715000D01*
X151703780Y-70705520D01*
X151701080Y-70695420D01*
X151700160Y-70685000D01*
X151700160Y-70565000D01*
X151701080Y-70554580D01*
X151703780Y-70544480D01*
X151708200Y-70535000D01*
X151714200Y-70526440D01*
X151721600Y-70519040D01*
X151730160Y-70513040D01*
X151739640Y-70508620D01*
X151749750Y-70505910D01*
X151760160Y-70505000D01*
X153040160Y-70505000D01*
X153050580Y-70505910D01*
G37*
G36*
X153050580Y-71055910D02*
G01*
X153060690Y-71058620D01*
X153070170Y-71063040D01*
X153078730Y-71069040D01*
X153086130Y-71076430D01*
X153092130Y-71085000D01*
X153096550Y-71094480D01*
X153099250Y-71104580D01*
X153100170Y-71115000D01*
X153100170Y-72085000D01*
X153099250Y-72095420D01*
X153096550Y-72105520D01*
X153092130Y-72115000D01*
X153086130Y-72123570D01*
X153078730Y-72130970D01*
X153070170Y-72136960D01*
X153060690Y-72141380D01*
X153050580Y-72144090D01*
X153040170Y-72145000D01*
X151760160Y-72145000D01*
X151749740Y-72144090D01*
X151739640Y-72141380D01*
X151730160Y-72136960D01*
X151721590Y-72130970D01*
X151714200Y-72123570D01*
X151708200Y-72115000D01*
X151703780Y-72105520D01*
X151701070Y-72095420D01*
X151700160Y-72085000D01*
X151700160Y-71115000D01*
X151701070Y-71104580D01*
X151703780Y-71094480D01*
X151708200Y-71085000D01*
X151714200Y-71076430D01*
X151721590Y-71069040D01*
X151730160Y-71063040D01*
X151739640Y-71058620D01*
X151749740Y-71055910D01*
X151760160Y-71055000D01*
X153040170Y-71055000D01*
X153050580Y-71055910D01*
G37*
G36*
X153050580Y-72455910D02*
G01*
X153060690Y-72458620D01*
X153070170Y-72463040D01*
X153078730Y-72469040D01*
X153086130Y-72476440D01*
X153092130Y-72485000D01*
X153096550Y-72494480D01*
X153099250Y-72504580D01*
X153100170Y-72515000D01*
X153100170Y-72635000D01*
X153099250Y-72645420D01*
X153096550Y-72655520D01*
X153092130Y-72665000D01*
X153086130Y-72673570D01*
X153078730Y-72680970D01*
X153070170Y-72686960D01*
X153060690Y-72691380D01*
X153050580Y-72694090D01*
X153040170Y-72695000D01*
X151760170Y-72695000D01*
X151749750Y-72694090D01*
X151739650Y-72691380D01*
X151730170Y-72686960D01*
X151721600Y-72680970D01*
X151714200Y-72673570D01*
X151708210Y-72665000D01*
X151703790Y-72655520D01*
X151701080Y-72645420D01*
X151700170Y-72635000D01*
X151700170Y-72515000D01*
X151701080Y-72504580D01*
X151703790Y-72494480D01*
X151708210Y-72485000D01*
X151714200Y-72476440D01*
X151721600Y-72469040D01*
X151730170Y-72463040D01*
X151739650Y-72458620D01*
X151749750Y-72455910D01*
X151760170Y-72455000D01*
X153040170Y-72455000D01*
X153050580Y-72455910D01*
G37*
G36*
X154095590Y-71155910D02*
G01*
X154105690Y-71158620D01*
X154115170Y-71163040D01*
X154123740Y-71169040D01*
X154131130Y-71176430D01*
X154137130Y-71185000D01*
X154141550Y-71194480D01*
X154144260Y-71204580D01*
X154145170Y-71215000D01*
X154145170Y-71765000D01*
X154144260Y-71775420D01*
X154141550Y-71785520D01*
X154137130Y-71795000D01*
X154131130Y-71803570D01*
X154123740Y-71810970D01*
X154115170Y-71816960D01*
X154105690Y-71821380D01*
X154095590Y-71824090D01*
X154085170Y-71825000D01*
X153855170Y-71825000D01*
X153844750Y-71824090D01*
X153834650Y-71821380D01*
X153825170Y-71816960D01*
X153816600Y-71810970D01*
X153809200Y-71803570D01*
X153803210Y-71795000D01*
X153798790Y-71785520D01*
X153796080Y-71775420D01*
X153795170Y-71765000D01*
X153795170Y-71215000D01*
X153796080Y-71204580D01*
X153798790Y-71194480D01*
X153803210Y-71185000D01*
X153809200Y-71176430D01*
X153816600Y-71169040D01*
X153825170Y-71163040D01*
X153834650Y-71158620D01*
X153844750Y-71155910D01*
X153855170Y-71155000D01*
X154085170Y-71155000D01*
X154095590Y-71155910D01*
G37*
G36*
X154095590Y-72025910D02*
G01*
X154105690Y-72028620D01*
X154115170Y-72033040D01*
X154123740Y-72039040D01*
X154131130Y-72046430D01*
X154137130Y-72055000D01*
X154141550Y-72064480D01*
X154144260Y-72074580D01*
X154145170Y-72085000D01*
X154145170Y-72635000D01*
X154144260Y-72645420D01*
X154141550Y-72655520D01*
X154137130Y-72665000D01*
X154131130Y-72673570D01*
X154123740Y-72680970D01*
X154115170Y-72686960D01*
X154105690Y-72691380D01*
X154095590Y-72694090D01*
X154085170Y-72695000D01*
X153855170Y-72695000D01*
X153844750Y-72694090D01*
X153834650Y-72691380D01*
X153825170Y-72686960D01*
X153816600Y-72680970D01*
X153809200Y-72673570D01*
X153803210Y-72665000D01*
X153798790Y-72655520D01*
X153796080Y-72645420D01*
X153795170Y-72635000D01*
X153795170Y-72085000D01*
X153796080Y-72074580D01*
X153798790Y-72064480D01*
X153803210Y-72055000D01*
X153809200Y-72046430D01*
X153816600Y-72039040D01*
X153825170Y-72033040D01*
X153834650Y-72028620D01*
X153844750Y-72025910D01*
X153855170Y-72025000D01*
X154085170Y-72025000D01*
X154095590Y-72025910D01*
G37*
G36*
X154545570Y-71155910D02*
G01*
X154555670Y-71158620D01*
X154565150Y-71163040D01*
X154573720Y-71169040D01*
X154581110Y-71176430D01*
X154587110Y-71185000D01*
X154591530Y-71194480D01*
X154594240Y-71204580D01*
X154595150Y-71215000D01*
X154595150Y-71335000D01*
X154594240Y-71345420D01*
X154591530Y-71355520D01*
X154587110Y-71365000D01*
X154581110Y-71373570D01*
X154573720Y-71380970D01*
X154565150Y-71386960D01*
X154555670Y-71391380D01*
X154545570Y-71394090D01*
X154535150Y-71395000D01*
X154355150Y-71395000D01*
X154344730Y-71394090D01*
X154334630Y-71391380D01*
X154325150Y-71386960D01*
X154316580Y-71380970D01*
X154309180Y-71373570D01*
X154303190Y-71365000D01*
X154298770Y-71355520D01*
X154296060Y-71345420D01*
X154295150Y-71335000D01*
X154295150Y-71215000D01*
X154296060Y-71204580D01*
X154298770Y-71194480D01*
X154303190Y-71185000D01*
X154309180Y-71176430D01*
X154316580Y-71169040D01*
X154325150Y-71163040D01*
X154334630Y-71158620D01*
X154344730Y-71155910D01*
X154355150Y-71155000D01*
X154535150Y-71155000D01*
X154545570Y-71155910D01*
G37*
G36*
X154545570Y-71805910D02*
G01*
X154555670Y-71808620D01*
X154565150Y-71813040D01*
X154573720Y-71819040D01*
X154581110Y-71826430D01*
X154587110Y-71835000D01*
X154591530Y-71844480D01*
X154594240Y-71854580D01*
X154595150Y-71865000D01*
X154595150Y-71985000D01*
X154594240Y-71995420D01*
X154591530Y-72005520D01*
X154587110Y-72015000D01*
X154581110Y-72023570D01*
X154573720Y-72030960D01*
X154565150Y-72036960D01*
X154555670Y-72041380D01*
X154545570Y-72044090D01*
X154535150Y-72045000D01*
X154355150Y-72045000D01*
X154344730Y-72044090D01*
X154334630Y-72041380D01*
X154325150Y-72036960D01*
X154316580Y-72030960D01*
X154309180Y-72023570D01*
X154303190Y-72015000D01*
X154298770Y-72005520D01*
X154296060Y-71995420D01*
X154295150Y-71985000D01*
X154295150Y-71865000D01*
X154296060Y-71854580D01*
X154298770Y-71844480D01*
X154303190Y-71835000D01*
X154309180Y-71826430D01*
X154316580Y-71819040D01*
X154325150Y-71813040D01*
X154334630Y-71808620D01*
X154344730Y-71805910D01*
X154355150Y-71805000D01*
X154535150Y-71805000D01*
X154545570Y-71805910D01*
G37*
G36*
X154545570Y-72455910D02*
G01*
X154555670Y-72458620D01*
X154565150Y-72463040D01*
X154573720Y-72469040D01*
X154581110Y-72476440D01*
X154587110Y-72485000D01*
X154591530Y-72494480D01*
X154594240Y-72504580D01*
X154595150Y-72515000D01*
X154595150Y-72635000D01*
X154594240Y-72645420D01*
X154591530Y-72655520D01*
X154587110Y-72665000D01*
X154581110Y-72673570D01*
X154573720Y-72680970D01*
X154565150Y-72686960D01*
X154555670Y-72691380D01*
X154545570Y-72694090D01*
X154535150Y-72695000D01*
X154355150Y-72695000D01*
X154344730Y-72694090D01*
X154334630Y-72691380D01*
X154325150Y-72686960D01*
X154316580Y-72680970D01*
X154309180Y-72673570D01*
X154303190Y-72665000D01*
X154298770Y-72655520D01*
X154296060Y-72645420D01*
X154295150Y-72635000D01*
X154295150Y-72515000D01*
X154296060Y-72504580D01*
X154298770Y-72494480D01*
X154303190Y-72485000D01*
X154309180Y-72476440D01*
X154316580Y-72469040D01*
X154325150Y-72463040D01*
X154334630Y-72458620D01*
X154344730Y-72455910D01*
X154355150Y-72455000D01*
X154535150Y-72455000D01*
X154545570Y-72455910D01*
G37*
G36*
X154550590Y-70505910D02*
G01*
X154560690Y-70508620D01*
X154570170Y-70513040D01*
X154578730Y-70519040D01*
X154586130Y-70526440D01*
X154592130Y-70535000D01*
X154596550Y-70544480D01*
X154599260Y-70554580D01*
X154600170Y-70565000D01*
X154600170Y-70685000D01*
X154599260Y-70695420D01*
X154596550Y-70705520D01*
X154592130Y-70715000D01*
X154586130Y-70723570D01*
X154578730Y-70730970D01*
X154570170Y-70736960D01*
X154560690Y-70741380D01*
X154550590Y-70744090D01*
X154540170Y-70745000D01*
X153960170Y-70745000D01*
X153949750Y-70744090D01*
X153939650Y-70741380D01*
X153930170Y-70736960D01*
X153921600Y-70730970D01*
X153914200Y-70723570D01*
X153908210Y-70715000D01*
X153903790Y-70705520D01*
X153901080Y-70695420D01*
X153900170Y-70685000D01*
X153900170Y-70565000D01*
X153901080Y-70554580D01*
X153903790Y-70544480D01*
X153908210Y-70535000D01*
X153914200Y-70526440D01*
X153921600Y-70519040D01*
X153930170Y-70513040D01*
X153939650Y-70508620D01*
X153949750Y-70505910D01*
X153960170Y-70505000D01*
X154540170Y-70505000D01*
X154550590Y-70505910D01*
G37*
G04 #@! TD*
D13*
G04 #@! TO.C,C24*
X152400000Y-75875000D03*
X152400000Y-74325000D03*
G04 #@! TD*
D14*
G04 #@! TO.C,C23*
X148325000Y-81300000D03*
X149875000Y-81300000D03*
G04 #@! TD*
D15*
G04 #@! TO.C,C51*
X135100000Y-71125000D03*
X135100000Y-72675000D03*
G04 #@! TD*
D13*
G04 #@! TO.C,C50*
X135100000Y-75675000D03*
X135100000Y-74125000D03*
G04 #@! TD*
G04 #@! TO.C,C35*
X113800000Y-72125000D03*
X113800000Y-70575000D03*
G04 #@! TD*
D16*
G04 #@! TO.C,C2*
X145475000Y-66100000D03*
X143925000Y-66100000D03*
G04 #@! TD*
D14*
G04 #@! TO.C,C54*
X146125000Y-85800000D03*
X147675000Y-85800000D03*
G04 #@! TD*
D17*
G04 #@! TO.C,C29*
X123270000Y-77875000D03*
X124230000Y-77875000D03*
G04 #@! TD*
D18*
G04 #@! TO.C,TH2*
X161450000Y-67687500D03*
X161450000Y-69512500D03*
G04 #@! TD*
D19*
G04 #@! TO.C,R2*
X132400000Y-83290000D03*
X132400000Y-84310000D03*
G04 #@! TD*
D20*
G04 #@! TO.C,U4*
X120377200Y-67725001D03*
X120377200Y-68125001D03*
X120377200Y-68525000D03*
X120377200Y-68924999D03*
X120377200Y-69325001D03*
X120377200Y-69725000D03*
X120377200Y-70124999D03*
X120377200Y-70525001D03*
X120377200Y-70925000D03*
X120377200Y-71324999D03*
X120377200Y-71725001D03*
X120377200Y-72125000D03*
X120377200Y-72524999D03*
X120377200Y-72924999D03*
X120377200Y-73325000D03*
X120377200Y-73724999D03*
X120377200Y-74124999D03*
D21*
X121076101Y-74823900D03*
X121476101Y-74823900D03*
X121876100Y-74823900D03*
X122276101Y-74823900D03*
X122676101Y-74823900D03*
X123076100Y-74823900D03*
X123476099Y-74823900D03*
X123876101Y-74823900D03*
X124276100Y-74823900D03*
X124676099Y-74823900D03*
X125076101Y-74823900D03*
X125476100Y-74823900D03*
X125876099Y-74823900D03*
X126276099Y-74823900D03*
X126676100Y-74823900D03*
X127076099Y-74823900D03*
X127476099Y-74823900D03*
D20*
X128175000Y-74124999D03*
X128175000Y-73724999D03*
X128175000Y-73325000D03*
X128175000Y-72924999D03*
X128175000Y-72524999D03*
X128175000Y-72125000D03*
X128175000Y-71725001D03*
X128175000Y-71324999D03*
X128175000Y-70925000D03*
X128175000Y-70525001D03*
X128175000Y-70124999D03*
X128175000Y-69725000D03*
X128175000Y-69325001D03*
X128175000Y-68925001D03*
X128175000Y-68525000D03*
X128175000Y-68125001D03*
X128175000Y-67725001D03*
D21*
X127476099Y-67026100D03*
X127076099Y-67026100D03*
X126676100Y-67026100D03*
X126276099Y-67026100D03*
X125876099Y-67026100D03*
X125476100Y-67026100D03*
X125076101Y-67026100D03*
X124676099Y-67026100D03*
X124276100Y-67026100D03*
X123876101Y-67026100D03*
X123476099Y-67026100D03*
X123076100Y-67026100D03*
X122676101Y-67026100D03*
X122276101Y-67026100D03*
X121876100Y-67026100D03*
X121476101Y-67026100D03*
X121076101Y-67026100D03*
D22*
X124276100Y-70925000D03*
G04 #@! TD*
D23*
G04 #@! TO.C,R32*
X136550000Y-84250000D03*
X136550000Y-85900000D03*
G04 #@! TD*
D24*
G04 #@! TO.C,D2*
X131000000Y-87087500D03*
X131000000Y-85512500D03*
G04 #@! TD*
D13*
G04 #@! TO.C,C53*
X136675000Y-81800000D03*
X136675000Y-80250000D03*
G04 #@! TD*
D25*
G04 #@! TO.C,C61*
X154530000Y-68800000D03*
X153570000Y-68800000D03*
G04 #@! TD*
D26*
G04 #@! TO.C,R23*
X137310000Y-72700000D03*
X136290000Y-72700000D03*
G04 #@! TD*
D27*
G04 #@! TO.C,R11*
X126000000Y-90000000D03*
X124350000Y-90000000D03*
G04 #@! TD*
D25*
G04 #@! TO.C,C27*
X120005000Y-65725000D03*
X119045000Y-65725000D03*
G04 #@! TD*
D26*
G04 #@! TO.C,R10*
X128160000Y-90700000D03*
X127140000Y-90700000D03*
G04 #@! TD*
D28*
G04 #@! TO.C,D9*
X120050000Y-64300000D03*
X117850000Y-64300000D03*
G04 #@! TD*
D29*
G04 #@! TO.C,C6*
X119850000Y-84845000D03*
X119850000Y-85805000D03*
G04 #@! TD*
D17*
G04 #@! TO.C,C40*
X121720000Y-63700000D03*
X122680000Y-63700000D03*
G04 #@! TD*
D13*
G04 #@! TO.C,C37*
X116825000Y-72050000D03*
X116825000Y-70500000D03*
G04 #@! TD*
D16*
G04 #@! TO.C,C57*
X155075000Y-60150000D03*
X153525000Y-60150000D03*
G04 #@! TD*
D30*
G04 #@! TO.C,R35*
X114300000Y-56110000D03*
X114300000Y-55090000D03*
G04 #@! TD*
D31*
G04 #@! TO.C,C26*
X130475000Y-66705000D03*
X130475000Y-65745000D03*
G04 #@! TD*
D30*
G04 #@! TO.C,R3*
X145600000Y-64810000D03*
X145600000Y-63790000D03*
G04 #@! TD*
D19*
G04 #@! TO.C,R17*
X113600000Y-74790000D03*
X113600000Y-75810000D03*
G04 #@! TD*
D16*
G04 #@! TO.C,C21*
X149950000Y-75475000D03*
X148400000Y-75475000D03*
G04 #@! TD*
D19*
G04 #@! TO.C,TH1*
X159950000Y-67690000D03*
X159950000Y-68710000D03*
G04 #@! TD*
D32*
G04 #@! TO.C,J3*
X109830000Y-64800000D03*
X109830000Y-65600000D03*
D33*
X109830000Y-66750000D03*
X109830000Y-67750000D03*
X109830000Y-68250000D03*
X109830000Y-69250000D03*
D32*
X109830000Y-71200000D03*
X109830000Y-70400000D03*
D33*
X109830000Y-69750000D03*
X109830000Y-68750000D03*
X109830000Y-67250000D03*
X109830000Y-66250000D03*
G04 #@! TD*
D14*
G04 #@! TO.C,C36*
X113725000Y-73600000D03*
X115275000Y-73600000D03*
G04 #@! TD*
D31*
G04 #@! TO.C,C33*
X118000000Y-74205000D03*
X118000000Y-73245000D03*
G04 #@! TD*
D34*
G04 #@! TO.C,R22*
X116590000Y-76175000D03*
X117610000Y-76175000D03*
G04 #@! TD*
D35*
G04 #@! TO.C,D11*
X139800000Y-80200000D03*
X142600000Y-80200000D03*
G04 #@! TD*
D31*
G04 #@! TO.C,C31*
X117500000Y-78080000D03*
X117500000Y-77120000D03*
G04 #@! TD*
D15*
G04 #@! TO.C,C39*
X117000000Y-66600000D03*
X117000000Y-68150000D03*
G04 #@! TD*
D36*
G04 #@! TO.C,R25*
X140000000Y-74225000D03*
X140000000Y-72575000D03*
G04 #@! TD*
D37*
G04 #@! TO.C,C19*
X154300000Y-83312500D03*
X151350000Y-83312500D03*
G04 #@! TD*
D30*
G04 #@! TO.C,R5*
X119850000Y-89685000D03*
X119850000Y-88665000D03*
G04 #@! TD*
D19*
G04 #@! TO.C,R8*
X118850000Y-84815000D03*
X118850000Y-85835000D03*
G04 #@! TD*
D26*
G04 #@! TO.C,R9*
X120160000Y-76150000D03*
X119140000Y-76150000D03*
G04 #@! TD*
D38*
G04 #@! TO.C,D3*
X114050000Y-89400000D03*
X114050000Y-87300000D03*
G04 #@! TD*
D17*
G04 #@! TO.C,C44*
X125120000Y-63100000D03*
X126080000Y-63100000D03*
G04 #@! TD*
D30*
G04 #@! TO.C,R14*
X134100000Y-78910000D03*
X134100000Y-77890000D03*
G04 #@! TD*
D31*
G04 #@! TO.C,C52*
X136950000Y-79055000D03*
X136950000Y-78095000D03*
G04 #@! TD*
G04 #@! TO.C,C59*
X129525000Y-58780000D03*
X129525000Y-57820000D03*
G04 #@! TD*
D39*
G04 #@! TO.C,D7*
X135225000Y-65300000D03*
X135225000Y-67500000D03*
G04 #@! TD*
D34*
G04 #@! TO.C,R20*
X149940000Y-63550000D03*
X150960000Y-63550000D03*
G04 #@! TD*
D14*
G04 #@! TO.C,C41*
X121425000Y-62500000D03*
X122975000Y-62500000D03*
G04 #@! TD*
D26*
G04 #@! TO.C,R24*
X137310000Y-74200000D03*
X136290000Y-74200000D03*
G04 #@! TD*
D15*
G04 #@! TO.C,C10*
X128700000Y-55025000D03*
X128700000Y-56575000D03*
G04 #@! TD*
D40*
G04 #@! TO.C,FL1*
X122425000Y-57575000D03*
D41*
X124175000Y-57575000D03*
D42*
X124175000Y-55425000D03*
D43*
X122425000Y-55425000D03*
G04 #@! TD*
D44*
G04 #@! TO.C,Y2*
X129850000Y-62050000D03*
X128150000Y-62050000D03*
X128150000Y-63350000D03*
X129850000Y-63350000D03*
G04 #@! TD*
D29*
G04 #@! TO.C,C3*
X119850000Y-86820000D03*
X119850000Y-87780000D03*
G04 #@! TD*
D37*
G04 #@! TO.C,C18*
X154300000Y-89500000D03*
X151350000Y-89500000D03*
G04 #@! TD*
D45*
G04 #@! TO.C,D15*
X141525000Y-83712500D03*
X139625000Y-83712500D03*
X140575000Y-85587500D03*
G04 #@! TD*
D31*
G04 #@! TO.C,C4*
X118850000Y-83905000D03*
X118850000Y-82945000D03*
G04 #@! TD*
D46*
G04 #@! TO.C,D10*
X115250000Y-68800000D03*
X115250000Y-66600000D03*
G04 #@! TD*
D25*
G04 #@! TO.C,C60*
X149655000Y-74225000D03*
X148695000Y-74225000D03*
G04 #@! TD*
D46*
G04 #@! TO.C,D5*
X116450000Y-89075000D03*
X116450000Y-86875000D03*
G04 #@! TD*
D25*
G04 #@! TO.C,C7*
X128130000Y-89750000D03*
X127170000Y-89750000D03*
G04 #@! TD*
D26*
G04 #@! TO.C,R27*
X137110000Y-77150000D03*
X136090000Y-77150000D03*
G04 #@! TD*
D31*
G04 #@! TO.C,C32*
X119200000Y-78080000D03*
X119200000Y-77120000D03*
G04 #@! TD*
D47*
G04 #@! TO.C,D6*
X136725000Y-69925000D03*
X138925000Y-69925000D03*
G04 #@! TD*
D15*
G04 #@! TO.C,C14*
X152750000Y-55175000D03*
X152750000Y-56725000D03*
G04 #@! TD*
D25*
G04 #@! TO.C,C8*
X121805000Y-89750000D03*
X120845000Y-89750000D03*
G04 #@! TD*
D16*
G04 #@! TO.C,C56*
X133275000Y-65100000D03*
X131725000Y-65100000D03*
G04 #@! TD*
D30*
G04 #@! TO.C,R15*
X127500000Y-78910000D03*
X127500000Y-77890000D03*
G04 #@! TD*
D48*
G04 #@! TO.C,Q9*
X115862500Y-56250000D03*
X115862500Y-58150000D03*
X117737500Y-57200000D03*
G04 #@! TD*
D15*
G04 #@! TO.C,C12*
X130300000Y-55025000D03*
X130300000Y-56575000D03*
G04 #@! TD*
D34*
G04 #@! TO.C,R19*
X149940000Y-65050000D03*
X150960000Y-65050000D03*
G04 #@! TD*
D49*
G04 #@! TO.C,U2*
X121625000Y-84595000D03*
X121625000Y-85865000D03*
X121625000Y-87135000D03*
X121625000Y-88405000D03*
X126575000Y-88405000D03*
X126575000Y-87135000D03*
X126575000Y-85865000D03*
X126575000Y-84595000D03*
G04 #@! TD*
D30*
G04 #@! TO.C,R7*
X117850000Y-85835000D03*
X117850000Y-84815000D03*
G04 #@! TD*
D31*
G04 #@! TO.C,C5*
X117850000Y-83905000D03*
X117850000Y-82945000D03*
G04 #@! TD*
G04 #@! TO.C,C48*
X130300000Y-73780000D03*
X130300000Y-72820000D03*
G04 #@! TD*
D15*
G04 #@! TO.C,C9*
X119500000Y-55725000D03*
X119500000Y-57275000D03*
G04 #@! TD*
D29*
G04 #@! TO.C,C45*
X131000000Y-67745000D03*
X131000000Y-68705000D03*
G04 #@! TD*
D48*
G04 #@! TO.C,Q8*
X131862500Y-61650000D03*
X131862500Y-63550000D03*
X133737500Y-62600000D03*
G04 #@! TD*
D17*
G04 #@! TO.C,C25*
X136670000Y-68450000D03*
X137630000Y-68450000D03*
G04 #@! TD*
D30*
G04 #@! TO.C,R16*
X113600000Y-77810000D03*
X113600000Y-76790000D03*
G04 #@! TD*
D50*
G04 #@! TO.C,R13*
X153250000Y-65712500D03*
X153250000Y-62787500D03*
G04 #@! TD*
D15*
G04 #@! TO.C,C13*
X136500000Y-55225000D03*
X136500000Y-56775000D03*
G04 #@! TD*
D51*
G04 #@! TO.C,U3*
X129250000Y-77900000D03*
X129250000Y-78400000D03*
X129250000Y-78900000D03*
X129250000Y-79400000D03*
X129250000Y-79900000D03*
X132150000Y-79900000D03*
X132150000Y-79400000D03*
X132150000Y-78900000D03*
X132150000Y-78400000D03*
X132150000Y-77900000D03*
G04 #@! TD*
D19*
G04 #@! TO.C,R1*
X130700000Y-83290000D03*
X130700000Y-84310000D03*
G04 #@! TD*
D31*
G04 #@! TO.C,C47*
X131300000Y-73780000D03*
X131300000Y-72820000D03*
G04 #@! TD*
D27*
G04 #@! TO.C,R30*
X144675000Y-85825000D03*
X143025000Y-85825000D03*
G04 #@! TD*
D25*
G04 #@! TO.C,C58*
X154730000Y-61400000D03*
X153770000Y-61400000D03*
G04 #@! TD*
D24*
G04 #@! TO.C,D1*
X132600000Y-87087500D03*
X132600000Y-85512500D03*
G04 #@! TD*
D17*
G04 #@! TO.C,C28*
X131420000Y-76600000D03*
X132380000Y-76600000D03*
G04 #@! TD*
D14*
G04 #@! TO.C,C43*
X124425000Y-61900000D03*
X125975000Y-61900000D03*
G04 #@! TD*
D13*
G04 #@! TO.C,C49*
X133625000Y-73475000D03*
X133625000Y-71925000D03*
G04 #@! TD*
D17*
G04 #@! TO.C,C55*
X129220000Y-64650000D03*
X130180000Y-64650000D03*
G04 #@! TD*
D52*
G04 #@! TO.C,D8*
X111900000Y-54100000D03*
X111900000Y-58100000D03*
G04 #@! TD*
D16*
G04 #@! TO.C,C22*
X154725000Y-67550000D03*
X153175000Y-67550000D03*
G04 #@! TD*
D19*
G04 #@! TO.C,R28*
X137950000Y-79965000D03*
X137950000Y-80985000D03*
G04 #@! TD*
D37*
G04 #@! TO.C,C20*
X154300000Y-81250000D03*
X151350000Y-81250000D03*
G04 #@! TD*
D39*
G04 #@! TO.C,D4*
X118400000Y-86875000D03*
X118400000Y-89075000D03*
G04 #@! TD*
D31*
G04 #@! TO.C,C34*
X117000000Y-74205000D03*
X117000000Y-73245000D03*
G04 #@! TD*
D26*
G04 #@! TO.C,R4*
X144710000Y-64800000D03*
X143690000Y-64800000D03*
G04 #@! TD*
D15*
G04 #@! TO.C,C11*
X127100000Y-55025000D03*
X127100000Y-56575000D03*
G04 #@! TD*
D36*
G04 #@! TO.C,R31*
X138100000Y-85900000D03*
X138100000Y-84250000D03*
G04 #@! TD*
D30*
G04 #@! TO.C,R18*
X115000000Y-71860000D03*
X115000000Y-70840000D03*
G04 #@! TD*
D19*
G04 #@! TO.C,R6*
X118850000Y-81015000D03*
X118850000Y-82035000D03*
G04 #@! TD*
D15*
G04 #@! TO.C,C46*
X132200000Y-67025000D03*
X132200000Y-68575000D03*
G04 #@! TD*
D19*
G04 #@! TO.C,R29*
X143950000Y-79915000D03*
X143950000Y-80935000D03*
G04 #@! TD*
G04 #@! TO.C,R21*
X113650000Y-68390000D03*
X113650000Y-69410000D03*
G04 #@! TD*
D14*
G04 #@! TO.C,C30*
X122475000Y-79150000D03*
X124025000Y-79150000D03*
G04 #@! TD*
D37*
G04 #@! TO.C,C17*
X154300000Y-85375000D03*
X151350000Y-85375000D03*
G04 #@! TD*
D29*
G04 #@! TO.C,C42*
X124200000Y-63120000D03*
X124200000Y-64080000D03*
G04 #@! TD*
D31*
G04 #@! TO.C,C1*
X113625000Y-86255000D03*
X113625000Y-85295000D03*
G04 #@! TD*
D37*
G04 #@! TO.C,C16*
X154300000Y-87437500D03*
X151350000Y-87437500D03*
G04 #@! TD*
D29*
G04 #@! TO.C,C38*
X118300000Y-67620000D03*
X118300000Y-68580000D03*
G04 #@! TD*
D53*
G04 #@! TO.C,L1*
X143150000Y-56800000D03*
X148750000Y-56800000D03*
G04 #@! TD*
D15*
G04 #@! TO.C,C15*
X151150000Y-55175000D03*
X151150000Y-56725000D03*
G04 #@! TD*
D54*
G04 #@! TO.C,R12*
X134862500Y-56900000D03*
X131937500Y-56900000D03*
G04 #@! TD*
D23*
G04 #@! TO.C,R26*
X138500000Y-72575000D03*
X138500000Y-74225000D03*
G04 #@! TD*
M02*
