G04 #@! TF.GenerationSoftware,KiCad,Pcbnew,8.0.8*
G04 #@! TF.CreationDate,2025-05-29T14:11:01+07:00*
G04 #@! TF.ProjectId,WLC_TX15W_C1_V1.1,574c435f-5458-4313-9557-5f43315f5631,rev?*
G04 #@! TF.SameCoordinates,Original*
G04 #@! TF.FileFunction,Copper,L2,Bot*
G04 #@! TF.FilePolarity,Positive*
%FSLAX46Y46*%
G04 Gerber Fmt 4.6, Leading zero omitted, Abs format (unit mm)*
G04 Created by KiCad (PCBNEW 8.0.8) date 2025-05-29 14:11:01*
%MOMM*%
%LPD*%
G01*
G04 APERTURE LIST*
G04 #@! TA.AperFunction,ComponentPad*
%ADD10R,3.000000X3.000000*%
G04 #@! TD*
G04 #@! TA.AperFunction,ComponentPad*
%ADD11C,3.000000*%
G04 #@! TD*
G04 #@! TA.AperFunction,ComponentPad*
%ADD12R,1.700000X1.700000*%
G04 #@! TD*
G04 #@! TA.AperFunction,ComponentPad*
%ADD13O,1.700000X1.700000*%
G04 #@! TD*
G04 #@! TA.AperFunction,ComponentPad*
%ADD14C,2.800000*%
G04 #@! TD*
G04 #@! TA.AperFunction,ComponentPad*
%ADD15O,2.100000X1.000000*%
G04 #@! TD*
G04 #@! TA.AperFunction,ComponentPad*
%ADD16O,1.800000X1.000000*%
G04 #@! TD*
G04 #@! TA.AperFunction,ComponentPad*
%ADD17C,4.000000*%
G04 #@! TD*
G04 #@! TA.AperFunction,ViaPad*
%ADD18C,0.600000*%
G04 #@! TD*
G04 #@! TA.AperFunction,Conductor*
%ADD19C,0.200000*%
G04 #@! TD*
G04 #@! TA.AperFunction,Conductor*
%ADD20C,0.300000*%
G04 #@! TD*
G04 APERTURE END LIST*
D10*
G04 #@! TO.P,L2,1,1*
G04 #@! TO.N,COIL_SNS*
X159400000Y-78500000D03*
D11*
G04 #@! TO.P,L2,2,2*
G04 #@! TO.N,SW1_1*
X159400000Y-73420000D03*
G04 #@! TD*
D12*
G04 #@! TO.P,J1,1,Pin_1*
G04 #@! TO.N,/VTARG*
X111200000Y-86500000D03*
D13*
G04 #@! TO.P,J1,2,Pin_2*
G04 #@! TO.N,GND*
X111200000Y-83960000D03*
G04 #@! TO.P,J1,3,Pin_3*
G04 #@! TO.N,XRES*
X111200000Y-81420000D03*
G04 #@! TO.P,J1,4,Pin_4*
G04 #@! TO.N,HPI_I2C_SCL*
X111200000Y-78880000D03*
G04 #@! TO.P,J1,5,Pin_5*
G04 #@! TO.N,HPI_I2C_SDA*
X111200000Y-76340000D03*
G04 #@! TD*
D14*
G04 #@! TO.P,TP3,1,1*
G04 #@! TO.N,USB-IN*
X112400000Y-61700000D03*
G04 #@! TD*
D15*
G04 #@! TO.P,J3,SH1,SHELL_GND*
G04 #@! TO.N,USB-GND*
X109255000Y-63680000D03*
G04 #@! TO.P,J3,SH2,SHELL_GND__1*
X109255000Y-72320000D03*
D16*
G04 #@! TO.P,J3,SH3,SHELL_GND__2*
X105075000Y-63680000D03*
G04 #@! TO.P,J3,SH4,SHELL_GND__3*
X105075000Y-72320000D03*
G04 #@! TD*
D17*
G04 #@! TO.P,TP5,1,1*
G04 #@! TO.N,GND*
X160000000Y-53000000D03*
G04 #@! TD*
D14*
G04 #@! TO.P,TP4,1,1*
G04 #@! TO.N,USB-GND*
X107000000Y-60800000D03*
G04 #@! TD*
D17*
G04 #@! TO.P,TP6,1,1*
G04 #@! TO.N,GND*
X105000000Y-53000000D03*
G04 #@! TD*
G04 #@! TO.P,TP7,1,1*
G04 #@! TO.N,GND*
X160000000Y-89000000D03*
G04 #@! TD*
G04 #@! TO.P,TP8,1,1*
G04 #@! TO.N,GND*
X105000000Y-89000000D03*
G04 #@! TD*
D18*
G04 #@! TO.N,HPI_I2C_SCL*
X113305000Y-78105000D03*
G04 #@! TO.N,GND*
X137100000Y-75300000D03*
X138200000Y-71300000D03*
X137300000Y-71300000D03*
X136200000Y-71300000D03*
X114300000Y-72900000D03*
X133661530Y-52950000D03*
X143500000Y-90500000D03*
X155500000Y-53500000D03*
X160775000Y-57175000D03*
X125050000Y-60075000D03*
X159775000Y-59475000D03*
X126600000Y-70700000D03*
X134996164Y-55200000D03*
X144500000Y-77300000D03*
X160775000Y-61075000D03*
X160775000Y-59575000D03*
X120450000Y-62150000D03*
X134607683Y-52950000D03*
X132157694Y-55200000D03*
X150800000Y-75300000D03*
X124000000Y-61100000D03*
X143775000Y-67225000D03*
X157000000Y-53500000D03*
X139425000Y-75450000D03*
X120500000Y-63150000D03*
X132500000Y-73700000D03*
X155200000Y-77200000D03*
X122725000Y-60075000D03*
X120250000Y-78425000D03*
X156000000Y-77200000D03*
X160100000Y-64500000D03*
X129900000Y-77100000D03*
X129200000Y-75450000D03*
X154700000Y-53500000D03*
X138050000Y-82625000D03*
X118550000Y-59850000D03*
X155700000Y-70600000D03*
X159100000Y-63700000D03*
X156000000Y-79200000D03*
X121900000Y-68575000D03*
X126600000Y-73200000D03*
X131100000Y-81000000D03*
X116375000Y-65375000D03*
X140400000Y-63475000D03*
X120100000Y-82800000D03*
X160775000Y-61875000D03*
X139400000Y-78550000D03*
X156800000Y-77200000D03*
X126600000Y-72400000D03*
X159100000Y-66000000D03*
X131769224Y-52950000D03*
X130700000Y-77100000D03*
X160100000Y-66100000D03*
X119100000Y-68275000D03*
X150850000Y-66350000D03*
X138725000Y-66500000D03*
X160775000Y-58775000D03*
X148725000Y-82075000D03*
X155700000Y-72200000D03*
X156700000Y-70600000D03*
X138050000Y-81775000D03*
X128930765Y-52950000D03*
X133103847Y-55200000D03*
X136200000Y-88000000D03*
X156700000Y-72200000D03*
X121900000Y-72400000D03*
X146625000Y-88925000D03*
X117350000Y-87975000D03*
X156800000Y-79200000D03*
X140900000Y-90500000D03*
X159775000Y-60275000D03*
X123000000Y-90100000D03*
X159775000Y-61075000D03*
X126600000Y-71500000D03*
X159775000Y-57175000D03*
X153600000Y-75700000D03*
X120250000Y-77375000D03*
X128925000Y-60775000D03*
X159100000Y-66800000D03*
X147675000Y-82050000D03*
X159775000Y-58675000D03*
X117175000Y-65375000D03*
X159100000Y-64500000D03*
X146500000Y-66600000D03*
X126092306Y-52950000D03*
X132200000Y-88400000D03*
X151750000Y-66350000D03*
X147475000Y-88925000D03*
X156000000Y-78200000D03*
X137207683Y-51200000D03*
X159100000Y-65200000D03*
X127100000Y-83900000D03*
X159775000Y-61875000D03*
X135500000Y-76400000D03*
X117800000Y-78900000D03*
X118400000Y-87975000D03*
X126200000Y-83900000D03*
X133050000Y-67100000D03*
X116100000Y-75100000D03*
X127984612Y-52950000D03*
X117000000Y-75100000D03*
X150800000Y-74500000D03*
X155200000Y-79200000D03*
X134050000Y-55200000D03*
X123000000Y-91000000D03*
X122275000Y-78250000D03*
X144500000Y-78100000D03*
X139100000Y-51200000D03*
X115375000Y-62975000D03*
X114900000Y-69700000D03*
X116175000Y-62975000D03*
X131300000Y-88400000D03*
X155500000Y-52500000D03*
X118700000Y-78900000D03*
X157100000Y-52500000D03*
X144475000Y-63600000D03*
X129876918Y-52950000D03*
X154400000Y-75700000D03*
X135553836Y-52950000D03*
X155200000Y-75700000D03*
X159775000Y-57975000D03*
X136500000Y-52950000D03*
X128800000Y-74900000D03*
X119650000Y-63150000D03*
X138153836Y-51200000D03*
X144500000Y-78900000D03*
X134500000Y-59200000D03*
X121900000Y-73200000D03*
X121900000Y-69375000D03*
X130823071Y-52950000D03*
X156300000Y-52500000D03*
X125146153Y-52950000D03*
X155700000Y-71400000D03*
X128400000Y-64800000D03*
X156200000Y-53500000D03*
X130300000Y-81000000D03*
X142100000Y-90500000D03*
X124200000Y-52950000D03*
X156700000Y-71400000D03*
X149950000Y-66350000D03*
X160100000Y-63700000D03*
X127038459Y-52950000D03*
X160775000Y-57975000D03*
X130025000Y-60775000D03*
X132715377Y-52950000D03*
X160100000Y-65300000D03*
X150800000Y-73700000D03*
X156800000Y-78200000D03*
X148725000Y-82925000D03*
X147675000Y-82925000D03*
X120150000Y-59850000D03*
X123850000Y-60075000D03*
X147700000Y-81200000D03*
X160775000Y-60375000D03*
X133800000Y-67100000D03*
X155200000Y-78200000D03*
X119350000Y-59850000D03*
X120900000Y-82800000D03*
X136200000Y-86900000D03*
X135650000Y-63550000D03*
X154700000Y-52500000D03*
G04 #@! TO.N,TEMP_FB1*
X142700000Y-64200000D03*
X126600000Y-64450000D03*
G04 #@! TO.N,VDD*
X116029000Y-80550000D03*
X136621078Y-62603922D03*
X124075000Y-80400000D03*
X142200000Y-62950000D03*
X126825000Y-77875000D03*
G04 #@! TO.N,IIN_CSP_0*
X142100000Y-76700000D03*
X132700000Y-59325000D03*
X131958262Y-73041738D03*
X121750000Y-64750000D03*
G04 #@! TO.N,IIN_CSN_0*
X121025001Y-65024999D03*
X140750000Y-59750000D03*
X137600000Y-59025000D03*
X140750000Y-58925000D03*
X137600000Y-58200000D03*
X133700000Y-58854000D03*
X140750000Y-58100000D03*
X137600000Y-59850000D03*
G04 #@! TO.N,IOUT_CSP_0*
X116500000Y-73200000D03*
X152000000Y-57700000D03*
X118805805Y-69478667D03*
G04 #@! TO.N,IOUT_CSN_0*
X148000000Y-70000000D03*
X146500000Y-74000000D03*
X135375000Y-68371000D03*
X148000000Y-76600000D03*
X148800000Y-76600000D03*
X148100000Y-73200000D03*
X148000000Y-79800000D03*
X146400000Y-70000000D03*
X146400000Y-76600000D03*
X147200000Y-70000000D03*
X148100000Y-74000000D03*
X147300000Y-74000000D03*
X147200000Y-76600000D03*
X146400000Y-79800000D03*
X148800000Y-79800000D03*
X147300000Y-73200000D03*
X146500000Y-73200000D03*
X147200000Y-79800000D03*
G04 #@! TO.N,SW1_0*
X139850000Y-55950000D03*
X140700000Y-54850000D03*
X120100000Y-66900000D03*
X140700000Y-56550000D03*
X140700000Y-55700000D03*
X139100000Y-55975000D03*
X140700000Y-54000000D03*
G04 #@! TO.N,CC1_0*
X115675000Y-77200000D03*
X110850000Y-66500000D03*
G04 #@! TO.N,CC2_0*
X110800000Y-69775000D03*
X118275000Y-77100000D03*
G04 #@! TO.N,Q_COMP*
X128005894Y-76790729D03*
X135200000Y-84275000D03*
X129500000Y-73100000D03*
G04 #@! TO.N,Net-(R3-Pad1)*
X149001398Y-66462616D03*
X159050000Y-67750000D03*
G04 #@! TO.N,ASK_DEMOD*
X128500000Y-85950000D03*
X132100000Y-74500000D03*
G04 #@! TO.N,OPTIGA_I2C_SCL*
X127121292Y-76953708D03*
X134100000Y-79700000D03*
G04 #@! TO.N,HPI_I2C_SCL*
X126108262Y-65508262D03*
G04 #@! TO.N,HPI_I2C_SDA*
X127000000Y-65400000D03*
X114400000Y-74800000D03*
G04 #@! TO.N,Net-(U4-SW2_0)*
X118918738Y-70371000D03*
X114350000Y-68700000D03*
G04 #@! TO.N,D-_0*
X123275000Y-76900000D03*
X110825812Y-67429603D03*
G04 #@! TO.N,OPTIGA_I2C_INT*
X133300000Y-78000000D03*
X128400000Y-76100000D03*
G04 #@! TO.N,HG2_1*
X149900000Y-76754000D03*
X135750000Y-69625000D03*
G04 #@! TO.N,HG1_0*
X137650000Y-56700000D03*
X120650000Y-66250000D03*
G04 #@! TO.N,LG1_0*
X119994249Y-61385623D03*
X137525000Y-53100000D03*
G04 #@! TO.N,LG2_1*
X154150000Y-76700000D03*
X133950000Y-68400000D03*
G04 #@! TO.N,XRES*
X126500000Y-79400000D03*
X115200000Y-81800000D03*
G04 #@! TO.N,SW2_1*
X152400000Y-82800000D03*
X152400000Y-79600000D03*
X152400000Y-86000000D03*
X152400000Y-86800000D03*
X151600000Y-79600000D03*
X152400000Y-81200000D03*
X152400000Y-87600000D03*
X150000000Y-80200000D03*
X152400000Y-83600000D03*
X150600000Y-78000000D03*
X152400000Y-88400000D03*
X150600000Y-79600000D03*
X134150000Y-69508000D03*
X152400000Y-80400000D03*
X150600000Y-78800000D03*
X152400000Y-85200000D03*
X152400000Y-82000000D03*
X152400000Y-84400000D03*
G04 #@! TO.N,HG1_1*
X150000000Y-70100000D03*
X129725000Y-66400000D03*
G04 #@! TO.N,SW1_1*
X151900000Y-73800000D03*
X150600000Y-71400000D03*
X151200000Y-70100000D03*
X152800000Y-73100000D03*
X139700000Y-67000000D03*
X150600000Y-72400000D03*
X152800000Y-73800000D03*
X151900000Y-73100000D03*
G04 #@! TO.N,LG1_1*
X129491738Y-67616738D03*
X154100000Y-70100000D03*
G04 #@! TO.N,D+_0*
X108854000Y-80600000D03*
X110800000Y-68750000D03*
X112600000Y-82100000D03*
X122550000Y-77325000D03*
G04 #@! TO.N,CTRL_1*
X133500000Y-75500000D03*
X142000000Y-77900000D03*
G04 #@! TO.N,/CSNO_0*
X115975000Y-71775000D03*
X148400000Y-65000000D03*
G04 #@! TO.N,/CSPO_0*
X115900000Y-70700000D03*
X148400000Y-63500000D03*
G04 #@! TD*
D19*
G04 #@! TO.N,D-_0*
X122521000Y-76146000D02*
X123275000Y-76900000D01*
X113600000Y-80200000D02*
X117654000Y-76146000D01*
X110300000Y-80200000D02*
X113600000Y-80200000D01*
X109508500Y-79408500D02*
X110300000Y-80200000D01*
X111954000Y-68557791D02*
X111954000Y-73046000D01*
X117654000Y-76146000D02*
X122521000Y-76146000D01*
X110825812Y-67429603D02*
X111954000Y-68557791D01*
X109508500Y-75491500D02*
X109508500Y-79408500D01*
X111954000Y-73046000D02*
X109508500Y-75491500D01*
G04 #@! TO.N,D+_0*
X118029000Y-76500000D02*
X121725000Y-76500000D01*
X121725000Y-76500000D02*
X122550000Y-77325000D01*
X112600000Y-81929000D02*
X118029000Y-76500000D01*
X112600000Y-82100000D02*
X112600000Y-81929000D01*
G04 #@! TO.N,CC1_0*
X114100000Y-78700000D02*
X115600000Y-77200000D01*
X115600000Y-77200000D02*
X115675000Y-77200000D01*
X113116525Y-78700000D02*
X114100000Y-78700000D01*
X112400000Y-77983475D02*
X113116525Y-78700000D01*
X111100000Y-66500000D02*
X112400000Y-67800000D01*
X112400000Y-67800000D02*
X112400000Y-77983475D01*
X110850000Y-66500000D02*
X111100000Y-66500000D01*
G04 #@! TO.N,HPI_I2C_SCL*
X113000000Y-76100000D02*
X113000000Y-77800000D01*
X113000000Y-76100000D02*
X113000000Y-77080000D01*
X113000000Y-67998736D02*
X113000000Y-76100000D01*
X113000000Y-77800000D02*
X113305000Y-78105000D01*
G04 #@! TO.N,CC2_0*
X110004000Y-82804000D02*
X112796000Y-82804000D01*
X108300000Y-81100000D02*
X110004000Y-82804000D01*
X108300000Y-75550000D02*
X108300000Y-81100000D01*
X111246000Y-72604000D02*
X108300000Y-75550000D01*
X111246000Y-70221000D02*
X111246000Y-72604000D01*
X110800000Y-69775000D02*
X111246000Y-70221000D01*
X112796000Y-82804000D02*
X118275000Y-77325000D01*
X118275000Y-77325000D02*
X118275000Y-77100000D01*
G04 #@! TO.N,XRES*
X124705000Y-81195000D02*
X126500000Y-79400000D01*
X115805000Y-81195000D02*
X124705000Y-81195000D01*
X115200000Y-81800000D02*
X115805000Y-81195000D01*
G04 #@! TO.N,TEMP_FB1*
X126850000Y-64200000D02*
X126600000Y-64450000D01*
X142700000Y-64200000D02*
X126850000Y-64200000D01*
D20*
G04 #@! TO.N,VDD*
X116083000Y-80604000D02*
X116029000Y-80550000D01*
X124300000Y-80400000D02*
X126825000Y-77875000D01*
D19*
X136625000Y-62600000D02*
X136621078Y-62603922D01*
X142200000Y-62950000D02*
X142196000Y-62946000D01*
X140600000Y-62600000D02*
X136625000Y-62600000D01*
D20*
X124075000Y-80400000D02*
X124300000Y-80400000D01*
D19*
X140946000Y-62946000D02*
X140600000Y-62600000D01*
X142196000Y-62946000D02*
X140946000Y-62946000D01*
D20*
X123871000Y-80604000D02*
X116083000Y-80604000D01*
X124075000Y-80400000D02*
X123871000Y-80604000D01*
D19*
G04 #@! TO.N,IIN_CSP_0*
X128800000Y-59300000D02*
X123350000Y-64750000D01*
D20*
X133416738Y-73041738D02*
X137075000Y-76700000D01*
D19*
X123350000Y-64750000D02*
X121750000Y-64750000D01*
D20*
X137075000Y-76700000D02*
X142100000Y-76700000D01*
D19*
X132700000Y-59325000D02*
X132675000Y-59300000D01*
X132675000Y-59300000D02*
X128800000Y-59300000D01*
D20*
X131958262Y-73041738D02*
X133416738Y-73041738D01*
D19*
G04 #@! TO.N,IIN_CSN_0*
X123300000Y-64000000D02*
X121600000Y-64000000D01*
X128600000Y-58700000D02*
X123300000Y-64000000D01*
X133546000Y-58700000D02*
X128600000Y-58700000D01*
X133700000Y-58854000D02*
X133546000Y-58700000D01*
X121025001Y-64574999D02*
X121025001Y-65024999D01*
X121600000Y-64000000D02*
X121025001Y-64574999D01*
G04 #@! TO.N,IOUT_CSP_0*
X115346000Y-70470525D02*
X115670525Y-70146000D01*
X118809880Y-69478667D02*
X118805805Y-69478667D01*
X152000000Y-59699368D02*
X149074684Y-62624684D01*
X149074684Y-62624684D02*
X146725316Y-62624684D01*
X119472738Y-70141525D02*
X118809880Y-69478667D01*
X129200000Y-64900000D02*
X123600000Y-70500000D01*
X144450000Y-64900000D02*
X129200000Y-64900000D01*
X117824368Y-70925000D02*
X119148213Y-70925000D01*
X115670525Y-70146000D02*
X117045368Y-70146000D01*
X115346000Y-72046000D02*
X115346000Y-70470525D01*
X116500000Y-73200000D02*
X115346000Y-72046000D01*
X152000000Y-57700000D02*
X152000000Y-59699368D01*
X123600000Y-70500000D02*
X121600000Y-70500000D01*
X117045368Y-70146000D02*
X117824368Y-70925000D01*
X119148213Y-70925000D02*
X119472738Y-70600475D01*
X146725316Y-62624684D02*
X144450000Y-64900000D01*
X121600000Y-70500000D02*
X120578667Y-69478667D01*
X120578667Y-69478667D02*
X118805805Y-69478667D01*
X119472738Y-70600475D02*
X119472738Y-70141525D01*
G04 #@! TO.N,IOUT_CSN_0*
X142700000Y-70000000D02*
X146400000Y-70000000D01*
X141150000Y-68450000D02*
X142350000Y-69650000D01*
X135454000Y-68450000D02*
X141150000Y-68450000D01*
X142350000Y-69650000D02*
X142700000Y-70000000D01*
X135375000Y-68371000D02*
X135454000Y-68450000D01*
G04 #@! TO.N,SW1_0*
X121453368Y-63646000D02*
X123153368Y-63646000D01*
X123153368Y-63646000D02*
X128549368Y-58250000D01*
X119800000Y-65299368D02*
X121453368Y-63646000D01*
X137100000Y-54850000D02*
X140700000Y-54850000D01*
X133700000Y-58250000D02*
X137100000Y-54850000D01*
X119800000Y-66600000D02*
X119800000Y-65299368D01*
X120100000Y-66900000D02*
X119800000Y-66600000D01*
X128549368Y-58250000D02*
X133700000Y-58250000D01*
G04 #@! TO.N,Q_COMP*
X127846000Y-74754000D02*
X127846000Y-76630835D01*
X129500000Y-73100000D02*
X127846000Y-74754000D01*
X135200000Y-79900000D02*
X134446000Y-79146000D01*
X127846000Y-76630835D02*
X128005894Y-76790729D01*
X134446000Y-79146000D02*
X130361165Y-79146000D01*
X135200000Y-84275000D02*
X135200000Y-79900000D01*
X130361165Y-79146000D02*
X128005894Y-76790729D01*
G04 #@! TO.N,Net-(R3-Pad1)*
X150288782Y-67750000D02*
X149001398Y-66462616D01*
X159050000Y-67750000D02*
X150288782Y-67750000D01*
G04 #@! TO.N,ASK_DEMOD*
X135754000Y-84992000D02*
X135754000Y-79670525D01*
X128500000Y-85950000D02*
X128600000Y-86050000D01*
X134696000Y-86050000D02*
X135754000Y-84992000D01*
X128600000Y-86050000D02*
X134696000Y-86050000D01*
X135754000Y-79670525D02*
X132341737Y-76258263D01*
X132100000Y-76016526D02*
X132100000Y-74500000D01*
X132341737Y-76258263D02*
X132100000Y-76016526D01*
G04 #@! TO.N,OPTIGA_I2C_SCL*
X129750000Y-79700000D02*
X134100000Y-79700000D01*
X127121292Y-76953708D02*
X127121292Y-77071292D01*
X127121292Y-77071292D02*
X129750000Y-79700000D01*
G04 #@! TO.N,HPI_I2C_SCL*
X119275000Y-67025000D02*
X116875000Y-67025000D01*
X116875000Y-67025000D02*
X116400000Y-67500000D01*
X113498736Y-67500000D02*
X113000000Y-67998736D01*
X116400000Y-67500000D02*
X113498736Y-67500000D01*
X119750000Y-67500000D02*
X119275000Y-67025000D01*
X124116524Y-67500000D02*
X119750000Y-67500000D01*
X126108262Y-65508262D02*
X124116524Y-67500000D01*
G04 #@! TO.N,HPI_I2C_SDA*
X116550000Y-67946000D02*
X114003368Y-67946000D01*
X113400000Y-73800000D02*
X114400000Y-74800000D01*
X127000000Y-65400000D02*
X124454000Y-67946000D01*
X119128368Y-67379000D02*
X117117000Y-67379000D01*
X124454000Y-67946000D02*
X119695368Y-67946000D01*
X119695368Y-67946000D02*
X119128368Y-67379000D01*
X113400000Y-68549368D02*
X113400000Y-73800000D01*
X114003368Y-67946000D02*
X113400000Y-68549368D01*
X117117000Y-67379000D02*
X116550000Y-67946000D01*
G04 #@! TO.N,Net-(U4-SW2_0)*
X114350000Y-68700000D02*
X116100000Y-68700000D01*
X116100000Y-68700000D02*
X117771000Y-70371000D01*
X117771000Y-70371000D02*
X118918738Y-70371000D01*
G04 #@! TO.N,OPTIGA_I2C_INT*
X128400000Y-76100000D02*
X131400000Y-76100000D01*
X131400000Y-76100000D02*
X133300000Y-78000000D01*
G04 #@! TO.N,HG2_1*
X135867000Y-69508000D02*
X140258000Y-69508000D01*
X149900000Y-76700000D02*
X149900000Y-76754000D01*
X140258000Y-69508000D02*
X146025000Y-75275000D01*
X146025000Y-75275000D02*
X148475000Y-75275000D01*
X135750000Y-69625000D02*
X135867000Y-69508000D01*
X148475000Y-75275000D02*
X149900000Y-76700000D01*
G04 #@! TO.N,HG1_0*
X134850000Y-62300000D02*
X136400000Y-60750000D01*
X136400000Y-60750000D02*
X136400000Y-57950000D01*
X127300000Y-62300000D02*
X134850000Y-62300000D01*
X120650000Y-66250000D02*
X120800000Y-66100000D01*
X120800000Y-66100000D02*
X123500000Y-66100000D01*
X136400000Y-57950000D02*
X137650000Y-56700000D01*
X123500000Y-66100000D02*
X127300000Y-62300000D01*
G04 #@! TO.N,LG1_0*
X128925000Y-56300000D02*
X125975000Y-59250000D01*
X137525000Y-53100000D02*
X137525000Y-53850000D01*
X137450000Y-53850000D02*
X137525000Y-53850000D01*
X122129872Y-59250000D02*
X119994249Y-61385623D01*
X125975000Y-59250000D02*
X122129872Y-59250000D01*
X135000000Y-56300000D02*
X128925000Y-56300000D01*
X135000000Y-56300000D02*
X137450000Y-53850000D01*
G04 #@! TO.N,LG2_1*
X151775000Y-76200000D02*
X152275000Y-76700000D01*
X134600000Y-68975000D02*
X140475000Y-68975000D01*
X150100000Y-76200000D02*
X151775000Y-76200000D01*
X133950000Y-68400000D02*
X134025000Y-68400000D01*
X140475000Y-68975000D02*
X146400000Y-74900000D01*
X146400000Y-74900000D02*
X148800000Y-74900000D01*
X148800000Y-74900000D02*
X150100000Y-76200000D01*
X134025000Y-68400000D02*
X134600000Y-68975000D01*
X152275000Y-76700000D02*
X154150000Y-76700000D01*
G04 #@! TO.N,SW2_1*
X144950000Y-80500000D02*
X143500000Y-79050000D01*
X135092000Y-70450000D02*
X134150000Y-69508000D01*
X140124762Y-70774525D02*
X139800237Y-70450000D01*
X139800237Y-70450000D02*
X135092000Y-70450000D01*
X149700000Y-80500000D02*
X144950000Y-80500000D01*
X140124762Y-70787262D02*
X140124762Y-70774525D01*
X150000000Y-80200000D02*
X149700000Y-80500000D01*
X143500000Y-74162500D02*
X140124762Y-70787262D01*
X143500000Y-79050000D02*
X143500000Y-74162500D01*
G04 #@! TO.N,HG1_1*
X143021000Y-68575000D02*
X142000000Y-67554000D01*
X138554000Y-67554000D02*
X142000000Y-67554000D01*
X129750000Y-66425000D02*
X137425000Y-66425000D01*
X148475000Y-68575000D02*
X150000000Y-70100000D01*
X148475000Y-68575000D02*
X143021000Y-68575000D01*
X137425000Y-66425000D02*
X138554000Y-67554000D01*
X129725000Y-66400000D02*
X129750000Y-66425000D01*
G04 #@! TO.N,SW1_1*
X142150000Y-67000000D02*
X143250000Y-68100000D01*
X148825000Y-68100000D02*
X150825000Y-70100000D01*
X139700000Y-67000000D02*
X142150000Y-67000000D01*
X143250000Y-68100000D02*
X148825000Y-68100000D01*
X150825000Y-70100000D02*
X151200000Y-70100000D01*
G04 #@! TO.N,LG1_1*
X148037500Y-69037500D02*
X142904500Y-69037500D01*
X153450000Y-70750000D02*
X154100000Y-70100000D01*
X129491738Y-67616738D02*
X129529000Y-67654000D01*
X148037500Y-69037500D02*
X149750000Y-70750000D01*
X138153368Y-67654000D02*
X138407368Y-67908000D01*
X129529000Y-67654000D02*
X138153368Y-67654000D01*
X142904500Y-69037500D02*
X141775000Y-67908000D01*
X149750000Y-70750000D02*
X153450000Y-70750000D01*
X138407368Y-67908000D02*
X141775000Y-67908000D01*
G04 #@! TO.N,D+_0*
X110800000Y-68750000D02*
X111600000Y-69550000D01*
X109042000Y-80412000D02*
X108854000Y-80600000D01*
X111600000Y-69550000D02*
X111600000Y-72900000D01*
X109042000Y-75458000D02*
X109042000Y-80412000D01*
X111600000Y-72900000D02*
X109042000Y-75458000D01*
G04 #@! TO.N,CTRL_1*
X133500000Y-75500000D02*
X135700000Y-77700000D01*
X135700000Y-77700000D02*
X141800000Y-77700000D01*
X141800000Y-77700000D02*
X142000000Y-77900000D01*
G04 #@! TO.N,/CSNO_0*
X147900000Y-65000000D02*
X147075372Y-65824628D01*
X123650000Y-71650000D02*
X116100000Y-71650000D01*
X116100000Y-71650000D02*
X115975000Y-71775000D01*
X148400000Y-65000000D02*
X147900000Y-65000000D01*
X147075372Y-65824628D02*
X129475372Y-65824628D01*
X129475372Y-65824628D02*
X123650000Y-71650000D01*
G04 #@! TO.N,/CSPO_0*
X123503368Y-71296000D02*
X116496000Y-71296000D01*
X148400000Y-63500000D02*
X147850000Y-63500000D01*
X116496000Y-71296000D02*
X115900000Y-70700000D01*
X145950000Y-65400000D02*
X129399368Y-65400000D01*
X147850000Y-63500000D02*
X145950000Y-65400000D01*
X129399368Y-65400000D02*
X123503368Y-71296000D01*
G04 #@! TD*
G04 #@! TA.AperFunction,Conductor*
G04 #@! TO.N,GND*
G36*
X140150712Y-69827407D02*
G01*
X140162525Y-69837496D01*
X145798472Y-75473443D01*
X145826248Y-75527958D01*
X145823457Y-75571337D01*
X145802824Y-75641603D01*
X145802824Y-75641604D01*
X145794500Y-75699500D01*
X145794500Y-79848656D01*
X145795677Y-79870594D01*
X145795678Y-79870603D01*
X145798511Y-79896961D01*
X145798512Y-79896966D01*
X145822469Y-79973479D01*
X145855958Y-80034809D01*
X145860722Y-80041172D01*
X145880458Y-80099087D01*
X145862383Y-80157541D01*
X145813402Y-80194208D01*
X145781468Y-80199500D01*
X145115479Y-80199500D01*
X145057288Y-80180593D01*
X145045475Y-80170504D01*
X143829496Y-78954525D01*
X143801719Y-78900008D01*
X143800500Y-78884521D01*
X143800500Y-74122937D01*
X143800499Y-74122935D01*
X143799138Y-74117857D01*
X143780021Y-74046511D01*
X143776288Y-74040046D01*
X143740460Y-73977989D01*
X143684511Y-73922039D01*
X143684511Y-73922040D01*
X140391836Y-70629365D01*
X140376104Y-70608862D01*
X140374238Y-70605630D01*
X140365222Y-70590014D01*
X139984748Y-70209540D01*
X139983104Y-70208591D01*
X139983098Y-70208584D01*
X139983097Y-70208587D01*
X139916226Y-70169979D01*
X139916225Y-70169978D01*
X139916224Y-70169978D01*
X139839801Y-70149500D01*
X139839799Y-70149500D01*
X136198370Y-70149500D01*
X136140179Y-70130593D01*
X136104215Y-70081093D01*
X136104215Y-70019907D01*
X136140179Y-69970407D01*
X136145107Y-69967049D01*
X136160824Y-69957018D01*
X136369158Y-69824048D01*
X136422421Y-69808500D01*
X140092521Y-69808500D01*
X140150712Y-69827407D01*
G37*
G04 #@! TD.AperFunction*
G04 #@! TA.AperFunction,Conductor*
G36*
X131292712Y-76419407D02*
G01*
X131304525Y-76429496D01*
X132615486Y-77740457D01*
X132635250Y-77768714D01*
X132664508Y-77831627D01*
X132831787Y-78191327D01*
X132841137Y-78204419D01*
X132850625Y-78220826D01*
X132873040Y-78269907D01*
X132874623Y-78273373D01*
X132958787Y-78370504D01*
X132968873Y-78382144D01*
X132997436Y-78400500D01*
X133089947Y-78459953D01*
X133196403Y-78491211D01*
X133228035Y-78500499D01*
X133228036Y-78500499D01*
X133228039Y-78500500D01*
X133228041Y-78500500D01*
X133371959Y-78500500D01*
X133371961Y-78500500D01*
X133510053Y-78459953D01*
X133631128Y-78382143D01*
X133725377Y-78273373D01*
X133730882Y-78261316D01*
X133772250Y-78216240D01*
X133832216Y-78204086D01*
X133887873Y-78229500D01*
X133890939Y-78232437D01*
X134334999Y-78676496D01*
X134362777Y-78731013D01*
X134353206Y-78791445D01*
X134309941Y-78834710D01*
X134264996Y-78845500D01*
X130526644Y-78845500D01*
X130468453Y-78826593D01*
X130456640Y-78816504D01*
X128690404Y-77050268D01*
X128670640Y-77022010D01*
X128663429Y-77006505D01*
X128523486Y-76705584D01*
X128516094Y-76644848D01*
X128545812Y-76591365D01*
X128591497Y-76569212D01*
X128591077Y-76567577D01*
X128595784Y-76566364D01*
X128595790Y-76566364D01*
X129033590Y-76406504D01*
X129067546Y-76400500D01*
X131234521Y-76400500D01*
X131292712Y-76419407D01*
G37*
G04 #@! TD.AperFunction*
G04 #@! TA.AperFunction,Conductor*
G36*
X128993713Y-64519407D02*
G01*
X129029677Y-64568907D01*
X129029677Y-64630093D01*
X129005527Y-64669501D01*
X126254525Y-67420504D01*
X123504525Y-70170504D01*
X123450008Y-70198281D01*
X123434521Y-70199500D01*
X121765479Y-70199500D01*
X121707288Y-70180593D01*
X121695475Y-70170504D01*
X121242826Y-69717855D01*
X120763178Y-69238207D01*
X120749900Y-69230541D01*
X120694656Y-69198646D01*
X120694655Y-69198645D01*
X120694654Y-69198645D01*
X120618231Y-69178167D01*
X120618229Y-69178167D01*
X119473352Y-69178167D01*
X119439396Y-69172162D01*
X119423517Y-69166364D01*
X119001591Y-69012302D01*
X119001586Y-69012301D01*
X118989962Y-69010363D01*
X118978352Y-69007701D01*
X118877768Y-68978167D01*
X118877766Y-68978167D01*
X118733844Y-68978167D01*
X118733840Y-68978167D01*
X118595754Y-69018713D01*
X118595747Y-69018716D01*
X118474678Y-69096522D01*
X118380427Y-69205295D01*
X118320639Y-69336210D01*
X118300158Y-69478664D01*
X118300158Y-69478669D01*
X118320639Y-69621123D01*
X118364816Y-69717855D01*
X118380428Y-69752040D01*
X118469131Y-69854409D01*
X118492948Y-69910769D01*
X118479089Y-69970364D01*
X118432848Y-70010431D01*
X118428267Y-70012234D01*
X118285146Y-70064494D01*
X118251190Y-70070500D01*
X117936479Y-70070500D01*
X117878288Y-70051593D01*
X117866475Y-70041504D01*
X117099471Y-69274500D01*
X116284511Y-68459540D01*
X116284508Y-68459538D01*
X116267122Y-68449500D01*
X116235489Y-68431237D01*
X116194547Y-68385768D01*
X116188151Y-68324917D01*
X116218744Y-68271929D01*
X116274639Y-68247042D01*
X116284988Y-68246500D01*
X116589563Y-68246500D01*
X116589563Y-68246499D01*
X116665989Y-68226021D01*
X116734511Y-68186460D01*
X116790460Y-68130511D01*
X117212475Y-67708496D01*
X117266992Y-67680719D01*
X117282479Y-67679500D01*
X118962889Y-67679500D01*
X119021080Y-67698407D01*
X119032893Y-67708496D01*
X119454908Y-68130511D01*
X119454907Y-68130511D01*
X119510857Y-68186460D01*
X119579375Y-68226019D01*
X119579379Y-68226021D01*
X119655803Y-68246499D01*
X119655805Y-68246500D01*
X119655806Y-68246500D01*
X124493563Y-68246500D01*
X124493563Y-68246499D01*
X124569989Y-68226021D01*
X124638511Y-68186460D01*
X124694460Y-68130511D01*
X126740463Y-66084506D01*
X126768713Y-66064747D01*
X127111007Y-65905565D01*
X127195481Y-65866281D01*
X127195588Y-65866511D01*
X127203674Y-65863027D01*
X127203613Y-65862894D01*
X127210050Y-65859953D01*
X127210053Y-65859953D01*
X127331128Y-65782143D01*
X127425377Y-65673373D01*
X127485165Y-65542457D01*
X127504620Y-65407142D01*
X127505647Y-65400002D01*
X127505647Y-65399997D01*
X127485165Y-65257543D01*
X127466359Y-65216364D01*
X127425377Y-65126627D01*
X127331128Y-65017857D01*
X127331127Y-65017856D01*
X127331126Y-65017855D01*
X127210057Y-64940049D01*
X127210054Y-64940047D01*
X127210053Y-64940047D01*
X127210050Y-64940046D01*
X127065167Y-64897505D01*
X127065816Y-64895294D01*
X127020457Y-64872991D01*
X126991905Y-64818876D01*
X127000615Y-64758313D01*
X127011588Y-64740862D01*
X127023261Y-64725994D01*
X127026359Y-64722241D01*
X127026760Y-64721778D01*
X127028564Y-64719238D01*
X127170572Y-64538363D01*
X127221378Y-64504270D01*
X127248440Y-64500500D01*
X128935522Y-64500500D01*
X128993713Y-64519407D01*
G37*
G04 #@! TD.AperFunction*
G04 #@! TA.AperFunction,Conductor*
G36*
X136869501Y-60280833D02*
G01*
X137033015Y-60444347D01*
X137033023Y-60444354D01*
X137033037Y-60444367D01*
X137053365Y-60462626D01*
X137053365Y-60462627D01*
X137070649Y-60476554D01*
X137074007Y-60479260D01*
X137162338Y-60525465D01*
X137229377Y-60545150D01*
X137269368Y-60550900D01*
X137301358Y-60555500D01*
X137301362Y-60555500D01*
X141248639Y-60555500D01*
X141251672Y-60555337D01*
X141275952Y-60554036D01*
X141302310Y-60551202D01*
X141397444Y-60521413D01*
X141403552Y-60518077D01*
X141463684Y-60506782D01*
X141518973Y-60532989D01*
X141548298Y-60586688D01*
X141550000Y-60604966D01*
X141550000Y-61000000D01*
X141550001Y-61000000D01*
X150035389Y-61000000D01*
X150093580Y-61018907D01*
X150129544Y-61068407D01*
X150129544Y-61129593D01*
X150105393Y-61169004D01*
X148979209Y-62295188D01*
X148924692Y-62322965D01*
X148909205Y-62324184D01*
X146764878Y-62324184D01*
X146685754Y-62324184D01*
X146638977Y-62336717D01*
X146609323Y-62344663D01*
X146540809Y-62384220D01*
X144354525Y-64570504D01*
X144300008Y-64598281D01*
X144284521Y-64599500D01*
X143221824Y-64599500D01*
X143163633Y-64580593D01*
X143127669Y-64531093D01*
X143127669Y-64469907D01*
X143131771Y-64459373D01*
X143167791Y-64380500D01*
X143185165Y-64342457D01*
X143205647Y-64200000D01*
X143195085Y-64126542D01*
X143185165Y-64057543D01*
X143159114Y-64000500D01*
X143125377Y-63926627D01*
X143031128Y-63817857D01*
X143031127Y-63817856D01*
X143031126Y-63817855D01*
X142910057Y-63740049D01*
X142910054Y-63740047D01*
X142910053Y-63740047D01*
X142910050Y-63740046D01*
X142771964Y-63699500D01*
X142771961Y-63699500D01*
X142628039Y-63699500D01*
X142628037Y-63699500D01*
X142628033Y-63699501D01*
X142526515Y-63729308D01*
X142513793Y-63732149D01*
X142504220Y-63733633D01*
X142504218Y-63733633D01*
X142395389Y-63773371D01*
X142091511Y-63884329D01*
X142066408Y-63893495D01*
X142032452Y-63899500D01*
X127095466Y-63899500D01*
X127085980Y-63899044D01*
X127083078Y-63898764D01*
X127062987Y-63896830D01*
X127062979Y-63896830D01*
X127041416Y-63899002D01*
X127031497Y-63899500D01*
X126810435Y-63899500D01*
X126734014Y-63919977D01*
X126734001Y-63919983D01*
X126731476Y-63921441D01*
X126691904Y-63934203D01*
X126589901Y-63944476D01*
X126589894Y-63944478D01*
X126584793Y-63945894D01*
X126558317Y-63949500D01*
X126528035Y-63949500D01*
X126389949Y-63990046D01*
X126389942Y-63990049D01*
X126268873Y-64067855D01*
X126174622Y-64176628D01*
X126114834Y-64307543D01*
X126094353Y-64449997D01*
X126094353Y-64450002D01*
X126114834Y-64592456D01*
X126174106Y-64722241D01*
X126174623Y-64723373D01*
X126230046Y-64787335D01*
X126268874Y-64832145D01*
X126274222Y-64836779D01*
X126273048Y-64838133D01*
X126306080Y-64878528D01*
X126309575Y-64939614D01*
X126276498Y-64991087D01*
X126219482Y-65013287D01*
X126185938Y-65009440D01*
X126180224Y-65007762D01*
X126180223Y-65007762D01*
X126036301Y-65007762D01*
X126036297Y-65007762D01*
X125898211Y-65048308D01*
X125898204Y-65048311D01*
X125777135Y-65126117D01*
X125682883Y-65234890D01*
X125658521Y-65288236D01*
X125648367Y-65305564D01*
X125640053Y-65316926D01*
X125640045Y-65316940D01*
X125443510Y-65739547D01*
X125423747Y-65767804D01*
X124021049Y-67170504D01*
X123966532Y-67198281D01*
X123951045Y-67199500D01*
X120667493Y-67199500D01*
X120609302Y-67180593D01*
X120573338Y-67131093D01*
X120573338Y-67069907D01*
X120577440Y-67059373D01*
X120582880Y-67047460D01*
X120585165Y-67042457D01*
X120605575Y-66900500D01*
X120605647Y-66900002D01*
X120605647Y-66899998D01*
X120600412Y-66863590D01*
X120610845Y-66803301D01*
X120654723Y-66760658D01*
X120698404Y-66750500D01*
X120721959Y-66750500D01*
X120721961Y-66750500D01*
X120860053Y-66709953D01*
X120981128Y-66632143D01*
X120981132Y-66632137D01*
X120982935Y-66630577D01*
X120995028Y-66619181D01*
X121253270Y-66420967D01*
X121310943Y-66400534D01*
X121313548Y-66400500D01*
X123539563Y-66400500D01*
X123539563Y-66400499D01*
X123615989Y-66380021D01*
X123684511Y-66340460D01*
X123740460Y-66284511D01*
X127395475Y-62629496D01*
X127445674Y-62603919D01*
X136115431Y-62603919D01*
X136115431Y-62603924D01*
X136135912Y-62746378D01*
X136176491Y-62835232D01*
X136195701Y-62877295D01*
X136289950Y-62986065D01*
X136289951Y-62986066D01*
X136403789Y-63059225D01*
X136411025Y-63063875D01*
X136517481Y-63095133D01*
X136549113Y-63104421D01*
X136549114Y-63104421D01*
X136549117Y-63104422D01*
X136549119Y-63104422D01*
X136693037Y-63104422D01*
X136693039Y-63104422D01*
X136831131Y-63063875D01*
X136952206Y-62986065D01*
X136996741Y-62934668D01*
X137049136Y-62903073D01*
X137071560Y-62900500D01*
X140434521Y-62900500D01*
X140492712Y-62919407D01*
X140504525Y-62929496D01*
X140705540Y-63130511D01*
X140705539Y-63130511D01*
X140761489Y-63186460D01*
X140830007Y-63226019D01*
X140830011Y-63226021D01*
X140906435Y-63246499D01*
X140906437Y-63246500D01*
X140906438Y-63246500D01*
X141749450Y-63246500D01*
X141807641Y-63265407D01*
X141824269Y-63280669D01*
X141868870Y-63332141D01*
X141868872Y-63332143D01*
X141989947Y-63409953D01*
X142096403Y-63441211D01*
X142128035Y-63450499D01*
X142128036Y-63450499D01*
X142128039Y-63450500D01*
X142128041Y-63450500D01*
X142271959Y-63450500D01*
X142271961Y-63450500D01*
X142410053Y-63409953D01*
X142531128Y-63332143D01*
X142625377Y-63223373D01*
X142685165Y-63092457D01*
X142698600Y-62999016D01*
X142705647Y-62950002D01*
X142705647Y-62949997D01*
X142685165Y-62807543D01*
X142657232Y-62746379D01*
X142625377Y-62676627D01*
X142531128Y-62567857D01*
X142531127Y-62567856D01*
X142531126Y-62567855D01*
X142410057Y-62490049D01*
X142410054Y-62490047D01*
X142410053Y-62490047D01*
X142410050Y-62490046D01*
X142271964Y-62449500D01*
X142271961Y-62449500D01*
X142128039Y-62449500D01*
X142128035Y-62449500D01*
X141989949Y-62490046D01*
X141989942Y-62490049D01*
X141868876Y-62567854D01*
X141868875Y-62567855D01*
X141868872Y-62567857D01*
X141839531Y-62601719D01*
X141831202Y-62611331D01*
X141778806Y-62642927D01*
X141756383Y-62645500D01*
X141111479Y-62645500D01*
X141053288Y-62626593D01*
X141041476Y-62616504D01*
X140784510Y-62359539D01*
X140771626Y-62352101D01*
X140758742Y-62344662D01*
X140758740Y-62344661D01*
X140715989Y-62319979D01*
X140715986Y-62319978D01*
X140639564Y-62299500D01*
X140639562Y-62299500D01*
X137064764Y-62299500D01*
X137006573Y-62280593D01*
X136989945Y-62265331D01*
X136952207Y-62221780D01*
X136952205Y-62221778D01*
X136831135Y-62143971D01*
X136831132Y-62143969D01*
X136831131Y-62143969D01*
X136831128Y-62143968D01*
X136693042Y-62103422D01*
X136693039Y-62103422D01*
X136549117Y-62103422D01*
X136549113Y-62103422D01*
X136411027Y-62143968D01*
X136411020Y-62143971D01*
X136289951Y-62221777D01*
X136195700Y-62330550D01*
X136135912Y-62461465D01*
X136115431Y-62603919D01*
X127445674Y-62603919D01*
X127449992Y-62601719D01*
X127465479Y-62600500D01*
X134889563Y-62600500D01*
X134889563Y-62600499D01*
X134965989Y-62580021D01*
X135034511Y-62540460D01*
X135090460Y-62484511D01*
X136640460Y-60934511D01*
X136645564Y-60925670D01*
X136680021Y-60865989D01*
X136700500Y-60789562D01*
X136700500Y-60350839D01*
X136719407Y-60292648D01*
X136768907Y-60256684D01*
X136830093Y-60256684D01*
X136869501Y-60280833D01*
G37*
G04 #@! TD.AperFunction*
G04 #@! TA.AperFunction,Conductor*
G36*
X138153691Y-55169407D02*
G01*
X138189655Y-55218907D01*
X138194500Y-55249500D01*
X138194500Y-56298672D01*
X138175593Y-56356863D01*
X138126093Y-56392827D01*
X138064907Y-56392827D01*
X138020681Y-56363503D01*
X137981129Y-56317858D01*
X137981127Y-56317856D01*
X137860057Y-56240049D01*
X137860054Y-56240047D01*
X137860053Y-56240047D01*
X137860050Y-56240046D01*
X137721964Y-56199500D01*
X137721961Y-56199500D01*
X137578039Y-56199500D01*
X137578035Y-56199500D01*
X137439949Y-56240046D01*
X137439942Y-56240049D01*
X137318873Y-56317855D01*
X137224621Y-56426628D01*
X137200259Y-56479974D01*
X137190105Y-56497302D01*
X137181791Y-56508664D01*
X137181783Y-56508678D01*
X136985248Y-56931285D01*
X136965485Y-56959541D01*
X136215489Y-57709539D01*
X136159539Y-57765489D01*
X136119980Y-57834007D01*
X136119978Y-57834011D01*
X136099500Y-57910435D01*
X136099500Y-60584521D01*
X136080593Y-60642712D01*
X136070504Y-60654525D01*
X134754525Y-61970504D01*
X134700008Y-61998281D01*
X134684521Y-61999500D01*
X127339562Y-61999500D01*
X127260438Y-61999500D01*
X127213661Y-62012033D01*
X127184007Y-62019979D01*
X127115493Y-62059536D01*
X123404525Y-65770504D01*
X123350008Y-65798281D01*
X123334521Y-65799500D01*
X121243172Y-65799500D01*
X121215198Y-65795465D01*
X121211488Y-65794372D01*
X121211486Y-65794371D01*
X120734878Y-65751328D01*
X120729007Y-65750213D01*
X120728965Y-65750506D01*
X120721964Y-65749500D01*
X120721961Y-65749500D01*
X120719089Y-65749500D01*
X120710186Y-65749099D01*
X120681167Y-65746478D01*
X120674042Y-65745992D01*
X120672181Y-65745865D01*
X120671186Y-65745819D01*
X120658326Y-65748047D01*
X120641426Y-65749500D01*
X120578035Y-65749500D01*
X120439949Y-65790046D01*
X120439942Y-65790049D01*
X120318872Y-65867856D01*
X120318870Y-65867858D01*
X120274319Y-65919273D01*
X120221923Y-65950869D01*
X120160962Y-65945633D01*
X120114721Y-65905565D01*
X120100500Y-65854442D01*
X120100500Y-65464845D01*
X120119407Y-65406654D01*
X120129484Y-65394854D01*
X120381655Y-65142682D01*
X120436170Y-65114907D01*
X120496602Y-65124478D01*
X120539867Y-65167743D01*
X120541710Y-65171561D01*
X120570632Y-65234889D01*
X120599624Y-65298372D01*
X120687686Y-65400002D01*
X120693874Y-65407143D01*
X120814943Y-65484949D01*
X120814948Y-65484952D01*
X120883979Y-65505221D01*
X120953036Y-65525498D01*
X120953037Y-65525498D01*
X120953040Y-65525499D01*
X120953042Y-65525499D01*
X121096960Y-65525499D01*
X121096962Y-65525499D01*
X121235054Y-65484952D01*
X121356129Y-65407142D01*
X121450378Y-65298372D01*
X121460938Y-65275248D01*
X121502308Y-65230172D01*
X121562275Y-65218020D01*
X121578877Y-65221383D01*
X121678039Y-65250500D01*
X121678041Y-65250500D01*
X121821960Y-65250500D01*
X121821961Y-65250500D01*
X121923498Y-65220685D01*
X121936208Y-65217848D01*
X121945790Y-65216364D01*
X122383590Y-65056504D01*
X122417546Y-65050500D01*
X123389563Y-65050500D01*
X123389563Y-65050499D01*
X123465989Y-65030021D01*
X123534511Y-64990460D01*
X123590460Y-64934511D01*
X128895475Y-59629496D01*
X128949992Y-59601719D01*
X128965479Y-59600500D01*
X132031616Y-59600500D01*
X132070027Y-59608255D01*
X132488399Y-59784380D01*
X132494635Y-59787006D01*
X132494635Y-59787007D01*
X132494654Y-59787015D01*
X132494654Y-59787014D01*
X132515696Y-59795874D01*
X132524562Y-59795221D01*
X132528865Y-59796380D01*
X132568194Y-59807928D01*
X132628039Y-59825500D01*
X132628040Y-59825500D01*
X132771959Y-59825500D01*
X132771961Y-59825500D01*
X132910053Y-59784953D01*
X133031128Y-59707143D01*
X133125377Y-59598373D01*
X133185165Y-59467457D01*
X133205647Y-59325000D01*
X133205599Y-59324668D01*
X133205647Y-59324392D01*
X133205647Y-59317919D01*
X133206767Y-59317919D01*
X133216027Y-59264380D01*
X133259901Y-59221733D01*
X133320463Y-59213020D01*
X133362507Y-59232948D01*
X133362915Y-59232315D01*
X133367815Y-59235464D01*
X133368418Y-59235750D01*
X133368871Y-59236143D01*
X133426420Y-59273127D01*
X133489947Y-59313953D01*
X133596403Y-59345211D01*
X133628035Y-59354499D01*
X133628036Y-59354499D01*
X133628039Y-59354500D01*
X133628041Y-59354500D01*
X133771959Y-59354500D01*
X133771961Y-59354500D01*
X133910053Y-59313953D01*
X134031128Y-59236143D01*
X134125377Y-59127373D01*
X134185165Y-58996457D01*
X134205647Y-58854000D01*
X134185165Y-58711543D01*
X134125377Y-58580627D01*
X134032058Y-58472930D01*
X134008241Y-58416570D01*
X134022100Y-58356975D01*
X134036870Y-58338099D01*
X137195475Y-55179496D01*
X137249992Y-55151719D01*
X137265479Y-55150500D01*
X138095500Y-55150500D01*
X138153691Y-55169407D01*
G37*
G04 #@! TD.AperFunction*
G04 #@! TA.AperFunction,Conductor*
G36*
X162708691Y-50419407D02*
G01*
X162744655Y-50468907D01*
X162749500Y-50499500D01*
X162749500Y-91550500D01*
X162730593Y-91608691D01*
X162681093Y-91644655D01*
X162650500Y-91649500D01*
X102699500Y-91649500D01*
X102641309Y-91630593D01*
X102605345Y-91581093D01*
X102600500Y-91550500D01*
X102600500Y-85630253D01*
X110149500Y-85630253D01*
X110149500Y-87369746D01*
X110149501Y-87369758D01*
X110161132Y-87428227D01*
X110161133Y-87428231D01*
X110205448Y-87494552D01*
X110271769Y-87538867D01*
X110316231Y-87547711D01*
X110330241Y-87550498D01*
X110330246Y-87550498D01*
X110330252Y-87550500D01*
X110330253Y-87550500D01*
X112069747Y-87550500D01*
X112069748Y-87550500D01*
X112128231Y-87538867D01*
X112194552Y-87494552D01*
X112238867Y-87428231D01*
X112250500Y-87369748D01*
X112250500Y-85630252D01*
X112238867Y-85571769D01*
X112194552Y-85505448D01*
X112191167Y-85503186D01*
X112128233Y-85461134D01*
X112128231Y-85461133D01*
X112128228Y-85461132D01*
X112128227Y-85461132D01*
X112069758Y-85449501D01*
X112069748Y-85449500D01*
X110330252Y-85449500D01*
X110330251Y-85449500D01*
X110330241Y-85449501D01*
X110271772Y-85461132D01*
X110271766Y-85461134D01*
X110205451Y-85505445D01*
X110205445Y-85505451D01*
X110161134Y-85571766D01*
X110161132Y-85571772D01*
X110149501Y-85630241D01*
X110149500Y-85630253D01*
X102600500Y-85630253D01*
X102600500Y-75510435D01*
X107999500Y-75510435D01*
X107999500Y-81139564D01*
X108019977Y-81215985D01*
X108019978Y-81215988D01*
X108019979Y-81215989D01*
X108030702Y-81234562D01*
X108059540Y-81284511D01*
X109763540Y-82988511D01*
X109763539Y-82988511D01*
X109819489Y-83044460D01*
X109888007Y-83084019D01*
X109888011Y-83084021D01*
X109964435Y-83104499D01*
X109964437Y-83104500D01*
X109964438Y-83104500D01*
X112835563Y-83104500D01*
X112835563Y-83104499D01*
X112911989Y-83084021D01*
X112980511Y-83044460D01*
X113036460Y-82988511D01*
X114620371Y-81404598D01*
X114674888Y-81376822D01*
X114735320Y-81386393D01*
X114778585Y-81429658D01*
X114788156Y-81490090D01*
X114776816Y-81519845D01*
X114777564Y-81520187D01*
X114714834Y-81657543D01*
X114694353Y-81799997D01*
X114694353Y-81800002D01*
X114714834Y-81942456D01*
X114744060Y-82006450D01*
X114774623Y-82073373D01*
X114855243Y-82166414D01*
X114868873Y-82182144D01*
X114989942Y-82259950D01*
X114989947Y-82259953D01*
X115096403Y-82291211D01*
X115128035Y-82300499D01*
X115128036Y-82300499D01*
X115128039Y-82300500D01*
X115128041Y-82300500D01*
X115271959Y-82300500D01*
X115271961Y-82300500D01*
X115410053Y-82259953D01*
X115531128Y-82182143D01*
X115625377Y-82073373D01*
X115685165Y-81942457D01*
X115705647Y-81800000D01*
X115702558Y-81778516D01*
X115712991Y-81718227D01*
X115730543Y-81694426D01*
X115900475Y-81524496D01*
X115954992Y-81496719D01*
X115970478Y-81495500D01*
X124744563Y-81495500D01*
X124744563Y-81495499D01*
X124820989Y-81475021D01*
X124889511Y-81435460D01*
X124945460Y-81379511D01*
X126240463Y-80084506D01*
X126268713Y-80064747D01*
X126609042Y-79906479D01*
X126695481Y-79866281D01*
X126695588Y-79866511D01*
X126703674Y-79863027D01*
X126703613Y-79862894D01*
X126710050Y-79859953D01*
X126710053Y-79859953D01*
X126831128Y-79782143D01*
X126925377Y-79673373D01*
X126985165Y-79542457D01*
X126996093Y-79466450D01*
X127005647Y-79400002D01*
X127005647Y-79399997D01*
X126985165Y-79257543D01*
X126978533Y-79243021D01*
X126925377Y-79126627D01*
X126831128Y-79017857D01*
X126831127Y-79017856D01*
X126831126Y-79017855D01*
X126710057Y-78940049D01*
X126710054Y-78940047D01*
X126710053Y-78940047D01*
X126710050Y-78940046D01*
X126571964Y-78899500D01*
X126571961Y-78899500D01*
X126535188Y-78899500D01*
X126476997Y-78880593D01*
X126441033Y-78831093D01*
X126441033Y-78769907D01*
X126465184Y-78730497D01*
X126607336Y-78588344D01*
X126627368Y-78572885D01*
X127027385Y-78339003D01*
X127034468Y-78335328D01*
X127035050Y-78334953D01*
X127035053Y-78334953D01*
X127156128Y-78257143D01*
X127250377Y-78148373D01*
X127310165Y-78017457D01*
X127323793Y-77922670D01*
X127350787Y-77867767D01*
X127404901Y-77839213D01*
X127465464Y-77847920D01*
X127491788Y-77866759D01*
X129565489Y-79940460D01*
X129565491Y-79940461D01*
X129565492Y-79940462D01*
X129565493Y-79940463D01*
X129634008Y-79980020D01*
X129634006Y-79980020D01*
X129634010Y-79980021D01*
X129634012Y-79980022D01*
X129710438Y-80000500D01*
X129789562Y-80000500D01*
X133432454Y-80000500D01*
X133466409Y-80006504D01*
X133770462Y-80117527D01*
X133770463Y-80117527D01*
X133904210Y-80166363D01*
X133904213Y-80166363D01*
X133904214Y-80166364D01*
X133915833Y-80168301D01*
X133927443Y-80170962D01*
X134028039Y-80200500D01*
X134028040Y-80200500D01*
X134171959Y-80200500D01*
X134171961Y-80200500D01*
X134310053Y-80159953D01*
X134431128Y-80082143D01*
X134525377Y-79973373D01*
X134567416Y-79881322D01*
X134608788Y-79836244D01*
X134668754Y-79824093D01*
X134724410Y-79849511D01*
X134727473Y-79852444D01*
X134870504Y-79995475D01*
X134898281Y-80049992D01*
X134899500Y-80065479D01*
X134899500Y-83607450D01*
X134893495Y-83641406D01*
X134733633Y-84079218D01*
X134732594Y-84085451D01*
X134724998Y-84110288D01*
X134714835Y-84132543D01*
X134714833Y-84132549D01*
X134694353Y-84274997D01*
X134694353Y-84275002D01*
X134714834Y-84417456D01*
X134774622Y-84548371D01*
X134774623Y-84548373D01*
X134868872Y-84657143D01*
X134868873Y-84657144D01*
X134946499Y-84707031D01*
X134989947Y-84734953D01*
X135096403Y-84766211D01*
X135128035Y-84775499D01*
X135128036Y-84775499D01*
X135128039Y-84775500D01*
X135128041Y-84775500D01*
X135271959Y-84775500D01*
X135271961Y-84775500D01*
X135287076Y-84771062D01*
X135348237Y-84772808D01*
X135396690Y-84810170D01*
X135413929Y-84868877D01*
X135393368Y-84926504D01*
X135384973Y-84936055D01*
X134600525Y-85720504D01*
X134546008Y-85748281D01*
X134530521Y-85749500D01*
X129172320Y-85749500D01*
X129121658Y-85735554D01*
X128846699Y-85571772D01*
X128731557Y-85503186D01*
X128727301Y-85500850D01*
X128721418Y-85497350D01*
X128710056Y-85490048D01*
X128710054Y-85490047D01*
X128571964Y-85449500D01*
X128571961Y-85449500D01*
X128428039Y-85449500D01*
X128428035Y-85449500D01*
X128289949Y-85490046D01*
X128289942Y-85490049D01*
X128168873Y-85567855D01*
X128074622Y-85676628D01*
X128014834Y-85807543D01*
X127994353Y-85949997D01*
X127994353Y-85950002D01*
X128014834Y-86092456D01*
X128074622Y-86223371D01*
X128074623Y-86223373D01*
X128132754Y-86290460D01*
X128168873Y-86332144D01*
X128197436Y-86350500D01*
X128289947Y-86409953D01*
X128388662Y-86438938D01*
X128428035Y-86450499D01*
X128428036Y-86450499D01*
X128428039Y-86450500D01*
X128428041Y-86450500D01*
X128571958Y-86450500D01*
X128571961Y-86450500D01*
X128602584Y-86441507D01*
X128613648Y-86438938D01*
X129105306Y-86354187D01*
X129105324Y-86354180D01*
X129107942Y-86353520D01*
X129132210Y-86350500D01*
X134735563Y-86350500D01*
X134735563Y-86350499D01*
X134811989Y-86330021D01*
X134880511Y-86290460D01*
X134936460Y-86234511D01*
X135994460Y-85176511D01*
X136034021Y-85107989D01*
X136054500Y-85031562D01*
X136054500Y-79630963D01*
X136034021Y-79554536D01*
X135994460Y-79486014D01*
X135974896Y-79466450D01*
X135938511Y-79430064D01*
X135938511Y-79430065D01*
X135938510Y-79430064D01*
X132526248Y-76017803D01*
X132429496Y-75921051D01*
X132401719Y-75866534D01*
X132400500Y-75851047D01*
X132400500Y-75499997D01*
X132994353Y-75499997D01*
X132994353Y-75500002D01*
X133014834Y-75642456D01*
X133029455Y-75674471D01*
X133074623Y-75773373D01*
X133168872Y-75882143D01*
X133289304Y-75959540D01*
X133289947Y-75959953D01*
X133296387Y-75962894D01*
X133296313Y-75963054D01*
X133304128Y-75966446D01*
X133304261Y-75966161D01*
X133466078Y-76041415D01*
X133466079Y-76041415D01*
X133506985Y-76060438D01*
X133731283Y-76164747D01*
X133759539Y-76184510D01*
X135459540Y-77884511D01*
X135459539Y-77884511D01*
X135515489Y-77940460D01*
X135584007Y-77980019D01*
X135584011Y-77980021D01*
X135660435Y-78000499D01*
X135660437Y-78000500D01*
X135660438Y-78000500D01*
X141347540Y-78000500D01*
X141405731Y-78019407D01*
X141417996Y-78029952D01*
X141590208Y-78204414D01*
X141633399Y-78248169D01*
X141637060Y-78250639D01*
X141656509Y-78267876D01*
X141668871Y-78282142D01*
X141668871Y-78282143D01*
X141789942Y-78359950D01*
X141789947Y-78359953D01*
X141896403Y-78391211D01*
X141928035Y-78400499D01*
X141928036Y-78400499D01*
X141928039Y-78400500D01*
X141928041Y-78400500D01*
X142071959Y-78400500D01*
X142071961Y-78400500D01*
X142210053Y-78359953D01*
X142331128Y-78282143D01*
X142425377Y-78173373D01*
X142485165Y-78042457D01*
X142502387Y-77922675D01*
X142505647Y-77900002D01*
X142505647Y-77899997D01*
X142485165Y-77757543D01*
X142443015Y-77665249D01*
X142425377Y-77626627D01*
X142331128Y-77517857D01*
X142331127Y-77517856D01*
X142331126Y-77517855D01*
X142210057Y-77440049D01*
X142210054Y-77440047D01*
X142210053Y-77440047D01*
X142210050Y-77440046D01*
X142071964Y-77399500D01*
X142071961Y-77399500D01*
X142023228Y-77399500D01*
X142003909Y-77397597D01*
X141991696Y-77395167D01*
X141990967Y-77394758D01*
X141988339Y-77394500D01*
X141491462Y-77394500D01*
X141491461Y-77394500D01*
X141479156Y-77396947D01*
X141476019Y-77397572D01*
X141475888Y-77397598D01*
X141456573Y-77399500D01*
X135865479Y-77399500D01*
X135807288Y-77380593D01*
X135795475Y-77370504D01*
X134184510Y-75759539D01*
X134164746Y-75731281D01*
X134149966Y-75699500D01*
X133968213Y-75308673D01*
X133968211Y-75308670D01*
X133968210Y-75308668D01*
X133958867Y-75295588D01*
X133949373Y-75279172D01*
X133940596Y-75259953D01*
X133925377Y-75226627D01*
X133831128Y-75117857D01*
X133831127Y-75117856D01*
X133831126Y-75117855D01*
X133710057Y-75040049D01*
X133710054Y-75040047D01*
X133710053Y-75040047D01*
X133710050Y-75040046D01*
X133571964Y-74999500D01*
X133571961Y-74999500D01*
X133428039Y-74999500D01*
X133428035Y-74999500D01*
X133289949Y-75040046D01*
X133289942Y-75040049D01*
X133168873Y-75117855D01*
X133074622Y-75226628D01*
X133014834Y-75357543D01*
X132994353Y-75499997D01*
X132400500Y-75499997D01*
X132400500Y-75167547D01*
X132406505Y-75133591D01*
X132440661Y-75040049D01*
X132566364Y-74695789D01*
X132567402Y-74689563D01*
X132575003Y-74664707D01*
X132584177Y-74644620D01*
X132585165Y-74642457D01*
X132603700Y-74513540D01*
X132605647Y-74500002D01*
X132605647Y-74499997D01*
X132585165Y-74357543D01*
X132557500Y-74296966D01*
X132525377Y-74226627D01*
X132431128Y-74117857D01*
X132431127Y-74117856D01*
X132431126Y-74117855D01*
X132310057Y-74040049D01*
X132310054Y-74040047D01*
X132310053Y-74040047D01*
X132310050Y-74040046D01*
X132171964Y-73999500D01*
X132171961Y-73999500D01*
X132028039Y-73999500D01*
X132028035Y-73999500D01*
X131889949Y-74040046D01*
X131889942Y-74040049D01*
X131768873Y-74117855D01*
X131674622Y-74226628D01*
X131614834Y-74357543D01*
X131594353Y-74499997D01*
X131594353Y-74500002D01*
X131614833Y-74642452D01*
X131614835Y-74642457D01*
X131625098Y-74664931D01*
X131632875Y-74690887D01*
X131633633Y-74695779D01*
X131633634Y-74695781D01*
X131633635Y-74695786D01*
X131746724Y-75005500D01*
X131793495Y-75133591D01*
X131799500Y-75167547D01*
X131799500Y-75835521D01*
X131780593Y-75893712D01*
X131731093Y-75929676D01*
X131669907Y-75929676D01*
X131630497Y-75905525D01*
X131584510Y-75859539D01*
X131515992Y-75819980D01*
X131515988Y-75819978D01*
X131439564Y-75799500D01*
X131439562Y-75799500D01*
X129067547Y-75799500D01*
X129033591Y-75793495D01*
X128595786Y-75633635D01*
X128595781Y-75633634D01*
X128584157Y-75631696D01*
X128572547Y-75629034D01*
X128471963Y-75599500D01*
X128471961Y-75599500D01*
X128328039Y-75599500D01*
X128328037Y-75599500D01*
X128328033Y-75599501D01*
X128273390Y-75615545D01*
X128212230Y-75613797D01*
X128163777Y-75576434D01*
X128146500Y-75520555D01*
X128146500Y-74919478D01*
X128165407Y-74861287D01*
X128175490Y-74849480D01*
X129240463Y-73784506D01*
X129268713Y-73764747D01*
X129661372Y-73582143D01*
X129695481Y-73566281D01*
X129695588Y-73566511D01*
X129703674Y-73563027D01*
X129703613Y-73562894D01*
X129710050Y-73559953D01*
X129710053Y-73559953D01*
X129831128Y-73482143D01*
X129925377Y-73373373D01*
X129985165Y-73242457D01*
X130005647Y-73100000D01*
X130001895Y-73073907D01*
X129997270Y-73041735D01*
X131452615Y-73041735D01*
X131452615Y-73041740D01*
X131473096Y-73184194D01*
X131532884Y-73315109D01*
X131532885Y-73315111D01*
X131627134Y-73423881D01*
X131627135Y-73423882D01*
X131748204Y-73501688D01*
X131748209Y-73501691D01*
X131854665Y-73532949D01*
X131886297Y-73542237D01*
X131886298Y-73542237D01*
X131886301Y-73542238D01*
X131886303Y-73542238D01*
X132030222Y-73542238D01*
X132030223Y-73542238D01*
X132108677Y-73519201D01*
X132130634Y-73515370D01*
X132135006Y-73515108D01*
X132557363Y-73404414D01*
X132591482Y-73395472D01*
X132616581Y-73392238D01*
X133230548Y-73392238D01*
X133288739Y-73411145D01*
X133300552Y-73421234D01*
X136859788Y-76980470D01*
X136880503Y-76992430D01*
X136937094Y-77025103D01*
X136937095Y-77025103D01*
X136939712Y-77026614D01*
X137028856Y-77050500D01*
X137028857Y-77050500D01*
X137121144Y-77050500D01*
X141441683Y-77050500D01*
X141466779Y-77053733D01*
X141923255Y-77173370D01*
X141932142Y-77174215D01*
X141950658Y-77177779D01*
X142028039Y-77200500D01*
X142028042Y-77200500D01*
X142171959Y-77200500D01*
X142171961Y-77200500D01*
X142310053Y-77159953D01*
X142431128Y-77082143D01*
X142525377Y-76973373D01*
X142585165Y-76842457D01*
X142597883Y-76754000D01*
X142605647Y-76700002D01*
X142605647Y-76699997D01*
X142585165Y-76557543D01*
X142567040Y-76517855D01*
X142525377Y-76426627D01*
X142431128Y-76317857D01*
X142431127Y-76317856D01*
X142431126Y-76317855D01*
X142310057Y-76240049D01*
X142310054Y-76240047D01*
X142310053Y-76240047D01*
X142308228Y-76239511D01*
X142171964Y-76199500D01*
X142171961Y-76199500D01*
X142028039Y-76199500D01*
X142028037Y-76199500D01*
X142028033Y-76199501D01*
X141949588Y-76222533D01*
X141927639Y-76226365D01*
X141923257Y-76226628D01*
X141466777Y-76346266D01*
X141441678Y-76349500D01*
X137261190Y-76349500D01*
X137202999Y-76330593D01*
X137191186Y-76320504D01*
X135440020Y-74569338D01*
X133631950Y-72761268D01*
X133552026Y-72715124D01*
X133462882Y-72691238D01*
X133462880Y-72691238D01*
X132616580Y-72691238D01*
X132591484Y-72688004D01*
X132135006Y-72568367D01*
X132126107Y-72567520D01*
X132107595Y-72563956D01*
X132030225Y-72541238D01*
X132030223Y-72541238D01*
X131886301Y-72541238D01*
X131886297Y-72541238D01*
X131748211Y-72581784D01*
X131748204Y-72581787D01*
X131627135Y-72659593D01*
X131532884Y-72768366D01*
X131473096Y-72899281D01*
X131452615Y-73041735D01*
X129997270Y-73041735D01*
X129985165Y-72957543D01*
X129962849Y-72908678D01*
X129925377Y-72826627D01*
X129831128Y-72717857D01*
X129831127Y-72717856D01*
X129831126Y-72717855D01*
X129710057Y-72640049D01*
X129710054Y-72640047D01*
X129710053Y-72640047D01*
X129710050Y-72640046D01*
X129571964Y-72599500D01*
X129571961Y-72599500D01*
X129428039Y-72599500D01*
X129428035Y-72599500D01*
X129289949Y-72640046D01*
X129289942Y-72640049D01*
X129168873Y-72717855D01*
X129074621Y-72826628D01*
X129050259Y-72879974D01*
X129040105Y-72897302D01*
X129031791Y-72908664D01*
X129031783Y-72908678D01*
X128835248Y-73331285D01*
X128815485Y-73359542D01*
X127661489Y-74513540D01*
X127661488Y-74513539D01*
X127605539Y-74569489D01*
X127565980Y-74638007D01*
X127565978Y-74638011D01*
X127545500Y-74714435D01*
X127545500Y-76207102D01*
X127541926Y-76233463D01*
X127540255Y-76239510D01*
X127540255Y-76239511D01*
X127525228Y-76444460D01*
X127502116Y-76501113D01*
X127450119Y-76533361D01*
X127389097Y-76528886D01*
X127372970Y-76520505D01*
X127331349Y-76493757D01*
X127331346Y-76493755D01*
X127331345Y-76493755D01*
X127331342Y-76493754D01*
X127193256Y-76453208D01*
X127193253Y-76453208D01*
X127049331Y-76453208D01*
X127049327Y-76453208D01*
X126911241Y-76493754D01*
X126911234Y-76493757D01*
X126790165Y-76571563D01*
X126695914Y-76680336D01*
X126636126Y-76811251D01*
X126615645Y-76953705D01*
X126615645Y-76953710D01*
X126636126Y-77096164D01*
X126683547Y-77200000D01*
X126695915Y-77227081D01*
X126708452Y-77241550D01*
X126732269Y-77297909D01*
X126718410Y-77357504D01*
X126672169Y-77397572D01*
X126661525Y-77401369D01*
X126614952Y-77415044D01*
X126614942Y-77415049D01*
X126493873Y-77492855D01*
X126399621Y-77601629D01*
X126382312Y-77639530D01*
X126368140Y-77661308D01*
X126368151Y-77661316D01*
X126368007Y-77661514D01*
X126366343Y-77664072D01*
X126365300Y-77665248D01*
X126365299Y-77665249D01*
X126127118Y-78072624D01*
X126111658Y-78092659D01*
X124396961Y-79807355D01*
X124346722Y-79834358D01*
X124103676Y-79883879D01*
X124039470Y-79896961D01*
X124036790Y-79897507D01*
X124017025Y-79899500D01*
X124003038Y-79899500D01*
X123952720Y-79914274D01*
X123944607Y-79916288D01*
X123933006Y-79918652D01*
X123914218Y-79923416D01*
X123914175Y-79923428D01*
X123912061Y-79924072D01*
X123904690Y-79926470D01*
X123900404Y-79928468D01*
X123886475Y-79933725D01*
X123864951Y-79940045D01*
X123864946Y-79940047D01*
X123813095Y-79973370D01*
X123743872Y-80017857D01*
X123743870Y-80017858D01*
X123743870Y-80017859D01*
X123743865Y-80017863D01*
X123740334Y-80021938D01*
X123722933Y-80037753D01*
X123719650Y-80040089D01*
X123502680Y-80229141D01*
X123446387Y-80253113D01*
X123437644Y-80253500D01*
X116687512Y-80253500D01*
X116652197Y-80246987D01*
X116227710Y-80084902D01*
X116227701Y-80084900D01*
X116217347Y-80083056D01*
X116206815Y-80080580D01*
X116164053Y-80068024D01*
X116113546Y-80033488D01*
X116092984Y-79975861D01*
X116110222Y-79917154D01*
X116121935Y-79903035D01*
X118438824Y-77586145D01*
X118480936Y-77561161D01*
X118485053Y-77559953D01*
X118606128Y-77482143D01*
X118700377Y-77373373D01*
X118760165Y-77242457D01*
X118772028Y-77159950D01*
X118780647Y-77100002D01*
X118780647Y-77099997D01*
X118760165Y-76957543D01*
X118752440Y-76940627D01*
X118745465Y-76879840D01*
X118775551Y-76826563D01*
X118831207Y-76801145D01*
X118842493Y-76800500D01*
X121559521Y-76800500D01*
X121617712Y-76819407D01*
X121629525Y-76829496D01*
X122019453Y-77219424D01*
X122047230Y-77273941D01*
X122047441Y-77303514D01*
X122045758Y-77315232D01*
X122044353Y-77325002D01*
X122064834Y-77467456D01*
X122124622Y-77598371D01*
X122124623Y-77598373D01*
X122182570Y-77665248D01*
X122218873Y-77707144D01*
X122339942Y-77784950D01*
X122339947Y-77784953D01*
X122446403Y-77816211D01*
X122478035Y-77825499D01*
X122478036Y-77825499D01*
X122478039Y-77825500D01*
X122478041Y-77825500D01*
X122621959Y-77825500D01*
X122621961Y-77825500D01*
X122760053Y-77784953D01*
X122881128Y-77707143D01*
X122975377Y-77598373D01*
X123035165Y-77467457D01*
X123035164Y-77467457D01*
X123035166Y-77467455D01*
X123037161Y-77460662D01*
X123038810Y-77461146D01*
X123061925Y-77414111D01*
X123116034Y-77385548D01*
X123160825Y-77388105D01*
X123203035Y-77400499D01*
X123203036Y-77400499D01*
X123203039Y-77400500D01*
X123203041Y-77400500D01*
X123346959Y-77400500D01*
X123346961Y-77400500D01*
X123485053Y-77359953D01*
X123606128Y-77282143D01*
X123700377Y-77173373D01*
X123760165Y-77042457D01*
X123769077Y-76980470D01*
X123780647Y-76900002D01*
X123780647Y-76899997D01*
X123760165Y-76757543D01*
X123745529Y-76725496D01*
X123700377Y-76626627D01*
X123606128Y-76517857D01*
X123606127Y-76517856D01*
X123606126Y-76517855D01*
X123485057Y-76440049D01*
X123485054Y-76440047D01*
X123485053Y-76440047D01*
X123485050Y-76440046D01*
X123346964Y-76399500D01*
X123346961Y-76399500D01*
X123240479Y-76399500D01*
X123182288Y-76380593D01*
X123170476Y-76370504D01*
X122705511Y-75905540D01*
X122681042Y-75891412D01*
X122681042Y-75891413D01*
X122636989Y-75865979D01*
X122636988Y-75865978D01*
X122636987Y-75865978D01*
X122560564Y-75845500D01*
X122560562Y-75845500D01*
X117693562Y-75845500D01*
X117614438Y-75845500D01*
X117567661Y-75858033D01*
X117538007Y-75865979D01*
X117469493Y-75905536D01*
X117469488Y-75905540D01*
X116310309Y-77064717D01*
X116255793Y-77092494D01*
X116195361Y-77082923D01*
X116152096Y-77039658D01*
X116150270Y-77035877D01*
X116100377Y-76926627D01*
X116006128Y-76817857D01*
X116006127Y-76817856D01*
X116006126Y-76817855D01*
X115885057Y-76740049D01*
X115885054Y-76740047D01*
X115885053Y-76740047D01*
X115885050Y-76740046D01*
X115746964Y-76699500D01*
X115746961Y-76699500D01*
X115603039Y-76699500D01*
X115603035Y-76699500D01*
X115464949Y-76740046D01*
X115464942Y-76740049D01*
X115343873Y-76817855D01*
X115249622Y-76926628D01*
X115189834Y-77057543D01*
X115173088Y-77174013D01*
X115146092Y-77228920D01*
X115145100Y-77229927D01*
X114004525Y-78370504D01*
X113950008Y-78398281D01*
X113934521Y-78399500D01*
X113874776Y-78399500D01*
X113816585Y-78380593D01*
X113780621Y-78331093D01*
X113780621Y-78269907D01*
X113784724Y-78259371D01*
X113785741Y-78257144D01*
X113790165Y-78247457D01*
X113806536Y-78133595D01*
X113810647Y-78105002D01*
X113810647Y-78104997D01*
X113790165Y-77962543D01*
X113761601Y-77899997D01*
X113730377Y-77831627D01*
X113636128Y-77722857D01*
X113636127Y-77722856D01*
X113636126Y-77722855D01*
X113515057Y-77645049D01*
X113515054Y-77645048D01*
X113515053Y-77645047D01*
X113435464Y-77621678D01*
X113371608Y-77602928D01*
X113321102Y-77568392D01*
X113300540Y-77510765D01*
X113300500Y-77507938D01*
X113300500Y-74364479D01*
X113319407Y-74306288D01*
X113368907Y-74270324D01*
X113430093Y-74270324D01*
X113469504Y-74294475D01*
X113869453Y-74694424D01*
X113897230Y-74748941D01*
X113897441Y-74778514D01*
X113894354Y-74799997D01*
X113894353Y-74800002D01*
X113914834Y-74942456D01*
X113959403Y-75040046D01*
X113974623Y-75073373D01*
X114056225Y-75167547D01*
X114068873Y-75182144D01*
X114138092Y-75226628D01*
X114189947Y-75259953D01*
X114255402Y-75279172D01*
X114328035Y-75300499D01*
X114328036Y-75300499D01*
X114328039Y-75300500D01*
X114328041Y-75300500D01*
X114471959Y-75300500D01*
X114471961Y-75300500D01*
X114610053Y-75259953D01*
X114731128Y-75182143D01*
X114825377Y-75073373D01*
X114885165Y-74942457D01*
X114905647Y-74800000D01*
X114905583Y-74799556D01*
X114885165Y-74657543D01*
X114849696Y-74579878D01*
X114825377Y-74526627D01*
X114731128Y-74417857D01*
X114731127Y-74417856D01*
X114731126Y-74417855D01*
X114610057Y-74340049D01*
X114610054Y-74340047D01*
X114610053Y-74340047D01*
X114610050Y-74340046D01*
X114471964Y-74299500D01*
X114471961Y-74299500D01*
X114365479Y-74299500D01*
X114307288Y-74280593D01*
X114295475Y-74270504D01*
X113729496Y-73704525D01*
X113701719Y-73650008D01*
X113700500Y-73634521D01*
X113700500Y-68937708D01*
X113719407Y-68879517D01*
X113768907Y-68843553D01*
X113830093Y-68843553D01*
X113879593Y-68879517D01*
X113889553Y-68896582D01*
X113924621Y-68973370D01*
X113924622Y-68973371D01*
X113924623Y-68973373D01*
X114018851Y-69082119D01*
X114018873Y-69082144D01*
X114139942Y-69159950D01*
X114139947Y-69159953D01*
X114205552Y-69179216D01*
X114278035Y-69200499D01*
X114278036Y-69200499D01*
X114278039Y-69200500D01*
X114278041Y-69200500D01*
X114421960Y-69200500D01*
X114421961Y-69200500D01*
X114523498Y-69170685D01*
X114536208Y-69167848D01*
X114545790Y-69166364D01*
X114983590Y-69006504D01*
X115017546Y-69000500D01*
X115934521Y-69000500D01*
X115992712Y-69019407D01*
X116004525Y-69029496D01*
X116651525Y-69676496D01*
X116679302Y-69731013D01*
X116669731Y-69791445D01*
X116626466Y-69834710D01*
X116581521Y-69845500D01*
X115710087Y-69845500D01*
X115630963Y-69845500D01*
X115597714Y-69854409D01*
X115554532Y-69865979D01*
X115486018Y-69905536D01*
X115486013Y-69905540D01*
X115105539Y-70286014D01*
X115065980Y-70354532D01*
X115065978Y-70354536D01*
X115045500Y-70430960D01*
X115045500Y-72085564D01*
X115065978Y-72161988D01*
X115065979Y-72161989D01*
X115082967Y-72191413D01*
X115105540Y-72230511D01*
X115474529Y-72599500D01*
X115815486Y-72940457D01*
X115835250Y-72968714D01*
X115857259Y-73016040D01*
X116031787Y-73391327D01*
X116041137Y-73404419D01*
X116050625Y-73420826D01*
X116074622Y-73473371D01*
X116074623Y-73473373D01*
X116152193Y-73562894D01*
X116168873Y-73582144D01*
X116250374Y-73634521D01*
X116289947Y-73659953D01*
X116387892Y-73688712D01*
X116428035Y-73700499D01*
X116428036Y-73700499D01*
X116428039Y-73700500D01*
X116428041Y-73700500D01*
X116571959Y-73700500D01*
X116571961Y-73700500D01*
X116710053Y-73659953D01*
X116831128Y-73582143D01*
X116925377Y-73473373D01*
X116985165Y-73342457D01*
X117005647Y-73200000D01*
X117003374Y-73184194D01*
X116985165Y-73057543D01*
X116961397Y-73005500D01*
X116925377Y-72926627D01*
X116831128Y-72817857D01*
X116710053Y-72740047D01*
X116710052Y-72740046D01*
X116703615Y-72737107D01*
X116703687Y-72736947D01*
X116695868Y-72733552D01*
X116695736Y-72733838D01*
X116691329Y-72731788D01*
X116691327Y-72731787D01*
X116268714Y-72535250D01*
X116240457Y-72515486D01*
X116129008Y-72404037D01*
X116101231Y-72349520D01*
X116110802Y-72289088D01*
X116154067Y-72245823D01*
X116171111Y-72239046D01*
X116185053Y-72234953D01*
X116211536Y-72217933D01*
X116212695Y-72217257D01*
X116214800Y-72215852D01*
X116216225Y-72214918D01*
X116306128Y-72157143D01*
X116306131Y-72157139D01*
X116310515Y-72153341D01*
X116320631Y-72145653D01*
X116589975Y-71966999D01*
X116644697Y-71950500D01*
X123689563Y-71950500D01*
X123689563Y-71950499D01*
X123765989Y-71930021D01*
X123834511Y-71890460D01*
X123890460Y-71834511D01*
X129121041Y-66603928D01*
X129175556Y-66576153D01*
X129235988Y-66585724D01*
X129279253Y-66628989D01*
X129281096Y-66632806D01*
X129299622Y-66673372D01*
X129336550Y-66715989D01*
X129361669Y-66744979D01*
X129393873Y-66782144D01*
X129491306Y-66844760D01*
X129514947Y-66859953D01*
X129621403Y-66891211D01*
X129653035Y-66900499D01*
X129653036Y-66900499D01*
X129653039Y-66900500D01*
X129653041Y-66900500D01*
X129796960Y-66900500D01*
X129796961Y-66900500D01*
X129886592Y-66874181D01*
X129903554Y-66870777D01*
X129912081Y-66869831D01*
X130352991Y-66730124D01*
X130382895Y-66725500D01*
X137259521Y-66725500D01*
X137317712Y-66744407D01*
X137329525Y-66754496D01*
X137759525Y-67184496D01*
X137787302Y-67239013D01*
X137777731Y-67299445D01*
X137734466Y-67342710D01*
X137689521Y-67353500D01*
X130160664Y-67353500D01*
X130120129Y-67344821D01*
X129710032Y-67160772D01*
X129707408Y-67159350D01*
X129701563Y-67156680D01*
X129697560Y-67155404D01*
X129694298Y-67154584D01*
X129563701Y-67116238D01*
X129563699Y-67116238D01*
X129419777Y-67116238D01*
X129419773Y-67116238D01*
X129281687Y-67156784D01*
X129281680Y-67156787D01*
X129160611Y-67234593D01*
X129066360Y-67343366D01*
X129006572Y-67474281D01*
X128986091Y-67616735D01*
X128986091Y-67616740D01*
X129006572Y-67759194D01*
X129066360Y-67890109D01*
X129066361Y-67890111D01*
X129138537Y-67973407D01*
X129160611Y-67998882D01*
X129281680Y-68076688D01*
X129281685Y-68076691D01*
X129388141Y-68107949D01*
X129419773Y-68117237D01*
X129419774Y-68117237D01*
X129419777Y-68117238D01*
X129419779Y-68117238D01*
X129563698Y-68117238D01*
X129563699Y-68117238D01*
X129563700Y-68117237D01*
X129563704Y-68117237D01*
X129610612Y-68103462D01*
X129648225Y-68092418D01*
X129667371Y-68088795D01*
X129674338Y-68088178D01*
X130117245Y-67958489D01*
X130145065Y-67954500D01*
X133456992Y-67954500D01*
X133515183Y-67973407D01*
X133551147Y-68022907D01*
X133551147Y-68084093D01*
X133531812Y-68118329D01*
X133526065Y-68124962D01*
X133524622Y-68126628D01*
X133464834Y-68257543D01*
X133444353Y-68399997D01*
X133444353Y-68400002D01*
X133464834Y-68542456D01*
X133515440Y-68653266D01*
X133524623Y-68673373D01*
X133618872Y-68782143D01*
X133618873Y-68782144D01*
X133739942Y-68859950D01*
X133739947Y-68859953D01*
X133754912Y-68864347D01*
X133777086Y-68873929D01*
X133779548Y-68875372D01*
X133865845Y-68905301D01*
X133914627Y-68942231D01*
X133932386Y-69000782D01*
X133912338Y-69058590D01*
X133886929Y-69082119D01*
X133818872Y-69125857D01*
X133724622Y-69234628D01*
X133664834Y-69365543D01*
X133644353Y-69507997D01*
X133644353Y-69508002D01*
X133664834Y-69650456D01*
X133724622Y-69781371D01*
X133724623Y-69781373D01*
X133818872Y-69890143D01*
X133906430Y-69946413D01*
X133939947Y-69967953D01*
X133946387Y-69970894D01*
X133946313Y-69971054D01*
X133954128Y-69974446D01*
X133954261Y-69974161D01*
X134116078Y-70049415D01*
X134116079Y-70049415D01*
X134229077Y-70101964D01*
X134381283Y-70172747D01*
X134409539Y-70192510D01*
X134851540Y-70634511D01*
X134851539Y-70634511D01*
X134907489Y-70690460D01*
X134976007Y-70730019D01*
X134976011Y-70730021D01*
X135052435Y-70750499D01*
X135052437Y-70750500D01*
X135052438Y-70750500D01*
X139634758Y-70750500D01*
X139692949Y-70769407D01*
X139704762Y-70779496D01*
X139857687Y-70932421D01*
X139873418Y-70952922D01*
X139884302Y-70971773D01*
X143170505Y-74257976D01*
X143198281Y-74312491D01*
X143199500Y-74327978D01*
X143199500Y-79089564D01*
X143219977Y-79165985D01*
X143219979Y-79165989D01*
X143252163Y-79221735D01*
X143259537Y-79234507D01*
X143259538Y-79234508D01*
X143259540Y-79234511D01*
X144765489Y-80740460D01*
X144765491Y-80740461D01*
X144765493Y-80740463D01*
X144834008Y-80780020D01*
X144834006Y-80780020D01*
X144834010Y-80780021D01*
X144834012Y-80780022D01*
X144910438Y-80800500D01*
X149368872Y-80800500D01*
X149427063Y-80819407D01*
X149438876Y-80829496D01*
X149465504Y-80856124D01*
X149493281Y-80910641D01*
X149494500Y-80926128D01*
X149494500Y-83148656D01*
X149495677Y-83170594D01*
X149495678Y-83170603D01*
X149498511Y-83196961D01*
X149498512Y-83196966D01*
X149522469Y-83273479D01*
X149555957Y-83334806D01*
X149591010Y-83381630D01*
X149718376Y-83508996D01*
X149734722Y-83523679D01*
X149734738Y-83523693D01*
X149755380Y-83540327D01*
X149826425Y-83577490D01*
X149893464Y-83597175D01*
X149951362Y-83605500D01*
X150335335Y-83605500D01*
X150393526Y-83624407D01*
X150402882Y-83632124D01*
X150463050Y-83688281D01*
X150492689Y-83741806D01*
X150494500Y-83760654D01*
X150494500Y-88648656D01*
X150495677Y-88670594D01*
X150495678Y-88670603D01*
X150498511Y-88696961D01*
X150498512Y-88696966D01*
X150522469Y-88773479D01*
X150555957Y-88834806D01*
X150591010Y-88881630D01*
X150893376Y-89183996D01*
X150909722Y-89198679D01*
X150909738Y-89198693D01*
X150930380Y-89215327D01*
X151001425Y-89252490D01*
X151001426Y-89252490D01*
X151001428Y-89252491D01*
X151001561Y-89252530D01*
X151068464Y-89272175D01*
X151126362Y-89280500D01*
X151126363Y-89280500D01*
X152523620Y-89280500D01*
X152523638Y-89280500D01*
X152545607Y-89279322D01*
X152571965Y-89276488D01*
X152648482Y-89252529D01*
X152709805Y-89219044D01*
X152756629Y-89183991D01*
X152908991Y-89031629D01*
X152923693Y-89015262D01*
X152940327Y-88994620D01*
X152977490Y-88923575D01*
X152997175Y-88856536D01*
X153005500Y-88798638D01*
X153005500Y-77651362D01*
X153004322Y-77629393D01*
X153001488Y-77603035D01*
X152977529Y-77526518D01*
X152944044Y-77465195D01*
X152908991Y-77418371D01*
X152660124Y-77169504D01*
X152632347Y-77114987D01*
X152641918Y-77054555D01*
X152685183Y-77011290D01*
X152730128Y-77000500D01*
X153482454Y-77000500D01*
X153516409Y-77006504D01*
X153820462Y-77117527D01*
X153820463Y-77117527D01*
X153954210Y-77166363D01*
X153954213Y-77166363D01*
X153954214Y-77166364D01*
X153965833Y-77168301D01*
X153977443Y-77170962D01*
X154078039Y-77200500D01*
X154078040Y-77200500D01*
X154221959Y-77200500D01*
X154221961Y-77200500D01*
X154360053Y-77159953D01*
X154481128Y-77082143D01*
X154569415Y-76980253D01*
X157699500Y-76980253D01*
X157699500Y-80019746D01*
X157699501Y-80019758D01*
X157711132Y-80078227D01*
X157711134Y-80078233D01*
X157755445Y-80144548D01*
X157755448Y-80144552D01*
X157821769Y-80188867D01*
X157866231Y-80197711D01*
X157880241Y-80200498D01*
X157880246Y-80200498D01*
X157880252Y-80200500D01*
X157880253Y-80200500D01*
X160919747Y-80200500D01*
X160919748Y-80200500D01*
X160978231Y-80188867D01*
X161044552Y-80144552D01*
X161088867Y-80078231D01*
X161100500Y-80019748D01*
X161100500Y-76980252D01*
X161088867Y-76921769D01*
X161044552Y-76855448D01*
X161025110Y-76842457D01*
X160978233Y-76811134D01*
X160978231Y-76811133D01*
X160978228Y-76811132D01*
X160978227Y-76811132D01*
X160919758Y-76799501D01*
X160919748Y-76799500D01*
X157880252Y-76799500D01*
X157880251Y-76799500D01*
X157880241Y-76799501D01*
X157821772Y-76811132D01*
X157821766Y-76811134D01*
X157755451Y-76855445D01*
X157755445Y-76855451D01*
X157711134Y-76921766D01*
X157711132Y-76921772D01*
X157699501Y-76980241D01*
X157699500Y-76980253D01*
X154569415Y-76980253D01*
X154575377Y-76973373D01*
X154635165Y-76842457D01*
X154647883Y-76754000D01*
X154655647Y-76700002D01*
X154655647Y-76699997D01*
X154635165Y-76557543D01*
X154617040Y-76517855D01*
X154575377Y-76426627D01*
X154481128Y-76317857D01*
X154481127Y-76317856D01*
X154481126Y-76317855D01*
X154360057Y-76240049D01*
X154360054Y-76240047D01*
X154360053Y-76240047D01*
X154358228Y-76239511D01*
X154221964Y-76199500D01*
X154221961Y-76199500D01*
X154078039Y-76199500D01*
X154078037Y-76199500D01*
X154078033Y-76199501D01*
X153976515Y-76229308D01*
X153963793Y-76232149D01*
X153954220Y-76233633D01*
X153954218Y-76233633D01*
X153516408Y-76393495D01*
X153482452Y-76399500D01*
X152440479Y-76399500D01*
X152382288Y-76380593D01*
X152370476Y-76370504D01*
X151959511Y-75959540D01*
X151919229Y-75936283D01*
X151919228Y-75936283D01*
X151890988Y-75919978D01*
X151814564Y-75899500D01*
X151814562Y-75899500D01*
X150265479Y-75899500D01*
X150207288Y-75880593D01*
X150195475Y-75870504D01*
X149206429Y-74881458D01*
X149178652Y-74826941D01*
X149188223Y-74766509D01*
X149211612Y-74736626D01*
X149214889Y-74733788D01*
X149232843Y-74716197D01*
X149232844Y-74716194D01*
X149232846Y-74716193D01*
X149277488Y-74636384D01*
X149277490Y-74636380D01*
X149295933Y-74573571D01*
X149297175Y-74569341D01*
X149305500Y-74511443D01*
X149305500Y-73074231D01*
X149324407Y-73016040D01*
X149373907Y-72980076D01*
X149432391Y-72979242D01*
X149493464Y-72997175D01*
X149551362Y-73005500D01*
X151195500Y-73005500D01*
X151253691Y-73024407D01*
X151289655Y-73073907D01*
X151294500Y-73104500D01*
X151294500Y-74248656D01*
X151295677Y-74270594D01*
X151295678Y-74270603D01*
X151298511Y-74296961D01*
X151298512Y-74296966D01*
X151322469Y-74373479D01*
X151355957Y-74434806D01*
X151391010Y-74481630D01*
X151818376Y-74908996D01*
X151834722Y-74923679D01*
X151834738Y-74923693D01*
X151855380Y-74940327D01*
X151926425Y-74977490D01*
X151926426Y-74977490D01*
X151926428Y-74977491D01*
X151926561Y-74977530D01*
X151993464Y-74997175D01*
X152051362Y-75005500D01*
X152051363Y-75005500D01*
X152848620Y-75005500D01*
X152848638Y-75005500D01*
X152870607Y-75004322D01*
X152896965Y-75001488D01*
X152973482Y-74977529D01*
X153034805Y-74944044D01*
X153081629Y-74908991D01*
X153308991Y-74681629D01*
X153323693Y-74665262D01*
X153340327Y-74644620D01*
X153377490Y-74573575D01*
X153397175Y-74506536D01*
X153405500Y-74448638D01*
X153405500Y-73419997D01*
X157694732Y-73419997D01*
X157694732Y-73420002D01*
X157713777Y-73674152D01*
X157713779Y-73674161D01*
X157770492Y-73922639D01*
X157849105Y-74122938D01*
X157863607Y-74159888D01*
X157991041Y-74380612D01*
X157991045Y-74380618D01*
X157991047Y-74380620D01*
X158149940Y-74579866D01*
X158149951Y-74579878D01*
X158336776Y-74753226D01*
X158336778Y-74753227D01*
X158336783Y-74753232D01*
X158547366Y-74896805D01*
X158776996Y-75007389D01*
X159020542Y-75082513D01*
X159272565Y-75120500D01*
X159272570Y-75120500D01*
X159527430Y-75120500D01*
X159527435Y-75120500D01*
X159779458Y-75082513D01*
X160023004Y-75007389D01*
X160252634Y-74896805D01*
X160463217Y-74753232D01*
X160650050Y-74579877D01*
X160658448Y-74569347D01*
X160713752Y-74499997D01*
X160808959Y-74380612D01*
X160936393Y-74159888D01*
X161029508Y-73922637D01*
X161086222Y-73674157D01*
X161101268Y-73473373D01*
X161105268Y-73420002D01*
X161105268Y-73419997D01*
X161088782Y-73200002D01*
X161086222Y-73165843D01*
X161029508Y-72917363D01*
X161026099Y-72908678D01*
X160971030Y-72768365D01*
X160936393Y-72680112D01*
X160808959Y-72459388D01*
X160764818Y-72404037D01*
X160650059Y-72260133D01*
X160650048Y-72260121D01*
X160463223Y-72086773D01*
X160463220Y-72086771D01*
X160463217Y-72086768D01*
X160252634Y-71943195D01*
X160023004Y-71832611D01*
X159779462Y-71757488D01*
X159779459Y-71757487D01*
X159779458Y-71757487D01*
X159779453Y-71757486D01*
X159779452Y-71757486D01*
X159527438Y-71719500D01*
X159527435Y-71719500D01*
X159272565Y-71719500D01*
X159272561Y-71719500D01*
X159020547Y-71757486D01*
X159020537Y-71757488D01*
X158776995Y-71832611D01*
X158547373Y-71943191D01*
X158547369Y-71943193D01*
X158547366Y-71943195D01*
X158338552Y-72085562D01*
X158336776Y-72086773D01*
X158149951Y-72260121D01*
X158149940Y-72260133D01*
X157991047Y-72459379D01*
X157991043Y-72459384D01*
X157991041Y-72459388D01*
X157943785Y-72541238D01*
X157863608Y-72680109D01*
X157863604Y-72680118D01*
X157770492Y-72917360D01*
X157713779Y-73165838D01*
X157713777Y-73165847D01*
X157694732Y-73419997D01*
X153405500Y-73419997D01*
X153405500Y-71174500D01*
X153403861Y-71159260D01*
X153416439Y-71099383D01*
X153461811Y-71058334D01*
X153483310Y-71052242D01*
X153483294Y-71052180D01*
X153487675Y-71051005D01*
X153489373Y-71050525D01*
X153489557Y-71050500D01*
X153489562Y-71050500D01*
X153565989Y-71030021D01*
X153634511Y-70990460D01*
X153690460Y-70934511D01*
X153840461Y-70784508D01*
X153868712Y-70764748D01*
X154250399Y-70587246D01*
X154295481Y-70566281D01*
X154295588Y-70566511D01*
X154303674Y-70563027D01*
X154303613Y-70562894D01*
X154310050Y-70559953D01*
X154310053Y-70559953D01*
X154431128Y-70482143D01*
X154525377Y-70373373D01*
X154585165Y-70242457D01*
X154599653Y-70141691D01*
X154605647Y-70100002D01*
X154605647Y-70099997D01*
X154585165Y-69957543D01*
X154562849Y-69908678D01*
X154525377Y-69826627D01*
X154431128Y-69717857D01*
X154431127Y-69717856D01*
X154431126Y-69717855D01*
X154310057Y-69640049D01*
X154310054Y-69640047D01*
X154310053Y-69640047D01*
X154310050Y-69640046D01*
X154171964Y-69599500D01*
X154171961Y-69599500D01*
X154028039Y-69599500D01*
X154028035Y-69599500D01*
X153889949Y-69640046D01*
X153889942Y-69640049D01*
X153768873Y-69717855D01*
X153674621Y-69826628D01*
X153650259Y-69879974D01*
X153640105Y-69897302D01*
X153631791Y-69908664D01*
X153631783Y-69908678D01*
X153435247Y-70331287D01*
X153415485Y-70359542D01*
X153354527Y-70420502D01*
X153300011Y-70448281D01*
X153284522Y-70449500D01*
X151744658Y-70449500D01*
X151686467Y-70430593D01*
X151650503Y-70381093D01*
X151650503Y-70319907D01*
X151654605Y-70309373D01*
X151668010Y-70280020D01*
X151685165Y-70242457D01*
X151699653Y-70141691D01*
X151705647Y-70100002D01*
X151705647Y-70099997D01*
X151685165Y-69957543D01*
X151662849Y-69908678D01*
X151625377Y-69826627D01*
X151531128Y-69717857D01*
X151531127Y-69717856D01*
X151531126Y-69717855D01*
X151410057Y-69640049D01*
X151410054Y-69640047D01*
X151410053Y-69640047D01*
X151410050Y-69640046D01*
X151271964Y-69599500D01*
X151271961Y-69599500D01*
X151172191Y-69599500D01*
X151167637Y-69599395D01*
X151166640Y-69599349D01*
X151155799Y-69598849D01*
X151150946Y-69599103D01*
X151150939Y-69598981D01*
X151144057Y-69599500D01*
X151128039Y-69599500D01*
X151128037Y-69599500D01*
X151128032Y-69599501D01*
X151109447Y-69604957D01*
X151096390Y-69607848D01*
X150851818Y-69644895D01*
X150791452Y-69634916D01*
X150766987Y-69617016D01*
X149899968Y-68749997D01*
X149009511Y-67859540D01*
X149009505Y-67859536D01*
X149009503Y-67859535D01*
X149000780Y-67854499D01*
X149000778Y-67854498D01*
X148975506Y-67839907D01*
X148940988Y-67819978D01*
X148864564Y-67799500D01*
X148864562Y-67799500D01*
X143415479Y-67799500D01*
X143357288Y-67780593D01*
X143345475Y-67770504D01*
X142862117Y-67287146D01*
X142334511Y-66759540D01*
X142331054Y-66757544D01*
X142331052Y-66757542D01*
X142331052Y-66757543D01*
X142265989Y-66719979D01*
X142265988Y-66719978D01*
X142265987Y-66719978D01*
X142189564Y-66699500D01*
X142189562Y-66699500D01*
X140367547Y-66699500D01*
X140333591Y-66693495D01*
X139895786Y-66533635D01*
X139895781Y-66533634D01*
X139884157Y-66531696D01*
X139872547Y-66529034D01*
X139771963Y-66499500D01*
X139771961Y-66499500D01*
X139628039Y-66499500D01*
X139628035Y-66499500D01*
X139489949Y-66540046D01*
X139489942Y-66540049D01*
X139368873Y-66617855D01*
X139274622Y-66726628D01*
X139214834Y-66857543D01*
X139194353Y-66999997D01*
X139194353Y-67000003D01*
X139214540Y-67140411D01*
X139204107Y-67200700D01*
X139160229Y-67243343D01*
X139116548Y-67253500D01*
X138719479Y-67253500D01*
X138661288Y-67234593D01*
X138649475Y-67224504D01*
X138184510Y-66759539D01*
X137887584Y-66462613D01*
X148495751Y-66462613D01*
X148495751Y-66462618D01*
X148516232Y-66605072D01*
X148576020Y-66735987D01*
X148576021Y-66735989D01*
X148634347Y-66803301D01*
X148670271Y-66844760D01*
X148783901Y-66917785D01*
X148791345Y-66922569D01*
X148897801Y-66953827D01*
X148929433Y-66963115D01*
X148929434Y-66963115D01*
X148929437Y-66963116D01*
X148929439Y-66963116D01*
X149035919Y-66963116D01*
X149094110Y-66982023D01*
X149105923Y-66992112D01*
X150048322Y-67934511D01*
X150048321Y-67934511D01*
X150104271Y-67990460D01*
X150172789Y-68030019D01*
X150172793Y-68030021D01*
X150249217Y-68050499D01*
X150249219Y-68050500D01*
X150249220Y-68050500D01*
X158602917Y-68050500D01*
X158661108Y-68069407D01*
X158677733Y-68084667D01*
X158718872Y-68132143D01*
X158839947Y-68209953D01*
X158925782Y-68235156D01*
X158978035Y-68250499D01*
X158978036Y-68250499D01*
X158978039Y-68250500D01*
X158978041Y-68250500D01*
X159121959Y-68250500D01*
X159121961Y-68250500D01*
X159260053Y-68209953D01*
X159381128Y-68132143D01*
X159475377Y-68023373D01*
X159535165Y-67892457D01*
X159548530Y-67799500D01*
X159555647Y-67750002D01*
X159555647Y-67749997D01*
X159535165Y-67607543D01*
X159518960Y-67572059D01*
X159475377Y-67476627D01*
X159381128Y-67367857D01*
X159381127Y-67367856D01*
X159381126Y-67367855D01*
X159260057Y-67290049D01*
X159260054Y-67290047D01*
X159260053Y-67290047D01*
X159260050Y-67290046D01*
X159121964Y-67249500D01*
X159121961Y-67249500D01*
X158978039Y-67249500D01*
X158978035Y-67249500D01*
X158839949Y-67290046D01*
X158839942Y-67290049D01*
X158718876Y-67367854D01*
X158718871Y-67367858D01*
X158677736Y-67415331D01*
X158625340Y-67446927D01*
X158602917Y-67449500D01*
X150454261Y-67449500D01*
X150396070Y-67430593D01*
X150384257Y-67420504D01*
X149531944Y-66568191D01*
X149504167Y-66513674D01*
X149503956Y-66484098D01*
X149507045Y-66462616D01*
X149495169Y-66380019D01*
X149486563Y-66320159D01*
X149426775Y-66189244D01*
X149426775Y-66189243D01*
X149332526Y-66080473D01*
X149332525Y-66080472D01*
X149332524Y-66080471D01*
X149211455Y-66002665D01*
X149211452Y-66002663D01*
X149211451Y-66002663D01*
X149200679Y-65999500D01*
X149073362Y-65962116D01*
X149073359Y-65962116D01*
X148929437Y-65962116D01*
X148929433Y-65962116D01*
X148791347Y-66002662D01*
X148791340Y-66002665D01*
X148670271Y-66080471D01*
X148576020Y-66189244D01*
X148516232Y-66320159D01*
X148495751Y-66462613D01*
X137887584Y-66462613D01*
X137719100Y-66294129D01*
X137691325Y-66239615D01*
X137700896Y-66179183D01*
X137744161Y-66135918D01*
X137789106Y-66125128D01*
X147114935Y-66125128D01*
X147114935Y-66125127D01*
X147191361Y-66104649D01*
X147259883Y-66065088D01*
X147287857Y-66037113D01*
X147315833Y-66009139D01*
X147904458Y-65420512D01*
X147958975Y-65392734D01*
X148007366Y-65397143D01*
X148185602Y-65459953D01*
X148206451Y-65467300D01*
X148218500Y-65469198D01*
X148230978Y-65472001D01*
X148328035Y-65500499D01*
X148328036Y-65500499D01*
X148328039Y-65500500D01*
X148328041Y-65500500D01*
X148471959Y-65500500D01*
X148471961Y-65500500D01*
X148610053Y-65459953D01*
X148731128Y-65382143D01*
X148825377Y-65273373D01*
X148885165Y-65142457D01*
X148895510Y-65070504D01*
X148905647Y-65000002D01*
X148905647Y-64999997D01*
X148885165Y-64857543D01*
X148855920Y-64793507D01*
X148825377Y-64726627D01*
X148731128Y-64617857D01*
X148731127Y-64617856D01*
X148731126Y-64617855D01*
X148610057Y-64540049D01*
X148610054Y-64540047D01*
X148610053Y-64540047D01*
X148610050Y-64540046D01*
X148471964Y-64499500D01*
X148471961Y-64499500D01*
X148328039Y-64499500D01*
X148328037Y-64499500D01*
X148189943Y-64540048D01*
X148187596Y-64541557D01*
X148180191Y-64545874D01*
X147909949Y-64688107D01*
X147863840Y-64699500D01*
X147860435Y-64699500D01*
X147784012Y-64719978D01*
X147752964Y-64737904D01*
X147752963Y-64737903D01*
X147715487Y-64759541D01*
X147640211Y-64834816D01*
X147633002Y-64841318D01*
X147628280Y-64846358D01*
X147628202Y-64846285D01*
X147625274Y-64849752D01*
X146979897Y-65495131D01*
X146925380Y-65522909D01*
X146909893Y-65524128D01*
X146489851Y-65524128D01*
X146431660Y-65505221D01*
X146395696Y-65455721D01*
X146395696Y-65394535D01*
X146419847Y-65355124D01*
X146784511Y-64990460D01*
X147880027Y-63894942D01*
X147934542Y-63867167D01*
X147988976Y-63873930D01*
X148188075Y-63959129D01*
X148190152Y-63960046D01*
X148193411Y-63961530D01*
X148194645Y-63961967D01*
X148194919Y-63962051D01*
X148197674Y-63962607D01*
X148205977Y-63964659D01*
X148328039Y-64000500D01*
X148328040Y-64000500D01*
X148471959Y-64000500D01*
X148471961Y-64000500D01*
X148610053Y-63959953D01*
X148731128Y-63882143D01*
X148825377Y-63773373D01*
X148885165Y-63642457D01*
X148905647Y-63500000D01*
X148902149Y-63475672D01*
X148885165Y-63357543D01*
X148879108Y-63344281D01*
X148825377Y-63226627D01*
X148731128Y-63117857D01*
X148714961Y-63107467D01*
X148676231Y-63060102D01*
X148672739Y-62999016D01*
X148705818Y-62947544D01*
X148762834Y-62925345D01*
X148768486Y-62925184D01*
X149114247Y-62925184D01*
X149114247Y-62925183D01*
X149190673Y-62904705D01*
X149259195Y-62865144D01*
X149315144Y-62809195D01*
X152240460Y-59883879D01*
X152256363Y-59856335D01*
X152280020Y-59815360D01*
X152280020Y-59815358D01*
X152280022Y-59815356D01*
X152300500Y-59738930D01*
X152300500Y-59659806D01*
X152300500Y-58367547D01*
X152306505Y-58333591D01*
X152391301Y-58101362D01*
X152466364Y-57895789D01*
X152467402Y-57889563D01*
X152475003Y-57864707D01*
X152485165Y-57842456D01*
X152485165Y-57842455D01*
X152485166Y-57842452D01*
X152496231Y-57765489D01*
X152505647Y-57700002D01*
X152505647Y-57699997D01*
X152485165Y-57557543D01*
X152455158Y-57491838D01*
X152425377Y-57426627D01*
X152331128Y-57317857D01*
X152331127Y-57317856D01*
X152331126Y-57317855D01*
X152210057Y-57240049D01*
X152210054Y-57240047D01*
X152210053Y-57240047D01*
X152210050Y-57240046D01*
X152071964Y-57199500D01*
X152071961Y-57199500D01*
X151928039Y-57199500D01*
X151928035Y-57199500D01*
X151789949Y-57240046D01*
X151789942Y-57240049D01*
X151668873Y-57317855D01*
X151574622Y-57426628D01*
X151514834Y-57557543D01*
X151494353Y-57699997D01*
X151494353Y-57700002D01*
X151514833Y-57842452D01*
X151514835Y-57842457D01*
X151525098Y-57864931D01*
X151532875Y-57890887D01*
X151533633Y-57895779D01*
X151533634Y-57895781D01*
X151533635Y-57895786D01*
X151598880Y-58074471D01*
X151693495Y-58333591D01*
X151699500Y-58367547D01*
X151699500Y-59533889D01*
X151680593Y-59592080D01*
X151670504Y-59603893D01*
X150319004Y-60955393D01*
X150264487Y-60983170D01*
X150204055Y-60973599D01*
X150160790Y-60930334D01*
X150150000Y-60885389D01*
X150150000Y-52350001D01*
X150150000Y-52350000D01*
X141550000Y-52350000D01*
X141550000Y-52350001D01*
X141550000Y-53295940D01*
X141531093Y-53354131D01*
X141481593Y-53390095D01*
X141420407Y-53390095D01*
X141405114Y-53383664D01*
X141387660Y-53374534D01*
X141387658Y-53374533D01*
X141320635Y-53354853D01*
X141320627Y-53354851D01*
X141320623Y-53354850D01*
X141320618Y-53354849D01*
X141320617Y-53354849D01*
X141248642Y-53344500D01*
X141248638Y-53344500D01*
X138904894Y-53344500D01*
X138901739Y-53344597D01*
X138889111Y-53344987D01*
X138873849Y-53345931D01*
X138873837Y-53345932D01*
X138787975Y-53366532D01*
X138723865Y-53394330D01*
X138661950Y-53432457D01*
X138661942Y-53432462D01*
X138366431Y-53678722D01*
X138366430Y-53678723D01*
X138331063Y-53708194D01*
X138331038Y-53708216D01*
X138303157Y-53735303D01*
X138303129Y-53735332D01*
X138278205Y-53763543D01*
X138270743Y-53772385D01*
X138270740Y-53772389D01*
X138224535Y-53860719D01*
X138224533Y-53860724D01*
X138204853Y-53927747D01*
X138204849Y-53927765D01*
X138194500Y-53999740D01*
X138194500Y-54450500D01*
X138175593Y-54508691D01*
X138126093Y-54544655D01*
X138095500Y-54549500D01*
X137414478Y-54549500D01*
X137356287Y-54530593D01*
X137320323Y-54481093D01*
X137320323Y-54419907D01*
X137344474Y-54380497D01*
X137405980Y-54318989D01*
X137559341Y-54165628D01*
X137603719Y-54140007D01*
X137640989Y-54130021D01*
X137709511Y-54090460D01*
X137765460Y-54034511D01*
X137805021Y-53965989D01*
X137825500Y-53889562D01*
X137825500Y-53767547D01*
X137831505Y-53733591D01*
X137835813Y-53721792D01*
X137991364Y-53295789D01*
X137992402Y-53289563D01*
X138000003Y-53264707D01*
X138010165Y-53242456D01*
X138010165Y-53242455D01*
X138010166Y-53242452D01*
X138030647Y-53100000D01*
X138010165Y-52957543D01*
X137950377Y-52826627D01*
X137856128Y-52717857D01*
X137856127Y-52717856D01*
X137856126Y-52717855D01*
X137735057Y-52640049D01*
X137735054Y-52640047D01*
X137735053Y-52640047D01*
X137735050Y-52640046D01*
X137596964Y-52599500D01*
X137596961Y-52599500D01*
X137453039Y-52599500D01*
X137453035Y-52599500D01*
X137314949Y-52640046D01*
X137314942Y-52640049D01*
X137193873Y-52717855D01*
X137099622Y-52826628D01*
X137039834Y-52957543D01*
X137019353Y-53099997D01*
X137019353Y-53100002D01*
X137039833Y-53242452D01*
X137039835Y-53242457D01*
X137050098Y-53264931D01*
X137057875Y-53290887D01*
X137058633Y-53295779D01*
X137058633Y-53295780D01*
X137176226Y-53617832D01*
X137178424Y-53678978D01*
X137153235Y-53721792D01*
X134904525Y-55970504D01*
X134850008Y-55998281D01*
X134834521Y-55999500D01*
X128885435Y-55999500D01*
X128809011Y-56019978D01*
X128809007Y-56019980D01*
X128740491Y-56059538D01*
X125879525Y-58920504D01*
X125825008Y-58948281D01*
X125809521Y-58949500D01*
X122090307Y-58949500D01*
X122013883Y-58969978D01*
X122013879Y-58969980D01*
X121996490Y-58980019D01*
X121996491Y-58980020D01*
X121945362Y-59009539D01*
X120253791Y-60701108D01*
X120225534Y-60720871D01*
X119798769Y-60919341D01*
X119798664Y-60919115D01*
X119790576Y-60922598D01*
X119790636Y-60922728D01*
X119784195Y-60925669D01*
X119663122Y-61003478D01*
X119568871Y-61112251D01*
X119509083Y-61243166D01*
X119488602Y-61385620D01*
X119488602Y-61385625D01*
X119509083Y-61528079D01*
X119540313Y-61596461D01*
X119568872Y-61658996D01*
X119642237Y-61743664D01*
X119663122Y-61767767D01*
X119784191Y-61845573D01*
X119784196Y-61845576D01*
X119890652Y-61876834D01*
X119922284Y-61886122D01*
X119922285Y-61886122D01*
X119922288Y-61886123D01*
X119922290Y-61886123D01*
X120066208Y-61886123D01*
X120066210Y-61886123D01*
X120204302Y-61845576D01*
X120325377Y-61767766D01*
X120419626Y-61658996D01*
X120443991Y-61605640D01*
X120454143Y-61588317D01*
X120462462Y-61576949D01*
X120658996Y-61154336D01*
X120678755Y-61126086D01*
X122225347Y-59579496D01*
X122279864Y-59551719D01*
X122295351Y-59550500D01*
X126014563Y-59550500D01*
X126014563Y-59550499D01*
X126090989Y-59530021D01*
X126159511Y-59490460D01*
X126215460Y-59434511D01*
X129020475Y-56629496D01*
X129074992Y-56601719D01*
X129090479Y-56600500D01*
X134685521Y-56600500D01*
X134743712Y-56619407D01*
X134779676Y-56668907D01*
X134779676Y-56730093D01*
X134755525Y-56769504D01*
X133604525Y-57920504D01*
X133550008Y-57948281D01*
X133534521Y-57949500D01*
X128509803Y-57949500D01*
X128433382Y-57969977D01*
X128433377Y-57969979D01*
X128396254Y-57991411D01*
X128396255Y-57991412D01*
X128364858Y-58009539D01*
X123057893Y-63316504D01*
X123003376Y-63344281D01*
X122987889Y-63345500D01*
X121413803Y-63345500D01*
X121337382Y-63365977D01*
X121337377Y-63365979D01*
X121295187Y-63390337D01*
X121295188Y-63390338D01*
X121268857Y-63405540D01*
X119615489Y-65058908D01*
X119615488Y-65058907D01*
X119559539Y-65114857D01*
X119519980Y-65183375D01*
X119519978Y-65183379D01*
X119499500Y-65259803D01*
X119499500Y-66645035D01*
X119480593Y-66703226D01*
X119431093Y-66739190D01*
X119374877Y-66740661D01*
X119314562Y-66724500D01*
X116835438Y-66724500D01*
X116835435Y-66724500D01*
X116759012Y-66744978D01*
X116709831Y-66773373D01*
X116709830Y-66773372D01*
X116690489Y-66784539D01*
X116304524Y-67170504D01*
X116250008Y-67198281D01*
X116234521Y-67199500D01*
X113459171Y-67199500D01*
X113382747Y-67219978D01*
X113382743Y-67219980D01*
X113314225Y-67259539D01*
X112845592Y-67728171D01*
X112791076Y-67755948D01*
X112730644Y-67746377D01*
X112687379Y-67703112D01*
X112680363Y-67684835D01*
X112680020Y-67684008D01*
X112640463Y-67615493D01*
X112640462Y-67615492D01*
X112640461Y-67615491D01*
X112640460Y-67615489D01*
X111307993Y-66283022D01*
X111287944Y-66254145D01*
X111281308Y-66239615D01*
X111275377Y-66226627D01*
X111181128Y-66117857D01*
X111181127Y-66117856D01*
X111181126Y-66117855D01*
X111060057Y-66040049D01*
X111060054Y-66040047D01*
X111060053Y-66040047D01*
X111060050Y-66040046D01*
X110921964Y-65999500D01*
X110921961Y-65999500D01*
X110778039Y-65999500D01*
X110778035Y-65999500D01*
X110639949Y-66040046D01*
X110639942Y-66040049D01*
X110518873Y-66117855D01*
X110424622Y-66226628D01*
X110364834Y-66357543D01*
X110344353Y-66499997D01*
X110344353Y-66500002D01*
X110364834Y-66642456D01*
X110418816Y-66760658D01*
X110424623Y-66773373D01*
X110511974Y-66874182D01*
X110523509Y-66887494D01*
X110522361Y-66888488D01*
X110549763Y-66933930D01*
X110544525Y-66994891D01*
X110506861Y-67039633D01*
X110494686Y-67047457D01*
X110400434Y-67156231D01*
X110340646Y-67287146D01*
X110320165Y-67429600D01*
X110320165Y-67429605D01*
X110340646Y-67572059D01*
X110391774Y-67684012D01*
X110400435Y-67702976D01*
X110494684Y-67811746D01*
X110494685Y-67811747D01*
X110569045Y-67859535D01*
X110615759Y-67889556D01*
X110722215Y-67920814D01*
X110753847Y-67930102D01*
X110753848Y-67930102D01*
X110753851Y-67930103D01*
X110753853Y-67930103D01*
X110860333Y-67930103D01*
X110918524Y-67949010D01*
X110930337Y-67959099D01*
X111091445Y-68120207D01*
X111119222Y-68174724D01*
X111109651Y-68235156D01*
X111066386Y-68278421D01*
X111005954Y-68287992D01*
X110993550Y-68285201D01*
X110871964Y-68249500D01*
X110871961Y-68249500D01*
X110728039Y-68249500D01*
X110728035Y-68249500D01*
X110589949Y-68290046D01*
X110589942Y-68290049D01*
X110468873Y-68367855D01*
X110374622Y-68476628D01*
X110314834Y-68607543D01*
X110294353Y-68749997D01*
X110294353Y-68750002D01*
X110314834Y-68892456D01*
X110369567Y-69012302D01*
X110374623Y-69023373D01*
X110468872Y-69132143D01*
X110522121Y-69166364D01*
X110542119Y-69179216D01*
X110580850Y-69226582D01*
X110584342Y-69287668D01*
X110551263Y-69339140D01*
X110542119Y-69345784D01*
X110468872Y-69392857D01*
X110374622Y-69501628D01*
X110314834Y-69632543D01*
X110294353Y-69774997D01*
X110294353Y-69775002D01*
X110314834Y-69917456D01*
X110361623Y-70019907D01*
X110374623Y-70048373D01*
X110468872Y-70157143D01*
X110468873Y-70157144D01*
X110582341Y-70230065D01*
X110589947Y-70234953D01*
X110696403Y-70266211D01*
X110728035Y-70275499D01*
X110728036Y-70275499D01*
X110728039Y-70275500D01*
X110728041Y-70275500D01*
X110834521Y-70275500D01*
X110892712Y-70294407D01*
X110904525Y-70304496D01*
X110916504Y-70316475D01*
X110944281Y-70370992D01*
X110945500Y-70386479D01*
X110945500Y-72438521D01*
X110926593Y-72496712D01*
X110916504Y-72508525D01*
X108115489Y-75309540D01*
X108115488Y-75309539D01*
X108059539Y-75365489D01*
X108019980Y-75434007D01*
X108019978Y-75434011D01*
X107999500Y-75510435D01*
X102600500Y-75510435D01*
X102600500Y-72251004D01*
X103974500Y-72251004D01*
X103974500Y-72388995D01*
X104001420Y-72524327D01*
X104001420Y-72524329D01*
X104054222Y-72651806D01*
X104054228Y-72651817D01*
X104130885Y-72766541D01*
X104228458Y-72864114D01*
X104343182Y-72940771D01*
X104343193Y-72940777D01*
X104383671Y-72957543D01*
X104470672Y-72993580D01*
X104606007Y-73020500D01*
X104606008Y-73020500D01*
X105543992Y-73020500D01*
X105543993Y-73020500D01*
X105679328Y-72993580D01*
X105806811Y-72940775D01*
X105921542Y-72864114D01*
X106019114Y-72766542D01*
X106095775Y-72651811D01*
X106148580Y-72524328D01*
X106175500Y-72388993D01*
X106175500Y-72251007D01*
X106175499Y-72251004D01*
X108004500Y-72251004D01*
X108004500Y-72388995D01*
X108031420Y-72524327D01*
X108031420Y-72524329D01*
X108084222Y-72651806D01*
X108084228Y-72651817D01*
X108160885Y-72766541D01*
X108258458Y-72864114D01*
X108373182Y-72940771D01*
X108373193Y-72940777D01*
X108413671Y-72957543D01*
X108500672Y-72993580D01*
X108636007Y-73020500D01*
X108636008Y-73020500D01*
X109873992Y-73020500D01*
X109873993Y-73020500D01*
X110009328Y-72993580D01*
X110136811Y-72940775D01*
X110251542Y-72864114D01*
X110349114Y-72766542D01*
X110425775Y-72651811D01*
X110478580Y-72524328D01*
X110505500Y-72388993D01*
X110505500Y-72251007D01*
X110478580Y-72115672D01*
X110425775Y-71988189D01*
X110425774Y-71988187D01*
X110425771Y-71988182D01*
X110349114Y-71873458D01*
X110251541Y-71775885D01*
X110136817Y-71699228D01*
X110136806Y-71699222D01*
X110009328Y-71646420D01*
X109873995Y-71619500D01*
X109873993Y-71619500D01*
X108636007Y-71619500D01*
X108636004Y-71619500D01*
X108500672Y-71646420D01*
X108500670Y-71646420D01*
X108373193Y-71699222D01*
X108373182Y-71699228D01*
X108258458Y-71775885D01*
X108160885Y-71873458D01*
X108084228Y-71988182D01*
X108084222Y-71988193D01*
X108031420Y-72115670D01*
X108031420Y-72115672D01*
X108004500Y-72251004D01*
X106175499Y-72251004D01*
X106148580Y-72115672D01*
X106095775Y-71988189D01*
X106095774Y-71988187D01*
X106095771Y-71988182D01*
X106019114Y-71873458D01*
X105921541Y-71775885D01*
X105806817Y-71699228D01*
X105806806Y-71699222D01*
X105679328Y-71646420D01*
X105543995Y-71619500D01*
X105543993Y-71619500D01*
X104606007Y-71619500D01*
X104606004Y-71619500D01*
X104470672Y-71646420D01*
X104470670Y-71646420D01*
X104343193Y-71699222D01*
X104343182Y-71699228D01*
X104228458Y-71775885D01*
X104130885Y-71873458D01*
X104054228Y-71988182D01*
X104054222Y-71988193D01*
X104001420Y-72115670D01*
X104001420Y-72115672D01*
X103974500Y-72251004D01*
X102600500Y-72251004D01*
X102600500Y-70820817D01*
X108229500Y-70820817D01*
X108229500Y-70959183D01*
X108265312Y-71092836D01*
X108334495Y-71212665D01*
X108432335Y-71310505D01*
X108552164Y-71379688D01*
X108685817Y-71415500D01*
X108685819Y-71415500D01*
X108824181Y-71415500D01*
X108824183Y-71415500D01*
X108957836Y-71379688D01*
X109077665Y-71310505D01*
X109175505Y-71212665D01*
X109244688Y-71092836D01*
X109280500Y-70959183D01*
X109280500Y-70820817D01*
X109244688Y-70687164D01*
X109175505Y-70567335D01*
X109077665Y-70469495D01*
X108957836Y-70400312D01*
X108824183Y-70364500D01*
X108685817Y-70364500D01*
X108552164Y-70400312D01*
X108432335Y-70469495D01*
X108334495Y-70567335D01*
X108265312Y-70687164D01*
X108229500Y-70820817D01*
X102600500Y-70820817D01*
X102600500Y-65040817D01*
X108229500Y-65040817D01*
X108229500Y-65179183D01*
X108265312Y-65312836D01*
X108334495Y-65432665D01*
X108432335Y-65530505D01*
X108552164Y-65599688D01*
X108685817Y-65635500D01*
X108685819Y-65635500D01*
X108824181Y-65635500D01*
X108824183Y-65635500D01*
X108957836Y-65599688D01*
X109077665Y-65530505D01*
X109175505Y-65432665D01*
X109244688Y-65312836D01*
X109280500Y-65179183D01*
X109280500Y-65040817D01*
X109244688Y-64907164D01*
X109175505Y-64787335D01*
X109077665Y-64689495D01*
X108957836Y-64620312D01*
X108824183Y-64584500D01*
X108685817Y-64584500D01*
X108552164Y-64620312D01*
X108432335Y-64689495D01*
X108334495Y-64787335D01*
X108265312Y-64907164D01*
X108229500Y-65040817D01*
X102600500Y-65040817D01*
X102600500Y-63611004D01*
X103974500Y-63611004D01*
X103974500Y-63748995D01*
X103988198Y-63817855D01*
X104000985Y-63882143D01*
X104001420Y-63884327D01*
X104001420Y-63884329D01*
X104054222Y-64011806D01*
X104054228Y-64011817D01*
X104130885Y-64126541D01*
X104228458Y-64224114D01*
X104343182Y-64300771D01*
X104343193Y-64300777D01*
X104359528Y-64307543D01*
X104470672Y-64353580D01*
X104606007Y-64380500D01*
X104606008Y-64380500D01*
X105543992Y-64380500D01*
X105543993Y-64380500D01*
X105679328Y-64353580D01*
X105806811Y-64300775D01*
X105921542Y-64224114D01*
X106019114Y-64126542D01*
X106095775Y-64011811D01*
X106148580Y-63884328D01*
X106175500Y-63748993D01*
X106175500Y-63611007D01*
X106175499Y-63611004D01*
X108004500Y-63611004D01*
X108004500Y-63748995D01*
X108018198Y-63817855D01*
X108030985Y-63882143D01*
X108031420Y-63884327D01*
X108031420Y-63884329D01*
X108084222Y-64011806D01*
X108084228Y-64011817D01*
X108160885Y-64126541D01*
X108258458Y-64224114D01*
X108373182Y-64300771D01*
X108373193Y-64300777D01*
X108389528Y-64307543D01*
X108500672Y-64353580D01*
X108636007Y-64380500D01*
X108636008Y-64380500D01*
X109873992Y-64380500D01*
X109873993Y-64380500D01*
X110009328Y-64353580D01*
X110136811Y-64300775D01*
X110251542Y-64224114D01*
X110349114Y-64126542D01*
X110425775Y-64011811D01*
X110478580Y-63884328D01*
X110505500Y-63748993D01*
X110505500Y-63611007D01*
X110478580Y-63475672D01*
X110451357Y-63409950D01*
X110425777Y-63348193D01*
X110425771Y-63348182D01*
X110349114Y-63233458D01*
X110251541Y-63135885D01*
X110136817Y-63059228D01*
X110136806Y-63059222D01*
X110009328Y-63006420D01*
X109873995Y-62979500D01*
X109873993Y-62979500D01*
X108636007Y-62979500D01*
X108636004Y-62979500D01*
X108500672Y-63006420D01*
X108500670Y-63006420D01*
X108373193Y-63059222D01*
X108373182Y-63059228D01*
X108258458Y-63135885D01*
X108160885Y-63233458D01*
X108084228Y-63348182D01*
X108084222Y-63348193D01*
X108031420Y-63475670D01*
X108031420Y-63475672D01*
X108004500Y-63611004D01*
X106175499Y-63611004D01*
X106148580Y-63475672D01*
X106121357Y-63409950D01*
X106095777Y-63348193D01*
X106095771Y-63348182D01*
X106019114Y-63233458D01*
X105921541Y-63135885D01*
X105806817Y-63059228D01*
X105806806Y-63059222D01*
X105679328Y-63006420D01*
X105543995Y-62979500D01*
X105543993Y-62979500D01*
X104606007Y-62979500D01*
X104606004Y-62979500D01*
X104470672Y-63006420D01*
X104470670Y-63006420D01*
X104343193Y-63059222D01*
X104343182Y-63059228D01*
X104228458Y-63135885D01*
X104130885Y-63233458D01*
X104054228Y-63348182D01*
X104054222Y-63348193D01*
X104001420Y-63475670D01*
X104001420Y-63475672D01*
X103974500Y-63611004D01*
X102600500Y-63611004D01*
X102600500Y-60800000D01*
X105394551Y-60800000D01*
X105414316Y-61051146D01*
X105473127Y-61296113D01*
X105569532Y-61528856D01*
X105569535Y-61528862D01*
X105701162Y-61743656D01*
X105701168Y-61743664D01*
X105822839Y-61886123D01*
X105864776Y-61935224D01*
X105864782Y-61935229D01*
X105864785Y-61935232D01*
X106010331Y-62059540D01*
X106056341Y-62098836D01*
X106056343Y-62098837D01*
X106271137Y-62230464D01*
X106271141Y-62230466D01*
X106497397Y-62324184D01*
X106503887Y-62326872D01*
X106503889Y-62326873D01*
X106748852Y-62385683D01*
X107000000Y-62405449D01*
X107251148Y-62385683D01*
X107496111Y-62326873D01*
X107728859Y-62230466D01*
X107943659Y-62098836D01*
X108135224Y-61935224D01*
X108298836Y-61743659D01*
X108325590Y-61700000D01*
X110794551Y-61700000D01*
X110814316Y-61951146D01*
X110873127Y-62196113D01*
X110969532Y-62428856D01*
X110969535Y-62428862D01*
X111007030Y-62490047D01*
X111101164Y-62643659D01*
X111264776Y-62835224D01*
X111264782Y-62835229D01*
X111264785Y-62835232D01*
X111433701Y-62979500D01*
X111456341Y-62998836D01*
X111456343Y-62998837D01*
X111671137Y-63130464D01*
X111671143Y-63130467D01*
X111684226Y-63135886D01*
X111903295Y-63226627D01*
X111903887Y-63226872D01*
X111903889Y-63226873D01*
X112148852Y-63285683D01*
X112400000Y-63305449D01*
X112651148Y-63285683D01*
X112896111Y-63226873D01*
X113128859Y-63130466D01*
X113343659Y-62998836D01*
X113535224Y-62835224D01*
X113698836Y-62643659D01*
X113830466Y-62428859D01*
X113926873Y-62196111D01*
X113985683Y-61951148D01*
X114005449Y-61700000D01*
X113985683Y-61448852D01*
X113926873Y-61203889D01*
X113888915Y-61112251D01*
X113830467Y-60971143D01*
X113830464Y-60971137D01*
X113698837Y-60756343D01*
X113698836Y-60756341D01*
X113535224Y-60564776D01*
X113535217Y-60564770D01*
X113535214Y-60564767D01*
X113343664Y-60401168D01*
X113343656Y-60401162D01*
X113128862Y-60269535D01*
X113128856Y-60269532D01*
X112896112Y-60173127D01*
X112896113Y-60173127D01*
X112651146Y-60114316D01*
X112400000Y-60094551D01*
X112148853Y-60114316D01*
X111903886Y-60173127D01*
X111671143Y-60269532D01*
X111671137Y-60269535D01*
X111456343Y-60401162D01*
X111456335Y-60401168D01*
X111264785Y-60564767D01*
X111264767Y-60564785D01*
X111101168Y-60756335D01*
X111101162Y-60756343D01*
X110969535Y-60971137D01*
X110969532Y-60971143D01*
X110873127Y-61203886D01*
X110814316Y-61448853D01*
X110794551Y-61700000D01*
X108325590Y-61700000D01*
X108430466Y-61528859D01*
X108526873Y-61296111D01*
X108585683Y-61051148D01*
X108605449Y-60800000D01*
X108585683Y-60548852D01*
X108526873Y-60303889D01*
X108487472Y-60208767D01*
X108430467Y-60071143D01*
X108430464Y-60071137D01*
X108298837Y-59856343D01*
X108298836Y-59856341D01*
X108272495Y-59825500D01*
X108135232Y-59664785D01*
X108135229Y-59664782D01*
X108135224Y-59664776D01*
X108135217Y-59664770D01*
X108135214Y-59664767D01*
X107943664Y-59501168D01*
X107943656Y-59501162D01*
X107728862Y-59369535D01*
X107728856Y-59369532D01*
X107496112Y-59273127D01*
X107496113Y-59273127D01*
X107251146Y-59214316D01*
X107000000Y-59194551D01*
X106748853Y-59214316D01*
X106503886Y-59273127D01*
X106271143Y-59369532D01*
X106271137Y-59369535D01*
X106056343Y-59501162D01*
X106056335Y-59501168D01*
X105864785Y-59664767D01*
X105864767Y-59664785D01*
X105701168Y-59856335D01*
X105701162Y-59856343D01*
X105569535Y-60071137D01*
X105569532Y-60071143D01*
X105473127Y-60303886D01*
X105414316Y-60548853D01*
X105394551Y-60800000D01*
X102600500Y-60800000D01*
X102600500Y-50499500D01*
X102619407Y-50441309D01*
X102668907Y-50405345D01*
X102699500Y-50400500D01*
X162650500Y-50400500D01*
X162708691Y-50419407D01*
G37*
G04 #@! TD.AperFunction*
G04 #@! TD*
G04 #@! TA.AperFunction,Conductor*
G04 #@! TO.N,IOUT_CSN_0*
G36*
X148366206Y-75595185D02*
G01*
X148386848Y-75611819D01*
X149063681Y-76288652D01*
X149097166Y-76349975D01*
X149100000Y-76376333D01*
X149100000Y-79948638D01*
X149080315Y-80015677D01*
X149063681Y-80036319D01*
X148936819Y-80163181D01*
X148875496Y-80196666D01*
X148849138Y-80199500D01*
X146350862Y-80199500D01*
X146283823Y-80179815D01*
X146263181Y-80163181D01*
X146036319Y-79936319D01*
X146002834Y-79874996D01*
X146000000Y-79848638D01*
X146000000Y-75699500D01*
X146019685Y-75632461D01*
X146072489Y-75586706D01*
X146124000Y-75575500D01*
X148299167Y-75575500D01*
X148366206Y-75595185D01*
G37*
G04 #@! TD.AperFunction*
G04 #@! TA.AperFunction,Conductor*
G36*
X147990706Y-69419685D02*
G01*
X148011348Y-69436319D01*
X149063681Y-70488652D01*
X149097166Y-70549975D01*
X149100000Y-70576333D01*
X149100000Y-74511443D01*
X149080315Y-74578482D01*
X149027511Y-74624237D01*
X148958353Y-74634181D01*
X148923850Y-74622241D01*
X148923499Y-74623090D01*
X148915990Y-74619979D01*
X148890513Y-74613152D01*
X148839562Y-74599500D01*
X148839560Y-74599500D01*
X146575833Y-74599500D01*
X146508794Y-74579815D01*
X146488152Y-74563181D01*
X146036319Y-74111348D01*
X146002834Y-74050025D01*
X146000000Y-74023667D01*
X146000000Y-69524000D01*
X146019685Y-69456961D01*
X146072489Y-69411206D01*
X146124000Y-69400000D01*
X147923667Y-69400000D01*
X147990706Y-69419685D01*
G37*
G04 #@! TD.AperFunction*
G04 #@! TD*
G04 #@! TA.AperFunction,Conductor*
G04 #@! TO.N,SW2_1*
G36*
X152315677Y-77119685D02*
G01*
X152336319Y-77136319D01*
X152763681Y-77563681D01*
X152797166Y-77625004D01*
X152800000Y-77651362D01*
X152800000Y-88798638D01*
X152780315Y-88865677D01*
X152763681Y-88886319D01*
X152611319Y-89038681D01*
X152549996Y-89072166D01*
X152523638Y-89075000D01*
X151126362Y-89075000D01*
X151059323Y-89055315D01*
X151038681Y-89038681D01*
X150736319Y-88736319D01*
X150702834Y-88674996D01*
X150700000Y-88648638D01*
X150700000Y-83628333D01*
X150455358Y-83400000D01*
X149951362Y-83400000D01*
X149884323Y-83380315D01*
X149863681Y-83363681D01*
X149736319Y-83236319D01*
X149702834Y-83174996D01*
X149700000Y-83148638D01*
X149700000Y-80800000D01*
X149236319Y-80336319D01*
X149202834Y-80274996D01*
X149200000Y-80248638D01*
X149200000Y-80238407D01*
X149219685Y-80171368D01*
X149227444Y-80160606D01*
X149240327Y-80144620D01*
X149277490Y-80073575D01*
X149297175Y-80006536D01*
X149305500Y-79948638D01*
X149305500Y-79809891D01*
X149305646Y-79807848D01*
X149305647Y-79792179D01*
X149305500Y-79790111D01*
X149305500Y-77445861D01*
X149325185Y-77378822D01*
X149341809Y-77358190D01*
X149495165Y-77204834D01*
X149556483Y-77171353D01*
X149626174Y-77176337D01*
X149649881Y-77188204D01*
X149689948Y-77213954D01*
X149828036Y-77254499D01*
X149828038Y-77254500D01*
X149828039Y-77254500D01*
X149971962Y-77254500D01*
X149971962Y-77254499D01*
X150110053Y-77213953D01*
X150231128Y-77136143D01*
X150231134Y-77136135D01*
X150237828Y-77130337D01*
X150240247Y-77133129D01*
X150284715Y-77104855D01*
X150319075Y-77100000D01*
X152248638Y-77100000D01*
X152315677Y-77119685D01*
G37*
G04 #@! TD.AperFunction*
G04 #@! TD*
G04 #@! TA.AperFunction,Conductor*
G04 #@! TO.N,SW1_1*
G36*
X149480840Y-70921663D02*
G01*
X149525195Y-70950166D01*
X149565489Y-70990460D01*
X149634012Y-71030022D01*
X149710438Y-71050500D01*
X149710440Y-71050500D01*
X153076000Y-71050500D01*
X153143039Y-71070185D01*
X153188794Y-71122989D01*
X153200000Y-71174500D01*
X153200000Y-72500000D01*
X152900000Y-72800000D01*
X149551362Y-72800000D01*
X149484323Y-72780315D01*
X149463681Y-72763681D01*
X149341819Y-72641819D01*
X149308334Y-72580496D01*
X149305500Y-72554138D01*
X149305500Y-71045862D01*
X149325185Y-70978823D01*
X149341808Y-70958191D01*
X149349831Y-70950168D01*
X149411148Y-70916682D01*
X149480840Y-70921663D01*
G37*
G04 #@! TD.AperFunction*
G04 #@! TD*
G04 #@! TA.AperFunction,Conductor*
G04 #@! TO.N,SW1_1*
G36*
X153143039Y-71070185D02*
G01*
X153188794Y-71122989D01*
X153200000Y-71174500D01*
X153200000Y-74448638D01*
X153180315Y-74515677D01*
X153163681Y-74536319D01*
X152936319Y-74763681D01*
X152874996Y-74797166D01*
X152848638Y-74800000D01*
X152051362Y-74800000D01*
X151984323Y-74780315D01*
X151963681Y-74763681D01*
X151536319Y-74336319D01*
X151502834Y-74274996D01*
X151500000Y-74248638D01*
X151500000Y-72800000D01*
X151500000Y-71100000D01*
X151549500Y-71050500D01*
X153076000Y-71050500D01*
X153143039Y-71070185D01*
G37*
G04 #@! TD.AperFunction*
G04 #@! TD*
G04 #@! TA.AperFunction,Conductor*
G04 #@! TO.N,IIN_CSN_0*
G36*
X141215677Y-57669685D02*
G01*
X141236319Y-57686319D01*
X141463681Y-57913681D01*
X141497166Y-57975004D01*
X141500000Y-58001362D01*
X141500000Y-60048638D01*
X141480315Y-60115677D01*
X141463681Y-60136319D01*
X141336319Y-60263681D01*
X141274996Y-60297166D01*
X141248638Y-60300000D01*
X137301362Y-60300000D01*
X137234323Y-60280315D01*
X137213681Y-60263681D01*
X137036319Y-60086319D01*
X137002834Y-60024996D01*
X137000000Y-59998638D01*
X137000000Y-58101362D01*
X137019685Y-58034323D01*
X137036319Y-58013681D01*
X137363681Y-57686319D01*
X137425004Y-57652834D01*
X137451362Y-57650000D01*
X141148638Y-57650000D01*
X141215677Y-57669685D01*
G37*
G04 #@! TD.AperFunction*
G04 #@! TD*
G04 #@! TA.AperFunction,Conductor*
G04 #@! TO.N,SW1_0*
G36*
X141315677Y-53619685D02*
G01*
X141336319Y-53636319D01*
X141513681Y-53813681D01*
X141547166Y-53875004D01*
X141550000Y-53901362D01*
X141550000Y-56948638D01*
X141530315Y-57015677D01*
X141513681Y-57036319D01*
X141286319Y-57263681D01*
X141224996Y-57297166D01*
X141198638Y-57300000D01*
X138751362Y-57300000D01*
X138684323Y-57280315D01*
X138663681Y-57263681D01*
X138486319Y-57086319D01*
X138452834Y-57024996D01*
X138450000Y-56998638D01*
X138450000Y-53999745D01*
X138469685Y-53932706D01*
X138494617Y-53904486D01*
X138529996Y-53875004D01*
X138825511Y-53628741D01*
X138889614Y-53600945D01*
X138904894Y-53600000D01*
X141248638Y-53600000D01*
X141315677Y-53619685D01*
G37*
G04 #@! TD.AperFunction*
G04 #@! TD*
G04 #@! TA.AperFunction,Conductor*
G04 #@! TO.N,XRES*
G36*
X126233174Y-79289439D02*
G01*
X126396804Y-79356629D01*
X126496184Y-79397436D01*
X126502536Y-79403748D01*
X126502563Y-79403815D01*
X126610559Y-79666824D01*
X126610532Y-79675779D01*
X126604670Y-79681877D01*
X126153867Y-79891523D01*
X126144920Y-79891904D01*
X126140660Y-79889187D01*
X126010812Y-79759339D01*
X126007385Y-79751066D01*
X126008474Y-79746136D01*
X126218124Y-79295327D01*
X126224718Y-79289273D01*
X126233174Y-79289439D01*
G37*
G04 #@! TD.AperFunction*
G04 #@! TD*
G04 #@! TA.AperFunction,Conductor*
G04 #@! TO.N,TEMP_FB1*
G36*
X127092149Y-64103876D02*
G01*
X127096388Y-64111765D01*
X127096447Y-64112937D01*
X127096447Y-64295955D01*
X127093950Y-64303180D01*
X126820260Y-64651779D01*
X126812455Y-64656170D01*
X126803832Y-64653757D01*
X126802803Y-64652847D01*
X126602462Y-64453446D01*
X126599016Y-64445181D01*
X126599016Y-64445114D01*
X126599489Y-64303180D01*
X126599964Y-64160542D01*
X126603418Y-64152283D01*
X126610491Y-64148943D01*
X127083576Y-64101296D01*
X127092149Y-64103876D01*
G37*
G04 #@! TD.AperFunction*
G04 #@! TD*
G04 #@! TA.AperFunction,Conductor*
G04 #@! TO.N,TEMP_FB1*
G36*
X142583641Y-63927050D02*
G01*
X142589503Y-63933148D01*
X142699115Y-64195489D01*
X142699142Y-64204444D01*
X142699115Y-64204511D01*
X142589503Y-64466851D01*
X142583151Y-64473163D01*
X142574694Y-64473329D01*
X142440947Y-64424493D01*
X142107687Y-64302806D01*
X142101091Y-64296750D01*
X142100000Y-64291816D01*
X142100000Y-64108183D01*
X142103427Y-64099910D01*
X142107687Y-64097193D01*
X142574697Y-63926669D01*
X142583641Y-63927050D01*
G37*
G04 #@! TD.AperFunction*
G04 #@! TD*
G04 #@! TA.AperFunction,Conductor*
G04 #@! TO.N,VDD*
G36*
X124471251Y-80022206D02*
G01*
X124473069Y-80023691D01*
X124672343Y-80222965D01*
X124675770Y-80231238D01*
X124672343Y-80239511D01*
X124672205Y-80239647D01*
X124295376Y-80604157D01*
X124287047Y-80607446D01*
X124278995Y-80604049D01*
X124075970Y-80402373D01*
X124073393Y-80398516D01*
X124008159Y-80239647D01*
X123965567Y-80135918D01*
X123965594Y-80126965D01*
X123971946Y-80120653D01*
X123974051Y-80120012D01*
X124462461Y-80020500D01*
X124471251Y-80022206D01*
G37*
G04 #@! TD.AperFunction*
G04 #@! TD*
G04 #@! TA.AperFunction,Conductor*
G04 #@! TO.N,VDD*
G36*
X126557243Y-77764057D02*
G01*
X126740011Y-77839105D01*
X126821184Y-77872436D01*
X126827536Y-77878748D01*
X126827563Y-77878815D01*
X126935941Y-78142754D01*
X126935914Y-78151709D01*
X126931023Y-78157298D01*
X126514596Y-78400773D01*
X126505725Y-78401991D01*
X126500418Y-78398946D01*
X126301053Y-78199581D01*
X126297626Y-78191308D01*
X126299224Y-78185407D01*
X126542702Y-77768974D01*
X126549835Y-77763563D01*
X126557243Y-77764057D01*
G37*
G04 #@! TD.AperFunction*
G04 #@! TD*
G04 #@! TA.AperFunction,Conductor*
G04 #@! TO.N,VDD*
G36*
X116610733Y-80451126D02*
G01*
X116617239Y-80457278D01*
X116618259Y-80462056D01*
X116618259Y-80744051D01*
X116614832Y-80752324D01*
X116608440Y-80755599D01*
X116042535Y-80847794D01*
X116033819Y-80845742D01*
X116029106Y-80838127D01*
X116028954Y-80836285D01*
X116028674Y-80752324D01*
X116028007Y-80552362D01*
X116028909Y-80547822D01*
X116139432Y-80283300D01*
X116145784Y-80276989D01*
X116154401Y-80276882D01*
X116610733Y-80451126D01*
G37*
G04 #@! TD.AperFunction*
G04 #@! TD*
G04 #@! TA.AperFunction,Conductor*
G04 #@! TO.N,VDD*
G36*
X123870591Y-80195555D02*
G01*
X124072537Y-80396553D01*
X124075983Y-80404818D01*
X124075983Y-80404885D01*
X124075035Y-80689492D01*
X124071581Y-80697754D01*
X124064549Y-80701090D01*
X123570348Y-80752652D01*
X123561764Y-80750102D01*
X123557497Y-80742229D01*
X123557434Y-80741015D01*
X123557434Y-80459323D01*
X123560861Y-80451050D01*
X123561439Y-80450509D01*
X123854652Y-80195026D01*
X123863140Y-80192176D01*
X123870591Y-80195555D01*
G37*
G04 #@! TD.AperFunction*
G04 #@! TD*
G04 #@! TA.AperFunction,Conductor*
G04 #@! TO.N,IIN_CSP_0*
G36*
X122342313Y-64647193D02*
G01*
X122348909Y-64653249D01*
X122350000Y-64658183D01*
X122350000Y-64841816D01*
X122346573Y-64850089D01*
X122342313Y-64852806D01*
X121875305Y-65023330D01*
X121866358Y-65022949D01*
X121860496Y-65016851D01*
X121750883Y-64754509D01*
X121750857Y-64745556D01*
X121750862Y-64745542D01*
X121860496Y-64483147D01*
X121866848Y-64476836D01*
X121875302Y-64476669D01*
X122342313Y-64647193D01*
G37*
G04 #@! TD.AperFunction*
G04 #@! TD*
G04 #@! TA.AperFunction,Conductor*
G04 #@! TO.N,IIN_CSP_0*
G36*
X141984225Y-76426633D02*
G01*
X141989116Y-76432222D01*
X142099115Y-76695489D01*
X142099142Y-76704444D01*
X142099115Y-76704511D01*
X141989116Y-76967777D01*
X141982764Y-76974089D01*
X141975354Y-76974584D01*
X141508734Y-76852289D01*
X141501600Y-76846876D01*
X141500000Y-76840971D01*
X141500000Y-76559028D01*
X141503427Y-76550755D01*
X141508731Y-76547711D01*
X141975354Y-76425415D01*
X141984225Y-76426633D01*
G37*
G04 #@! TD.AperFunction*
G04 #@! TD*
G04 #@! TA.AperFunction,Conductor*
G04 #@! TO.N,IIN_CSP_0*
G36*
X132583913Y-59051836D02*
G01*
X132589321Y-59057711D01*
X132699115Y-59320489D01*
X132699142Y-59329444D01*
X132699115Y-59329511D01*
X132589717Y-59591339D01*
X132583365Y-59597651D01*
X132574410Y-59597624D01*
X132574400Y-59597619D01*
X132574381Y-59597611D01*
X132112133Y-59403014D01*
X132105838Y-59396646D01*
X132104973Y-59392231D01*
X132104973Y-59208565D01*
X132108400Y-59200292D01*
X132113137Y-59197413D01*
X132574991Y-59051069D01*
X132583913Y-59051836D01*
G37*
G04 #@! TD.AperFunction*
G04 #@! TD*
G04 #@! TA.AperFunction,Conductor*
G04 #@! TO.N,IIN_CSP_0*
G36*
X132549529Y-72889449D02*
G01*
X132556662Y-72894861D01*
X132558262Y-72900766D01*
X132558262Y-73182709D01*
X132554835Y-73190982D01*
X132549528Y-73194027D01*
X132082907Y-73316322D01*
X132074036Y-73315104D01*
X132069145Y-73309515D01*
X132058164Y-73283235D01*
X131959145Y-73046247D01*
X131959119Y-73037294D01*
X131959124Y-73037280D01*
X132069145Y-72773959D01*
X132075497Y-72767648D01*
X132082907Y-72767153D01*
X132549529Y-72889449D01*
G37*
G04 #@! TD.AperFunction*
G04 #@! TD*
G04 #@! TA.AperFunction,Conductor*
G04 #@! TO.N,IIN_CSN_0*
G36*
X133695898Y-58557780D02*
G01*
X133700001Y-58565740D01*
X133700042Y-58566674D01*
X133700983Y-58849114D01*
X133697584Y-58857399D01*
X133697537Y-58857446D01*
X133495206Y-59058828D01*
X133486924Y-59062235D01*
X133479725Y-59059736D01*
X133153498Y-58803513D01*
X133149109Y-58795708D01*
X133149025Y-58794312D01*
X133149025Y-58610763D01*
X133152452Y-58602490D01*
X133159750Y-58599104D01*
X133687370Y-58555054D01*
X133695898Y-58557780D01*
G37*
G04 #@! TD.AperFunction*
G04 #@! TD*
G04 #@! TA.AperFunction,Conductor*
G04 #@! TO.N,IIN_CSN_0*
G36*
X121068691Y-64407022D02*
G01*
X121070868Y-64408735D01*
X121199572Y-64537439D01*
X121202592Y-64542653D01*
X121299477Y-64900275D01*
X121298333Y-64909156D01*
X121292675Y-64914138D01*
X121028796Y-65023834D01*
X121019841Y-65023845D01*
X121019811Y-65023832D01*
X120932762Y-64987461D01*
X120760415Y-64915449D01*
X120754103Y-64909097D01*
X120754130Y-64900142D01*
X120754940Y-64898557D01*
X121052611Y-64410910D01*
X121059844Y-64405636D01*
X121068691Y-64407022D01*
G37*
G04 #@! TD.AperFunction*
G04 #@! TD*
G04 #@! TA.AperFunction,Conductor*
G04 #@! TO.N,IOUT_CSP_0*
G36*
X119081634Y-69368113D02*
G01*
X119087708Y-69373924D01*
X119298906Y-69822335D01*
X119299331Y-69831279D01*
X119296594Y-69835593D01*
X119166741Y-69965446D01*
X119158468Y-69968873D01*
X119153594Y-69967809D01*
X119148437Y-69965446D01*
X118865063Y-69835593D01*
X118701218Y-69760513D01*
X118695124Y-69753952D01*
X118695268Y-69745434D01*
X118803241Y-69482481D01*
X118809551Y-69476131D01*
X119072681Y-69368086D01*
X119081634Y-69368113D01*
G37*
G04 #@! TD.AperFunction*
G04 #@! TD*
G04 #@! TA.AperFunction,Conductor*
G04 #@! TO.N,IOUT_CSP_0*
G36*
X116153864Y-72708475D02*
G01*
X116604671Y-72918123D01*
X116610726Y-72924718D01*
X116610559Y-72933175D01*
X116502563Y-73196184D01*
X116496251Y-73202536D01*
X116496184Y-73202563D01*
X116233175Y-73310559D01*
X116224220Y-73310532D01*
X116218123Y-73304671D01*
X116008475Y-72853865D01*
X116008095Y-72844920D01*
X116010810Y-72840662D01*
X116140661Y-72710811D01*
X116148933Y-72707385D01*
X116153864Y-72708475D01*
G37*
G04 #@! TD.AperFunction*
G04 #@! TD*
G04 #@! TA.AperFunction,Conductor*
G04 #@! TO.N,IOUT_CSP_0*
G36*
X152266851Y-57810496D02*
G01*
X152273163Y-57816848D01*
X152273330Y-57825305D01*
X152102807Y-58292313D01*
X152096751Y-58298909D01*
X152091817Y-58300000D01*
X151908183Y-58300000D01*
X151899910Y-58296573D01*
X151897193Y-58292313D01*
X151726669Y-57825302D01*
X151727050Y-57816358D01*
X151733147Y-57810496D01*
X151995490Y-57700883D01*
X152004444Y-57700857D01*
X152266851Y-57810496D01*
G37*
G04 #@! TD.AperFunction*
G04 #@! TD*
G04 #@! TA.AperFunction,Conductor*
G04 #@! TO.N,IOUT_CSP_0*
G36*
X119398118Y-69375860D02*
G01*
X119404714Y-69381916D01*
X119405805Y-69386850D01*
X119405805Y-69570483D01*
X119402378Y-69578756D01*
X119398118Y-69581473D01*
X118931110Y-69751997D01*
X118922163Y-69751616D01*
X118916301Y-69745518D01*
X118806688Y-69483176D01*
X118806662Y-69474223D01*
X118806667Y-69474209D01*
X118916301Y-69211814D01*
X118922653Y-69205503D01*
X118931107Y-69205336D01*
X119398118Y-69375860D01*
G37*
G04 #@! TD.AperFunction*
G04 #@! TD*
G04 #@! TA.AperFunction,Conductor*
G04 #@! TO.N,IOUT_CSN_0*
G36*
X135500107Y-68099528D02*
G01*
X135501192Y-68100049D01*
X135953191Y-68346674D01*
X135958811Y-68353644D01*
X135959286Y-68356944D01*
X135959286Y-68540493D01*
X135955859Y-68548766D01*
X135949981Y-68551945D01*
X135499269Y-68646185D01*
X135490469Y-68644524D01*
X135486078Y-68639244D01*
X135375883Y-68375509D01*
X135375857Y-68366556D01*
X135375862Y-68366542D01*
X135484801Y-68105811D01*
X135491152Y-68099501D01*
X135500107Y-68099528D01*
G37*
G04 #@! TD.AperFunction*
G04 #@! TD*
G04 #@! TA.AperFunction,Conductor*
G04 #@! TO.N,SW1_0*
G36*
X119902860Y-66426068D02*
G01*
X120206474Y-66617581D01*
X120211643Y-66624893D01*
X120211047Y-66631941D01*
X120101860Y-66896493D01*
X120095536Y-66902833D01*
X120095489Y-66902852D01*
X119835866Y-67009454D01*
X119826911Y-67009427D01*
X119820599Y-67003075D01*
X119819967Y-67001014D01*
X119702929Y-66438347D01*
X119704599Y-66429549D01*
X119712001Y-66424509D01*
X119714384Y-66424264D01*
X119896618Y-66424264D01*
X119902860Y-66426068D01*
G37*
G04 #@! TD.AperFunction*
G04 #@! TD*
G04 #@! TA.AperFunction,Conductor*
G04 #@! TO.N,Q_COMP*
G36*
X127948702Y-76247120D02*
G01*
X127949511Y-76248016D01*
X127990677Y-76298697D01*
X127992238Y-76301214D01*
X128013718Y-76348248D01*
X128099305Y-76447021D01*
X128122519Y-76461939D01*
X128125271Y-76464402D01*
X128211389Y-76570426D01*
X128213945Y-76579009D01*
X128210600Y-76586057D01*
X128009340Y-76788266D01*
X128001075Y-76791712D01*
X128001008Y-76791712D01*
X127718441Y-76790770D01*
X127710179Y-76787316D01*
X127706780Y-76779031D01*
X127706810Y-76778229D01*
X127745205Y-76254537D01*
X127749228Y-76246537D01*
X127756874Y-76243693D01*
X127940429Y-76243693D01*
X127948702Y-76247120D01*
G37*
G04 #@! TD.AperFunction*
G04 #@! TD*
G04 #@! TA.AperFunction,Conductor*
G04 #@! TO.N,Q_COMP*
G36*
X129233174Y-72989439D02*
G01*
X129396804Y-73056629D01*
X129496184Y-73097436D01*
X129502536Y-73103748D01*
X129502563Y-73103815D01*
X129610559Y-73366824D01*
X129610532Y-73375779D01*
X129604670Y-73381877D01*
X129153867Y-73591523D01*
X129144920Y-73591904D01*
X129140660Y-73589187D01*
X129010812Y-73459339D01*
X129007385Y-73451066D01*
X129008474Y-73446136D01*
X129218124Y-72995327D01*
X129224718Y-72989273D01*
X129233174Y-72989439D01*
G37*
G04 #@! TD.AperFunction*
G04 #@! TD*
G04 #@! TA.AperFunction,Conductor*
G04 #@! TO.N,Q_COMP*
G36*
X135300090Y-83678427D02*
G01*
X135302807Y-83682687D01*
X135473330Y-84149694D01*
X135472949Y-84158641D01*
X135466851Y-84164503D01*
X135204511Y-84274115D01*
X135195556Y-84274142D01*
X135195489Y-84274115D01*
X134933148Y-84164503D01*
X134926836Y-84158151D01*
X134926669Y-84149697D01*
X135097193Y-83682686D01*
X135103249Y-83676091D01*
X135108183Y-83675000D01*
X135291817Y-83675000D01*
X135300090Y-83678427D01*
G37*
G04 #@! TD.AperFunction*
G04 #@! TD*
G04 #@! TA.AperFunction,Conductor*
G04 #@! TO.N,Q_COMP*
G36*
X128281673Y-76680196D02*
G01*
X128287771Y-76686058D01*
X128497417Y-77136861D01*
X128497798Y-77145808D01*
X128495081Y-77150068D01*
X128365233Y-77279916D01*
X128356960Y-77283343D01*
X128352026Y-77282252D01*
X128058630Y-77145808D01*
X127901222Y-77072605D01*
X127895167Y-77066010D01*
X127895333Y-77057554D01*
X128003330Y-76794543D01*
X128009640Y-76788193D01*
X128272719Y-76680169D01*
X128281673Y-76680196D01*
G37*
G04 #@! TD.AperFunction*
G04 #@! TD*
G04 #@! TA.AperFunction,Conductor*
G04 #@! TO.N,ASK_DEMOD*
G36*
X128624913Y-85678993D02*
G01*
X128626389Y-85679737D01*
X129074396Y-85946597D01*
X129079751Y-85953775D01*
X129080109Y-85956649D01*
X129080109Y-86140144D01*
X129076682Y-86148417D01*
X129070397Y-86151674D01*
X128513641Y-86247648D01*
X128504905Y-86245676D01*
X128500123Y-86238106D01*
X128499953Y-86236167D01*
X128499007Y-85952362D01*
X128499909Y-85947822D01*
X128609606Y-85685277D01*
X128615958Y-85678966D01*
X128624913Y-85678993D01*
G37*
G04 #@! TD.AperFunction*
G04 #@! TD*
G04 #@! TA.AperFunction,Conductor*
G04 #@! TO.N,ASK_DEMOD*
G36*
X132366851Y-74610496D02*
G01*
X132373163Y-74616848D01*
X132373330Y-74625305D01*
X132202807Y-75092313D01*
X132196751Y-75098909D01*
X132191817Y-75100000D01*
X132008183Y-75100000D01*
X131999910Y-75096573D01*
X131997193Y-75092313D01*
X131826669Y-74625302D01*
X131827050Y-74616358D01*
X131833147Y-74610496D01*
X132095490Y-74500883D01*
X132104444Y-74500857D01*
X132366851Y-74610496D01*
G37*
G04 #@! TD.AperFunction*
G04 #@! TD*
G04 #@! TA.AperFunction,Conductor*
G04 #@! TO.N,OPTIGA_I2C_SCL*
G36*
X133983641Y-79427050D02*
G01*
X133989503Y-79433148D01*
X134099115Y-79695489D01*
X134099142Y-79704444D01*
X134099115Y-79704511D01*
X133989503Y-79966851D01*
X133983151Y-79973163D01*
X133974694Y-79973329D01*
X133840947Y-79924493D01*
X133507687Y-79802806D01*
X133501091Y-79796750D01*
X133500000Y-79791816D01*
X133500000Y-79608183D01*
X133503427Y-79599910D01*
X133507687Y-79597193D01*
X133974697Y-79426669D01*
X133983641Y-79427050D01*
G37*
G04 #@! TD.AperFunction*
G04 #@! TD*
G04 #@! TA.AperFunction,Conductor*
G04 #@! TO.N,OPTIGA_I2C_SCL*
G36*
X127395311Y-76843898D02*
G01*
X127401623Y-76850250D01*
X127402050Y-76851479D01*
X127543888Y-77347739D01*
X127542866Y-77356635D01*
X127540911Y-77359227D01*
X127411137Y-77489001D01*
X127402864Y-77492428D01*
X127396380Y-77490467D01*
X127014467Y-77236185D01*
X127009480Y-77228747D01*
X127010127Y-77222005D01*
X127118728Y-76957522D01*
X127125038Y-76951172D01*
X127386357Y-76843871D01*
X127395311Y-76843898D01*
G37*
G04 #@! TD.AperFunction*
G04 #@! TD*
G04 #@! TA.AperFunction,Conductor*
G04 #@! TO.N,HPI_I2C_SCL*
G36*
X125841436Y-65397701D02*
G01*
X126005066Y-65464891D01*
X126104446Y-65505698D01*
X126110798Y-65512010D01*
X126110825Y-65512077D01*
X126218821Y-65775086D01*
X126218794Y-65784041D01*
X126212932Y-65790139D01*
X125762129Y-65999785D01*
X125753182Y-66000166D01*
X125748922Y-65997449D01*
X125619074Y-65867601D01*
X125615647Y-65859328D01*
X125616736Y-65854398D01*
X125826386Y-65403589D01*
X125832980Y-65397535D01*
X125841436Y-65397701D01*
G37*
G04 #@! TD.AperFunction*
G04 #@! TD*
G04 #@! TA.AperFunction,Conductor*
G04 #@! TO.N,HPI_I2C_SDA*
G36*
X126733174Y-65289439D02*
G01*
X126896804Y-65356629D01*
X126996184Y-65397436D01*
X127002536Y-65403748D01*
X127002563Y-65403815D01*
X127110559Y-65666824D01*
X127110532Y-65675779D01*
X127104670Y-65681877D01*
X126653867Y-65891523D01*
X126644920Y-65891904D01*
X126640660Y-65889187D01*
X126510812Y-65759339D01*
X126507385Y-65751066D01*
X126508474Y-65746136D01*
X126718124Y-65295327D01*
X126724718Y-65289273D01*
X126733174Y-65289439D01*
G37*
G04 #@! TD.AperFunction*
G04 #@! TD*
G04 #@! TA.AperFunction,Conductor*
G04 #@! TO.N,Net-(U4-SW2_0)*
G36*
X114942313Y-68597193D02*
G01*
X114948909Y-68603249D01*
X114950000Y-68608183D01*
X114950000Y-68791816D01*
X114946573Y-68800089D01*
X114942313Y-68802806D01*
X114475305Y-68973330D01*
X114466358Y-68972949D01*
X114460496Y-68966851D01*
X114350883Y-68704509D01*
X114350857Y-68695556D01*
X114350862Y-68695542D01*
X114460496Y-68433147D01*
X114466848Y-68426836D01*
X114475302Y-68426669D01*
X114942313Y-68597193D01*
G37*
G04 #@! TD.AperFunction*
G04 #@! TD*
G04 #@! TA.AperFunction,Conductor*
G04 #@! TO.N,Net-(U4-SW2_0)*
G36*
X118802379Y-70098050D02*
G01*
X118808241Y-70104148D01*
X118917853Y-70366489D01*
X118917880Y-70375444D01*
X118917853Y-70375511D01*
X118808241Y-70637851D01*
X118801889Y-70644163D01*
X118793432Y-70644329D01*
X118659685Y-70595493D01*
X118326425Y-70473806D01*
X118319829Y-70467750D01*
X118318738Y-70462816D01*
X118318738Y-70279183D01*
X118322165Y-70270910D01*
X118326425Y-70268193D01*
X118793435Y-70097669D01*
X118802379Y-70098050D01*
G37*
G04 #@! TD.AperFunction*
G04 #@! TD*
G04 #@! TA.AperFunction,Conductor*
G04 #@! TO.N,OPTIGA_I2C_INT*
G36*
X128992313Y-75997193D02*
G01*
X128998909Y-76003249D01*
X129000000Y-76008183D01*
X129000000Y-76191816D01*
X128996573Y-76200089D01*
X128992313Y-76202806D01*
X128525305Y-76373330D01*
X128516358Y-76372949D01*
X128510496Y-76366851D01*
X128400883Y-76104509D01*
X128400857Y-76095556D01*
X128400862Y-76095542D01*
X128510496Y-75833147D01*
X128516848Y-75826836D01*
X128525302Y-75826669D01*
X128992313Y-75997193D01*
G37*
G04 #@! TD.AperFunction*
G04 #@! TD*
G04 #@! TA.AperFunction,Conductor*
G04 #@! TO.N,OPTIGA_I2C_INT*
G36*
X132953864Y-77508475D02*
G01*
X133404671Y-77718123D01*
X133410726Y-77724718D01*
X133410559Y-77733175D01*
X133302563Y-77996184D01*
X133296251Y-78002536D01*
X133296184Y-78002563D01*
X133033175Y-78110559D01*
X133024220Y-78110532D01*
X133018123Y-78104671D01*
X132808475Y-77653865D01*
X132808095Y-77644920D01*
X132810810Y-77640662D01*
X132940661Y-77510811D01*
X132948933Y-77507385D01*
X132953864Y-77508475D01*
G37*
G04 #@! TD.AperFunction*
G04 #@! TD*
G04 #@! TA.AperFunction,Conductor*
G04 #@! TO.N,HG2_1*
G36*
X135763323Y-69326920D02*
G01*
X136315669Y-69406554D01*
X136323366Y-69411125D01*
X136325697Y-69418133D01*
X136325697Y-69601587D01*
X136322270Y-69609860D01*
X136320292Y-69611449D01*
X135876532Y-69894678D01*
X135867714Y-69896241D01*
X135860375Y-69891111D01*
X135859441Y-69889327D01*
X135749910Y-69627178D01*
X135749007Y-69622636D01*
X135749955Y-69338461D01*
X135753409Y-69330200D01*
X135761694Y-69326801D01*
X135763323Y-69326920D01*
G37*
G04 #@! TD.AperFunction*
G04 #@! TD*
G04 #@! TA.AperFunction,Conductor*
G04 #@! TO.N,HG2_1*
G36*
X149586512Y-76241622D02*
G01*
X150005645Y-76471805D01*
X150011246Y-76478790D01*
X150010835Y-76486503D01*
X149902563Y-76750184D01*
X149896251Y-76756536D01*
X149896184Y-76756563D01*
X149633964Y-76864235D01*
X149625009Y-76864208D01*
X149618697Y-76857856D01*
X149618590Y-76857587D01*
X149440072Y-76385886D01*
X149440349Y-76376936D01*
X149442739Y-76373475D01*
X149572610Y-76243604D01*
X149580882Y-76240178D01*
X149586512Y-76241622D01*
G37*
G04 #@! TD.AperFunction*
G04 #@! TD*
G04 #@! TA.AperFunction,Conductor*
G04 #@! TO.N,HG1_0*
G36*
X120662691Y-65951146D02*
G01*
X121192999Y-65999038D01*
X121200931Y-66003196D01*
X121203647Y-66010691D01*
X121203647Y-66194231D01*
X121200220Y-66202504D01*
X121199071Y-66203512D01*
X120870253Y-66455897D01*
X120861603Y-66458216D01*
X120854875Y-66454909D01*
X120652462Y-66253446D01*
X120649016Y-66245181D01*
X120649016Y-66245114D01*
X120649158Y-66202504D01*
X120649957Y-65962759D01*
X120653411Y-65954499D01*
X120661696Y-65951100D01*
X120662691Y-65951146D01*
G37*
G04 #@! TD.AperFunction*
G04 #@! TD*
G04 #@! TA.AperFunction,Conductor*
G04 #@! TO.N,HG1_0*
G36*
X137383174Y-56589439D02*
G01*
X137546804Y-56656629D01*
X137646184Y-56697436D01*
X137652536Y-56703748D01*
X137652563Y-56703815D01*
X137760559Y-56966824D01*
X137760532Y-56975779D01*
X137754670Y-56981877D01*
X137303867Y-57191523D01*
X137294920Y-57191904D01*
X137290660Y-57189187D01*
X137160812Y-57059339D01*
X137157385Y-57051066D01*
X137158474Y-57046136D01*
X137368124Y-56595327D01*
X137374718Y-56589273D01*
X137383174Y-56589439D01*
G37*
G04 #@! TD.AperFunction*
G04 #@! TD*
G04 #@! TA.AperFunction,Conductor*
G04 #@! TO.N,LG1_0*
G36*
X137791851Y-53210496D02*
G01*
X137798163Y-53216848D01*
X137798330Y-53225305D01*
X137627807Y-53692313D01*
X137621751Y-53698909D01*
X137616817Y-53700000D01*
X137433183Y-53700000D01*
X137424910Y-53696573D01*
X137422193Y-53692313D01*
X137251669Y-53225302D01*
X137252050Y-53216358D01*
X137258147Y-53210496D01*
X137520490Y-53100883D01*
X137529444Y-53100857D01*
X137791851Y-53210496D01*
G37*
G04 #@! TD.AperFunction*
G04 #@! TD*
G04 #@! TA.AperFunction,Conductor*
G04 #@! TO.N,LG1_0*
G36*
X120353588Y-60896435D02*
G01*
X120483436Y-61026283D01*
X120486863Y-61034556D01*
X120485772Y-61039490D01*
X120276126Y-61490293D01*
X120269530Y-61496349D01*
X120261073Y-61496182D01*
X119998064Y-61388186D01*
X119991712Y-61381874D01*
X119991685Y-61381807D01*
X119883689Y-61118798D01*
X119883716Y-61109843D01*
X119889575Y-61103747D01*
X120340383Y-60894098D01*
X120349328Y-60893718D01*
X120353588Y-60896435D01*
G37*
G04 #@! TD.AperFunction*
G04 #@! TD*
G04 #@! TA.AperFunction,Conductor*
G04 #@! TO.N,LG2_1*
G36*
X134226714Y-68289083D02*
G01*
X134232299Y-68293967D01*
X134458989Y-68681217D01*
X134470451Y-68700797D01*
X134471673Y-68709668D01*
X134468627Y-68714981D01*
X134338776Y-68844832D01*
X134330503Y-68848259D01*
X134326669Y-68847613D01*
X133846883Y-68681217D01*
X133840190Y-68675269D01*
X133839663Y-68666329D01*
X133839894Y-68665719D01*
X133947436Y-68403815D01*
X133953746Y-68397464D01*
X134217761Y-68289056D01*
X134226714Y-68289083D01*
G37*
G04 #@! TD.AperFunction*
G04 #@! TD*
G04 #@! TA.AperFunction,Conductor*
G04 #@! TO.N,LG2_1*
G36*
X154033641Y-76427050D02*
G01*
X154039503Y-76433148D01*
X154149115Y-76695489D01*
X154149142Y-76704444D01*
X154149115Y-76704511D01*
X154039503Y-76966851D01*
X154033151Y-76973163D01*
X154024694Y-76973329D01*
X153890947Y-76924493D01*
X153557687Y-76802806D01*
X153551091Y-76796750D01*
X153550000Y-76791816D01*
X153550000Y-76608183D01*
X153553427Y-76599910D01*
X153557687Y-76597193D01*
X154024697Y-76426669D01*
X154033641Y-76427050D01*
G37*
G04 #@! TD.AperFunction*
G04 #@! TD*
G04 #@! TA.AperFunction,Conductor*
G04 #@! TO.N,SW2_1*
G36*
X134425779Y-69397467D02*
G01*
X134431877Y-69403329D01*
X134641523Y-69854132D01*
X134641904Y-69863079D01*
X134639187Y-69867339D01*
X134509339Y-69997187D01*
X134501066Y-70000614D01*
X134496132Y-69999523D01*
X134202736Y-69863079D01*
X134045328Y-69789876D01*
X134039273Y-69783281D01*
X134039439Y-69774825D01*
X134147436Y-69511814D01*
X134153746Y-69505464D01*
X134416825Y-69397440D01*
X134425779Y-69397467D01*
G37*
G04 #@! TD.AperFunction*
G04 #@! TD*
G04 #@! TA.AperFunction,Conductor*
G04 #@! TO.N,SW2_1*
G36*
X150001000Y-80200000D02*
G01*
X150114805Y-80477164D01*
X149524264Y-80600000D01*
X149524264Y-80400000D01*
X149722836Y-80085195D01*
X150001000Y-80200000D01*
G37*
G04 #@! TD.AperFunction*
G04 #@! TD*
G04 #@! TA.AperFunction,Conductor*
G04 #@! TO.N,HG1_1*
G36*
X129850586Y-66127374D02*
G01*
X130312868Y-66321986D01*
X130319162Y-66328353D01*
X130320027Y-66332768D01*
X130320027Y-66516434D01*
X130316600Y-66524707D01*
X130311861Y-66527587D01*
X129850008Y-66673930D01*
X129841086Y-66673163D01*
X129835679Y-66667289D01*
X129725883Y-66404509D01*
X129725857Y-66395556D01*
X129725862Y-66395542D01*
X129835282Y-66133659D01*
X129841634Y-66127348D01*
X129850586Y-66127374D01*
G37*
G04 #@! TD.AperFunction*
G04 #@! TD*
G04 #@! TA.AperFunction,Conductor*
G04 #@! TO.N,HG1_1*
G36*
X149653864Y-69608475D02*
G01*
X150104671Y-69818123D01*
X150110726Y-69824718D01*
X150110559Y-69833175D01*
X150002563Y-70096184D01*
X149996251Y-70102536D01*
X149996184Y-70102563D01*
X149733175Y-70210559D01*
X149724220Y-70210532D01*
X149718123Y-70204671D01*
X149508475Y-69753865D01*
X149508095Y-69744920D01*
X149510810Y-69740662D01*
X149640661Y-69610811D01*
X149648933Y-69607385D01*
X149653864Y-69608475D01*
G37*
G04 #@! TD.AperFunction*
G04 #@! TD*
G04 #@! TA.AperFunction,Conductor*
G04 #@! TO.N,SW1_1*
G36*
X140292313Y-66897193D02*
G01*
X140298909Y-66903249D01*
X140300000Y-66908183D01*
X140300000Y-67091816D01*
X140296573Y-67100089D01*
X140292313Y-67102806D01*
X139825305Y-67273330D01*
X139816358Y-67272949D01*
X139810496Y-67266851D01*
X139700883Y-67004509D01*
X139700857Y-66995556D01*
X139700862Y-66995542D01*
X139810496Y-66733147D01*
X139816848Y-66726836D01*
X139825302Y-66726669D01*
X140292313Y-66897193D01*
G37*
G04 #@! TD.AperFunction*
G04 #@! TD*
G04 #@! TA.AperFunction,Conductor*
G04 #@! TO.N,SW1_1*
G36*
X151195272Y-69804181D02*
G01*
X151199899Y-69811848D01*
X151200031Y-69813572D01*
X151200695Y-70095820D01*
X151197288Y-70104102D01*
X151197241Y-70104149D01*
X150995113Y-70304934D01*
X150986828Y-70308333D01*
X150979756Y-70305924D01*
X150605797Y-70019729D01*
X150601311Y-70011981D01*
X150603618Y-70003328D01*
X150604628Y-70002174D01*
X150733894Y-69872908D01*
X150740412Y-69869615D01*
X151186581Y-69802032D01*
X151195272Y-69804181D01*
G37*
G04 #@! TD.AperFunction*
G04 #@! TD*
G04 #@! TA.AperFunction,Conductor*
G04 #@! TO.N,LG1_1*
G36*
X153833174Y-69989439D02*
G01*
X153996804Y-70056629D01*
X154096184Y-70097436D01*
X154102536Y-70103748D01*
X154102563Y-70103815D01*
X154210559Y-70366824D01*
X154210532Y-70375779D01*
X154204670Y-70381877D01*
X153753867Y-70591523D01*
X153744920Y-70591904D01*
X153740660Y-70589187D01*
X153610812Y-70459339D01*
X153607385Y-70451066D01*
X153608474Y-70446136D01*
X153818124Y-69995327D01*
X153824718Y-69989273D01*
X153833174Y-69989439D01*
G37*
G04 #@! TD.AperFunction*
G04 #@! TD*
G04 #@! TA.AperFunction,Conductor*
G04 #@! TO.N,LG1_1*
G36*
X129617220Y-67344369D02*
G01*
X129617466Y-67344476D01*
X130077417Y-67550899D01*
X130083561Y-67557413D01*
X130084326Y-67561573D01*
X130084326Y-67745234D01*
X130080899Y-67753507D01*
X130075914Y-67756463D01*
X129616590Y-67890959D01*
X129607687Y-67889995D01*
X129602506Y-67884241D01*
X129492621Y-67621247D01*
X129492595Y-67612294D01*
X129492600Y-67612280D01*
X129601913Y-67350653D01*
X129608265Y-67344342D01*
X129617220Y-67344369D01*
G37*
G04 #@! TD.AperFunction*
G04 #@! TD*
G04 #@! TA.AperFunction,Conductor*
G04 #@! TO.N,CTRL_1*
G36*
X133775779Y-75389467D02*
G01*
X133781877Y-75395329D01*
X133991523Y-75846132D01*
X133991904Y-75855079D01*
X133989187Y-75859339D01*
X133859339Y-75989187D01*
X133851066Y-75992614D01*
X133846132Y-75991523D01*
X133552736Y-75855079D01*
X133395328Y-75781876D01*
X133389273Y-75775281D01*
X133389439Y-75766825D01*
X133497436Y-75503814D01*
X133503746Y-75497464D01*
X133766825Y-75389440D01*
X133775779Y-75389467D01*
G37*
G04 #@! TD.AperFunction*
G04 #@! TD*
G04 #@! TA.AperFunction,Conductor*
G04 #@! TO.N,CTRL_1*
G36*
X141996612Y-77603427D02*
G01*
X142000039Y-77611661D01*
X142000983Y-77895114D01*
X141997584Y-77903399D01*
X141997537Y-77903446D01*
X141796194Y-78103844D01*
X141787912Y-78107251D01*
X141779649Y-78103805D01*
X141483135Y-77803417D01*
X141479762Y-77795198D01*
X141479762Y-77611700D01*
X141483189Y-77603427D01*
X141491462Y-77600000D01*
X141988339Y-77600000D01*
X141996612Y-77603427D01*
G37*
G04 #@! TD.AperFunction*
G04 #@! TD*
G04 #@! TA.AperFunction,Conductor*
G04 #@! TO.N,/CSNO_0*
G36*
X115988177Y-71476732D02*
G01*
X116395578Y-71530305D01*
X116398530Y-71531096D01*
X116445374Y-71550499D01*
X116445375Y-71550499D01*
X116445377Y-71550500D01*
X116445379Y-71550500D01*
X116533652Y-71550500D01*
X116541925Y-71553927D01*
X116545352Y-71562200D01*
X116545352Y-71743721D01*
X116541925Y-71751994D01*
X116540119Y-71753471D01*
X116101607Y-72044335D01*
X116092819Y-72046052D01*
X116085390Y-72041052D01*
X116084348Y-72039103D01*
X115974910Y-71777178D01*
X115974007Y-71772636D01*
X115974955Y-71488292D01*
X115978409Y-71480032D01*
X115986694Y-71476633D01*
X115988177Y-71476732D01*
G37*
G04 #@! TD.AperFunction*
G04 #@! TD*
G04 #@! TA.AperFunction,Conductor*
G04 #@! TO.N,/CSNO_0*
G36*
X148289682Y-64733696D02*
G01*
X148290124Y-64734634D01*
X148398827Y-64994793D01*
X148398854Y-65003748D01*
X148398835Y-65003795D01*
X148289445Y-65266939D01*
X148283105Y-65273263D01*
X148274752Y-65273483D01*
X147902504Y-65142303D01*
X147898120Y-65139541D01*
X147769809Y-65011230D01*
X147766382Y-65002957D01*
X147769809Y-64994684D01*
X147772633Y-64992603D01*
X148273880Y-64728790D01*
X148282796Y-64727971D01*
X148289682Y-64733696D01*
G37*
G04 #@! TD.AperFunction*
G04 #@! TD*
G04 #@! TA.AperFunction,Conductor*
G04 #@! TO.N,/CSPO_0*
G36*
X148289702Y-63233636D02*
G01*
X148289816Y-63233897D01*
X148368784Y-63422892D01*
X148391252Y-63476665D01*
X148398827Y-63494793D01*
X148398854Y-63503748D01*
X148398835Y-63503795D01*
X148289733Y-63766247D01*
X148283393Y-63772571D01*
X148274438Y-63772560D01*
X148274326Y-63772513D01*
X147887428Y-63606953D01*
X147883758Y-63604469D01*
X147755954Y-63476665D01*
X147752527Y-63468392D01*
X147755954Y-63460119D01*
X147759450Y-63457712D01*
X148274249Y-63227725D01*
X148283199Y-63227480D01*
X148289702Y-63233636D01*
G37*
G04 #@! TD.AperFunction*
G04 #@! TD*
G04 #@! TA.AperFunction,Conductor*
G04 #@! TO.N,/CSPO_0*
G36*
X116175779Y-70589467D02*
G01*
X116181877Y-70595329D01*
X116391523Y-71046132D01*
X116391904Y-71055079D01*
X116389187Y-71059339D01*
X116259339Y-71189187D01*
X116251066Y-71192614D01*
X116246132Y-71191523D01*
X115952736Y-71055079D01*
X115795328Y-70981876D01*
X115789273Y-70975281D01*
X115789439Y-70966825D01*
X115897436Y-70703814D01*
X115903746Y-70697464D01*
X116166825Y-70589440D01*
X116175779Y-70589467D01*
G37*
G04 #@! TD.AperFunction*
G04 #@! TD*
M02*
