G04 #@! TF.GenerationSoftware,KiCad,Pcbnew,8.0.8*
G04 #@! TF.CreationDate,2025-05-29T14:11:02+07:00*
G04 #@! TF.ProjectId,WLC_TX15W_C1_V1.1,574c435f-5458-4313-9557-5f43315f5631,rev?*
G04 #@! TF.SameCoordinates,Original*
G04 #@! TF.FileFunction,Legend,Bot*
G04 #@! TF.FilePolarity,Positive*
%FSLAX46Y46*%
G04 Gerber Fmt 4.6, Leading zero omitted, Abs format (unit mm)*
G04 Created by KiCad (PCBNEW 8.0.8) date 2025-05-29 14:11:02*
%MOMM*%
%LPD*%
G01*
G04 APERTURE LIST*
%ADD10C,0.010000*%
G04 APERTURE END LIST*
D10*
G04 #@! TO.C,G\u002A\u002A\u002A*
X117109451Y-58758709D02*
X117112875Y-58759593D01*
X117142430Y-58773184D01*
X117155566Y-58800983D01*
X117158551Y-58855327D01*
X117158112Y-58876725D01*
X117153202Y-58926918D01*
X117144599Y-58953573D01*
X117117660Y-58961682D01*
X117071330Y-58961714D01*
X117062565Y-58960780D01*
X117028547Y-58951733D01*
X117012772Y-58927470D01*
X117006161Y-58876060D01*
X117005334Y-58852055D01*
X117017664Y-58789662D01*
X117052690Y-58758182D01*
X117109451Y-58758709D01*
G36*
X117109451Y-58758709D02*
G01*
X117112875Y-58759593D01*
X117142430Y-58773184D01*
X117155566Y-58800983D01*
X117158551Y-58855327D01*
X117158112Y-58876725D01*
X117153202Y-58926918D01*
X117144599Y-58953573D01*
X117117660Y-58961682D01*
X117071330Y-58961714D01*
X117062565Y-58960780D01*
X117028547Y-58951733D01*
X117012772Y-58927470D01*
X117006161Y-58876060D01*
X117005334Y-58852055D01*
X117017664Y-58789662D01*
X117052690Y-58758182D01*
X117109451Y-58758709D01*
G37*
X120907651Y-58097133D02*
X120907331Y-58222439D01*
X120906094Y-58344077D01*
X120903972Y-58454967D01*
X120900998Y-58548029D01*
X120897203Y-58616181D01*
X120892622Y-58652345D01*
X120875091Y-58684470D01*
X120831069Y-58714779D01*
X120818196Y-58717500D01*
X120764734Y-58722673D01*
X120689201Y-58725444D01*
X120603591Y-58725260D01*
X120519468Y-58721382D01*
X120433026Y-58708084D01*
X120369499Y-58681692D01*
X120319852Y-58638015D01*
X120275048Y-58572861D01*
X120268291Y-58559613D01*
X120247699Y-58488298D01*
X120235784Y-58393739D01*
X120234791Y-58361199D01*
X120392436Y-58361199D01*
X120408789Y-58461883D01*
X120446321Y-58533447D01*
X120504389Y-58573635D01*
X120592351Y-58590890D01*
X120699897Y-58580974D01*
X120711368Y-58575614D01*
X120721433Y-58560593D01*
X120728031Y-58530550D01*
X120731868Y-58479472D01*
X120733652Y-58401347D01*
X120734090Y-58290163D01*
X120734090Y-58008288D01*
X120619023Y-58008288D01*
X120561704Y-58010212D01*
X120492516Y-58024437D01*
X120447373Y-58058084D01*
X120419223Y-58117669D01*
X120401012Y-58209708D01*
X120397902Y-58233651D01*
X120392436Y-58361199D01*
X120234791Y-58361199D01*
X120232548Y-58287732D01*
X120237993Y-58182077D01*
X120252121Y-58088570D01*
X120274936Y-58019010D01*
X120308431Y-57967246D01*
X120386465Y-57901260D01*
X120488667Y-57863774D01*
X120611974Y-57856269D01*
X120734090Y-57863602D01*
X120734090Y-57721394D01*
X120734195Y-57685320D01*
X120736235Y-57625787D01*
X120743112Y-57592284D01*
X120757706Y-57575702D01*
X120782892Y-57566938D01*
X120823150Y-57560317D01*
X120860909Y-57570538D01*
X120883620Y-57608296D01*
X120897069Y-57679282D01*
X120899114Y-57700836D01*
X120902786Y-57770010D01*
X120905411Y-57863838D01*
X120907022Y-57975239D01*
X120907193Y-58008288D01*
X120907651Y-58097133D01*
G36*
X120907651Y-58097133D02*
G01*
X120907331Y-58222439D01*
X120906094Y-58344077D01*
X120903972Y-58454967D01*
X120900998Y-58548029D01*
X120897203Y-58616181D01*
X120892622Y-58652345D01*
X120875091Y-58684470D01*
X120831069Y-58714779D01*
X120818196Y-58717500D01*
X120764734Y-58722673D01*
X120689201Y-58725444D01*
X120603591Y-58725260D01*
X120519468Y-58721382D01*
X120433026Y-58708084D01*
X120369499Y-58681692D01*
X120319852Y-58638015D01*
X120275048Y-58572861D01*
X120268291Y-58559613D01*
X120247699Y-58488298D01*
X120235784Y-58393739D01*
X120234791Y-58361199D01*
X120392436Y-58361199D01*
X120408789Y-58461883D01*
X120446321Y-58533447D01*
X120504389Y-58573635D01*
X120592351Y-58590890D01*
X120699897Y-58580974D01*
X120711368Y-58575614D01*
X120721433Y-58560593D01*
X120728031Y-58530550D01*
X120731868Y-58479472D01*
X120733652Y-58401347D01*
X120734090Y-58290163D01*
X120734090Y-58008288D01*
X120619023Y-58008288D01*
X120561704Y-58010212D01*
X120492516Y-58024437D01*
X120447373Y-58058084D01*
X120419223Y-58117669D01*
X120401012Y-58209708D01*
X120397902Y-58233651D01*
X120392436Y-58361199D01*
X120234791Y-58361199D01*
X120232548Y-58287732D01*
X120237993Y-58182077D01*
X120252121Y-58088570D01*
X120274936Y-58019010D01*
X120308431Y-57967246D01*
X120386465Y-57901260D01*
X120488667Y-57863774D01*
X120611974Y-57856269D01*
X120734090Y-57863602D01*
X120734090Y-57721394D01*
X120734195Y-57685320D01*
X120736235Y-57625787D01*
X120743112Y-57592284D01*
X120757706Y-57575702D01*
X120782892Y-57566938D01*
X120823150Y-57560317D01*
X120860909Y-57570538D01*
X120883620Y-57608296D01*
X120897069Y-57679282D01*
X120899114Y-57700836D01*
X120902786Y-57770010D01*
X120905411Y-57863838D01*
X120907022Y-57975239D01*
X120907193Y-58008288D01*
X120907651Y-58097133D01*
G37*
X120127653Y-58199353D02*
X120128397Y-58299719D01*
X120128350Y-58334190D01*
X120127146Y-58423539D01*
X120123233Y-58485512D01*
X120115186Y-58529047D01*
X120101575Y-58563080D01*
X120080973Y-58596547D01*
X120072821Y-58607772D01*
X120022517Y-58660470D01*
X119968627Y-58698330D01*
X119911767Y-58717590D01*
X119822712Y-58729537D01*
X119724646Y-58728888D01*
X119629336Y-58716576D01*
X119548551Y-58693534D01*
X119494057Y-58660695D01*
X119485510Y-58651010D01*
X119465244Y-58596767D01*
X119480472Y-58540264D01*
X119492567Y-58529058D01*
X119521106Y-58529139D01*
X119572980Y-58547920D01*
X119607964Y-58559669D01*
X119684735Y-58575400D01*
X119763884Y-58582394D01*
X119809135Y-58582467D01*
X119859592Y-58577122D01*
X119893600Y-58561046D01*
X119925077Y-58529688D01*
X119958510Y-58474356D01*
X119972090Y-58417506D01*
X119972090Y-58359980D01*
X119732743Y-58359681D01*
X119731261Y-58359679D01*
X119636646Y-58358172D01*
X119555155Y-58354364D01*
X119495436Y-58348824D01*
X119466140Y-58342123D01*
X119456350Y-58328428D01*
X119447518Y-58282033D01*
X119447342Y-58216043D01*
X119452729Y-58163708D01*
X119620397Y-58163708D01*
X119620397Y-58223211D01*
X119796243Y-58223211D01*
X119868788Y-58222803D01*
X119925167Y-58220297D01*
X119956206Y-58213987D01*
X119969361Y-58202175D01*
X119972090Y-58183164D01*
X119970571Y-58163495D01*
X119950266Y-58102071D01*
X119913690Y-58049483D01*
X119870295Y-58020808D01*
X119837078Y-58013790D01*
X119751963Y-58014487D01*
X119683174Y-58042166D01*
X119637167Y-58093137D01*
X119620397Y-58163708D01*
X119452729Y-58163708D01*
X119454982Y-58141825D01*
X119469598Y-58070747D01*
X119490352Y-58014176D01*
X119548918Y-57939575D01*
X119630087Y-57889007D01*
X119725411Y-57863058D01*
X119826696Y-57861824D01*
X119925746Y-57885399D01*
X120014369Y-57933876D01*
X120084369Y-58007349D01*
X120087665Y-58012302D01*
X120105867Y-58044525D01*
X120117714Y-58080567D01*
X120124534Y-58129239D01*
X120126933Y-58183164D01*
X120127653Y-58199353D01*
G36*
X120127653Y-58199353D02*
G01*
X120128397Y-58299719D01*
X120128350Y-58334190D01*
X120127146Y-58423539D01*
X120123233Y-58485512D01*
X120115186Y-58529047D01*
X120101575Y-58563080D01*
X120080973Y-58596547D01*
X120072821Y-58607772D01*
X120022517Y-58660470D01*
X119968627Y-58698330D01*
X119911767Y-58717590D01*
X119822712Y-58729537D01*
X119724646Y-58728888D01*
X119629336Y-58716576D01*
X119548551Y-58693534D01*
X119494057Y-58660695D01*
X119485510Y-58651010D01*
X119465244Y-58596767D01*
X119480472Y-58540264D01*
X119492567Y-58529058D01*
X119521106Y-58529139D01*
X119572980Y-58547920D01*
X119607964Y-58559669D01*
X119684735Y-58575400D01*
X119763884Y-58582394D01*
X119809135Y-58582467D01*
X119859592Y-58577122D01*
X119893600Y-58561046D01*
X119925077Y-58529688D01*
X119958510Y-58474356D01*
X119972090Y-58417506D01*
X119972090Y-58359980D01*
X119732743Y-58359681D01*
X119731261Y-58359679D01*
X119636646Y-58358172D01*
X119555155Y-58354364D01*
X119495436Y-58348824D01*
X119466140Y-58342123D01*
X119456350Y-58328428D01*
X119447518Y-58282033D01*
X119447342Y-58216043D01*
X119452729Y-58163708D01*
X119620397Y-58163708D01*
X119620397Y-58223211D01*
X119796243Y-58223211D01*
X119868788Y-58222803D01*
X119925167Y-58220297D01*
X119956206Y-58213987D01*
X119969361Y-58202175D01*
X119972090Y-58183164D01*
X119970571Y-58163495D01*
X119950266Y-58102071D01*
X119913690Y-58049483D01*
X119870295Y-58020808D01*
X119837078Y-58013790D01*
X119751963Y-58014487D01*
X119683174Y-58042166D01*
X119637167Y-58093137D01*
X119620397Y-58163708D01*
X119452729Y-58163708D01*
X119454982Y-58141825D01*
X119469598Y-58070747D01*
X119490352Y-58014176D01*
X119548918Y-57939575D01*
X119630087Y-57889007D01*
X119725411Y-57863058D01*
X119826696Y-57861824D01*
X119925746Y-57885399D01*
X120014369Y-57933876D01*
X120084369Y-58007349D01*
X120087665Y-58012302D01*
X120105867Y-58044525D01*
X120117714Y-58080567D01*
X120124534Y-58129239D01*
X120126933Y-58183164D01*
X120127653Y-58199353D01*
G37*
X119056357Y-57866137D02*
X119148715Y-57875755D01*
X119224743Y-57889364D01*
X119327320Y-57914493D01*
X119327320Y-58309827D01*
X119327291Y-58335468D01*
X119326370Y-58453797D01*
X119324310Y-58557418D01*
X119321318Y-58640239D01*
X119317602Y-58696167D01*
X119313369Y-58719112D01*
X119286429Y-58727220D01*
X119240099Y-58727253D01*
X119180782Y-58721442D01*
X119175455Y-58376797D01*
X119173627Y-58251146D01*
X119170893Y-58155914D01*
X119164751Y-58089499D01*
X119152640Y-58046727D01*
X119132000Y-58022421D01*
X119100271Y-58011407D01*
X119054895Y-58008510D01*
X118993310Y-58008555D01*
X118984879Y-58008561D01*
X118931101Y-58011641D01*
X118891274Y-58023648D01*
X118863187Y-58049606D01*
X118844632Y-58094538D01*
X118833400Y-58163470D01*
X118827280Y-58261425D01*
X118824064Y-58393427D01*
X118822891Y-58452237D01*
X118819954Y-58551162D01*
X118816301Y-58632501D01*
X118812284Y-58689089D01*
X118808257Y-58713766D01*
X118800622Y-58721488D01*
X118763596Y-58730836D01*
X118718116Y-58724027D01*
X118683248Y-58702743D01*
X118679863Y-58696273D01*
X118671928Y-58654108D01*
X118666959Y-58583853D01*
X118664770Y-58493622D01*
X118665174Y-58391529D01*
X118667988Y-58285687D01*
X118673025Y-58184209D01*
X118680099Y-58095209D01*
X118689026Y-58026799D01*
X118699618Y-57987094D01*
X118717936Y-57956984D01*
X118778820Y-57903070D01*
X118866959Y-57872180D01*
X118985397Y-57862992D01*
X119056357Y-57866137D01*
G36*
X119056357Y-57866137D02*
G01*
X119148715Y-57875755D01*
X119224743Y-57889364D01*
X119327320Y-57914493D01*
X119327320Y-58309827D01*
X119327291Y-58335468D01*
X119326370Y-58453797D01*
X119324310Y-58557418D01*
X119321318Y-58640239D01*
X119317602Y-58696167D01*
X119313369Y-58719112D01*
X119286429Y-58727220D01*
X119240099Y-58727253D01*
X119180782Y-58721442D01*
X119175455Y-58376797D01*
X119173627Y-58251146D01*
X119170893Y-58155914D01*
X119164751Y-58089499D01*
X119152640Y-58046727D01*
X119132000Y-58022421D01*
X119100271Y-58011407D01*
X119054895Y-58008510D01*
X118993310Y-58008555D01*
X118984879Y-58008561D01*
X118931101Y-58011641D01*
X118891274Y-58023648D01*
X118863187Y-58049606D01*
X118844632Y-58094538D01*
X118833400Y-58163470D01*
X118827280Y-58261425D01*
X118824064Y-58393427D01*
X118822891Y-58452237D01*
X118819954Y-58551162D01*
X118816301Y-58632501D01*
X118812284Y-58689089D01*
X118808257Y-58713766D01*
X118800622Y-58721488D01*
X118763596Y-58730836D01*
X118718116Y-58724027D01*
X118683248Y-58702743D01*
X118679863Y-58696273D01*
X118671928Y-58654108D01*
X118666959Y-58583853D01*
X118664770Y-58493622D01*
X118665174Y-58391529D01*
X118667988Y-58285687D01*
X118673025Y-58184209D01*
X118680099Y-58095209D01*
X118689026Y-58026799D01*
X118699618Y-57987094D01*
X118717936Y-57956984D01*
X118778820Y-57903070D01*
X118866959Y-57872180D01*
X118985397Y-57862992D01*
X119056357Y-57866137D01*
G37*
X118150428Y-58138801D02*
X118145243Y-58700157D01*
X118096397Y-58713736D01*
X118088198Y-58715603D01*
X118037700Y-58721906D01*
X117964509Y-58726743D01*
X117881474Y-58729191D01*
X117822217Y-58728703D01*
X117725879Y-58718821D01*
X117653980Y-58693707D01*
X117597464Y-58649365D01*
X117547273Y-58581801D01*
X117547236Y-58581740D01*
X117526268Y-58544154D01*
X117512658Y-58505959D01*
X117504856Y-58457543D01*
X117501311Y-58389293D01*
X117500474Y-58291596D01*
X117500521Y-58282696D01*
X117651808Y-58282696D01*
X117655307Y-58380069D01*
X117672499Y-58467581D01*
X117703720Y-58533298D01*
X117733784Y-58561092D01*
X117779909Y-58578128D01*
X117853398Y-58588250D01*
X117905844Y-58591233D01*
X117958103Y-58589930D01*
X117984051Y-58583472D01*
X117986076Y-58578703D01*
X117991049Y-58542046D01*
X117995057Y-58476492D01*
X117997732Y-58389451D01*
X117998705Y-58288339D01*
X117998705Y-58008288D01*
X117880586Y-58008288D01*
X117858586Y-58008450D01*
X117794010Y-58013075D01*
X117751373Y-58026849D01*
X117717276Y-58053480D01*
X117684539Y-58106114D01*
X117661664Y-58187400D01*
X117651808Y-58282696D01*
X117500521Y-58282696D01*
X117500795Y-58231159D01*
X117503489Y-58148321D01*
X117509994Y-58090254D01*
X117521589Y-58047805D01*
X117539551Y-58011823D01*
X117575806Y-57961463D01*
X117646180Y-57904043D01*
X117737788Y-57871817D01*
X117857051Y-57861750D01*
X117998705Y-57861750D01*
X117998705Y-57720468D01*
X117998802Y-57685907D01*
X118000808Y-57626085D01*
X118007658Y-57592411D01*
X118022256Y-57575742D01*
X118047507Y-57566938D01*
X118071698Y-57560959D01*
X118097233Y-57557079D01*
X118116937Y-57561138D01*
X118131510Y-57577029D01*
X118141652Y-57608645D01*
X118148065Y-57659876D01*
X118151449Y-57734615D01*
X118152504Y-57836754D01*
X118151930Y-57970186D01*
X118151590Y-58008288D01*
X118150428Y-58138801D01*
G36*
X118150428Y-58138801D02*
G01*
X118145243Y-58700157D01*
X118096397Y-58713736D01*
X118088198Y-58715603D01*
X118037700Y-58721906D01*
X117964509Y-58726743D01*
X117881474Y-58729191D01*
X117822217Y-58728703D01*
X117725879Y-58718821D01*
X117653980Y-58693707D01*
X117597464Y-58649365D01*
X117547273Y-58581801D01*
X117547236Y-58581740D01*
X117526268Y-58544154D01*
X117512658Y-58505959D01*
X117504856Y-58457543D01*
X117501311Y-58389293D01*
X117500474Y-58291596D01*
X117500521Y-58282696D01*
X117651808Y-58282696D01*
X117655307Y-58380069D01*
X117672499Y-58467581D01*
X117703720Y-58533298D01*
X117733784Y-58561092D01*
X117779909Y-58578128D01*
X117853398Y-58588250D01*
X117905844Y-58591233D01*
X117958103Y-58589930D01*
X117984051Y-58583472D01*
X117986076Y-58578703D01*
X117991049Y-58542046D01*
X117995057Y-58476492D01*
X117997732Y-58389451D01*
X117998705Y-58288339D01*
X117998705Y-58008288D01*
X117880586Y-58008288D01*
X117858586Y-58008450D01*
X117794010Y-58013075D01*
X117751373Y-58026849D01*
X117717276Y-58053480D01*
X117684539Y-58106114D01*
X117661664Y-58187400D01*
X117651808Y-58282696D01*
X117500521Y-58282696D01*
X117500795Y-58231159D01*
X117503489Y-58148321D01*
X117509994Y-58090254D01*
X117521589Y-58047805D01*
X117539551Y-58011823D01*
X117575806Y-57961463D01*
X117646180Y-57904043D01*
X117737788Y-57871817D01*
X117857051Y-57861750D01*
X117998705Y-57861750D01*
X117998705Y-57720468D01*
X117998802Y-57685907D01*
X118000808Y-57626085D01*
X118007658Y-57592411D01*
X118022256Y-57575742D01*
X118047507Y-57566938D01*
X118071698Y-57560959D01*
X118097233Y-57557079D01*
X118116937Y-57561138D01*
X118131510Y-57577029D01*
X118141652Y-57608645D01*
X118148065Y-57659876D01*
X118151449Y-57734615D01*
X118152504Y-57836754D01*
X118151930Y-57970186D01*
X118151590Y-58008288D01*
X118150428Y-58138801D01*
G37*
X117404746Y-58514289D02*
X117386624Y-58587553D01*
X117341611Y-58655596D01*
X117266013Y-58705073D01*
X117253182Y-58709870D01*
X117196838Y-58720579D01*
X117120705Y-58726291D01*
X117034572Y-58727305D01*
X116948228Y-58723921D01*
X116871462Y-58716438D01*
X116814063Y-58705157D01*
X116785820Y-58690376D01*
X116782955Y-58681861D01*
X116777217Y-58638198D01*
X116772622Y-58566541D01*
X116769583Y-58474517D01*
X116768958Y-58413510D01*
X116925134Y-58413510D01*
X116927689Y-58498317D01*
X116933859Y-58584673D01*
X117053705Y-58590431D01*
X117070708Y-58591100D01*
X117152027Y-58586966D01*
X117202935Y-58565805D01*
X117229229Y-58523337D01*
X117236705Y-58455280D01*
X117236701Y-58452208D01*
X117232450Y-58401110D01*
X117213278Y-58372120D01*
X117168948Y-58349214D01*
X117163580Y-58347066D01*
X117094369Y-58328518D01*
X117022782Y-58320904D01*
X117003509Y-58321447D01*
X116959472Y-58331740D01*
X116934538Y-58360206D01*
X116925134Y-58413510D01*
X116768958Y-58413510D01*
X116768510Y-58369750D01*
X116769555Y-58258189D01*
X116774944Y-58139998D01*
X116786572Y-58051208D01*
X116806265Y-57986365D01*
X116835846Y-57940015D01*
X116877139Y-57906702D01*
X116931968Y-57880972D01*
X117031450Y-57858521D01*
X117156738Y-57861850D01*
X117287887Y-57894562D01*
X117328483Y-57912315D01*
X117348956Y-57936823D01*
X117349971Y-57978354D01*
X117339367Y-58019206D01*
X117318742Y-58032377D01*
X117317874Y-58032208D01*
X117284806Y-58028005D01*
X117225673Y-58022169D01*
X117152665Y-58015909D01*
X117103680Y-58012855D01*
X117027077Y-58015446D01*
X116978630Y-58032845D01*
X116951817Y-58068415D01*
X116940118Y-58125519D01*
X116933859Y-58193904D01*
X117080397Y-58204861D01*
X117161621Y-58214743D01*
X117238388Y-58231032D01*
X117291975Y-58250120D01*
X117314066Y-58263702D01*
X117372102Y-58327258D01*
X117403355Y-58413192D01*
X117403935Y-58455280D01*
X117404746Y-58514289D01*
G36*
X117404746Y-58514289D02*
G01*
X117386624Y-58587553D01*
X117341611Y-58655596D01*
X117266013Y-58705073D01*
X117253182Y-58709870D01*
X117196838Y-58720579D01*
X117120705Y-58726291D01*
X117034572Y-58727305D01*
X116948228Y-58723921D01*
X116871462Y-58716438D01*
X116814063Y-58705157D01*
X116785820Y-58690376D01*
X116782955Y-58681861D01*
X116777217Y-58638198D01*
X116772622Y-58566541D01*
X116769583Y-58474517D01*
X116768958Y-58413510D01*
X116925134Y-58413510D01*
X116927689Y-58498317D01*
X116933859Y-58584673D01*
X117053705Y-58590431D01*
X117070708Y-58591100D01*
X117152027Y-58586966D01*
X117202935Y-58565805D01*
X117229229Y-58523337D01*
X117236705Y-58455280D01*
X117236701Y-58452208D01*
X117232450Y-58401110D01*
X117213278Y-58372120D01*
X117168948Y-58349214D01*
X117163580Y-58347066D01*
X117094369Y-58328518D01*
X117022782Y-58320904D01*
X117003509Y-58321447D01*
X116959472Y-58331740D01*
X116934538Y-58360206D01*
X116925134Y-58413510D01*
X116768958Y-58413510D01*
X116768510Y-58369750D01*
X116769555Y-58258189D01*
X116774944Y-58139998D01*
X116786572Y-58051208D01*
X116806265Y-57986365D01*
X116835846Y-57940015D01*
X116877139Y-57906702D01*
X116931968Y-57880972D01*
X117031450Y-57858521D01*
X117156738Y-57861850D01*
X117287887Y-57894562D01*
X117328483Y-57912315D01*
X117348956Y-57936823D01*
X117349971Y-57978354D01*
X117339367Y-58019206D01*
X117318742Y-58032377D01*
X117317874Y-58032208D01*
X117284806Y-58028005D01*
X117225673Y-58022169D01*
X117152665Y-58015909D01*
X117103680Y-58012855D01*
X117027077Y-58015446D01*
X116978630Y-58032845D01*
X116951817Y-58068415D01*
X116940118Y-58125519D01*
X116933859Y-58193904D01*
X117080397Y-58204861D01*
X117161621Y-58214743D01*
X117238388Y-58231032D01*
X117291975Y-58250120D01*
X117314066Y-58263702D01*
X117372102Y-58327258D01*
X117403355Y-58413192D01*
X117403935Y-58455280D01*
X117404746Y-58514289D01*
G37*
X116360080Y-57865289D02*
X116452421Y-57874852D01*
X116528436Y-57888700D01*
X116631013Y-57914493D01*
X116631013Y-58309827D01*
X116630983Y-58335468D01*
X116630063Y-58453797D01*
X116628002Y-58557418D01*
X116625010Y-58640239D01*
X116621294Y-58696167D01*
X116617061Y-58719112D01*
X116590121Y-58727220D01*
X116543792Y-58727253D01*
X116484474Y-58721442D01*
X116479111Y-58380376D01*
X116477248Y-58287424D01*
X116473145Y-58173100D01*
X116467363Y-58093046D01*
X116459662Y-58044350D01*
X116449803Y-58024098D01*
X116431468Y-58018079D01*
X116381330Y-58011334D01*
X116316541Y-58008587D01*
X116295195Y-58008653D01*
X116237950Y-58012031D01*
X116195972Y-58024132D01*
X116166780Y-58050016D01*
X116147896Y-58094741D01*
X116136838Y-58163365D01*
X116131127Y-58260948D01*
X116128282Y-58392547D01*
X116127215Y-58450502D01*
X116124383Y-58549519D01*
X116120745Y-58631060D01*
X116116657Y-58687926D01*
X116112475Y-58712917D01*
X116104977Y-58720700D01*
X116067783Y-58730736D01*
X116022003Y-58724090D01*
X115986618Y-58702355D01*
X115983337Y-58696129D01*
X115975457Y-58654314D01*
X115970568Y-58584335D01*
X115968477Y-58494303D01*
X115968988Y-58392326D01*
X115971907Y-58286513D01*
X115977040Y-58184975D01*
X115984192Y-58095819D01*
X115993169Y-58027156D01*
X116003776Y-57987094D01*
X116021203Y-57957940D01*
X116081720Y-57903726D01*
X116170101Y-57872278D01*
X116289090Y-57862397D01*
X116360080Y-57865289D01*
G36*
X116360080Y-57865289D02*
G01*
X116452421Y-57874852D01*
X116528436Y-57888700D01*
X116631013Y-57914493D01*
X116631013Y-58309827D01*
X116630983Y-58335468D01*
X116630063Y-58453797D01*
X116628002Y-58557418D01*
X116625010Y-58640239D01*
X116621294Y-58696167D01*
X116617061Y-58719112D01*
X116590121Y-58727220D01*
X116543792Y-58727253D01*
X116484474Y-58721442D01*
X116479111Y-58380376D01*
X116477248Y-58287424D01*
X116473145Y-58173100D01*
X116467363Y-58093046D01*
X116459662Y-58044350D01*
X116449803Y-58024098D01*
X116431468Y-58018079D01*
X116381330Y-58011334D01*
X116316541Y-58008587D01*
X116295195Y-58008653D01*
X116237950Y-58012031D01*
X116195972Y-58024132D01*
X116166780Y-58050016D01*
X116147896Y-58094741D01*
X116136838Y-58163365D01*
X116131127Y-58260948D01*
X116128282Y-58392547D01*
X116127215Y-58450502D01*
X116124383Y-58549519D01*
X116120745Y-58631060D01*
X116116657Y-58687926D01*
X116112475Y-58712917D01*
X116104977Y-58720700D01*
X116067783Y-58730736D01*
X116022003Y-58724090D01*
X115986618Y-58702355D01*
X115983337Y-58696129D01*
X115975457Y-58654314D01*
X115970568Y-58584335D01*
X115968477Y-58494303D01*
X115968988Y-58392326D01*
X115971907Y-58286513D01*
X115977040Y-58184975D01*
X115984192Y-58095819D01*
X115993169Y-58027156D01*
X116003776Y-57987094D01*
X116021203Y-57957940D01*
X116081720Y-57903726D01*
X116170101Y-57872278D01*
X116289090Y-57862397D01*
X116360080Y-57865289D01*
G37*
X115420173Y-57561508D02*
X115434762Y-57577624D01*
X115445110Y-57609494D01*
X115451945Y-57661003D01*
X115455994Y-57736040D01*
X115457985Y-57838491D01*
X115458646Y-57972245D01*
X115458705Y-58141188D01*
X115458682Y-58174812D01*
X115458058Y-58317050D01*
X115456665Y-58445311D01*
X115454618Y-58554575D01*
X115452029Y-58639822D01*
X115449011Y-58696032D01*
X115445679Y-58718186D01*
X115414950Y-58729296D01*
X115367987Y-58728532D01*
X115327679Y-58715636D01*
X115327413Y-58715460D01*
X115314296Y-58687188D01*
X115304274Y-58626200D01*
X115298372Y-58538690D01*
X115292628Y-58376720D01*
X115149262Y-58553966D01*
X115128087Y-58580060D01*
X115071092Y-58648353D01*
X115029832Y-58692410D01*
X114998122Y-58717435D01*
X114969776Y-58728635D01*
X114938610Y-58731211D01*
X114892722Y-58727185D01*
X114867751Y-58712458D01*
X114865926Y-58683524D01*
X114888215Y-58636877D01*
X114935586Y-58569011D01*
X115009008Y-58476420D01*
X115031200Y-58449253D01*
X115090878Y-58374814D01*
X115128684Y-58322276D01*
X115146910Y-58285262D01*
X115147846Y-58257395D01*
X115133783Y-58232296D01*
X115107013Y-58203590D01*
X115103981Y-58200529D01*
X115026132Y-58119521D01*
X114957423Y-58043659D01*
X114902542Y-57978501D01*
X114866176Y-57929602D01*
X114853013Y-57902518D01*
X114855308Y-57890890D01*
X114878160Y-57875862D01*
X114931719Y-57871519D01*
X114948012Y-57871975D01*
X114981575Y-57877702D01*
X115015310Y-57893258D01*
X115054139Y-57922720D01*
X115102987Y-57970162D01*
X115166779Y-58039660D01*
X115250439Y-58135288D01*
X115301162Y-58193904D01*
X115301780Y-57886545D01*
X115302397Y-57579186D01*
X115351200Y-57566938D01*
X115375360Y-57560984D01*
X115400615Y-57557257D01*
X115420173Y-57561508D01*
G36*
X115420173Y-57561508D02*
G01*
X115434762Y-57577624D01*
X115445110Y-57609494D01*
X115451945Y-57661003D01*
X115455994Y-57736040D01*
X115457985Y-57838491D01*
X115458646Y-57972245D01*
X115458705Y-58141188D01*
X115458682Y-58174812D01*
X115458058Y-58317050D01*
X115456665Y-58445311D01*
X115454618Y-58554575D01*
X115452029Y-58639822D01*
X115449011Y-58696032D01*
X115445679Y-58718186D01*
X115414950Y-58729296D01*
X115367987Y-58728532D01*
X115327679Y-58715636D01*
X115327413Y-58715460D01*
X115314296Y-58687188D01*
X115304274Y-58626200D01*
X115298372Y-58538690D01*
X115292628Y-58376720D01*
X115149262Y-58553966D01*
X115128087Y-58580060D01*
X115071092Y-58648353D01*
X115029832Y-58692410D01*
X114998122Y-58717435D01*
X114969776Y-58728635D01*
X114938610Y-58731211D01*
X114892722Y-58727185D01*
X114867751Y-58712458D01*
X114865926Y-58683524D01*
X114888215Y-58636877D01*
X114935586Y-58569011D01*
X115009008Y-58476420D01*
X115031200Y-58449253D01*
X115090878Y-58374814D01*
X115128684Y-58322276D01*
X115146910Y-58285262D01*
X115147846Y-58257395D01*
X115133783Y-58232296D01*
X115107013Y-58203590D01*
X115103981Y-58200529D01*
X115026132Y-58119521D01*
X114957423Y-58043659D01*
X114902542Y-57978501D01*
X114866176Y-57929602D01*
X114853013Y-57902518D01*
X114855308Y-57890890D01*
X114878160Y-57875862D01*
X114931719Y-57871519D01*
X114948012Y-57871975D01*
X114981575Y-57877702D01*
X115015310Y-57893258D01*
X115054139Y-57922720D01*
X115102987Y-57970162D01*
X115166779Y-58039660D01*
X115250439Y-58135288D01*
X115301162Y-58193904D01*
X115301780Y-57886545D01*
X115302397Y-57579186D01*
X115351200Y-57566938D01*
X115375360Y-57560984D01*
X115400615Y-57557257D01*
X115420173Y-57561508D01*
G37*
X114735782Y-58125519D02*
X114736214Y-58151223D01*
X114737926Y-58293922D01*
X114738352Y-58423497D01*
X114737559Y-58534759D01*
X114735609Y-58622520D01*
X114732570Y-58681593D01*
X114728505Y-58706788D01*
X114708928Y-58721551D01*
X114666158Y-58731211D01*
X114635475Y-58726144D01*
X114605740Y-58706788D01*
X114602963Y-58696657D01*
X114598716Y-58651626D01*
X114595906Y-58578843D01*
X114594764Y-58485683D01*
X114595520Y-58379519D01*
X114596130Y-58321863D01*
X114595555Y-58221446D01*
X114592971Y-58137823D01*
X114588664Y-58078415D01*
X114582916Y-58050645D01*
X114575142Y-58042975D01*
X114532439Y-58025795D01*
X114469578Y-58015558D01*
X114400171Y-58013041D01*
X114337830Y-58019021D01*
X114296166Y-58034276D01*
X114289649Y-58039599D01*
X114276790Y-58055542D01*
X114267338Y-58080668D01*
X114260481Y-58120955D01*
X114255402Y-58182380D01*
X114251287Y-58270921D01*
X114247320Y-58392557D01*
X114237551Y-58721442D01*
X114100782Y-58721442D01*
X114095421Y-58393245D01*
X114095247Y-58382364D01*
X114094301Y-58243245D01*
X114097373Y-58136928D01*
X114105984Y-58057610D01*
X114121657Y-57999488D01*
X114145914Y-57956757D01*
X114180276Y-57923615D01*
X114226265Y-57894257D01*
X114295153Y-57865170D01*
X114390903Y-57853687D01*
X114505345Y-57869734D01*
X114577755Y-57886554D01*
X114588378Y-57805767D01*
X114589260Y-57798920D01*
X114597735Y-57721444D01*
X114603891Y-57646827D01*
X114604815Y-57633149D01*
X114611701Y-57589878D01*
X114629535Y-57572112D01*
X114667397Y-57568673D01*
X114726013Y-57568673D01*
X114735782Y-58125519D01*
G36*
X114735782Y-58125519D02*
G01*
X114736214Y-58151223D01*
X114737926Y-58293922D01*
X114738352Y-58423497D01*
X114737559Y-58534759D01*
X114735609Y-58622520D01*
X114732570Y-58681593D01*
X114728505Y-58706788D01*
X114708928Y-58721551D01*
X114666158Y-58731211D01*
X114635475Y-58726144D01*
X114605740Y-58706788D01*
X114602963Y-58696657D01*
X114598716Y-58651626D01*
X114595906Y-58578843D01*
X114594764Y-58485683D01*
X114595520Y-58379519D01*
X114596130Y-58321863D01*
X114595555Y-58221446D01*
X114592971Y-58137823D01*
X114588664Y-58078415D01*
X114582916Y-58050645D01*
X114575142Y-58042975D01*
X114532439Y-58025795D01*
X114469578Y-58015558D01*
X114400171Y-58013041D01*
X114337830Y-58019021D01*
X114296166Y-58034276D01*
X114289649Y-58039599D01*
X114276790Y-58055542D01*
X114267338Y-58080668D01*
X114260481Y-58120955D01*
X114255402Y-58182380D01*
X114251287Y-58270921D01*
X114247320Y-58392557D01*
X114237551Y-58721442D01*
X114100782Y-58721442D01*
X114095421Y-58393245D01*
X114095247Y-58382364D01*
X114094301Y-58243245D01*
X114097373Y-58136928D01*
X114105984Y-58057610D01*
X114121657Y-57999488D01*
X114145914Y-57956757D01*
X114180276Y-57923615D01*
X114226265Y-57894257D01*
X114295153Y-57865170D01*
X114390903Y-57853687D01*
X114505345Y-57869734D01*
X114577755Y-57886554D01*
X114588378Y-57805767D01*
X114589260Y-57798920D01*
X114597735Y-57721444D01*
X114603891Y-57646827D01*
X114604815Y-57633149D01*
X114611701Y-57589878D01*
X114629535Y-57572112D01*
X114667397Y-57568673D01*
X114726013Y-57568673D01*
X114735782Y-58125519D01*
G37*
X113924936Y-57881288D02*
X113930239Y-58281299D01*
X113930580Y-58308873D01*
X113931477Y-58428969D01*
X113931346Y-58535176D01*
X113930257Y-58621198D01*
X113928281Y-58680741D01*
X113925488Y-58707509D01*
X113903631Y-58724446D01*
X113851801Y-58727575D01*
X113788166Y-58721442D01*
X113777628Y-57869114D01*
X113924936Y-57881288D01*
G36*
X113924936Y-57881288D02*
G01*
X113930239Y-58281299D01*
X113930580Y-58308873D01*
X113931477Y-58428969D01*
X113931346Y-58535176D01*
X113930257Y-58621198D01*
X113928281Y-58680741D01*
X113925488Y-58707509D01*
X113903631Y-58724446D01*
X113851801Y-58727575D01*
X113788166Y-58721442D01*
X113777628Y-57869114D01*
X113924936Y-57881288D01*
G37*
X113012603Y-57865341D02*
X113094551Y-57894665D01*
X113151248Y-57930008D01*
X113207352Y-57988542D01*
X113244144Y-58066027D01*
X113264276Y-58168608D01*
X113270397Y-58302432D01*
X113269678Y-58349792D01*
X113257485Y-58476468D01*
X113228738Y-58573014D01*
X113181518Y-58644241D01*
X113113907Y-58694961D01*
X113055414Y-58716657D01*
X112959993Y-58729986D01*
X112859638Y-58725533D01*
X112771539Y-58702900D01*
X112751285Y-58693666D01*
X112714146Y-58664913D01*
X112703782Y-58625900D01*
X112708285Y-58587725D01*
X112727551Y-58567139D01*
X112769019Y-58564336D01*
X112840113Y-58576635D01*
X112867162Y-58581745D01*
X112959891Y-58584679D01*
X113029510Y-58558595D01*
X113077458Y-58501995D01*
X113105171Y-58413380D01*
X113114090Y-58291253D01*
X113113605Y-58257868D01*
X113101913Y-58152324D01*
X113071977Y-58078943D01*
X113020291Y-58034248D01*
X112943352Y-58014760D01*
X112837652Y-58017002D01*
X112795302Y-58021089D01*
X112742427Y-58024438D01*
X112715253Y-58020359D01*
X112705224Y-58006526D01*
X112703782Y-57980614D01*
X112703975Y-57974910D01*
X112724831Y-57924862D01*
X112774338Y-57887073D01*
X112844280Y-57863352D01*
X112926441Y-57855506D01*
X113012603Y-57865341D01*
G36*
X113012603Y-57865341D02*
G01*
X113094551Y-57894665D01*
X113151248Y-57930008D01*
X113207352Y-57988542D01*
X113244144Y-58066027D01*
X113264276Y-58168608D01*
X113270397Y-58302432D01*
X113269678Y-58349792D01*
X113257485Y-58476468D01*
X113228738Y-58573014D01*
X113181518Y-58644241D01*
X113113907Y-58694961D01*
X113055414Y-58716657D01*
X112959993Y-58729986D01*
X112859638Y-58725533D01*
X112771539Y-58702900D01*
X112751285Y-58693666D01*
X112714146Y-58664913D01*
X112703782Y-58625900D01*
X112708285Y-58587725D01*
X112727551Y-58567139D01*
X112769019Y-58564336D01*
X112840113Y-58576635D01*
X112867162Y-58581745D01*
X112959891Y-58584679D01*
X113029510Y-58558595D01*
X113077458Y-58501995D01*
X113105171Y-58413380D01*
X113114090Y-58291253D01*
X113113605Y-58257868D01*
X113101913Y-58152324D01*
X113071977Y-58078943D01*
X113020291Y-58034248D01*
X112943352Y-58014760D01*
X112837652Y-58017002D01*
X112795302Y-58021089D01*
X112742427Y-58024438D01*
X112715253Y-58020359D01*
X112705224Y-58006526D01*
X112703782Y-57980614D01*
X112703975Y-57974910D01*
X112724831Y-57924862D01*
X112774338Y-57887073D01*
X112844280Y-57863352D01*
X112926441Y-57855506D01*
X113012603Y-57865341D01*
G37*
X112626893Y-58481188D02*
X112611661Y-58564605D01*
X112570260Y-58637851D01*
X112502063Y-58692093D01*
X112472441Y-58706132D01*
X112430750Y-58719967D01*
X112381489Y-58727035D01*
X112314195Y-58728581D01*
X112218406Y-58725851D01*
X112154684Y-58722749D01*
X112072004Y-58715355D01*
X112021266Y-58704805D01*
X111997970Y-58690376D01*
X111994282Y-58677961D01*
X111989183Y-58630016D01*
X111985775Y-58554457D01*
X111984329Y-58458480D01*
X111984460Y-58440364D01*
X112143028Y-58440364D01*
X112147979Y-58506664D01*
X112150874Y-58525025D01*
X112162543Y-58569295D01*
X112183906Y-58589728D01*
X112224886Y-58598126D01*
X112227763Y-58598457D01*
X112276429Y-58602339D01*
X112305992Y-58601748D01*
X112329027Y-58596572D01*
X112373163Y-58586850D01*
X112375589Y-58586286D01*
X112425103Y-58555971D01*
X112453656Y-58501022D01*
X112455355Y-58432503D01*
X112454000Y-58425771D01*
X112439488Y-58384646D01*
X112411573Y-58358329D01*
X112361697Y-58341779D01*
X112281302Y-58329953D01*
X112262110Y-58327797D01*
X112204397Y-58322736D01*
X112172971Y-58326008D01*
X112157768Y-58340622D01*
X112148723Y-58369586D01*
X112146482Y-58380811D01*
X112143028Y-58440364D01*
X111984460Y-58440364D01*
X111985116Y-58349286D01*
X111987249Y-58253621D01*
X111992157Y-58144636D01*
X112000747Y-58064078D01*
X112014705Y-58005664D01*
X112035718Y-57963113D01*
X112065474Y-57930143D01*
X112105660Y-57900471D01*
X112152129Y-57878320D01*
X112243959Y-57859523D01*
X112349589Y-57859662D01*
X112456288Y-57879499D01*
X112463528Y-57881607D01*
X112522252Y-57900280D01*
X112553097Y-57917659D01*
X112565028Y-57942015D01*
X112567013Y-57981617D01*
X112565372Y-58019530D01*
X112555678Y-58041006D01*
X112532820Y-58038273D01*
X112501559Y-58030743D01*
X112442028Y-58021720D01*
X112370211Y-58014101D01*
X112319084Y-58010781D01*
X112239889Y-58013697D01*
X112190051Y-58032004D01*
X112164136Y-58068556D01*
X112156705Y-58126206D01*
X112156705Y-58203673D01*
X112278820Y-58205159D01*
X112334758Y-58207923D01*
X112411613Y-58217466D01*
X112469320Y-58231174D01*
X112521849Y-58258243D01*
X112581359Y-58319174D01*
X112616583Y-58396434D01*
X112620971Y-58432503D01*
X112626893Y-58481188D01*
G36*
X112626893Y-58481188D02*
G01*
X112611661Y-58564605D01*
X112570260Y-58637851D01*
X112502063Y-58692093D01*
X112472441Y-58706132D01*
X112430750Y-58719967D01*
X112381489Y-58727035D01*
X112314195Y-58728581D01*
X112218406Y-58725851D01*
X112154684Y-58722749D01*
X112072004Y-58715355D01*
X112021266Y-58704805D01*
X111997970Y-58690376D01*
X111994282Y-58677961D01*
X111989183Y-58630016D01*
X111985775Y-58554457D01*
X111984329Y-58458480D01*
X111984460Y-58440364D01*
X112143028Y-58440364D01*
X112147979Y-58506664D01*
X112150874Y-58525025D01*
X112162543Y-58569295D01*
X112183906Y-58589728D01*
X112224886Y-58598126D01*
X112227763Y-58598457D01*
X112276429Y-58602339D01*
X112305992Y-58601748D01*
X112329027Y-58596572D01*
X112373163Y-58586850D01*
X112375589Y-58586286D01*
X112425103Y-58555971D01*
X112453656Y-58501022D01*
X112455355Y-58432503D01*
X112454000Y-58425771D01*
X112439488Y-58384646D01*
X112411573Y-58358329D01*
X112361697Y-58341779D01*
X112281302Y-58329953D01*
X112262110Y-58327797D01*
X112204397Y-58322736D01*
X112172971Y-58326008D01*
X112157768Y-58340622D01*
X112148723Y-58369586D01*
X112146482Y-58380811D01*
X112143028Y-58440364D01*
X111984460Y-58440364D01*
X111985116Y-58349286D01*
X111987249Y-58253621D01*
X111992157Y-58144636D01*
X112000747Y-58064078D01*
X112014705Y-58005664D01*
X112035718Y-57963113D01*
X112065474Y-57930143D01*
X112105660Y-57900471D01*
X112152129Y-57878320D01*
X112243959Y-57859523D01*
X112349589Y-57859662D01*
X112456288Y-57879499D01*
X112463528Y-57881607D01*
X112522252Y-57900280D01*
X112553097Y-57917659D01*
X112565028Y-57942015D01*
X112567013Y-57981617D01*
X112565372Y-58019530D01*
X112555678Y-58041006D01*
X112532820Y-58038273D01*
X112501559Y-58030743D01*
X112442028Y-58021720D01*
X112370211Y-58014101D01*
X112319084Y-58010781D01*
X112239889Y-58013697D01*
X112190051Y-58032004D01*
X112164136Y-58068556D01*
X112156705Y-58126206D01*
X112156705Y-58203673D01*
X112278820Y-58205159D01*
X112334758Y-58207923D01*
X112411613Y-58217466D01*
X112469320Y-58231174D01*
X112521849Y-58258243D01*
X112581359Y-58319174D01*
X112616583Y-58396434D01*
X112620971Y-58432503D01*
X112626893Y-58481188D01*
G37*
X111596202Y-57865735D02*
X111683731Y-57875429D01*
X111751282Y-57888958D01*
X111844090Y-57915674D01*
X111844090Y-58310417D01*
X111844063Y-58335714D01*
X111843205Y-58453891D01*
X111841283Y-58557305D01*
X111838489Y-58639877D01*
X111835018Y-58695530D01*
X111831064Y-58718186D01*
X111830873Y-58718374D01*
X111795910Y-58730558D01*
X111748674Y-58726382D01*
X111711228Y-58707765D01*
X111707647Y-58702454D01*
X111698713Y-58666488D01*
X111692532Y-58598759D01*
X111688942Y-58496853D01*
X111687782Y-58358352D01*
X111687631Y-58241146D01*
X111686680Y-58154065D01*
X111684182Y-58094748D01*
X111679392Y-58057469D01*
X111671565Y-58036502D01*
X111659957Y-58026122D01*
X111643820Y-58020603D01*
X111602132Y-58011990D01*
X111518470Y-58007988D01*
X111444891Y-58020256D01*
X111394705Y-58047365D01*
X111392425Y-58049684D01*
X111378049Y-58068091D01*
X111367972Y-58092906D01*
X111361444Y-58130660D01*
X111357711Y-58187888D01*
X111356024Y-58271122D01*
X111355628Y-58386896D01*
X111355246Y-58478545D01*
X111352660Y-58580245D01*
X111346354Y-58651285D01*
X111334861Y-58696614D01*
X111316714Y-58721182D01*
X111290448Y-58729936D01*
X111254595Y-58727826D01*
X111236223Y-58721363D01*
X111212363Y-58693514D01*
X111195858Y-58641149D01*
X111186126Y-58560709D01*
X111182580Y-58448634D01*
X111184639Y-58301365D01*
X111187418Y-58224613D01*
X111195185Y-58118978D01*
X111208543Y-58041089D01*
X111229615Y-57983815D01*
X111260526Y-57940024D01*
X111303400Y-57902584D01*
X111325033Y-57888435D01*
X111366771Y-57872094D01*
X111424051Y-57864051D01*
X111508554Y-57861996D01*
X111596202Y-57865735D01*
G36*
X111596202Y-57865735D02*
G01*
X111683731Y-57875429D01*
X111751282Y-57888958D01*
X111844090Y-57915674D01*
X111844090Y-58310417D01*
X111844063Y-58335714D01*
X111843205Y-58453891D01*
X111841283Y-58557305D01*
X111838489Y-58639877D01*
X111835018Y-58695530D01*
X111831064Y-58718186D01*
X111830873Y-58718374D01*
X111795910Y-58730558D01*
X111748674Y-58726382D01*
X111711228Y-58707765D01*
X111707647Y-58702454D01*
X111698713Y-58666488D01*
X111692532Y-58598759D01*
X111688942Y-58496853D01*
X111687782Y-58358352D01*
X111687631Y-58241146D01*
X111686680Y-58154065D01*
X111684182Y-58094748D01*
X111679392Y-58057469D01*
X111671565Y-58036502D01*
X111659957Y-58026122D01*
X111643820Y-58020603D01*
X111602132Y-58011990D01*
X111518470Y-58007988D01*
X111444891Y-58020256D01*
X111394705Y-58047365D01*
X111392425Y-58049684D01*
X111378049Y-58068091D01*
X111367972Y-58092906D01*
X111361444Y-58130660D01*
X111357711Y-58187888D01*
X111356024Y-58271122D01*
X111355628Y-58386896D01*
X111355246Y-58478545D01*
X111352660Y-58580245D01*
X111346354Y-58651285D01*
X111334861Y-58696614D01*
X111316714Y-58721182D01*
X111290448Y-58729936D01*
X111254595Y-58727826D01*
X111236223Y-58721363D01*
X111212363Y-58693514D01*
X111195858Y-58641149D01*
X111186126Y-58560709D01*
X111182580Y-58448634D01*
X111184639Y-58301365D01*
X111187418Y-58224613D01*
X111195185Y-58118978D01*
X111208543Y-58041089D01*
X111229615Y-57983815D01*
X111260526Y-57940024D01*
X111303400Y-57902584D01*
X111325033Y-57888435D01*
X111366771Y-57872094D01*
X111424051Y-57864051D01*
X111508554Y-57861996D01*
X111596202Y-57865735D01*
G37*
X119884811Y-57554318D02*
X119901294Y-57570163D01*
X119934974Y-57611210D01*
X119974188Y-57664530D01*
X120011456Y-57719421D01*
X120039300Y-57765177D01*
X120050243Y-57791098D01*
X120050227Y-57791615D01*
X120032327Y-57806668D01*
X119990844Y-57812904D01*
X119960891Y-57809323D01*
X119913483Y-57785453D01*
X119858245Y-57733629D01*
X119785046Y-57654355D01*
X119721339Y-57733629D01*
X119690477Y-57768998D01*
X119646199Y-57803096D01*
X119601091Y-57812904D01*
X119559243Y-57808178D01*
X119533983Y-57795806D01*
X119533239Y-57793778D01*
X119541474Y-57766044D01*
X119567543Y-57720241D01*
X119604696Y-57666282D01*
X119646185Y-57614082D01*
X119685260Y-57573557D01*
X119718588Y-57555289D01*
X119778389Y-57541655D01*
X119840020Y-57540731D01*
X119884811Y-57554318D01*
G36*
X119884811Y-57554318D02*
G01*
X119901294Y-57570163D01*
X119934974Y-57611210D01*
X119974188Y-57664530D01*
X120011456Y-57719421D01*
X120039300Y-57765177D01*
X120050243Y-57791098D01*
X120050227Y-57791615D01*
X120032327Y-57806668D01*
X119990844Y-57812904D01*
X119960891Y-57809323D01*
X119913483Y-57785453D01*
X119858245Y-57733629D01*
X119785046Y-57654355D01*
X119721339Y-57733629D01*
X119690477Y-57768998D01*
X119646199Y-57803096D01*
X119601091Y-57812904D01*
X119559243Y-57808178D01*
X119533983Y-57795806D01*
X119533239Y-57793778D01*
X119541474Y-57766044D01*
X119567543Y-57720241D01*
X119604696Y-57666282D01*
X119646185Y-57614082D01*
X119685260Y-57573557D01*
X119718588Y-57555289D01*
X119778389Y-57541655D01*
X119840020Y-57540731D01*
X119884811Y-57554318D01*
G37*
X112469377Y-57630543D02*
X112508474Y-57685591D01*
X112534524Y-57733952D01*
X112539828Y-57765572D01*
X112519335Y-57788946D01*
X112477405Y-57791265D01*
X112423196Y-57766615D01*
X112363471Y-57716862D01*
X112288768Y-57640359D01*
X112215992Y-57716862D01*
X112158414Y-57766651D01*
X112105896Y-57792933D01*
X112066192Y-57795130D01*
X112044875Y-57774973D01*
X112047519Y-57734195D01*
X112079697Y-57674525D01*
X112119920Y-57618037D01*
X112060459Y-57629930D01*
X112040916Y-57632978D01*
X111998937Y-57627207D01*
X111987990Y-57598054D01*
X111991774Y-57588211D01*
X112137166Y-57588211D01*
X112146936Y-57597980D01*
X112156705Y-57588211D01*
X112146936Y-57578442D01*
X112137166Y-57588211D01*
X111991774Y-57588211D01*
X112008079Y-57545802D01*
X112059203Y-57470733D01*
X112061284Y-57468038D01*
X112107046Y-57411727D01*
X112141415Y-57380240D01*
X112174821Y-57366523D01*
X112217696Y-57363519D01*
X112264253Y-57367029D01*
X112289246Y-57382866D01*
X112282884Y-57415768D01*
X112246415Y-57470375D01*
X112199355Y-57532073D01*
X112255934Y-57523769D01*
X112303473Y-57521059D01*
X112356818Y-57526585D01*
X112382832Y-57540592D01*
X112424930Y-57578858D01*
X112432974Y-57588211D01*
X112469377Y-57630543D01*
G36*
X112469377Y-57630543D02*
G01*
X112508474Y-57685591D01*
X112534524Y-57733952D01*
X112539828Y-57765572D01*
X112519335Y-57788946D01*
X112477405Y-57791265D01*
X112423196Y-57766615D01*
X112363471Y-57716862D01*
X112288768Y-57640359D01*
X112215992Y-57716862D01*
X112158414Y-57766651D01*
X112105896Y-57792933D01*
X112066192Y-57795130D01*
X112044875Y-57774973D01*
X112047519Y-57734195D01*
X112079697Y-57674525D01*
X112119920Y-57618037D01*
X112060459Y-57629930D01*
X112040916Y-57632978D01*
X111998937Y-57627207D01*
X111987990Y-57598054D01*
X111991774Y-57588211D01*
X112137166Y-57588211D01*
X112146936Y-57597980D01*
X112156705Y-57588211D01*
X112146936Y-57578442D01*
X112137166Y-57588211D01*
X111991774Y-57588211D01*
X112008079Y-57545802D01*
X112059203Y-57470733D01*
X112061284Y-57468038D01*
X112107046Y-57411727D01*
X112141415Y-57380240D01*
X112174821Y-57366523D01*
X112217696Y-57363519D01*
X112264253Y-57367029D01*
X112289246Y-57382866D01*
X112282884Y-57415768D01*
X112246415Y-57470375D01*
X112199355Y-57532073D01*
X112255934Y-57523769D01*
X112303473Y-57521059D01*
X112356818Y-57526585D01*
X112382832Y-57540592D01*
X112424930Y-57578858D01*
X112432974Y-57588211D01*
X112469377Y-57630543D01*
G37*
X113934705Y-57654968D02*
X113934107Y-57679494D01*
X113926098Y-57735282D01*
X113910282Y-57760887D01*
X113866482Y-57773744D01*
X113816882Y-57767037D01*
X113787853Y-57727559D01*
X113778397Y-57654505D01*
X113778397Y-57558904D01*
X113934705Y-57558904D01*
X113934705Y-57654968D01*
G36*
X113934705Y-57654968D02*
G01*
X113934107Y-57679494D01*
X113926098Y-57735282D01*
X113910282Y-57760887D01*
X113866482Y-57773744D01*
X113816882Y-57767037D01*
X113787853Y-57727559D01*
X113778397Y-57654505D01*
X113778397Y-57558904D01*
X113934705Y-57558904D01*
X113934705Y-57654968D01*
G37*
X110609270Y-56703761D02*
X110644504Y-56799852D01*
X110644229Y-56860701D01*
X110644039Y-56902898D01*
X110625983Y-56956467D01*
X110583442Y-57023110D01*
X110578946Y-57030154D01*
X110516534Y-57091415D01*
X110449989Y-57127251D01*
X110415283Y-57136956D01*
X110372659Y-57144827D01*
X110332225Y-57142451D01*
X110273947Y-57130157D01*
X110201316Y-57102466D01*
X110128152Y-57043608D01*
X110110896Y-57016121D01*
X110242023Y-57016121D01*
X110261474Y-57031365D01*
X110270946Y-57036206D01*
X110315860Y-57046881D01*
X110370679Y-57050092D01*
X110419351Y-57045662D01*
X110445824Y-57033412D01*
X110447280Y-57023110D01*
X110427439Y-57004718D01*
X110407541Y-56982711D01*
X110397718Y-56939171D01*
X110397192Y-56884827D01*
X110343987Y-56948503D01*
X110330977Y-56963136D01*
X110291470Y-56998214D01*
X110261474Y-57012302D01*
X110256595Y-57012355D01*
X110242023Y-57016121D01*
X110110896Y-57016121D01*
X110079291Y-56965777D01*
X110056453Y-56876745D01*
X110057889Y-56849664D01*
X110144936Y-56849664D01*
X110151186Y-56894379D01*
X110171926Y-56951838D01*
X110198223Y-56999312D01*
X110231511Y-56934939D01*
X110236375Y-56925258D01*
X110252588Y-56877606D01*
X110243598Y-56849366D01*
X110243034Y-56848795D01*
X110239437Y-56840632D01*
X110496595Y-56840632D01*
X110497188Y-56907555D01*
X110499040Y-56954832D01*
X110501797Y-56972750D01*
X110507878Y-56969596D01*
X110531105Y-56949304D01*
X110546585Y-56918788D01*
X110553049Y-56860701D01*
X110545787Y-56795204D01*
X110525243Y-56738288D01*
X110518515Y-56726850D01*
X110506842Y-56712676D01*
X110500382Y-56721825D01*
X110497517Y-56759548D01*
X110497113Y-56792019D01*
X110496628Y-56831096D01*
X110496595Y-56840632D01*
X110239437Y-56840632D01*
X110223378Y-56804193D01*
X110225372Y-56792019D01*
X110324974Y-56792019D01*
X110328177Y-56807439D01*
X110359166Y-56816442D01*
X110384291Y-56811629D01*
X110393359Y-56792019D01*
X110388504Y-56783003D01*
X110359166Y-56767596D01*
X110348972Y-56769330D01*
X110324974Y-56792019D01*
X110225372Y-56792019D01*
X110231856Y-56752429D01*
X110265822Y-56710088D01*
X110272671Y-56705830D01*
X110325386Y-56687125D01*
X110387937Y-56679374D01*
X110422230Y-56678310D01*
X110446406Y-56672399D01*
X110437320Y-56660134D01*
X110392260Y-56644394D01*
X110322037Y-56644117D01*
X110251159Y-56663938D01*
X110198920Y-56704493D01*
X110159283Y-56771776D01*
X110144936Y-56849664D01*
X110057889Y-56849664D01*
X110061354Y-56784288D01*
X110095713Y-56696177D01*
X110161248Y-56620186D01*
X110182690Y-56603259D01*
X110226876Y-56577209D01*
X110276947Y-56565290D01*
X110349397Y-56562442D01*
X110387451Y-56562966D01*
X110446972Y-56569396D01*
X110492211Y-56587362D01*
X110539855Y-56622088D01*
X110541664Y-56623591D01*
X110582823Y-56672399D01*
X110609270Y-56703761D01*
G36*
X110609270Y-56703761D02*
G01*
X110644504Y-56799852D01*
X110644229Y-56860701D01*
X110644039Y-56902898D01*
X110625983Y-56956467D01*
X110583442Y-57023110D01*
X110578946Y-57030154D01*
X110516534Y-57091415D01*
X110449989Y-57127251D01*
X110415283Y-57136956D01*
X110372659Y-57144827D01*
X110332225Y-57142451D01*
X110273947Y-57130157D01*
X110201316Y-57102466D01*
X110128152Y-57043608D01*
X110110896Y-57016121D01*
X110242023Y-57016121D01*
X110261474Y-57031365D01*
X110270946Y-57036206D01*
X110315860Y-57046881D01*
X110370679Y-57050092D01*
X110419351Y-57045662D01*
X110445824Y-57033412D01*
X110447280Y-57023110D01*
X110427439Y-57004718D01*
X110407541Y-56982711D01*
X110397718Y-56939171D01*
X110397192Y-56884827D01*
X110343987Y-56948503D01*
X110330977Y-56963136D01*
X110291470Y-56998214D01*
X110261474Y-57012302D01*
X110256595Y-57012355D01*
X110242023Y-57016121D01*
X110110896Y-57016121D01*
X110079291Y-56965777D01*
X110056453Y-56876745D01*
X110057889Y-56849664D01*
X110144936Y-56849664D01*
X110151186Y-56894379D01*
X110171926Y-56951838D01*
X110198223Y-56999312D01*
X110231511Y-56934939D01*
X110236375Y-56925258D01*
X110252588Y-56877606D01*
X110243598Y-56849366D01*
X110243034Y-56848795D01*
X110239437Y-56840632D01*
X110496595Y-56840632D01*
X110497188Y-56907555D01*
X110499040Y-56954832D01*
X110501797Y-56972750D01*
X110507878Y-56969596D01*
X110531105Y-56949304D01*
X110546585Y-56918788D01*
X110553049Y-56860701D01*
X110545787Y-56795204D01*
X110525243Y-56738288D01*
X110518515Y-56726850D01*
X110506842Y-56712676D01*
X110500382Y-56721825D01*
X110497517Y-56759548D01*
X110497113Y-56792019D01*
X110496628Y-56831096D01*
X110496595Y-56840632D01*
X110239437Y-56840632D01*
X110223378Y-56804193D01*
X110225372Y-56792019D01*
X110324974Y-56792019D01*
X110328177Y-56807439D01*
X110359166Y-56816442D01*
X110384291Y-56811629D01*
X110393359Y-56792019D01*
X110388504Y-56783003D01*
X110359166Y-56767596D01*
X110348972Y-56769330D01*
X110324974Y-56792019D01*
X110225372Y-56792019D01*
X110231856Y-56752429D01*
X110265822Y-56710088D01*
X110272671Y-56705830D01*
X110325386Y-56687125D01*
X110387937Y-56679374D01*
X110422230Y-56678310D01*
X110446406Y-56672399D01*
X110437320Y-56660134D01*
X110392260Y-56644394D01*
X110322037Y-56644117D01*
X110251159Y-56663938D01*
X110198920Y-56704493D01*
X110159283Y-56771776D01*
X110144936Y-56849664D01*
X110057889Y-56849664D01*
X110061354Y-56784288D01*
X110095713Y-56696177D01*
X110161248Y-56620186D01*
X110182690Y-56603259D01*
X110226876Y-56577209D01*
X110276947Y-56565290D01*
X110349397Y-56562442D01*
X110387451Y-56562966D01*
X110446972Y-56569396D01*
X110492211Y-56587362D01*
X110539855Y-56622088D01*
X110541664Y-56623591D01*
X110582823Y-56672399D01*
X110609270Y-56703761D01*
G37*
X120281536Y-53965633D02*
X120316300Y-54115211D01*
X120355267Y-54295679D01*
X120369904Y-54364756D01*
X120394710Y-54479765D01*
X120417807Y-54584500D01*
X120437129Y-54669631D01*
X120450606Y-54725827D01*
X120452544Y-54733564D01*
X120466096Y-54790956D01*
X120486883Y-54882297D01*
X120514136Y-55004093D01*
X120547089Y-55152849D01*
X120584975Y-55325073D01*
X120627027Y-55517269D01*
X120672479Y-55725945D01*
X120720563Y-55947605D01*
X120770512Y-56178756D01*
X120772714Y-56188982D01*
X120821560Y-56415904D01*
X120829702Y-56453690D01*
X120856528Y-56576623D01*
X120881288Y-56687830D01*
X120902475Y-56780683D01*
X120918583Y-56848557D01*
X120928109Y-56884827D01*
X120932935Y-56901697D01*
X120947561Y-56966052D01*
X120959749Y-57036250D01*
X120972988Y-57129057D01*
X120027526Y-57129057D01*
X119895554Y-57128987D01*
X119665700Y-57128348D01*
X119469273Y-57126835D01*
X119302538Y-57124200D01*
X119161762Y-57120191D01*
X119043210Y-57114557D01*
X118943150Y-57107050D01*
X118857846Y-57097417D01*
X118783565Y-57085409D01*
X118716574Y-57070776D01*
X118653138Y-57053267D01*
X118589524Y-57032631D01*
X118516005Y-57005692D01*
X118357897Y-56931604D01*
X118217561Y-56838153D01*
X118080472Y-56716313D01*
X118074859Y-56710722D01*
X117938286Y-56552832D01*
X117829813Y-56378770D01*
X117746276Y-56182473D01*
X117684506Y-55957875D01*
X117683260Y-55952108D01*
X117663785Y-55863716D01*
X117637305Y-55745722D01*
X117605609Y-55605917D01*
X117570486Y-55452093D01*
X117533725Y-55292040D01*
X117497115Y-55133550D01*
X117462445Y-54984413D01*
X117431505Y-54852421D01*
X117406082Y-54745365D01*
X117399088Y-54716053D01*
X117374411Y-54611168D01*
X117345335Y-54485978D01*
X117334591Y-54439251D01*
X118586983Y-54439251D01*
X118589710Y-54457173D01*
X118594824Y-54481635D01*
X118607072Y-54540805D01*
X118625010Y-54627739D01*
X118647477Y-54736803D01*
X118673310Y-54862363D01*
X118701350Y-54998785D01*
X118714501Y-55062661D01*
X118753766Y-55251017D01*
X118787119Y-55406367D01*
X118815597Y-55532854D01*
X118840236Y-55634621D01*
X118862073Y-55715810D01*
X118882143Y-55780563D01*
X118901484Y-55833024D01*
X118921131Y-55877334D01*
X118953703Y-55933770D01*
X119025188Y-56024186D01*
X119109377Y-56103052D01*
X119193827Y-56157579D01*
X119255618Y-56181671D01*
X119323587Y-56199146D01*
X119384244Y-56207010D01*
X119427780Y-56204031D01*
X119444382Y-56188982D01*
X119444095Y-56185635D01*
X119438312Y-56150247D01*
X119425777Y-56082264D01*
X119407388Y-55986177D01*
X119384045Y-55866472D01*
X119356648Y-55727638D01*
X119326095Y-55574164D01*
X119293285Y-55410538D01*
X119259119Y-55241248D01*
X119224494Y-55070784D01*
X119190310Y-54903632D01*
X119157467Y-54744283D01*
X119126863Y-54597223D01*
X119099397Y-54466942D01*
X119087974Y-54413211D01*
X118834139Y-54413211D01*
X118807930Y-54413214D01*
X118712376Y-54413558D01*
X118648530Y-54415250D01*
X118610367Y-54419374D01*
X118591860Y-54427013D01*
X118586983Y-54439251D01*
X117334591Y-54439251D01*
X117314923Y-54353712D01*
X117286236Y-54227596D01*
X117273015Y-54169184D01*
X117246747Y-54053695D01*
X117222259Y-53946711D01*
X117201816Y-53858104D01*
X117188960Y-53803213D01*
X118437867Y-53803213D01*
X118443469Y-53877172D01*
X118477406Y-53952386D01*
X118539118Y-54022922D01*
X118628042Y-54082847D01*
X118707116Y-54111382D01*
X118798647Y-54117508D01*
X118882389Y-54097367D01*
X118951118Y-54054162D01*
X118997607Y-53991098D01*
X119014632Y-53911380D01*
X118997577Y-53830180D01*
X118949016Y-53756116D01*
X118876308Y-53696628D01*
X118786830Y-53656215D01*
X118687961Y-53639377D01*
X118587079Y-53650613D01*
X118513923Y-53682787D01*
X118461165Y-53736440D01*
X118437867Y-53803213D01*
X117188960Y-53803213D01*
X117187680Y-53797750D01*
X117132267Y-53563564D01*
X117078113Y-53330895D01*
X117032597Y-53130782D01*
X116995908Y-52964107D01*
X116968234Y-52831749D01*
X116949764Y-52734587D01*
X116940687Y-52673501D01*
X116941191Y-52649371D01*
X116945075Y-52648161D01*
X116980890Y-52645227D01*
X117050783Y-52642808D01*
X117151107Y-52640932D01*
X117278214Y-52639632D01*
X117428459Y-52638936D01*
X117598194Y-52638875D01*
X117783771Y-52639479D01*
X117981543Y-52640778D01*
X118044894Y-52641305D01*
X118269419Y-52643380D01*
X118459189Y-52645563D01*
X118617647Y-52647976D01*
X118748235Y-52650740D01*
X118854396Y-52653976D01*
X118939571Y-52657805D01*
X119007204Y-52662348D01*
X119060736Y-52667725D01*
X119103611Y-52674058D01*
X119139271Y-52681468D01*
X119153680Y-52684992D01*
X119388538Y-52760713D01*
X119596157Y-52864423D01*
X119776776Y-52996329D01*
X119930634Y-53156637D01*
X120057969Y-53345555D01*
X120159022Y-53563288D01*
X120181866Y-53625407D01*
X120216377Y-53728414D01*
X120248914Y-53839261D01*
X120267531Y-53911380D01*
X120281536Y-53965633D01*
G36*
X120281536Y-53965633D02*
G01*
X120316300Y-54115211D01*
X120355267Y-54295679D01*
X120369904Y-54364756D01*
X120394710Y-54479765D01*
X120417807Y-54584500D01*
X120437129Y-54669631D01*
X120450606Y-54725827D01*
X120452544Y-54733564D01*
X120466096Y-54790956D01*
X120486883Y-54882297D01*
X120514136Y-55004093D01*
X120547089Y-55152849D01*
X120584975Y-55325073D01*
X120627027Y-55517269D01*
X120672479Y-55725945D01*
X120720563Y-55947605D01*
X120770512Y-56178756D01*
X120772714Y-56188982D01*
X120821560Y-56415904D01*
X120829702Y-56453690D01*
X120856528Y-56576623D01*
X120881288Y-56687830D01*
X120902475Y-56780683D01*
X120918583Y-56848557D01*
X120928109Y-56884827D01*
X120932935Y-56901697D01*
X120947561Y-56966052D01*
X120959749Y-57036250D01*
X120972988Y-57129057D01*
X120027526Y-57129057D01*
X119895554Y-57128987D01*
X119665700Y-57128348D01*
X119469273Y-57126835D01*
X119302538Y-57124200D01*
X119161762Y-57120191D01*
X119043210Y-57114557D01*
X118943150Y-57107050D01*
X118857846Y-57097417D01*
X118783565Y-57085409D01*
X118716574Y-57070776D01*
X118653138Y-57053267D01*
X118589524Y-57032631D01*
X118516005Y-57005692D01*
X118357897Y-56931604D01*
X118217561Y-56838153D01*
X118080472Y-56716313D01*
X118074859Y-56710722D01*
X117938286Y-56552832D01*
X117829813Y-56378770D01*
X117746276Y-56182473D01*
X117684506Y-55957875D01*
X117683260Y-55952108D01*
X117663785Y-55863716D01*
X117637305Y-55745722D01*
X117605609Y-55605917D01*
X117570486Y-55452093D01*
X117533725Y-55292040D01*
X117497115Y-55133550D01*
X117462445Y-54984413D01*
X117431505Y-54852421D01*
X117406082Y-54745365D01*
X117399088Y-54716053D01*
X117374411Y-54611168D01*
X117345335Y-54485978D01*
X117334591Y-54439251D01*
X118586983Y-54439251D01*
X118589710Y-54457173D01*
X118594824Y-54481635D01*
X118607072Y-54540805D01*
X118625010Y-54627739D01*
X118647477Y-54736803D01*
X118673310Y-54862363D01*
X118701350Y-54998785D01*
X118714501Y-55062661D01*
X118753766Y-55251017D01*
X118787119Y-55406367D01*
X118815597Y-55532854D01*
X118840236Y-55634621D01*
X118862073Y-55715810D01*
X118882143Y-55780563D01*
X118901484Y-55833024D01*
X118921131Y-55877334D01*
X118953703Y-55933770D01*
X119025188Y-56024186D01*
X119109377Y-56103052D01*
X119193827Y-56157579D01*
X119255618Y-56181671D01*
X119323587Y-56199146D01*
X119384244Y-56207010D01*
X119427780Y-56204031D01*
X119444382Y-56188982D01*
X119444095Y-56185635D01*
X119438312Y-56150247D01*
X119425777Y-56082264D01*
X119407388Y-55986177D01*
X119384045Y-55866472D01*
X119356648Y-55727638D01*
X119326095Y-55574164D01*
X119293285Y-55410538D01*
X119259119Y-55241248D01*
X119224494Y-55070784D01*
X119190310Y-54903632D01*
X119157467Y-54744283D01*
X119126863Y-54597223D01*
X119099397Y-54466942D01*
X119087974Y-54413211D01*
X118834139Y-54413211D01*
X118807930Y-54413214D01*
X118712376Y-54413558D01*
X118648530Y-54415250D01*
X118610367Y-54419374D01*
X118591860Y-54427013D01*
X118586983Y-54439251D01*
X117334591Y-54439251D01*
X117314923Y-54353712D01*
X117286236Y-54227596D01*
X117273015Y-54169184D01*
X117246747Y-54053695D01*
X117222259Y-53946711D01*
X117201816Y-53858104D01*
X117188960Y-53803213D01*
X118437867Y-53803213D01*
X118443469Y-53877172D01*
X118477406Y-53952386D01*
X118539118Y-54022922D01*
X118628042Y-54082847D01*
X118707116Y-54111382D01*
X118798647Y-54117508D01*
X118882389Y-54097367D01*
X118951118Y-54054162D01*
X118997607Y-53991098D01*
X119014632Y-53911380D01*
X118997577Y-53830180D01*
X118949016Y-53756116D01*
X118876308Y-53696628D01*
X118786830Y-53656215D01*
X118687961Y-53639377D01*
X118587079Y-53650613D01*
X118513923Y-53682787D01*
X118461165Y-53736440D01*
X118437867Y-53803213D01*
X117188960Y-53803213D01*
X117187680Y-53797750D01*
X117132267Y-53563564D01*
X117078113Y-53330895D01*
X117032597Y-53130782D01*
X116995908Y-52964107D01*
X116968234Y-52831749D01*
X116949764Y-52734587D01*
X116940687Y-52673501D01*
X116941191Y-52649371D01*
X116945075Y-52648161D01*
X116980890Y-52645227D01*
X117050783Y-52642808D01*
X117151107Y-52640932D01*
X117278214Y-52639632D01*
X117428459Y-52638936D01*
X117598194Y-52638875D01*
X117783771Y-52639479D01*
X117981543Y-52640778D01*
X118044894Y-52641305D01*
X118269419Y-52643380D01*
X118459189Y-52645563D01*
X118617647Y-52647976D01*
X118748235Y-52650740D01*
X118854396Y-52653976D01*
X118939571Y-52657805D01*
X119007204Y-52662348D01*
X119060736Y-52667725D01*
X119103611Y-52674058D01*
X119139271Y-52681468D01*
X119153680Y-52684992D01*
X119388538Y-52760713D01*
X119596157Y-52864423D01*
X119776776Y-52996329D01*
X119930634Y-53156637D01*
X120057969Y-53345555D01*
X120159022Y-53563288D01*
X120181866Y-53625407D01*
X120216377Y-53728414D01*
X120248914Y-53839261D01*
X120267531Y-53911380D01*
X120281536Y-53965633D01*
G37*
X117323014Y-56158205D02*
X117344644Y-56255940D01*
X117363560Y-56337750D01*
X117382204Y-56416371D01*
X117416308Y-56564514D01*
X117447296Y-56704586D01*
X117474156Y-56831601D01*
X117495877Y-56940574D01*
X117511447Y-57026521D01*
X117519855Y-57084456D01*
X117520090Y-57109394D01*
X117518633Y-57110453D01*
X117488167Y-57115290D01*
X117419625Y-57119428D01*
X117313833Y-57122850D01*
X117171620Y-57125541D01*
X116993813Y-57127484D01*
X116781240Y-57128661D01*
X116534727Y-57129057D01*
X116296310Y-57128833D01*
X116084877Y-57127950D01*
X115905123Y-57126123D01*
X115753287Y-57123071D01*
X115625613Y-57118511D01*
X115518342Y-57112160D01*
X115427714Y-57103736D01*
X115349973Y-57092956D01*
X115281358Y-57079537D01*
X115218113Y-57063198D01*
X115156478Y-57043655D01*
X115092695Y-57020625D01*
X115043614Y-57000867D01*
X114855617Y-56900257D01*
X114683319Y-56768642D01*
X114532328Y-56611636D01*
X114408251Y-56434849D01*
X114316696Y-56243897D01*
X114296486Y-56184411D01*
X114267403Y-56083831D01*
X114233608Y-55952134D01*
X114194475Y-55786852D01*
X114149377Y-55585519D01*
X114114877Y-55430125D01*
X114067502Y-55222299D01*
X114013148Y-54989596D01*
X113991381Y-54897009D01*
X113958014Y-54754354D01*
X113924202Y-54609115D01*
X113894679Y-54481596D01*
X113892223Y-54470951D01*
X113873145Y-54388504D01*
X113846794Y-54274912D01*
X113814540Y-54136070D01*
X113777754Y-53977870D01*
X113737806Y-53806206D01*
X113735770Y-53797463D01*
X114192469Y-53797463D01*
X114192612Y-53797900D01*
X114208847Y-53818955D01*
X114249245Y-53864391D01*
X114310743Y-53930955D01*
X114390278Y-54015394D01*
X114484787Y-54114455D01*
X114591207Y-54224882D01*
X114706474Y-54343424D01*
X114715132Y-54352290D01*
X114829666Y-54469843D01*
X114935104Y-54578519D01*
X115028400Y-54675146D01*
X115106512Y-54756553D01*
X115166397Y-54819571D01*
X115205012Y-54861027D01*
X115219311Y-54877751D01*
X115216107Y-54890357D01*
X115197525Y-54931613D01*
X115165984Y-54993342D01*
X115125338Y-55067750D01*
X115086087Y-55137866D01*
X115022911Y-55253108D01*
X114976016Y-55344113D01*
X114943036Y-55417119D01*
X114921601Y-55478363D01*
X114909347Y-55534083D01*
X114903905Y-55590517D01*
X114902908Y-55653904D01*
X114903115Y-55672916D01*
X114908112Y-55763630D01*
X114921297Y-55831065D01*
X114945033Y-55888365D01*
X114961992Y-55917787D01*
X114999253Y-55973076D01*
X115041513Y-56028344D01*
X115082064Y-56075495D01*
X115114198Y-56106432D01*
X115131206Y-56113057D01*
X115131751Y-56112300D01*
X115145183Y-56088341D01*
X115173216Y-56035821D01*
X115212984Y-55960188D01*
X115261621Y-55866886D01*
X115316260Y-55761365D01*
X115360781Y-55675164D01*
X115455249Y-55492712D01*
X115534004Y-55341429D01*
X115598451Y-55218728D01*
X115649993Y-55122024D01*
X115690035Y-55048730D01*
X115719980Y-54996261D01*
X115741231Y-54962031D01*
X115755194Y-54943453D01*
X115763271Y-54937941D01*
X115763441Y-54937949D01*
X115775582Y-54951986D01*
X115790607Y-54994395D01*
X115809169Y-55067754D01*
X115831923Y-55174643D01*
X115859523Y-55317641D01*
X115878684Y-55415392D01*
X115912096Y-55565134D01*
X115945604Y-55691143D01*
X115977814Y-55788376D01*
X116007328Y-55851791D01*
X116032220Y-55886624D01*
X116107262Y-55963107D01*
X116199427Y-56031601D01*
X116294370Y-56080668D01*
X116310578Y-56086460D01*
X116386588Y-56105412D01*
X116457680Y-56113057D01*
X116476276Y-56112957D01*
X116516655Y-56109320D01*
X116530003Y-56095614D01*
X116525578Y-56065331D01*
X116525459Y-56064853D01*
X116516913Y-56026866D01*
X116502754Y-55960058D01*
X116484923Y-55873719D01*
X116465361Y-55777138D01*
X116449587Y-55698976D01*
X116424753Y-55576948D01*
X116396290Y-55437894D01*
X116366600Y-55293556D01*
X116338089Y-55155673D01*
X116317287Y-55054963D01*
X116285632Y-54900455D01*
X116253668Y-54743190D01*
X116224169Y-54596836D01*
X116199911Y-54475060D01*
X116190665Y-54429271D01*
X116166312Y-54316695D01*
X116141719Y-54212742D01*
X116119305Y-54127352D01*
X116101488Y-54070464D01*
X116057607Y-53986096D01*
X115978060Y-53890478D01*
X115880275Y-53812128D01*
X115775623Y-53761815D01*
X115730530Y-53748809D01*
X115660929Y-53732341D01*
X115598725Y-53721265D01*
X115554007Y-53717261D01*
X115536859Y-53722011D01*
X115536994Y-53723517D01*
X115542099Y-53752580D01*
X115553633Y-53812284D01*
X115570292Y-53896206D01*
X115590770Y-53997921D01*
X115613763Y-54111008D01*
X115637966Y-54229041D01*
X115662073Y-54345598D01*
X115684780Y-54454254D01*
X115704782Y-54548587D01*
X115720421Y-54627049D01*
X115733332Y-54707154D01*
X115738638Y-54763526D01*
X115735433Y-54789068D01*
X115728050Y-54786789D01*
X115695829Y-54761872D01*
X115641133Y-54712821D01*
X115566729Y-54642277D01*
X115475381Y-54552882D01*
X115369854Y-54447277D01*
X115252913Y-54328104D01*
X115173146Y-54246614D01*
X115063871Y-54136524D01*
X114962967Y-54036617D01*
X114874167Y-53950499D01*
X114801204Y-53881776D01*
X114747809Y-53834056D01*
X114717717Y-53810946D01*
X114682818Y-53793460D01*
X114559240Y-53753870D01*
X114425178Y-53738042D01*
X114297906Y-53748542D01*
X114260701Y-53757194D01*
X114207098Y-53776894D01*
X114192469Y-53797463D01*
X113735770Y-53797463D01*
X113696067Y-53626970D01*
X113653905Y-53446057D01*
X113636623Y-53371590D01*
X113599068Y-53207272D01*
X113565398Y-53056513D01*
X113536476Y-52923389D01*
X113513161Y-52811976D01*
X113496315Y-52726350D01*
X113486800Y-52670586D01*
X113485475Y-52648761D01*
X113491151Y-52647342D01*
X113530147Y-52644688D01*
X113602835Y-52642484D01*
X113705571Y-52640759D01*
X113834713Y-52639541D01*
X113986617Y-52638861D01*
X114157642Y-52638746D01*
X114344143Y-52639227D01*
X114542479Y-52640332D01*
X114657109Y-52641144D01*
X114885371Y-52642956D01*
X115079962Y-52645124D01*
X115244609Y-52648072D01*
X115383042Y-52652229D01*
X115498987Y-52658018D01*
X115596174Y-52665868D01*
X115678330Y-52676203D01*
X115749184Y-52689450D01*
X115812463Y-52706035D01*
X115871896Y-52726383D01*
X115931210Y-52750922D01*
X115994135Y-52780078D01*
X116064397Y-52814275D01*
X116178821Y-52877557D01*
X116335304Y-52993488D01*
X116471667Y-53135046D01*
X116589398Y-53304498D01*
X116689989Y-53504113D01*
X116774930Y-53736159D01*
X116845713Y-54002904D01*
X116851614Y-54029031D01*
X116876433Y-54138155D01*
X116902155Y-54250276D01*
X116924067Y-54344827D01*
X116932999Y-54383713D01*
X116953343Y-54474700D01*
X116977998Y-54587067D01*
X117004631Y-54710150D01*
X117030910Y-54833288D01*
X117047333Y-54910455D01*
X117072655Y-55027999D01*
X117096151Y-55135480D01*
X117115762Y-55223503D01*
X117129428Y-55282673D01*
X117146760Y-55356650D01*
X117168773Y-55453819D01*
X117189110Y-55546442D01*
X117207482Y-55630881D01*
X117229132Y-55728504D01*
X117247652Y-55810211D01*
X117264275Y-55884060D01*
X117285473Y-55981289D01*
X117305090Y-56073980D01*
X117309694Y-56095614D01*
X117323014Y-56158205D01*
G36*
X117323014Y-56158205D02*
G01*
X117344644Y-56255940D01*
X117363560Y-56337750D01*
X117382204Y-56416371D01*
X117416308Y-56564514D01*
X117447296Y-56704586D01*
X117474156Y-56831601D01*
X117495877Y-56940574D01*
X117511447Y-57026521D01*
X117519855Y-57084456D01*
X117520090Y-57109394D01*
X117518633Y-57110453D01*
X117488167Y-57115290D01*
X117419625Y-57119428D01*
X117313833Y-57122850D01*
X117171620Y-57125541D01*
X116993813Y-57127484D01*
X116781240Y-57128661D01*
X116534727Y-57129057D01*
X116296310Y-57128833D01*
X116084877Y-57127950D01*
X115905123Y-57126123D01*
X115753287Y-57123071D01*
X115625613Y-57118511D01*
X115518342Y-57112160D01*
X115427714Y-57103736D01*
X115349973Y-57092956D01*
X115281358Y-57079537D01*
X115218113Y-57063198D01*
X115156478Y-57043655D01*
X115092695Y-57020625D01*
X115043614Y-57000867D01*
X114855617Y-56900257D01*
X114683319Y-56768642D01*
X114532328Y-56611636D01*
X114408251Y-56434849D01*
X114316696Y-56243897D01*
X114296486Y-56184411D01*
X114267403Y-56083831D01*
X114233608Y-55952134D01*
X114194475Y-55786852D01*
X114149377Y-55585519D01*
X114114877Y-55430125D01*
X114067502Y-55222299D01*
X114013148Y-54989596D01*
X113991381Y-54897009D01*
X113958014Y-54754354D01*
X113924202Y-54609115D01*
X113894679Y-54481596D01*
X113892223Y-54470951D01*
X113873145Y-54388504D01*
X113846794Y-54274912D01*
X113814540Y-54136070D01*
X113777754Y-53977870D01*
X113737806Y-53806206D01*
X113735770Y-53797463D01*
X114192469Y-53797463D01*
X114192612Y-53797900D01*
X114208847Y-53818955D01*
X114249245Y-53864391D01*
X114310743Y-53930955D01*
X114390278Y-54015394D01*
X114484787Y-54114455D01*
X114591207Y-54224882D01*
X114706474Y-54343424D01*
X114715132Y-54352290D01*
X114829666Y-54469843D01*
X114935104Y-54578519D01*
X115028400Y-54675146D01*
X115106512Y-54756553D01*
X115166397Y-54819571D01*
X115205012Y-54861027D01*
X115219311Y-54877751D01*
X115216107Y-54890357D01*
X115197525Y-54931613D01*
X115165984Y-54993342D01*
X115125338Y-55067750D01*
X115086087Y-55137866D01*
X115022911Y-55253108D01*
X114976016Y-55344113D01*
X114943036Y-55417119D01*
X114921601Y-55478363D01*
X114909347Y-55534083D01*
X114903905Y-55590517D01*
X114902908Y-55653904D01*
X114903115Y-55672916D01*
X114908112Y-55763630D01*
X114921297Y-55831065D01*
X114945033Y-55888365D01*
X114961992Y-55917787D01*
X114999253Y-55973076D01*
X115041513Y-56028344D01*
X115082064Y-56075495D01*
X115114198Y-56106432D01*
X115131206Y-56113057D01*
X115131751Y-56112300D01*
X115145183Y-56088341D01*
X115173216Y-56035821D01*
X115212984Y-55960188D01*
X115261621Y-55866886D01*
X115316260Y-55761365D01*
X115360781Y-55675164D01*
X115455249Y-55492712D01*
X115534004Y-55341429D01*
X115598451Y-55218728D01*
X115649993Y-55122024D01*
X115690035Y-55048730D01*
X115719980Y-54996261D01*
X115741231Y-54962031D01*
X115755194Y-54943453D01*
X115763271Y-54937941D01*
X115763441Y-54937949D01*
X115775582Y-54951986D01*
X115790607Y-54994395D01*
X115809169Y-55067754D01*
X115831923Y-55174643D01*
X115859523Y-55317641D01*
X115878684Y-55415392D01*
X115912096Y-55565134D01*
X115945604Y-55691143D01*
X115977814Y-55788376D01*
X116007328Y-55851791D01*
X116032220Y-55886624D01*
X116107262Y-55963107D01*
X116199427Y-56031601D01*
X116294370Y-56080668D01*
X116310578Y-56086460D01*
X116386588Y-56105412D01*
X116457680Y-56113057D01*
X116476276Y-56112957D01*
X116516655Y-56109320D01*
X116530003Y-56095614D01*
X116525578Y-56065331D01*
X116525459Y-56064853D01*
X116516913Y-56026866D01*
X116502754Y-55960058D01*
X116484923Y-55873719D01*
X116465361Y-55777138D01*
X116449587Y-55698976D01*
X116424753Y-55576948D01*
X116396290Y-55437894D01*
X116366600Y-55293556D01*
X116338089Y-55155673D01*
X116317287Y-55054963D01*
X116285632Y-54900455D01*
X116253668Y-54743190D01*
X116224169Y-54596836D01*
X116199911Y-54475060D01*
X116190665Y-54429271D01*
X116166312Y-54316695D01*
X116141719Y-54212742D01*
X116119305Y-54127352D01*
X116101488Y-54070464D01*
X116057607Y-53986096D01*
X115978060Y-53890478D01*
X115880275Y-53812128D01*
X115775623Y-53761815D01*
X115730530Y-53748809D01*
X115660929Y-53732341D01*
X115598725Y-53721265D01*
X115554007Y-53717261D01*
X115536859Y-53722011D01*
X115536994Y-53723517D01*
X115542099Y-53752580D01*
X115553633Y-53812284D01*
X115570292Y-53896206D01*
X115590770Y-53997921D01*
X115613763Y-54111008D01*
X115637966Y-54229041D01*
X115662073Y-54345598D01*
X115684780Y-54454254D01*
X115704782Y-54548587D01*
X115720421Y-54627049D01*
X115733332Y-54707154D01*
X115738638Y-54763526D01*
X115735433Y-54789068D01*
X115728050Y-54786789D01*
X115695829Y-54761872D01*
X115641133Y-54712821D01*
X115566729Y-54642277D01*
X115475381Y-54552882D01*
X115369854Y-54447277D01*
X115252913Y-54328104D01*
X115173146Y-54246614D01*
X115063871Y-54136524D01*
X114962967Y-54036617D01*
X114874167Y-53950499D01*
X114801204Y-53881776D01*
X114747809Y-53834056D01*
X114717717Y-53810946D01*
X114682818Y-53793460D01*
X114559240Y-53753870D01*
X114425178Y-53738042D01*
X114297906Y-53748542D01*
X114260701Y-53757194D01*
X114207098Y-53776894D01*
X114192469Y-53797463D01*
X113735770Y-53797463D01*
X113696067Y-53626970D01*
X113653905Y-53446057D01*
X113636623Y-53371590D01*
X113599068Y-53207272D01*
X113565398Y-53056513D01*
X113536476Y-52923389D01*
X113513161Y-52811976D01*
X113496315Y-52726350D01*
X113486800Y-52670586D01*
X113485475Y-52648761D01*
X113491151Y-52647342D01*
X113530147Y-52644688D01*
X113602835Y-52642484D01*
X113705571Y-52640759D01*
X113834713Y-52639541D01*
X113986617Y-52638861D01*
X114157642Y-52638746D01*
X114344143Y-52639227D01*
X114542479Y-52640332D01*
X114657109Y-52641144D01*
X114885371Y-52642956D01*
X115079962Y-52645124D01*
X115244609Y-52648072D01*
X115383042Y-52652229D01*
X115498987Y-52658018D01*
X115596174Y-52665868D01*
X115678330Y-52676203D01*
X115749184Y-52689450D01*
X115812463Y-52706035D01*
X115871896Y-52726383D01*
X115931210Y-52750922D01*
X115994135Y-52780078D01*
X116064397Y-52814275D01*
X116178821Y-52877557D01*
X116335304Y-52993488D01*
X116471667Y-53135046D01*
X116589398Y-53304498D01*
X116689989Y-53504113D01*
X116774930Y-53736159D01*
X116845713Y-54002904D01*
X116851614Y-54029031D01*
X116876433Y-54138155D01*
X116902155Y-54250276D01*
X116924067Y-54344827D01*
X116932999Y-54383713D01*
X116953343Y-54474700D01*
X116977998Y-54587067D01*
X117004631Y-54710150D01*
X117030910Y-54833288D01*
X117047333Y-54910455D01*
X117072655Y-55027999D01*
X117096151Y-55135480D01*
X117115762Y-55223503D01*
X117129428Y-55282673D01*
X117146760Y-55356650D01*
X117168773Y-55453819D01*
X117189110Y-55546442D01*
X117207482Y-55630881D01*
X117229132Y-55728504D01*
X117247652Y-55810211D01*
X117264275Y-55884060D01*
X117285473Y-55981289D01*
X117305090Y-56073980D01*
X117309694Y-56095614D01*
X117323014Y-56158205D01*
G37*
X113342588Y-53775519D02*
X113358362Y-53835534D01*
X113376925Y-53910668D01*
X113399197Y-54004765D01*
X113426097Y-54121670D01*
X113458544Y-54265227D01*
X113497458Y-54439280D01*
X113543758Y-54647673D01*
X113551543Y-54682782D01*
X113583560Y-54827129D01*
X113615672Y-54971855D01*
X113645741Y-55107327D01*
X113671630Y-55223913D01*
X113691201Y-55311980D01*
X113706351Y-55380238D01*
X113732768Y-55499707D01*
X113758459Y-55616353D01*
X113779529Y-55712519D01*
X113781195Y-55720153D01*
X113796609Y-55790489D01*
X113818742Y-55891188D01*
X113846105Y-56015488D01*
X113877209Y-56156627D01*
X113910564Y-56307846D01*
X113944683Y-56462382D01*
X113955125Y-56509814D01*
X113986278Y-56653271D01*
X114014134Y-56784425D01*
X114037637Y-56898112D01*
X114055732Y-56989168D01*
X114067363Y-57052428D01*
X114071474Y-57082728D01*
X114071474Y-57129057D01*
X113089666Y-57129031D01*
X113005544Y-57129011D01*
X112773334Y-57128651D01*
X112575180Y-57127603D01*
X112407303Y-57125565D01*
X112265922Y-57122237D01*
X112147255Y-57117316D01*
X112047524Y-57110500D01*
X111962947Y-57101488D01*
X111889743Y-57089978D01*
X111824133Y-57075668D01*
X111762335Y-57058256D01*
X111700569Y-57037441D01*
X111635056Y-57012921D01*
X111615178Y-57005087D01*
X111412494Y-56903474D01*
X111235149Y-56772357D01*
X111083695Y-56612420D01*
X110958685Y-56424345D01*
X110860670Y-56208817D01*
X110790202Y-55966519D01*
X110777330Y-55908646D01*
X110746420Y-55771285D01*
X110710886Y-55614979D01*
X110673349Y-55451147D01*
X110636430Y-55291207D01*
X110602749Y-55146576D01*
X110574928Y-55028673D01*
X110552062Y-54931783D01*
X110527510Y-54826190D01*
X110506786Y-54735596D01*
X110502600Y-54717126D01*
X110484474Y-54637967D01*
X110460837Y-54535542D01*
X110434279Y-54421065D01*
X110407396Y-54305750D01*
X110396952Y-54261027D01*
X110371733Y-54152631D01*
X110348958Y-54054217D01*
X110330788Y-53975138D01*
X110319384Y-53924750D01*
X110316852Y-53913420D01*
X110302504Y-53850459D01*
X110282698Y-53764604D01*
X110883075Y-53764604D01*
X110890130Y-53789059D01*
X110917495Y-53837722D01*
X110961630Y-53904813D01*
X111018997Y-53984552D01*
X111022253Y-53988913D01*
X111114138Y-54111729D01*
X111212275Y-54242441D01*
X111313694Y-54377135D01*
X111415425Y-54511895D01*
X111514496Y-54642805D01*
X111607937Y-54765951D01*
X111692777Y-54877418D01*
X111766046Y-54973289D01*
X111824772Y-55049651D01*
X111865987Y-55102588D01*
X111886717Y-55128183D01*
X111900877Y-55149676D01*
X111924141Y-55206840D01*
X111940777Y-55274722D01*
X111949597Y-55325739D01*
X111973060Y-55446464D01*
X111999179Y-55564594D01*
X112025767Y-55671129D01*
X112050639Y-55757066D01*
X112071607Y-55813405D01*
X112072337Y-55814933D01*
X112136674Y-55911541D01*
X112227086Y-55997479D01*
X112330805Y-56060574D01*
X112353277Y-56069901D01*
X112435839Y-56096586D01*
X112514837Y-56113399D01*
X112609199Y-56125989D01*
X112596726Y-56056023D01*
X112596615Y-56055403D01*
X112588611Y-56013614D01*
X112574193Y-55941091D01*
X112554840Y-55845168D01*
X112532032Y-55733181D01*
X112507248Y-55612463D01*
X112506215Y-55607449D01*
X112477860Y-55468885D01*
X112457010Y-55362345D01*
X112443168Y-55281801D01*
X112435843Y-55221222D01*
X112434539Y-55174581D01*
X112438763Y-55135846D01*
X112448021Y-55098989D01*
X112461818Y-55057980D01*
X112502782Y-54941441D01*
X112557603Y-54784448D01*
X112613053Y-54624629D01*
X112667630Y-54466397D01*
X112719831Y-54314164D01*
X112768154Y-54172344D01*
X112811097Y-54045348D01*
X112847158Y-53937590D01*
X112874832Y-53853483D01*
X112892620Y-53797440D01*
X112899017Y-53773872D01*
X112888422Y-53768898D01*
X112849354Y-53755746D01*
X112791380Y-53738199D01*
X112736084Y-53725365D01*
X112617124Y-53722915D01*
X112507284Y-53758283D01*
X112404791Y-53831899D01*
X112388532Y-53848080D01*
X112358218Y-53885796D01*
X112329908Y-53934296D01*
X112301342Y-53999015D01*
X112270260Y-54085387D01*
X112234403Y-54198846D01*
X112191511Y-54344827D01*
X112164163Y-54438581D01*
X112134829Y-54535916D01*
X112110065Y-54614621D01*
X112091868Y-54668366D01*
X112082238Y-54690821D01*
X112080413Y-54692538D01*
X112068098Y-54697402D01*
X112051443Y-54689571D01*
X112026960Y-54665095D01*
X111991163Y-54620022D01*
X111940564Y-54550404D01*
X111871677Y-54452288D01*
X111790651Y-54336042D01*
X111713289Y-54225264D01*
X111652669Y-54138790D01*
X111605807Y-54072393D01*
X111569718Y-54021846D01*
X111541418Y-53982924D01*
X111517920Y-53951400D01*
X111492964Y-53921368D01*
X111392946Y-53836838D01*
X111271406Y-53774764D01*
X111138913Y-53739598D01*
X111006037Y-53735791D01*
X110964431Y-53741245D01*
X110911462Y-53752228D01*
X110883712Y-53763619D01*
X110883075Y-53764604D01*
X110282698Y-53764604D01*
X110281856Y-53760955D01*
X110257018Y-53653943D01*
X110230098Y-53538460D01*
X110203206Y-53423541D01*
X110178451Y-53318220D01*
X110157943Y-53231535D01*
X110143789Y-53172519D01*
X110127306Y-53104031D01*
X110103875Y-53004385D01*
X110080822Y-52904154D01*
X110059877Y-52811059D01*
X110042774Y-52732820D01*
X110031241Y-52677158D01*
X110027013Y-52651793D01*
X110034143Y-52649030D01*
X110076638Y-52645148D01*
X110156451Y-52642121D01*
X110272496Y-52639960D01*
X110423682Y-52638678D01*
X110608921Y-52638286D01*
X110827125Y-52638798D01*
X111077205Y-52640224D01*
X111247418Y-52641470D01*
X111452730Y-52643159D01*
X111625042Y-52644924D01*
X111767888Y-52646903D01*
X111884803Y-52649234D01*
X111979319Y-52652057D01*
X112054971Y-52655508D01*
X112115291Y-52659727D01*
X112163815Y-52664850D01*
X112204074Y-52671018D01*
X112239603Y-52678367D01*
X112273936Y-52687036D01*
X112416839Y-52730573D01*
X112629236Y-52819788D01*
X112812590Y-52932226D01*
X112969552Y-53070391D01*
X113102773Y-53236790D01*
X113214907Y-53433925D01*
X113308605Y-53664304D01*
X113315733Y-53685471D01*
X113328685Y-53726780D01*
X113342119Y-53773872D01*
X113342588Y-53775519D01*
G36*
X113342588Y-53775519D02*
G01*
X113358362Y-53835534D01*
X113376925Y-53910668D01*
X113399197Y-54004765D01*
X113426097Y-54121670D01*
X113458544Y-54265227D01*
X113497458Y-54439280D01*
X113543758Y-54647673D01*
X113551543Y-54682782D01*
X113583560Y-54827129D01*
X113615672Y-54971855D01*
X113645741Y-55107327D01*
X113671630Y-55223913D01*
X113691201Y-55311980D01*
X113706351Y-55380238D01*
X113732768Y-55499707D01*
X113758459Y-55616353D01*
X113779529Y-55712519D01*
X113781195Y-55720153D01*
X113796609Y-55790489D01*
X113818742Y-55891188D01*
X113846105Y-56015488D01*
X113877209Y-56156627D01*
X113910564Y-56307846D01*
X113944683Y-56462382D01*
X113955125Y-56509814D01*
X113986278Y-56653271D01*
X114014134Y-56784425D01*
X114037637Y-56898112D01*
X114055732Y-56989168D01*
X114067363Y-57052428D01*
X114071474Y-57082728D01*
X114071474Y-57129057D01*
X113089666Y-57129031D01*
X113005544Y-57129011D01*
X112773334Y-57128651D01*
X112575180Y-57127603D01*
X112407303Y-57125565D01*
X112265922Y-57122237D01*
X112147255Y-57117316D01*
X112047524Y-57110500D01*
X111962947Y-57101488D01*
X111889743Y-57089978D01*
X111824133Y-57075668D01*
X111762335Y-57058256D01*
X111700569Y-57037441D01*
X111635056Y-57012921D01*
X111615178Y-57005087D01*
X111412494Y-56903474D01*
X111235149Y-56772357D01*
X111083695Y-56612420D01*
X110958685Y-56424345D01*
X110860670Y-56208817D01*
X110790202Y-55966519D01*
X110777330Y-55908646D01*
X110746420Y-55771285D01*
X110710886Y-55614979D01*
X110673349Y-55451147D01*
X110636430Y-55291207D01*
X110602749Y-55146576D01*
X110574928Y-55028673D01*
X110552062Y-54931783D01*
X110527510Y-54826190D01*
X110506786Y-54735596D01*
X110502600Y-54717126D01*
X110484474Y-54637967D01*
X110460837Y-54535542D01*
X110434279Y-54421065D01*
X110407396Y-54305750D01*
X110396952Y-54261027D01*
X110371733Y-54152631D01*
X110348958Y-54054217D01*
X110330788Y-53975138D01*
X110319384Y-53924750D01*
X110316852Y-53913420D01*
X110302504Y-53850459D01*
X110282698Y-53764604D01*
X110883075Y-53764604D01*
X110890130Y-53789059D01*
X110917495Y-53837722D01*
X110961630Y-53904813D01*
X111018997Y-53984552D01*
X111022253Y-53988913D01*
X111114138Y-54111729D01*
X111212275Y-54242441D01*
X111313694Y-54377135D01*
X111415425Y-54511895D01*
X111514496Y-54642805D01*
X111607937Y-54765951D01*
X111692777Y-54877418D01*
X111766046Y-54973289D01*
X111824772Y-55049651D01*
X111865987Y-55102588D01*
X111886717Y-55128183D01*
X111900877Y-55149676D01*
X111924141Y-55206840D01*
X111940777Y-55274722D01*
X111949597Y-55325739D01*
X111973060Y-55446464D01*
X111999179Y-55564594D01*
X112025767Y-55671129D01*
X112050639Y-55757066D01*
X112071607Y-55813405D01*
X112072337Y-55814933D01*
X112136674Y-55911541D01*
X112227086Y-55997479D01*
X112330805Y-56060574D01*
X112353277Y-56069901D01*
X112435839Y-56096586D01*
X112514837Y-56113399D01*
X112609199Y-56125989D01*
X112596726Y-56056023D01*
X112596615Y-56055403D01*
X112588611Y-56013614D01*
X112574193Y-55941091D01*
X112554840Y-55845168D01*
X112532032Y-55733181D01*
X112507248Y-55612463D01*
X112506215Y-55607449D01*
X112477860Y-55468885D01*
X112457010Y-55362345D01*
X112443168Y-55281801D01*
X112435843Y-55221222D01*
X112434539Y-55174581D01*
X112438763Y-55135846D01*
X112448021Y-55098989D01*
X112461818Y-55057980D01*
X112502782Y-54941441D01*
X112557603Y-54784448D01*
X112613053Y-54624629D01*
X112667630Y-54466397D01*
X112719831Y-54314164D01*
X112768154Y-54172344D01*
X112811097Y-54045348D01*
X112847158Y-53937590D01*
X112874832Y-53853483D01*
X112892620Y-53797440D01*
X112899017Y-53773872D01*
X112888422Y-53768898D01*
X112849354Y-53755746D01*
X112791380Y-53738199D01*
X112736084Y-53725365D01*
X112617124Y-53722915D01*
X112507284Y-53758283D01*
X112404791Y-53831899D01*
X112388532Y-53848080D01*
X112358218Y-53885796D01*
X112329908Y-53934296D01*
X112301342Y-53999015D01*
X112270260Y-54085387D01*
X112234403Y-54198846D01*
X112191511Y-54344827D01*
X112164163Y-54438581D01*
X112134829Y-54535916D01*
X112110065Y-54614621D01*
X112091868Y-54668366D01*
X112082238Y-54690821D01*
X112080413Y-54692538D01*
X112068098Y-54697402D01*
X112051443Y-54689571D01*
X112026960Y-54665095D01*
X111991163Y-54620022D01*
X111940564Y-54550404D01*
X111871677Y-54452288D01*
X111790651Y-54336042D01*
X111713289Y-54225264D01*
X111652669Y-54138790D01*
X111605807Y-54072393D01*
X111569718Y-54021846D01*
X111541418Y-53982924D01*
X111517920Y-53951400D01*
X111492964Y-53921368D01*
X111392946Y-53836838D01*
X111271406Y-53774764D01*
X111138913Y-53739598D01*
X111006037Y-53735791D01*
X110964431Y-53741245D01*
X110911462Y-53752228D01*
X110883712Y-53763619D01*
X110883075Y-53764604D01*
X110282698Y-53764604D01*
X110281856Y-53760955D01*
X110257018Y-53653943D01*
X110230098Y-53538460D01*
X110203206Y-53423541D01*
X110178451Y-53318220D01*
X110157943Y-53231535D01*
X110143789Y-53172519D01*
X110127306Y-53104031D01*
X110103875Y-53004385D01*
X110080822Y-52904154D01*
X110059877Y-52811059D01*
X110042774Y-52732820D01*
X110031241Y-52677158D01*
X110027013Y-52651793D01*
X110034143Y-52649030D01*
X110076638Y-52645148D01*
X110156451Y-52642121D01*
X110272496Y-52639960D01*
X110423682Y-52638678D01*
X110608921Y-52638286D01*
X110827125Y-52638798D01*
X111077205Y-52640224D01*
X111247418Y-52641470D01*
X111452730Y-52643159D01*
X111625042Y-52644924D01*
X111767888Y-52646903D01*
X111884803Y-52649234D01*
X111979319Y-52652057D01*
X112054971Y-52655508D01*
X112115291Y-52659727D01*
X112163815Y-52664850D01*
X112204074Y-52671018D01*
X112239603Y-52678367D01*
X112273936Y-52687036D01*
X112416839Y-52730573D01*
X112629236Y-52819788D01*
X112812590Y-52932226D01*
X112969552Y-53070391D01*
X113102773Y-53236790D01*
X113214907Y-53433925D01*
X113308605Y-53664304D01*
X113315733Y-53685471D01*
X113328685Y-53726780D01*
X113342119Y-53773872D01*
X113342588Y-53775519D01*
G37*
G04 #@! TD*
M02*
