M48
; DRILL file {KiCad 8.0.8} date 2025-05-27T14:26:28+0700
; FORMAT={-:-/ absolute / inch / decimal}
; #@! TF.CreationDate,2025-05-27T14:26:28+07:00
; #@! TF.GenerationSoftware,Kicad,Pcbnew,8.0.8
; #@! TF.FileFunction,MixedPlating,1,2
FMAT,2
INCH
; #@! TA.AperFunction,Plated,PTH,ViaDrill
T1C0.0118
; #@! TA.AperFunction,Plated,PTH,ComponentDrill
T2C0.0394
; #@! TA.AperFunction,Plated,PTH,ComponentDrill
T3C0.0598
%
G90
G05
T1
X4.2156Y-2.8051
X4.2156Y-2.8406
X4.4198Y-2.7849
X4.5Y-3.5039
X4.5354Y-3.5039
X4.563Y-2.7835
X4.5659Y-2.8258
X4.5661Y-3.1112
X4.5709Y-2.9567
X4.5817Y-2.5738
X4.5866Y-2.4606
X4.5866Y-2.8819
X4.6063Y-2.9567
X4.6132Y-2.5738
X4.6181Y-2.4606
X4.6457Y-3.1496
X4.6673Y-2.3563
X4.6772Y-2.4921
X4.6774Y-2.7354
X4.6811Y-3.1496
X4.6818Y-2.7705
X4.6988Y-2.3563
X4.7242Y-2.4168
X4.7283Y-2.6339
X4.7303Y-2.5609
X4.7303Y-2.3563
X4.7362Y-3.0098
X4.7362Y-3.0512
X4.7392Y-2.4715
X4.7402Y-2.5984
X4.7648Y-2.56
X4.7933Y-2.5492
X4.7992Y-2.6969
X4.7992Y-2.7283
X4.7992Y-2.8504
X4.7992Y-2.8819
X4.815Y-2.9843
X4.8317Y-2.3652
X4.8346Y-2.4252
X4.8346Y-3.3543
X4.8425Y-3.5472
X4.8425Y-3.5827
X4.8445Y-2.9843
X4.876Y-2.3652
X4.8819Y-2.4055
X4.8819Y-3.0965
X4.8898Y-2.0846
X4.8976Y-3.315
X4.8976Y-3.3465
X4.9232Y-2.3652
X4.927Y-2.0846
X4.9643Y-2.0846
X4.9649Y-2.5791
X4.9685Y-3.3031
X4.9803Y-3.126
X4.9843Y-2.7835
X4.9843Y-2.815
X4.9843Y-2.8504
X4.9843Y-2.8819
X5.0Y-2.5312
X5.0Y-2.5748
X5.0015Y-2.0846
X5.0039Y-3.3031
X5.0079Y-3.0827
X5.0095Y-3.0417
X5.0201Y-2.553
X5.0388Y-2.0846
X5.0396Y-3.0233
X5.0551Y-2.5512
X5.0551Y-2.9961
X5.0709Y-2.9488
X5.0758Y-2.3927
X5.076Y-2.0846
X5.0866Y-2.9705
X5.0984Y-2.878
X5.1024Y-3.4213
X5.1102Y-2.6142
X5.1133Y-2.0846
X5.1142Y-2.6614
X5.1142Y-3.0354
X5.1161Y-3.4843
X5.1191Y-2.3927
X5.1447Y-3.2028
X5.1457Y-3.0354
X5.1505Y-2.0846
X5.1693Y-3.4803
X5.1762Y-3.2028
X5.1878Y-2.0846
X5.1952Y-2.8757
X5.2008Y-2.9331
X5.2031Y-2.1732
X5.2047Y-3.4803
X5.2165Y-2.9016
X5.2244Y-2.3356
X5.225Y-2.0846
X5.2382Y-2.6417
X5.2403Y-2.1732
X5.248Y-3.0709
X5.2559Y-2.9724
X5.2623Y-2.0846
X5.2638Y-2.3171
X5.2677Y-2.6417
X5.2776Y-2.1732
X5.2795Y-3.1378
X5.2815Y-2.7365
X5.2953Y-2.3307
X5.2995Y-2.0846
X5.3051Y-2.689
X5.3148Y-2.1732
X5.3228Y-3.3543
X5.3307Y-2.874
X5.3346Y-3.0079
X5.3368Y-2.0846
X5.3386Y-2.7971
X5.3415Y-2.7244
X5.374Y-2.0846
X5.378Y-2.689
X5.4019Y-2.0157
X5.4055Y-2.8937
X5.4144Y-2.0906
X5.4193Y-2.2323
X5.4252Y-3.252
X5.4291Y-3.5079
X5.4391Y-2.0157
X5.4616Y-2.6181
X5.4646Y-3.252
X5.4764Y-2.0157
X5.4764Y-2.5
X5.4882Y-2.8099
X5.4882Y-3.0925
X5.4882Y-3.4094
X5.5Y-2.6378
X5.5Y-3.3268
X5.5118Y-2.9724
X5.5433Y-3.2047
X5.5472Y-3.563
X5.5556Y-2.2475
X5.5613Y-2.0689
X5.5866Y-3.1063
X5.5906Y-3.0669
X5.5945Y-3.0197
X5.5945Y-3.563
X5.5986Y-2.0689
X5.6102Y-3.4094
X5.622Y-3.3652
X5.6358Y-2.0689
X5.6496Y-3.563
X5.6614Y-2.5333
X5.689Y-3.0433
X5.689Y-3.0748
X5.689Y-3.1063
X5.7264Y-3.3366
X5.7441Y-2.8819
X5.7638Y-3.3819
X5.7638Y-3.4921
X5.7835Y-3.3425
X5.7992Y-3.2835
X5.811Y-3.4921
X5.8661Y-2.6535
X5.8661Y-3.4055
X5.8858Y-3.122
X5.8898Y-2.8465
X5.8898Y-3.2441
X5.9016Y-2.5591
X5.9016Y-2.6535
X5.9055Y-2.5
X5.9213Y-3.0079
X5.9213Y-3.0394
X5.9213Y-3.0709
X5.937Y-2.6535
X5.9606Y-2.8465
X5.9724Y-2.6535
X6.0315Y-3.0669
X6.0354Y-3.122
X6.0512Y-2.8465
X6.063Y-3.0669
X6.0906Y-2.0669
X6.0906Y-2.1063
X6.0945Y-3.0669
X6.0945Y-3.126
X6.0945Y-3.1654
X6.0945Y-3.2047
X6.1142Y-2.8661
X6.1142Y-2.8976
X6.1142Y-2.9291
X6.122Y-2.0669
X6.122Y-2.1063
X6.125Y-2.2707
X6.126Y-3.126
X6.126Y-3.1654
X6.126Y-3.2047
X6.1496Y-2.1063
X6.1535Y-2.0669
X6.1535Y-2.8661
X6.1535Y-2.8976
X6.1535Y-2.9291
X6.1575Y-3.126
X6.1575Y-3.1654
X6.1575Y-3.2047
X6.1811Y-2.1063
X6.185Y-2.0669
X6.2126Y-2.1063
X6.2165Y-2.0669
X6.2441Y-2.0669
X6.2441Y-2.1063
X6.2638Y-2.5079
X6.2638Y-2.5394
X6.2638Y-2.5669
X6.2638Y-2.5984
X6.2638Y-2.6299
X6.2638Y-2.6614
X6.2638Y-2.6929
X6.2756Y-2.0669
X6.2756Y-2.1063
X6.2904Y-2.251
X6.2904Y-2.2825
X6.2904Y-2.31
X6.2904Y-2.3415
X6.2904Y-2.373
X6.2904Y-2.4045
X6.2904Y-2.436
X6.3031Y-2.5079
X6.3031Y-2.5394
X6.3031Y-2.5709
X6.3031Y-2.6024
X6.3031Y-2.6339
X6.3031Y-2.6614
X6.3031Y-2.6929
X6.3297Y-2.251
X6.3297Y-2.2825
X6.3297Y-2.314
X6.3297Y-2.3455
X6.3297Y-2.377
X6.3297Y-2.4045
X6.3297Y-2.436
T2
X4.378Y-2.9967
X4.378Y-3.0967
X4.378Y-3.1967
X4.378Y-3.2967
X4.378Y-3.3967
X6.185Y-3.375
X6.185Y-3.475
T3
X4.311Y-2.4551
X4.311Y-2.6551
X6.2598Y-2.9496
X6.2598Y-3.1496
M30
