%TF.GenerationSoftware,KiCad,Pcbnew,8.0.8*%
%TF.CreationDate,2025-05-28T16:15:01+07:00*%
%TF.ProjectId,WLC_TX15W_C1_V1.1,574c435f-5458-4313-9557-5f43315f5631,rev?*%
%TF.SameCoordinates,Original*%
%TF.FileFunction,Soldermask,Top*%
%TF.FilePolarity,Negative*%
%FSLAX46Y46*%
G04 Gerber Fmt 4.6, Leading zero omitted, Abs format (unit mm)*
G04 Created by KiCad (PCBNEW 8.0.8) date 2025-05-28 16:15:01*
%MOMM*%
%LPD*%
G01*
G04 APERTURE LIST*
G04 Aperture macros list*
%AMRoundRect*
0 Rectangle with rounded corners*
0 $1 Rounding radius*
0 $2 $3 $4 $5 $6 $7 $8 $9 X,Y pos of 4 corners*
0 Add a 4 corners polygon primitive as box body*
4,1,4,$2,$3,$4,$5,$6,$7,$8,$9,$2,$3,0*
0 Add four circle primitives for the rounded corners*
1,1,$1+$1,$2,$3*
1,1,$1+$1,$4,$5*
1,1,$1+$1,$6,$7*
1,1,$1+$1,$8,$9*
0 Add four rect primitives between the rounded corners*
20,1,$1+$1,$2,$3,$4,$5,0*
20,1,$1+$1,$4,$5,$6,$7,0*
20,1,$1+$1,$6,$7,$8,$9,0*
20,1,$1+$1,$8,$9,$2,$3,0*%
%AMFreePoly0*
4,1,37,1.915180,1.368803,1.915215,1.368788,1.962648,1.327266,1.968788,1.315215,1.968803,1.315180,1.977050,1.275000,1.977050,0.575000,1.968803,0.534820,1.968788,0.534785,1.927266,0.487352,1.915215,0.481212,1.915180,0.481197,1.875000,0.472950,0.677050,0.472950,0.677050,-0.425000,0.668803,-0.465180,0.668788,-0.465215,0.627266,-0.512648,0.615215,-0.518788,0.615180,-0.518803,
0.575000,-0.527050,-0.425000,-0.527050,-0.465180,-0.518803,-0.465215,-0.518788,-0.512648,-0.477266,-0.518788,-0.465215,-0.518803,-0.465180,-0.527050,-0.425000,-0.527050,1.275000,-0.518803,1.315180,-0.518788,1.315215,-0.477266,1.362648,-0.465215,1.368788,-0.465180,1.368803,-0.425000,1.377050,1.875000,1.377050,1.915180,1.368803,1.915180,1.368803,$1*%
%AMFreePoly1*
4,1,37,0.465180,1.368803,0.465215,1.368788,0.512648,1.327266,0.518788,1.315215,0.518803,1.315180,0.527050,1.275000,0.527050,-0.425000,0.518803,-0.465180,0.518788,-0.465215,0.477266,-0.512648,0.465215,-0.518788,0.465180,-0.518803,0.425000,-0.527050,-0.575000,-0.527050,-0.615180,-0.518803,-0.615215,-0.518788,-0.662648,-0.477266,-0.668788,-0.465215,-0.668803,-0.465180,-0.677050,-0.425000,
-0.677050,0.472950,-1.875000,0.472950,-1.915180,0.481197,-1.915215,0.481212,-1.962648,0.522734,-1.968788,0.534785,-1.968803,0.534820,-1.977050,0.575000,-1.977050,1.275000,-1.968803,1.315180,-1.968788,1.315215,-1.927266,1.362648,-1.915215,1.368788,-1.915180,1.368803,-1.875000,1.377050,0.425000,1.377050,0.465180,1.368803,0.465180,1.368803,$1*%
%AMFreePoly2*
4,1,37,0.465180,0.518803,0.465215,0.518788,0.512648,0.477266,0.518788,0.465215,0.518803,0.465180,0.527050,0.425000,0.527050,-1.275000,0.518803,-1.315180,0.518788,-1.315215,0.477266,-1.362648,0.465215,-1.368788,0.465180,-1.368803,0.425000,-1.377050,-1.875000,-1.377050,-1.915180,-1.368803,-1.915215,-1.368788,-1.962648,-1.327266,-1.968788,-1.315215,-1.968803,-1.315180,-1.977050,-1.275000,
-1.977050,-0.575000,-1.968803,-0.534820,-1.968788,-0.534785,-1.927266,-0.487352,-1.915215,-0.481212,-1.915180,-0.481197,-1.875000,-0.472950,-0.677050,-0.472950,-0.677050,0.425000,-0.668803,0.465180,-0.668788,0.465215,-0.627266,0.512648,-0.615215,0.518788,-0.615180,0.518803,-0.575000,0.527050,0.425000,0.527050,0.465180,0.518803,0.465180,0.518803,$1*%
%AMFreePoly3*
4,1,37,0.615180,0.518803,0.615215,0.518788,0.662648,0.477266,0.668788,0.465215,0.668803,0.465180,0.677050,0.425000,0.677050,-0.472950,1.875000,-0.472950,1.915180,-0.481197,1.915215,-0.481212,1.962648,-0.522734,1.968788,-0.534785,1.968803,-0.534820,1.977050,-0.575000,1.977050,-1.275000,1.968803,-1.315180,1.968788,-1.315215,1.927266,-1.362648,1.915215,-1.368788,1.915180,-1.368803,
1.875000,-1.377050,-0.425000,-1.377050,-0.465180,-1.368803,-0.465215,-1.368788,-0.512648,-1.327266,-0.518788,-1.315215,-0.518803,-1.315180,-0.527050,-1.275000,-0.527050,0.425000,-0.518803,0.465180,-0.518788,0.465215,-0.477266,0.512648,-0.465215,0.518788,-0.465180,0.518803,-0.425000,0.527050,0.575000,0.527050,0.615180,0.518803,0.615180,0.518803,$1*%
G04 Aperture macros list end*
%ADD10C,0.010000*%
%ADD11C,0.000000*%
%ADD12C,0.000100*%
%ADD13RoundRect,0.135000X0.185000X-0.135000X0.185000X0.135000X-0.185000X0.135000X-0.185000X-0.135000X0*%
%ADD14RoundRect,0.135000X0.135000X0.185000X-0.135000X0.185000X-0.135000X-0.185000X0.135000X-0.185000X0*%
%ADD15RoundRect,0.250000X-0.450000X0.262500X-0.450000X-0.262500X0.450000X-0.262500X0.450000X0.262500X0*%
%ADD16RoundRect,0.135000X-0.185000X0.135000X-0.185000X-0.135000X0.185000X-0.135000X0.185000X0.135000X0*%
%ADD17C,4.000000*%
%ADD18RoundRect,0.135000X-0.135000X-0.185000X0.135000X-0.185000X0.135000X0.185000X-0.135000X0.185000X0*%
%ADD19RoundRect,0.140000X0.170000X-0.140000X0.170000X0.140000X-0.170000X0.140000X-0.170000X-0.140000X0*%
%ADD20O,2.004000X1.204000*%
%ADD21O,2.304000X1.204000*%
%ADD22C,0.650000*%
%ADD23C,2.800000*%
%ADD24RoundRect,0.250000X-0.300000X-0.300000X0.300000X-0.300000X0.300000X0.300000X-0.300000X0.300000X0*%
%ADD25RoundRect,0.150000X0.150000X-0.587500X0.150000X0.587500X-0.150000X0.587500X-0.150000X-0.587500X0*%
%ADD26R,0.340000X0.550000*%
%ADD27R,0.340000X0.900000*%
%ADD28R,0.340000X0.750000*%
%ADD29RoundRect,0.140000X-0.140000X-0.170000X0.140000X-0.170000X0.140000X0.170000X-0.140000X0.170000X0*%
%ADD30R,0.812800X0.203200*%
%ADD31R,0.203200X0.812800*%
%ADD32R,5.791200X5.791200*%
%ADD33RoundRect,0.200000X-0.275000X0.200000X-0.275000X-0.200000X0.275000X-0.200000X0.275000X0.200000X0*%
%ADD34RoundRect,0.218750X0.256250X-0.218750X0.256250X0.218750X-0.256250X0.218750X-0.256250X-0.218750X0*%
%ADD35RoundRect,0.225000X0.250000X-0.225000X0.250000X0.225000X-0.250000X0.225000X-0.250000X-0.225000X0*%
%ADD36RoundRect,0.140000X0.140000X0.170000X-0.140000X0.170000X-0.140000X-0.170000X0.140000X-0.170000X0*%
%ADD37RoundRect,0.200000X0.200000X0.275000X-0.200000X0.275000X-0.200000X-0.275000X0.200000X-0.275000X0*%
%ADD38RoundRect,0.125000X0.125000X0.125000X-0.125000X0.125000X-0.125000X-0.125000X0.125000X-0.125000X0*%
%ADD39RoundRect,0.140000X-0.170000X0.140000X-0.170000X-0.140000X0.170000X-0.140000X0.170000X0.140000X0*%
%ADD40R,3.000000X3.000000*%
%ADD41C,3.000000*%
%ADD42R,1.700000X1.700000*%
%ADD43O,1.700000X1.700000*%
%ADD44RoundRect,0.225000X0.225000X0.250000X-0.225000X0.250000X-0.225000X-0.250000X0.225000X-0.250000X0*%
%ADD45RoundRect,0.225000X-0.225000X-0.250000X0.225000X-0.250000X0.225000X0.250000X-0.225000X0.250000X0*%
%ADD46RoundRect,0.225000X-0.250000X0.225000X-0.250000X-0.225000X0.250000X-0.225000X0.250000X0.225000X0*%
%ADD47RoundRect,0.200000X0.275000X-0.200000X0.275000X0.200000X-0.275000X0.200000X-0.275000X-0.200000X0*%
%ADD48RoundRect,0.250000X0.325000X0.650000X-0.325000X0.650000X-0.325000X-0.650000X0.325000X-0.650000X0*%
%ADD49RoundRect,0.200000X-0.200000X-0.275000X0.200000X-0.275000X0.200000X0.275000X-0.200000X0.275000X0*%
%ADD50RoundRect,0.112500X0.112500X-0.187500X0.112500X0.187500X-0.112500X0.187500X-0.112500X-0.187500X0*%
%ADD51RoundRect,0.125000X-0.125000X0.125000X-0.125000X-0.125000X0.125000X-0.125000X0.125000X0.125000X0*%
%ADD52R,0.550000X0.340000*%
%ADD53R,0.900000X0.340000*%
%ADD54R,0.750000X0.340000*%
%ADD55FreePoly0,180.000000*%
%ADD56FreePoly1,180.000000*%
%ADD57FreePoly2,180.000000*%
%ADD58FreePoly3,180.000000*%
%ADD59R,1.100000X0.900000*%
%ADD60RoundRect,0.125000X0.125000X-0.125000X0.125000X0.125000X-0.125000X0.125000X-0.125000X-0.125000X0*%
%ADD61RoundRect,0.125000X-0.125000X-0.125000X0.125000X-0.125000X0.125000X0.125000X-0.125000X0.125000X0*%
%ADD62RoundRect,0.150000X-0.587500X-0.150000X0.587500X-0.150000X0.587500X0.150000X-0.587500X0.150000X0*%
%ADD63RoundRect,0.150000X-0.825000X-0.150000X0.825000X-0.150000X0.825000X0.150000X-0.825000X0.150000X0*%
%ADD64RoundRect,0.250000X0.625000X-0.312500X0.625000X0.312500X-0.625000X0.312500X-0.625000X-0.312500X0*%
%ADD65RoundRect,0.038750X-0.386250X-0.116250X0.386250X-0.116250X0.386250X0.116250X-0.386250X0.116250X0*%
%ADD66RoundRect,0.020000X-0.850000X-1.250000X0.850000X-1.250000X0.850000X1.250000X-0.850000X1.250000X0*%
%ADD67C,1.000000*%
%ADD68RoundRect,0.250000X-0.650000X1.000000X-0.650000X-1.000000X0.650000X-1.000000X0.650000X1.000000X0*%
%ADD69RoundRect,0.249999X-1.450001X-2.250001X1.450001X-2.250001X1.450001X2.250001X-1.450001X2.250001X0*%
%ADD70RoundRect,0.250000X0.312500X0.625000X-0.312500X0.625000X-0.312500X-0.625000X0.312500X-0.625000X0*%
G04 APERTURE END LIST*
D10*
%TO.C,J3*%
X110455000Y-67950000D02*
X109205000Y-67950000D01*
X109205000Y-67550000D01*
X110455000Y-67550000D01*
X110455000Y-67950000D01*
G36*
X110455000Y-67950000D02*
G01*
X109205000Y-67950000D01*
X109205000Y-67550000D01*
X110455000Y-67550000D01*
X110455000Y-67950000D01*
G37*
X110455000Y-67450000D02*
X109205000Y-67450000D01*
X109205000Y-67050000D01*
X110455000Y-67050000D01*
X110455000Y-67450000D01*
G36*
X110455000Y-67450000D02*
G01*
X109205000Y-67450000D01*
X109205000Y-67050000D01*
X110455000Y-67050000D01*
X110455000Y-67450000D01*
G37*
X110455000Y-66950000D02*
X109205000Y-66950000D01*
X109205000Y-66550000D01*
X110455000Y-66550000D01*
X110455000Y-66950000D01*
G36*
X110455000Y-66950000D02*
G01*
X109205000Y-66950000D01*
X109205000Y-66550000D01*
X110455000Y-66550000D01*
X110455000Y-66950000D01*
G37*
X110455000Y-66450000D02*
X109205000Y-66450000D01*
X109205000Y-66050000D01*
X110455000Y-66050000D01*
X110455000Y-66450000D01*
G36*
X110455000Y-66450000D02*
G01*
X109205000Y-66450000D01*
X109205000Y-66050000D01*
X110455000Y-66050000D01*
X110455000Y-66450000D01*
G37*
X110455000Y-68450000D02*
X109205000Y-68450000D01*
X109205000Y-68050000D01*
X110455000Y-68050000D01*
X110455000Y-68450000D01*
G36*
X110455000Y-68450000D02*
G01*
X109205000Y-68450000D01*
X109205000Y-68050000D01*
X110455000Y-68050000D01*
X110455000Y-68450000D01*
G37*
X110455000Y-68950000D02*
X109205000Y-68950000D01*
X109205000Y-68550000D01*
X110455000Y-68550000D01*
X110455000Y-68950000D01*
G36*
X110455000Y-68950000D02*
G01*
X109205000Y-68950000D01*
X109205000Y-68550000D01*
X110455000Y-68550000D01*
X110455000Y-68950000D01*
G37*
X110455000Y-69450000D02*
X109205000Y-69450000D01*
X109205000Y-69050000D01*
X110455000Y-69050000D01*
X110455000Y-69450000D01*
G36*
X110455000Y-69450000D02*
G01*
X109205000Y-69450000D01*
X109205000Y-69050000D01*
X110455000Y-69050000D01*
X110455000Y-69450000D01*
G37*
X110455000Y-69950000D02*
X109205000Y-69950000D01*
X109205000Y-69550000D01*
X110455000Y-69550000D01*
X110455000Y-69950000D01*
G36*
X110455000Y-69950000D02*
G01*
X109205000Y-69950000D01*
X109205000Y-69550000D01*
X110455000Y-69550000D01*
X110455000Y-69950000D01*
G37*
X110455000Y-70750000D02*
X109205000Y-70750000D01*
X109205000Y-70050000D01*
X110455000Y-70050000D01*
X110455000Y-70750000D01*
G36*
X110455000Y-70750000D02*
G01*
X109205000Y-70750000D01*
X109205000Y-70050000D01*
X110455000Y-70050000D01*
X110455000Y-70750000D01*
G37*
X110455000Y-65950000D02*
X109205000Y-65950000D01*
X109205000Y-65250000D01*
X110455000Y-65250000D01*
X110455000Y-65950000D01*
G36*
X110455000Y-65950000D02*
G01*
X109205000Y-65950000D01*
X109205000Y-65250000D01*
X110455000Y-65250000D01*
X110455000Y-65950000D01*
G37*
X110455000Y-65150000D02*
X109205000Y-65150000D01*
X109205000Y-64450000D01*
X110455000Y-64450000D01*
X110455000Y-65150000D01*
G36*
X110455000Y-65150000D02*
G01*
X109205000Y-65150000D01*
X109205000Y-64450000D01*
X110455000Y-64450000D01*
X110455000Y-65150000D01*
G37*
X110455000Y-71550000D02*
X109205000Y-71550000D01*
X109205000Y-70850000D01*
X110455000Y-70850000D01*
X110455000Y-71550000D01*
G36*
X110455000Y-71550000D02*
G01*
X109205000Y-71550000D01*
X109205000Y-70850000D01*
X110455000Y-70850000D01*
X110455000Y-71550000D01*
G37*
D11*
%TO.C,Q5*%
G36*
X140370000Y-57124750D02*
G01*
X138730000Y-57124750D01*
X138730000Y-56674750D01*
X140370000Y-56674750D01*
X140370000Y-57124750D01*
G37*
G36*
X140370000Y-59375250D02*
G01*
X138080000Y-59375250D01*
X138080000Y-57664750D01*
X140370000Y-57664750D01*
X140370000Y-59375250D01*
G37*
%TO.C,Q1*%
G36*
X140370000Y-52849750D02*
G01*
X138730000Y-52849750D01*
X138730000Y-52399750D01*
X140370000Y-52399750D01*
X140370000Y-52849750D01*
G37*
G36*
X140370000Y-55100250D02*
G01*
X138080000Y-55100250D01*
X138080000Y-53389750D01*
X140370000Y-53389750D01*
X140370000Y-55100250D01*
G37*
%TO.C,Q2*%
G36*
X148885000Y-79395000D02*
G01*
X147174500Y-79395000D01*
X147174500Y-77105000D01*
X148885000Y-77105000D01*
X148885000Y-79395000D01*
G37*
G36*
X149875000Y-79395000D02*
G01*
X149425000Y-79395000D01*
X149425000Y-77755000D01*
X149875000Y-77755000D01*
X149875000Y-79395000D01*
G37*
%TO.C,Q3*%
G36*
X148885000Y-72745000D02*
G01*
X147174500Y-72745000D01*
X147174500Y-70455000D01*
X148885000Y-70455000D01*
X148885000Y-72745000D01*
G37*
G36*
X149875000Y-72745000D02*
G01*
X149425000Y-72745000D01*
X149425000Y-71105000D01*
X149875000Y-71105000D01*
X149875000Y-72745000D01*
G37*
D12*
%TO.C,FL1*%
X122950000Y-55950000D02*
X121750000Y-55950000D01*
X121750000Y-54950000D01*
X120450000Y-54950000D01*
X120450000Y-54050000D01*
X122950000Y-54050000D01*
X122950000Y-55950000D01*
G36*
X122950000Y-55950000D02*
G01*
X121750000Y-55950000D01*
X121750000Y-54950000D01*
X120450000Y-54950000D01*
X120450000Y-54050000D01*
X122950000Y-54050000D01*
X122950000Y-55950000D01*
G37*
X122950000Y-58950000D02*
X120450000Y-58950000D01*
X120450000Y-58050000D01*
X121750000Y-58050000D01*
X121750000Y-57050000D01*
X122950000Y-57050000D01*
X122950000Y-58950000D01*
G36*
X122950000Y-58950000D02*
G01*
X120450000Y-58950000D01*
X120450000Y-58050000D01*
X121750000Y-58050000D01*
X121750000Y-57050000D01*
X122950000Y-57050000D01*
X122950000Y-58950000D01*
G37*
X126150000Y-54950000D02*
X124850000Y-54950000D01*
X124850000Y-55950000D01*
X123650000Y-55950000D01*
X123650000Y-54050000D01*
X126150000Y-54050000D01*
X126150000Y-54950000D01*
G36*
X126150000Y-54950000D02*
G01*
X124850000Y-54950000D01*
X124850000Y-55950000D01*
X123650000Y-55950000D01*
X123650000Y-54050000D01*
X126150000Y-54050000D01*
X126150000Y-54950000D01*
G37*
X124850000Y-58050000D02*
X126150000Y-58050000D01*
X126150000Y-58950000D01*
X123650000Y-58950000D01*
X123650000Y-57050000D01*
X124850000Y-57050000D01*
X124850000Y-58050000D01*
G36*
X124850000Y-58050000D02*
G01*
X126150000Y-58050000D01*
X126150000Y-58950000D01*
X123650000Y-58950000D01*
X123650000Y-57050000D01*
X124850000Y-57050000D01*
X124850000Y-58050000D01*
G37*
D11*
%TO.C,Q6*%
G36*
X153210250Y-79395000D02*
G01*
X151499750Y-79395000D01*
X151499750Y-77105000D01*
X153210250Y-77105000D01*
X153210250Y-79395000D01*
G37*
G36*
X154200250Y-79395000D02*
G01*
X153750250Y-79395000D01*
X153750250Y-77755000D01*
X154200250Y-77755000D01*
X154200250Y-79395000D01*
G37*
%TO.C,Q7*%
G36*
X153210250Y-72745000D02*
G01*
X151499750Y-72745000D01*
X151499750Y-70455000D01*
X153210250Y-70455000D01*
X153210250Y-72745000D01*
G37*
G36*
X154200250Y-72745000D02*
G01*
X153750250Y-72745000D01*
X153750250Y-71105000D01*
X154200250Y-71105000D01*
X154200250Y-72745000D01*
G37*
%TD*%
D13*
%TO.C,R3*%
X145600000Y-64460000D03*
X145600000Y-63440000D03*
%TD*%
D14*
%TO.C,R4*%
X145660000Y-65400000D03*
X144640000Y-65400000D03*
%TD*%
D15*
%TO.C,TH2*%
X161450000Y-67687500D03*
X161450000Y-69512500D03*
%TD*%
D16*
%TO.C,TH1*%
X159950000Y-67690000D03*
X159950000Y-68710000D03*
%TD*%
D17*
%TO.C,TP8*%
X105000000Y-89000000D03*
%TD*%
%TO.C,TP7*%
X160000000Y-89000000D03*
%TD*%
%TO.C,TP6*%
X105000000Y-53000000D03*
%TD*%
%TO.C,TP5*%
X160000000Y-53000000D03*
%TD*%
D13*
%TO.C,R18*%
X114900000Y-71860000D03*
X114900000Y-70840000D03*
%TD*%
D18*
%TO.C,R6*%
X121940000Y-80750000D03*
X122960000Y-80750000D03*
%TD*%
D19*
%TO.C,C32*%
X119200000Y-78080000D03*
X119200000Y-77120000D03*
%TD*%
%TO.C,C31*%
X117500000Y-78080000D03*
X117500000Y-77120000D03*
%TD*%
D20*
%TO.C,J3*%
X105075000Y-63680000D03*
X105075000Y-72320000D03*
D21*
X109255000Y-63680000D03*
X109255000Y-72320000D03*
D22*
X108755000Y-70890000D03*
X108755000Y-65110000D03*
%TD*%
D18*
%TO.C,R22*%
X116590000Y-76175000D03*
X117610000Y-76175000D03*
%TD*%
D14*
%TO.C,R9*%
X120160000Y-76150000D03*
X119140000Y-76150000D03*
%TD*%
D23*
%TO.C,TP4*%
X107000000Y-60800000D03*
%TD*%
%TO.C,TP3*%
X112400000Y-61700000D03*
%TD*%
D24*
%TO.C,D11*%
X139800000Y-80200000D03*
X142600000Y-80200000D03*
%TD*%
D25*
%TO.C,D15*%
X139650000Y-88337500D03*
X141550000Y-88337500D03*
X140600000Y-86462500D03*
%TD*%
D26*
%TO.C,Q5*%
X140200000Y-56449750D03*
X139550000Y-56449750D03*
X138900000Y-56449750D03*
D27*
X138250000Y-56674750D03*
D28*
X138250000Y-59700000D03*
X138900000Y-59700000D03*
X139550000Y-59700000D03*
X140200000Y-59700250D03*
%TD*%
D29*
%TO.C,C29*%
X123270000Y-77875000D03*
X124230000Y-77875000D03*
%TD*%
D16*
%TO.C,R2*%
X132400000Y-83290000D03*
X132400000Y-84310000D03*
%TD*%
D26*
%TO.C,Q1*%
X140200000Y-52174750D03*
X139550000Y-52174750D03*
X138900000Y-52174750D03*
D27*
X138250000Y-52399750D03*
D28*
X138250000Y-55425000D03*
X138900000Y-55425000D03*
X139550000Y-55425000D03*
X140200000Y-55425250D03*
%TD*%
D30*
%TO.C,U4*%
X120377200Y-67725001D03*
X120377200Y-68125001D03*
X120377200Y-68525000D03*
X120377200Y-68924999D03*
X120377200Y-69325001D03*
X120377200Y-69725000D03*
X120377200Y-70124999D03*
X120377200Y-70525001D03*
X120377200Y-70925000D03*
X120377200Y-71324999D03*
X120377200Y-71725001D03*
X120377200Y-72125000D03*
X120377200Y-72524999D03*
X120377200Y-72924999D03*
X120377200Y-73325000D03*
X120377200Y-73724999D03*
X120377200Y-74124999D03*
D31*
X121076101Y-74823900D03*
X121476101Y-74823900D03*
X121876100Y-74823900D03*
X122276101Y-74823900D03*
X122676101Y-74823900D03*
X123076100Y-74823900D03*
X123476099Y-74823900D03*
X123876101Y-74823900D03*
X124276100Y-74823900D03*
X124676099Y-74823900D03*
X125076101Y-74823900D03*
X125476100Y-74823900D03*
X125876099Y-74823900D03*
X126276099Y-74823900D03*
X126676100Y-74823900D03*
X127076099Y-74823900D03*
X127476099Y-74823900D03*
D30*
X128175000Y-74124999D03*
X128175000Y-73724999D03*
X128175000Y-73325000D03*
X128175000Y-72924999D03*
X128175000Y-72524999D03*
X128175000Y-72125000D03*
X128175000Y-71725001D03*
X128175000Y-71324999D03*
X128175000Y-70925000D03*
X128175000Y-70525001D03*
X128175000Y-70124999D03*
X128175000Y-69725000D03*
X128175000Y-69325001D03*
X128175000Y-68925001D03*
X128175000Y-68525000D03*
X128175000Y-68125001D03*
X128175000Y-67725001D03*
D31*
X127476099Y-67026100D03*
X127076099Y-67026100D03*
X126676100Y-67026100D03*
X126276099Y-67026100D03*
X125876099Y-67026100D03*
X125476100Y-67026100D03*
X125076101Y-67026100D03*
X124676099Y-67026100D03*
X124276100Y-67026100D03*
X123876101Y-67026100D03*
X123476099Y-67026100D03*
X123076100Y-67026100D03*
X122676101Y-67026100D03*
X122276101Y-67026100D03*
X121876100Y-67026100D03*
X121476101Y-67026100D03*
X121076101Y-67026100D03*
D32*
X124276100Y-70925000D03*
%TD*%
D33*
%TO.C,R32*%
X136550000Y-84250000D03*
X136550000Y-85900000D03*
%TD*%
D34*
%TO.C,D2*%
X131000000Y-87087500D03*
X131000000Y-85512500D03*
%TD*%
D29*
%TO.C,C23*%
X149020000Y-81200000D03*
X149980000Y-81200000D03*
%TD*%
D35*
%TO.C,C53*%
X136650000Y-81575000D03*
X136650000Y-80025000D03*
%TD*%
D36*
%TO.C,C61*%
X157080000Y-68725000D03*
X156120000Y-68725000D03*
%TD*%
D37*
%TO.C,R23*%
X137750000Y-71925000D03*
X136100000Y-71925000D03*
%TD*%
%TO.C,R11*%
X126025000Y-90600000D03*
X124375000Y-90600000D03*
%TD*%
D36*
%TO.C,C27*%
X120005000Y-65725000D03*
X119045000Y-65725000D03*
%TD*%
D14*
%TO.C,R10*%
X128160000Y-91150000D03*
X127140000Y-91150000D03*
%TD*%
D38*
%TO.C,D9*%
X120050000Y-64300000D03*
X117850000Y-64300000D03*
%TD*%
D39*
%TO.C,C6*%
X119800000Y-85220000D03*
X119800000Y-86180000D03*
%TD*%
D40*
%TO.C,L2*%
X159400000Y-78500000D03*
D41*
X159400000Y-73420000D03*
%TD*%
D29*
%TO.C,C40*%
X121720000Y-63700000D03*
X122680000Y-63700000D03*
%TD*%
D42*
%TO.C,J1*%
X111200000Y-86500000D03*
D43*
X111200000Y-83960000D03*
X111200000Y-81420000D03*
X111200000Y-78880000D03*
X111200000Y-76340000D03*
%TD*%
D35*
%TO.C,C37*%
X116825000Y-72050000D03*
X116825000Y-70500000D03*
%TD*%
D44*
%TO.C,C57*%
X158175000Y-59800000D03*
X156625000Y-59800000D03*
%TD*%
D13*
%TO.C,R35*%
X114300000Y-56110000D03*
X114300000Y-55090000D03*
%TD*%
D19*
%TO.C,C26*%
X130475000Y-66705000D03*
X130475000Y-65745000D03*
%TD*%
D39*
%TO.C,R17*%
X113600000Y-74820000D03*
X113600000Y-75780000D03*
%TD*%
D44*
%TO.C,C21*%
X149950000Y-75475000D03*
X148400000Y-75475000D03*
%TD*%
D45*
%TO.C,C36*%
X113575000Y-73100000D03*
X115125000Y-73100000D03*
%TD*%
D35*
%TO.C,C33*%
X118375000Y-74700000D03*
X118375000Y-73150000D03*
%TD*%
D46*
%TO.C,C39*%
X117000000Y-68150000D03*
X117000000Y-66600000D03*
%TD*%
D47*
%TO.C,R25*%
X140825000Y-74200000D03*
X140825000Y-72550000D03*
%TD*%
D48*
%TO.C,C19*%
X154300000Y-83312500D03*
X151350000Y-83312500D03*
%TD*%
D49*
%TO.C,R5*%
X117275000Y-87400000D03*
X118925000Y-87400000D03*
%TD*%
D19*
%TO.C,C24*%
X152400000Y-75380000D03*
X152400000Y-74420000D03*
%TD*%
D16*
%TO.C,R8*%
X118800000Y-85190000D03*
X118800000Y-86210000D03*
%TD*%
D50*
%TO.C,D3*%
X115250000Y-87000000D03*
X115250000Y-84900000D03*
%TD*%
D29*
%TO.C,C44*%
X125120000Y-63100000D03*
X126080000Y-63100000D03*
%TD*%
D19*
%TO.C,R14*%
X134100000Y-78880000D03*
X134100000Y-77920000D03*
%TD*%
%TO.C,C52*%
X136775000Y-78530000D03*
X136775000Y-77570000D03*
%TD*%
%TO.C,C59*%
X129525000Y-58780000D03*
X129525000Y-57820000D03*
%TD*%
D51*
%TO.C,D7*%
X135225000Y-65300000D03*
X135225000Y-67500000D03*
%TD*%
D52*
%TO.C,Q2*%
X150100000Y-79225000D03*
X150100000Y-78575000D03*
X150100000Y-77925000D03*
D53*
X149875000Y-77275000D03*
D54*
X146849750Y-77275000D03*
X146849750Y-77925000D03*
X146849750Y-78575000D03*
X146849500Y-79225000D03*
%TD*%
D52*
%TO.C,Q3*%
X150100000Y-72575000D03*
X150100000Y-71925000D03*
X150100000Y-71275000D03*
D53*
X149875000Y-70625000D03*
D54*
X146849750Y-70625000D03*
X146849750Y-71275000D03*
X146849750Y-71925000D03*
X146849500Y-72575000D03*
%TD*%
D49*
%TO.C,R20*%
X151575000Y-63500000D03*
X153225000Y-63500000D03*
%TD*%
D36*
%TO.C,C2*%
X144670000Y-66400000D03*
X145630000Y-66400000D03*
%TD*%
D45*
%TO.C,C41*%
X121425000Y-62500000D03*
X122975000Y-62500000D03*
%TD*%
D37*
%TO.C,R24*%
X137750000Y-74175000D03*
X136100000Y-74175000D03*
%TD*%
D46*
%TO.C,C10*%
X128700000Y-55025000D03*
X128700000Y-56575000D03*
%TD*%
D55*
%TO.C,FL1*%
X122425000Y-57575000D03*
D56*
X124175000Y-57575000D03*
D57*
X124175000Y-55425000D03*
D58*
X122425000Y-55425000D03*
%TD*%
D59*
%TO.C,Y2*%
X129850000Y-62050000D03*
X128150000Y-62050000D03*
X128150000Y-63350000D03*
X129850000Y-63350000D03*
%TD*%
D45*
%TO.C,C3*%
X117325000Y-89000000D03*
X118875000Y-89000000D03*
%TD*%
D48*
%TO.C,C18*%
X154300000Y-89500000D03*
X151350000Y-89500000D03*
%TD*%
D35*
%TO.C,C4*%
X124150000Y-83225000D03*
X124150000Y-81675000D03*
%TD*%
D60*
%TO.C,D10*%
X115250000Y-68800000D03*
X115250000Y-66600000D03*
%TD*%
D36*
%TO.C,C60*%
X149655000Y-74225000D03*
X148695000Y-74225000D03*
%TD*%
D60*
%TO.C,D5*%
X119400000Y-83900000D03*
X119400000Y-81700000D03*
%TD*%
D36*
%TO.C,C7*%
X128130000Y-90200000D03*
X127170000Y-90200000D03*
%TD*%
D37*
%TO.C,R27*%
X138225000Y-76000000D03*
X136575000Y-76000000D03*
%TD*%
D19*
%TO.C,C35*%
X113950000Y-71830000D03*
X113950000Y-70870000D03*
%TD*%
D61*
%TO.C,D6*%
X136725000Y-69925000D03*
X138925000Y-69925000D03*
%TD*%
D46*
%TO.C,C14*%
X156500000Y-55225000D03*
X156500000Y-56775000D03*
%TD*%
D52*
%TO.C,Q6*%
X154425250Y-79225000D03*
X154425250Y-78575000D03*
X154425250Y-77925000D03*
D53*
X154200250Y-77275000D03*
D54*
X151175000Y-77275000D03*
X151175000Y-77925000D03*
X151175000Y-78575000D03*
X151174750Y-79225000D03*
%TD*%
D36*
%TO.C,C8*%
X121980000Y-90400000D03*
X121020000Y-90400000D03*
%TD*%
D44*
%TO.C,C56*%
X133275000Y-65100000D03*
X131725000Y-65100000D03*
%TD*%
D19*
%TO.C,R15*%
X127500000Y-78880000D03*
X127500000Y-77920000D03*
%TD*%
D62*
%TO.C,Q9*%
X115862500Y-56250000D03*
X115862500Y-58150000D03*
X117737500Y-57200000D03*
%TD*%
D46*
%TO.C,C12*%
X130300000Y-55025000D03*
X130300000Y-56575000D03*
%TD*%
D49*
%TO.C,R19*%
X151575000Y-65000000D03*
X153225000Y-65000000D03*
%TD*%
D63*
%TO.C,U2*%
X121625000Y-85095000D03*
X121625000Y-86365000D03*
X121625000Y-87635000D03*
X121625000Y-88905000D03*
X126575000Y-88905000D03*
X126575000Y-87635000D03*
X126575000Y-86365000D03*
X126575000Y-85095000D03*
%TD*%
D37*
%TO.C,R7*%
X122725000Y-83500000D03*
X121075000Y-83500000D03*
%TD*%
D45*
%TO.C,C5*%
X121125000Y-82000000D03*
X122675000Y-82000000D03*
%TD*%
D19*
%TO.C,C48*%
X130300000Y-73780000D03*
X130300000Y-72820000D03*
%TD*%
D46*
%TO.C,C9*%
X119500000Y-55725000D03*
X119500000Y-57275000D03*
%TD*%
D39*
%TO.C,C45*%
X131000000Y-67745000D03*
X131000000Y-68705000D03*
%TD*%
D62*
%TO.C,Q8*%
X131862500Y-61650000D03*
X131862500Y-63550000D03*
X133737500Y-62600000D03*
%TD*%
D29*
%TO.C,C25*%
X136670000Y-68450000D03*
X137630000Y-68450000D03*
%TD*%
D19*
%TO.C,R16*%
X113600000Y-77780000D03*
X113600000Y-76820000D03*
%TD*%
D64*
%TO.C,R13*%
X155500000Y-65562500D03*
X155500000Y-62637500D03*
%TD*%
D46*
%TO.C,C13*%
X136500000Y-55225000D03*
X136500000Y-56775000D03*
%TD*%
D65*
%TO.C,U3*%
X129250000Y-77900000D03*
X129250000Y-78400000D03*
X129250000Y-78900000D03*
X129250000Y-79400000D03*
X129250000Y-79900000D03*
X132150000Y-79900000D03*
X132150000Y-79400000D03*
X132150000Y-78900000D03*
X132150000Y-78400000D03*
X132150000Y-77900000D03*
D66*
X130700000Y-78900000D03*
%TD*%
D16*
%TO.C,R1*%
X130700000Y-83290000D03*
X130700000Y-84310000D03*
%TD*%
D19*
%TO.C,C47*%
X131300000Y-73780000D03*
X131300000Y-72820000D03*
%TD*%
D37*
%TO.C,R30*%
X144675000Y-87175000D03*
X146325000Y-87175000D03*
%TD*%
D36*
%TO.C,C58*%
X157955000Y-61050000D03*
X156995000Y-61050000D03*
%TD*%
D34*
%TO.C,D1*%
X132600000Y-87087500D03*
X132600000Y-85512500D03*
%TD*%
D29*
%TO.C,C28*%
X131420000Y-76600000D03*
X132380000Y-76600000D03*
%TD*%
D45*
%TO.C,C43*%
X124425000Y-61900000D03*
X125975000Y-61900000D03*
%TD*%
D35*
%TO.C,C49*%
X133600000Y-73875000D03*
X133600000Y-72325000D03*
%TD*%
D29*
%TO.C,C55*%
X129220000Y-64600000D03*
X130180000Y-64600000D03*
%TD*%
D67*
%TO.C,TP1*%
X140175000Y-63700000D03*
%TD*%
D68*
%TO.C,D8*%
X111900000Y-54100000D03*
X111900000Y-58100000D03*
%TD*%
D39*
%TO.C,C50*%
X134900000Y-73520000D03*
X134900000Y-74480000D03*
%TD*%
D44*
%TO.C,C22*%
X157275000Y-67475000D03*
X155725000Y-67475000D03*
%TD*%
D33*
%TO.C,R28*%
X138200000Y-79975000D03*
X138200000Y-81625000D03*
%TD*%
D48*
%TO.C,C20*%
X154300000Y-81250000D03*
X151350000Y-81250000D03*
%TD*%
D45*
%TO.C,C54*%
X147750000Y-87175000D03*
X149300000Y-87175000D03*
%TD*%
D51*
%TO.C,D4*%
X117400000Y-81700000D03*
X117400000Y-83900000D03*
%TD*%
D19*
%TO.C,C34*%
X117000000Y-74180000D03*
X117000000Y-73220000D03*
%TD*%
D46*
%TO.C,C11*%
X127100000Y-55025000D03*
X127100000Y-56575000D03*
%TD*%
D47*
%TO.C,R31*%
X138100000Y-85900000D03*
X138100000Y-84250000D03*
%TD*%
D46*
%TO.C,C46*%
X132200000Y-67025000D03*
X132200000Y-68575000D03*
%TD*%
D49*
%TO.C,R29*%
X147675000Y-85600000D03*
X149325000Y-85600000D03*
%TD*%
D16*
%TO.C,R21*%
X113650000Y-68690000D03*
X113650000Y-69710000D03*
%TD*%
D45*
%TO.C,C30*%
X122475000Y-79150000D03*
X124025000Y-79150000D03*
%TD*%
D48*
%TO.C,C17*%
X154300000Y-85375000D03*
X151350000Y-85375000D03*
%TD*%
D39*
%TO.C,C42*%
X124200000Y-63120000D03*
X124200000Y-64080000D03*
%TD*%
D19*
%TO.C,C51*%
X134900000Y-72580000D03*
X134900000Y-71620000D03*
%TD*%
%TO.C,C1*%
X113625000Y-86255000D03*
X113625000Y-85295000D03*
%TD*%
D48*
%TO.C,C16*%
X154300000Y-87437500D03*
X151350000Y-87437500D03*
%TD*%
D39*
%TO.C,C38*%
X118300000Y-67620000D03*
X118300000Y-68580000D03*
%TD*%
D67*
%TO.C,TP2*%
X141000000Y-70850000D03*
%TD*%
D69*
%TO.C,L1*%
X143250000Y-57000000D03*
X152150000Y-57000000D03*
%TD*%
D46*
%TO.C,C15*%
X154900000Y-55225000D03*
X154900000Y-56775000D03*
%TD*%
D52*
%TO.C,Q7*%
X154425250Y-72575000D03*
X154425250Y-71925000D03*
X154425250Y-71275000D03*
D53*
X154200250Y-70625000D03*
D54*
X151175000Y-70625000D03*
X151175000Y-71275000D03*
X151175000Y-71925000D03*
X151174750Y-72575000D03*
%TD*%
D70*
%TO.C,R12*%
X134862500Y-56900000D03*
X131937500Y-56900000D03*
%TD*%
D33*
%TO.C,R26*%
X139200000Y-72550000D03*
X139200000Y-74200000D03*
%TD*%
M02*
