M48
; DRILL file {KiCad 8.0.8} date 2025-05-28T16:15:02+0700
; FORMAT={-:-/ absolute / inch / decimal}
; #@! TF.CreationDate,2025-05-28T16:15:02+07:00
; #@! TF.GenerationSoftware,Kicad,Pcbnew,8.0.8
; #@! TF.FileFunction,MixedPlating,1,2
FMAT,2
INCH
; #@! TA.AperFunction,Plated,PTH,ViaDrill
T1C0.0118
; #@! TA.AperFunction,Plated,PTH,ComponentDrill
T2C0.0236
; #@! TA.AperFunction,Plated,PTH,ComponentDrill
T3C0.0394
; #@! TA.AperFunction,Plated,PTH,ComponentDrill
T4C0.0551
; #@! TA.AperFunction,Plated,PTH,ComponentDrill
T5C0.0598
; #@! TA.AperFunction,Plated,PTH,ComponentDrill
T6C0.1181
; #@! TA.AperFunction,NonPlated,NPTH,ComponentDrill
T7C0.0256
%
G90
G05
T1
X4.2856Y-3.1732
X4.3189Y-3.1614
X4.3622Y-2.7067
X4.3622Y-2.747
X4.3632Y-2.6547
X4.3642Y-2.6181
X4.4508Y-3.2382
X4.4587Y-3.1181
X4.5Y-3.5039
X4.502Y-2.7047
X4.5039Y-2.9449
X4.5236Y-2.7441
X4.5305Y-3.1967
X4.5354Y-3.5039
X4.5541Y-3.0531
X4.563Y-2.7835
X4.5659Y-2.8258
X4.5681Y-3.1713
X4.5709Y-2.9567
X4.5817Y-2.5738
X4.5866Y-2.4606
X4.5866Y-2.8819
X4.6063Y-2.9567
X4.6132Y-2.5738
X4.6181Y-2.4606
X4.6181Y-3.2589
X4.6378Y-3.1063
X4.6565Y-3.0354
X4.6673Y-2.3563
X4.6732Y-3.1063
X4.6774Y-2.7354
X4.6818Y-2.7705
X4.689Y-2.688
X4.6959Y-3.2608
X4.6988Y-2.3563
X4.7106Y-2.4862
X4.7242Y-2.4168
X4.7283Y-2.6339
X4.7303Y-2.3563
X4.7343Y-3.0463
X4.7343Y-3.0876
X4.7421Y-2.4469
X4.7441Y-2.4862
X4.75Y-2.6083
X4.7648Y-2.56
X4.7933Y-2.5492
X4.7992Y-2.6998
X4.7992Y-2.7313
X4.7992Y-2.8504
X4.7992Y-2.8819
X4.814Y-3.0807
X4.8248Y-3.0443
X4.8317Y-2.3652
X4.8346Y-3.3543
X4.8425Y-3.5472
X4.8425Y-3.5827
X4.8533Y-3.0276
X4.876Y-2.3652
X4.8819Y-2.4055
X4.8898Y-2.0846
X4.8909Y-3.0874
X4.8976Y-3.315
X4.8976Y-3.3465
X4.9232Y-2.3652
X4.927Y-2.0846
X4.9643Y-2.0846
X4.9649Y-2.5791
X4.9685Y-3.3031
X4.9803Y-3.126
X4.9843Y-2.7835
X4.9843Y-2.815
X4.9843Y-2.8504
X4.9843Y-2.8819
X4.9931Y-3.0659
X5.0Y-2.5312
X5.0Y-2.5748
X5.0015Y-2.0846
X5.0039Y-3.3031
X5.0048Y-3.0297
X5.0201Y-2.553
X5.0388Y-2.0846
X5.0396Y-3.0233
X5.0551Y-2.5512
X5.0551Y-2.9961
X5.0551Y-3.4002
X5.0551Y-3.4843
X5.0709Y-2.9488
X5.0758Y-2.3927
X5.076Y-2.0846
X5.0866Y-2.9705
X5.0981Y-2.6621
X5.0984Y-2.878
X5.1073Y-2.6142
X5.1133Y-2.0846
X5.1142Y-3.0354
X5.1191Y-2.3927
X5.1299Y-3.189
X5.1457Y-3.0354
X5.1505Y-2.0846
X5.1614Y-3.189
X5.1693Y-3.4803
X5.1878Y-2.0846
X5.1952Y-2.8757
X5.2008Y-2.9331
X5.2031Y-2.1732
X5.2047Y-3.4803
X5.2165Y-2.9016
X5.2244Y-2.3356
X5.225Y-2.0846
X5.2382Y-2.6417
X5.2403Y-2.1732
X5.248Y-3.0709
X5.2559Y-2.9724
X5.2623Y-2.0846
X5.2638Y-2.3171
X5.2677Y-2.6417
X5.2736Y-2.6929
X5.2776Y-2.1732
X5.2795Y-3.1378
X5.2815Y-2.7365
X5.2953Y-2.3307
X5.2995Y-2.0846
X5.3148Y-2.1732
X5.3228Y-3.3179
X5.3297Y-2.6918
X5.3307Y-2.874
X5.3346Y-3.0079
X5.3368Y-2.0846
X5.3445Y-2.7411
X5.3622Y-3.4213
X5.3622Y-3.4646
X5.374Y-2.0846
X5.3788Y-2.4647
X5.4019Y-2.0157
X5.4144Y-2.0906
X5.4173Y-2.2913
X5.4173Y-2.3238
X5.4173Y-2.3563
X5.4193Y-2.2323
X5.4252Y-3.252
X5.4391Y-2.0157
X5.4616Y-2.6181
X5.4646Y-3.252
X5.4764Y-2.0157
X5.4764Y-2.5
X5.4882Y-3.0925
X5.5Y-2.6378
X5.5118Y-2.9724
X5.5394Y-2.126
X5.5394Y-2.1594
X5.5394Y-2.1929
X5.5394Y-2.2264
X5.5413Y-2.2874
X5.5413Y-2.3199
X5.5413Y-2.3524
X5.5433Y-3.2047
X5.5472Y-3.563
X5.5906Y-3.0669
X5.5945Y-3.0197
X5.5945Y-3.563
X5.5984Y-2.4783
X5.6496Y-3.563
X5.6614Y-2.5333
X5.689Y-3.0433
X5.689Y-3.0748
X5.689Y-3.1063
X5.7638Y-2.7559
X5.7638Y-3.0157
X5.7638Y-3.1417
X5.7677Y-2.8819
X5.7677Y-2.9134
X5.7953Y-2.7559
X5.7953Y-3.0157
X5.7953Y-3.1417
X5.7992Y-2.8819
X5.7992Y-2.9134
X5.813Y-3.5315
X5.814Y-3.2303
X5.814Y-3.2648
X5.815Y-3.1969
X5.8268Y-2.7559
X5.8268Y-3.0157
X5.8268Y-3.1417
X5.8307Y-2.8819
X5.8307Y-2.9134
X5.8465Y-3.5315
X5.8553Y-3.2313
X5.8553Y-3.2648
X5.8583Y-3.0157
X5.8583Y-3.1417
X5.8662Y-2.6166
X5.9016Y-2.5591
X5.9016Y-3.0218
X5.9035Y-2.6122
X5.9055Y-2.5
X5.9055Y-2.7598
X5.9055Y-3.1575
X5.9291Y-2.811
X5.9291Y-2.8504
X5.9291Y-3.0709
X5.9291Y-3.1024
X5.9291Y-3.1339
X5.937Y-2.9016
X5.937Y-2.9331
X5.937Y-2.9646
X5.939Y-2.6122
X5.9528Y-2.7598
X5.9685Y-3.1339
X5.9744Y-2.6122
X5.9803Y-2.878
X5.9803Y-2.9055
X6.0Y-3.1339
X6.0Y-3.1654
X6.0Y-3.1969
X6.0Y-3.2283
X6.0Y-3.2598
X6.0Y-3.2913
X6.0Y-3.3228
X6.0Y-3.3543
X6.0Y-3.3858
X6.0Y-3.4173
X6.0Y-3.4488
X6.0Y-3.4803
X6.0098Y-2.6122
X6.0157Y-2.878
X6.0157Y-2.9055
X6.0472Y-2.9803
X6.0669Y-2.7598
X6.0689Y-3.0197
X6.0787Y-2.9803
X6.0906Y-2.0669
X6.0906Y-2.1063
X6.1102Y-2.9803
X6.1102Y-3.0394
X6.1102Y-3.0787
X6.1102Y-3.1181
X6.122Y-2.0669
X6.122Y-2.1063
X6.125Y-2.2707
X6.1299Y-2.7795
X6.1299Y-2.811
X6.1299Y-2.8425
X6.1417Y-3.0394
X6.1417Y-3.0787
X6.1417Y-3.1181
X6.1496Y-2.1063
X6.1535Y-2.0669
X6.1693Y-2.7795
X6.1693Y-2.811
X6.1693Y-2.8425
X6.1732Y-3.0394
X6.1732Y-3.0787
X6.1732Y-3.1181
X6.1811Y-2.1063
X6.185Y-2.0669
X6.2618Y-2.6673
X6.2638Y-2.5079
X6.2638Y-2.5394
X6.2638Y-2.5669
X6.2638Y-2.5984
X6.2638Y-2.6299
X6.2904Y-2.251
X6.2904Y-2.2825
X6.2904Y-2.31
X6.2904Y-2.3415
X6.2904Y-2.373
X6.2904Y-2.4045
X6.2904Y-2.436
X6.3031Y-2.5079
X6.3031Y-2.5394
X6.3031Y-2.5709
X6.3031Y-2.6024
X6.3297Y-2.251
X6.3297Y-2.2825
X6.3297Y-2.314
X6.3297Y-2.3455
X6.3297Y-2.377
X6.3297Y-2.4045
X6.3297Y-2.436
T3
X4.378Y-3.0055
X4.378Y-3.1055
X4.378Y-3.2055
X4.378Y-3.3055
X4.378Y-3.4055
T4
X4.2126Y-2.3937
X4.4252Y-2.4291
T5
X6.2756Y-2.8906
X6.2756Y-3.0906
T6
X4.1339Y-2.0866
X4.1339Y-3.5039
X6.2992Y-2.0866
X6.2992Y-3.5039
T7
X4.2817Y-2.5634
X4.2817Y-2.7909
T2
G00X4.1526Y-2.5071
M15
G01X4.1211Y-2.5071
M16
G05
G00X4.1526Y-2.8472
M15
G01X4.1211Y-2.8472
M16
G05
G00X4.323Y-2.5071
M15
G01X4.2797Y-2.5071
M16
G05
G00X4.323Y-2.8472
M15
G01X4.2797Y-2.8472
M16
G05
M30
